<?xml version="1.0" encoding="UTF-8" standalone="no"?>
<svg width="500px" height="500px" viewBox="0 0 500 500" version="1.1" xmlns="http://www.w3.org/2000/svg" xmlns:xlink="http://www.w3.org/1999/xlink">
    <!-- Generator: Sketch 39.1 (31720) - http://www.bohemiancoding.com/sketch -->
    <title>AFC_alt</title>
    <desc>Created with Sketch.</desc>
    <defs></defs>
    <g id="NFL" stroke="none" stroke-width="1" fill="none" fill-rule="evenodd">
        <g id="AFC_alt">
            <g id="AFC" transform="translate(0.000000, 71.000000)">
                <g>
                    <polygon id="Fill-1" fill="#FEFEFE" points="210.866865 195.297024 254.618849 195.297024 231.442262 126.183929"></polygon>
                    <path d="M69.7357143,0 L69.7357143,102.537698 L103.886508,111.224206 L37.9956349,257.206349 L-0.000396825397,266.490079 L-0.000396825397,357.142857 L498.330952,357.142857 L498.330952,266.361111 L459.011508,257.130952 L393.993651,111.297619 L428.606746,102.599206 L428.606746,0 L69.7357143,0 Z M17.5234127,280.246032 L50.4519841,272.204365 L128.453968,99.390873 L87.2575397,88.9166667 L87.2575397,17.5218254 L411.082937,17.5218254 L411.082937,88.9365079 L369.499603,99.390873 L446.547222,272.204365 L480.811111,280.246032 L480.811111,339.623016 L249.16627,339.623016 L249.16627,280.246032 L275.086905,272.293651 L266.715873,246.936508 L196.741667,246.936508 L187.743651,272.244048 L215.84881,280.246032 L215.84881,339.623016 L17.5234127,339.623016 L17.5234127,280.246032 Z" id="Fill-2" fill="#FEFEFE"></path>
                    <path d="M396.886508,321.070238 L374.414286,304.016667 L352.001587,320.252778 L360.696032,294.53254 L339.533333,277.540476 L365.838889,277.540476 L374.414286,252.996825 L382.989683,277.540476 L410.330952,277.540476 L388.582937,294.79246 L396.886508,321.070238 Z M305.170238,207.215079 L331.438095,207.215079 L340.063095,182.655556 L348.586905,207.215079 L375.959921,207.215079 L354.188095,224.478968 L362.521429,250.746825 L340.063095,233.711111 L317.590873,249.955159 L326.325,224.209127 L305.170238,207.215079 Z M271.668254,134.992857 L297.977778,134.992857 L306.563095,110.439286 L315.114683,134.992857 L342.469841,134.992857 L320.688095,152.270635 L328.989683,178.530556 L306.563095,161.480952 L284.104762,177.66746 L292.809127,151.969048 L271.668254,134.992857 Z M247.586905,106.413492 L256.293254,80.7428571 L235.225794,63.756746 L261.471825,63.756746 L270.078968,39.1714286 L278.614683,63.756746 L305.995635,63.756746 L284.194048,80.9948413 L292.513492,107.284524 L270.078968,90.2329365 L247.586905,106.413492 Z M210.866667,195.296429 L231.442063,126.183333 L254.618651,195.296429 L210.866667,195.296429 Z M369.499603,99.3916667 L411.082937,88.9353175 L411.082937,17.5206349 L87.2575397,17.5206349 L87.2575397,88.9154762 L128.453968,99.3916667 L50.45,272.203175 L17.5234127,280.246825 L17.5234127,339.62381 L215.846825,339.62381 L215.846825,280.246825 L187.743651,272.244841 L196.741667,246.937302 L266.717857,246.937302 L275.086905,272.29246 L249.16627,280.246825 L249.16627,339.62381 L480.811111,339.62381 L480.811111,280.246825 L446.545238,272.203175 L369.499603,99.3916667 Z" id="Fill-3" fill="#CF202C"></path>
                    <polygon id="Fill-4" fill="#FEFEFE" points="284.194246 80.9956349 305.995833 63.7575397 278.614881 63.7575397 270.079167 39.1702381 261.472024 63.7575397 235.225992 63.7575397 256.293452 80.7436508 247.587103 106.414286 270.079167 90.2337302 292.51369 107.283333"></polygon>
                    <polygon id="Fill-5" fill="#FEFEFE" points="306.562103 161.481548 328.990675 178.531151 320.687103 152.269246 342.470833 134.991468 315.115675 134.991468 306.562103 110.439881 297.97877 134.991468 271.667262 134.991468 292.808135 151.969643 284.105754 177.668056"></polygon>
                    <polygon id="Fill-6" fill="#FEFEFE" points="340.06369 233.710516 362.52004 250.74623 354.18869 224.480357 375.960516 207.214484 348.5875 207.214484 340.06369 182.65496 331.436706 207.214484 305.170833 207.214484 326.325595 224.208532 317.591468 249.956548"></polygon>
                    <polygon id="Fill-7" fill="#FEFEFE" points="382.989881 277.539484 374.414484 252.997817 365.839087 277.539484 339.533532 277.539484 360.69623 294.531548 352.001786 320.251786 374.414484 304.017659 396.886706 321.069246 388.583135 294.791468 410.331151 277.539484"></polygon>
                </g>
            </g>
        </g>
    </g>
</svg>