<?xml version="1.0" encoding="UTF-8" standalone="no"?>
<svg width="500px" height="500px" viewBox="0 0 500 500" version="1.1" xmlns="http://www.w3.org/2000/svg" xmlns:xlink="http://www.w3.org/1999/xlink">
    <!-- Generator: Sketch 39.1 (31720) - http://www.bohemiancoding.com/sketch -->
    <title>ARI</title>
    <desc>Created with Sketch.</desc>
    <defs></defs>
    <g id="100x100-NFL" stroke="none" stroke-width="1" fill="none" fill-rule="evenodd">
        <g id="ARI">
            <g transform="translate(0.000000, 14.000000)">
                <g id="Group-3" transform="translate(0.000000, 0.432323)" fill="#FFFFFF">
                    <path d="M498.224242,380.99798 C461.082828,373.189899 387.385859,380.79596 345.365657,469.694949 C345.365657,469.694949 273.49697,383.917172 173.628283,368.846465 C177.557576,321.119192 114.315152,308.432323 102.214141,226.321212 C102.214141,226.321212 53.0828283,186.109091 28.5171717,122.755556 L41.5979798,126.957576 C41.5979798,126.957576 22.4868687,105.806061 7.81010101,69.3515152 L21.6282828,73.9171717 C21.6282828,73.9171717 7.64848485,54.9575758 0.00202020202,0.573737374 C169.49697,117.139394 258.789899,76.4626263 361.880808,134.79596 C431.850505,174.412121 448.517172,220.432323 454.375758,266.351515 C454.375758,266.351515 506.173737,313.270707 498.224242,380.99798" id="Fill-1"></path>
                </g>
                <path d="M490.151515,371.507071 C491.262626,313.860606 445.979798,272.90101 445.979798,272.90101 C441.090909,236.466667 427.848485,183.759596 357.282828,144.840404 C250.131313,85.779798 190.848485,134.022222 21.9191919,30.5575758 C25.4444444,49.9010101 36.5757576,76.6686869 50.7575758,93.2848485 L33.2828283,87.5676768 C45.989899,114.315152 66.3232323,138.59798 76.969697,146.476768 L57.3939394,140.325253 C78.1313131,191.214141 118.646465,221.355556 118.646465,221.355556 C127.878788,299.264646 185.030303,312.537374 189.646465,360.456566 C264.10101,372.00202 342.79798,451.719192 342.79798,451.719192 C384,380.90101 441.454545,367.163636 490.151515,371.507071" id="Fill-4" fill="#000000"></path>
                <path d="M394.792929,271.226263 C378.60101,297.286869 351.237374,290.024242 341.479798,257.539394 L361.217172,258.741414 C343.90404,248.377778 328.186869,233.145455 316.035354,218.135354 C312.469697,289.933333 380.015152,322.145455 402.358586,271.741414 C399.833333,271.721212 397.308081,271.539394 394.792929,271.226263" id="Fill-6" fill="#FFFFFF"></path>
                <path d="M348.323232,154.606061 C270.69697,112.060606 175.828283,139.686869 54.6060606,64.5858586 C66.6161616,100.474747 141.646465,142.505051 141.646465,142.505051 L75.2525253,120.919192 C92.1616162,150.262626 161.373737,187.030303 161.373737,187.030303 L99.4545455,167.020202 C125.10101,209.616162 183.282828,238.363636 183.282828,238.363636 L147.525253,235.777778 C152.151515,275.828283 207.484848,310.313131 210.424242,341.222222 C235.454545,350.787879 267.69697,367.464646 292.848485,389.080808 C340.909091,365.454545 327.656566,285.515152 236.020202,172.121212 C362.060606,179.737374 358.585859,273.181818 430.929293,259.747475 C425.626263,234.646465 422.20202,195.131313 348.323232,154.606061" id="Fill-8" fill="#97233F"></path>
                <path d="M481.09596,356.631313 C477.055556,326.974747 450.439394,292.39899 431.318182,280.29798 C422.368687,298.631313 400.510101,310.409091 381.29798,315.732323 C426.378788,321.136364 463.459596,339.075758 481.09596,356.631313" id="Fill-10" fill="#FFB612"></path>
                <path d="M394.792929,271.226263 C378.60101,297.286869 351.237374,290.024242 341.479798,257.539394 L361.217172,258.741414 C343.90404,248.377778 328.186869,233.145455 316.035354,218.135354 C312.469697,289.933333 380.015152,322.145455 402.358586,271.741414 C399.833333,271.721212 397.308081,271.539394 394.792929,271.226263" id="Fill-12" fill="#FFFFFF"></path>
                <path d="M384.613131,381.134343 C413.926263,364.679798 451.70404,356.710101 479.279798,362.275758 C461.633333,347.336364 418.047475,329.013131 378.532323,332.881818 C378.532323,332.881818 392.037374,355.841414 384.613131,381.134343" id="Fill-14" fill="#FFB612"></path>
            </g>
        </g>
    </g>
</svg>