<?xml version="1.0" encoding="UTF-8" standalone="no"?>
<svg width="500px" height="500px" viewBox="0 0 500 500" version="1.1" xmlns="http://www.w3.org/2000/svg" xmlns:xlink="http://www.w3.org/1999/xlink">
    <!-- Generator: Sketch 39.1 (31720) - http://www.bohemiancoding.com/sketch -->
    <title>ATL</title>
    <desc>Created with Sketch.</desc>
    <defs></defs>
    <g id="100x100-NFL" stroke="none" stroke-width="1" fill="none" fill-rule="evenodd">
        <g id="ATL">
            <g transform="translate(0.000000, 4.000000)">
                <path d="M463.002544,95.6040196 C361.10876,38.4540561 108.80751,0.368414438 108.80751,0.368414438 L0.728572448,116.130417 L112.785217,116.130417 C30.0489262,225.449253 48.3750432,446.12953 170.049853,491.998575 C161.420739,471.479344 157.048845,447.670443 172.594151,417.361038 C190.153395,383.188599 218.090511,325.744787 258.111253,249.064644 L290.771446,249.064644 C317.877185,249.064644 326.542135,260.517571 322.858277,269.368864 C345.154933,269.368864 385.906713,267.17575 415.477913,231.290389 C390.844802,196.874271 309.384245,156.746024 309.384245,156.746024 L449.127158,156.746024 C469.660723,156.746024 479.916755,164.049236 477.085774,176.419544 C512.777625,158.989307 503.496311,118.316364 463.002544,95.6040196" id="Fill-4" fill="#FFFFFF"></path>
                <path d="M297.615251,160.506569 L300.188218,168.139464 C294.110569,180.029581 272.32994,223.196653 264.783049,238.297602 L321.30948,238.297602 C322.076353,248.309955 332.017035,256.802895 342.33757,259.060513 C336.224087,250.890089 338.646546,242.777001 343.211949,238.297602 L369.909167,238.297602 C377.327051,238.297602 375.040766,247.199064 362.971474,256.466045 C381.85662,252.158655 395.961351,243.558209 405.185329,231.288239 C387.676255,204.56952 297.615251,160.506569 297.615251,160.506569" id="Fill-6" fill="#000000"></path>
                <path d="M458.768258,103.282068 C373.079148,56.2734635 101.677741,16.5035678 101.677741,16.5035678 L111.518084,29.0243838 L48.5986548,96.7600629 L269.880963,113.68144 C269.472442,114.484149 269.056754,115.301191 268.648232,116.132568 L120.018192,116.132568 L131.535622,126.990631 C122.132468,140.213816 114.134053,154.497724 107.425705,169.448166 L231.694983,144.048182 C231.028448,145.0444 230.354747,146.047785 229.695379,147.058338 L81.6387015,196.403397 L94.646876,203.771112 C88.5405594,224.089666 84.5771872,245.139257 82.670755,266.196016 L208.466612,189.845557 C208.093926,190.99945 207.735574,192.153343 207.391556,193.314403 L68.6591951,302.769412 L81.4523585,305.980246 C82.1762293,329.717476 85.5089021,352.859843 91.2927021,374.33229 L204.209391,241.21172 C204.402901,242.272442 204.610745,243.333164 204.84009,244.393885 L92.9984572,408.511896 L103.526836,409.2286 C116.484842,438.398446 134.90413,462.329187 158.369014,477.193624 C149.309877,457.061413 152.198194,432.886993 162.697905,411.35721 C171.807211,392.72291 290.38586,156.612 290.38586,156.612 L270.576166,146.004783 L454.81922,146.004783 C473.690032,146.004783 484.146741,153.924361 483.938896,164.567412 C495.599668,154.727069 498.201303,124.919356 458.768258,103.282068" id="Fill-8" fill="#000000"></path>
                <path d="M468.503963,120.268665 L470.869085,130.732541 C454.743249,133.764198 426.218437,136.17949 418.155519,136.831691 C417.754164,137.627232 417.345643,138.437107 416.937122,139.261317 L459.401824,139.261317 C476.251531,139.261317 483.346899,147.252565 484.84481,151.846636 C487.052258,145.561144 485.023986,128.697102 468.503963,120.268665 M421.27318,99.5845927 C430.697836,102.723756 451.890768,114.549369 459.910684,123.802015 L444.680727,123.802015 C438.674749,113.925836 421.27318,99.5845927 421.27318,99.5845927" id="Fill-10" fill="#FFFFFF"></path>
                <path d="M102.711944,230.360824 L193.224471,180.936928 C193.71183,179.711364 194.227857,178.478634 194.75105,177.25307 L107.642867,208.551527 C105.707766,215.732899 104.066514,223.021777 102.711944,230.360824 L102.711944,230.360824 Z M143.18421,132.337241 C139.199336,137.805691 135.48681,143.49632 132.039465,149.373291 L220.573889,133.555638 C221.355097,132.537918 222.136304,131.527366 222.924678,130.52398 L143.18421,132.337241 Z M199.352289,295.150851 C198.764592,294.097296 198.191229,293.029407 197.6322,291.968686 L124.134222,402.792599 C127.990088,410.095811 132.254476,416.925999 136.898717,423.197157 L199.352289,295.150851 Z M101.178198,330.319508 L182.882435,239.169114 C182.825099,237.87188 182.774929,236.574646 182.746261,235.277413 L98.5335609,306.861791 C99.0997569,314.795703 99.9956367,322.636443 101.178198,330.319508 L101.178198,330.319508 Z M355.600891,225.981764 L291.455898,216.406601 L284.955395,229.006254 L354.088646,229.006254 C354.604673,227.981368 355.106366,226.970815 355.600891,225.981764 L355.600891,225.981764 Z M399.914689,111.294817 L106.23096,70.6577094 L124.198725,51.1992003 C223.118188,66.4864931 341.431657,90.6537463 401.491438,108.148487 C400.982578,109.173373 400.44505,110.226928 399.914689,111.294817 L399.914689,111.294817 Z" id="Fill-12" fill="#A71930"></path>
            </g>
        </g>
    </g>
</svg>