<?xml version="1.0" encoding="UTF-8" standalone="no"?>
<svg width="500px" height="500px" viewBox="0 0 500 500" version="1.1" xmlns="http://www.w3.org/2000/svg" xmlns:xlink="http://www.w3.org/1999/xlink">
    <!-- Generator: Sketch 39.1 (31720) - http://www.bohemiancoding.com/sketch -->
    <title>BAL</title>
    <desc>Created with Sketch.</desc>
    <defs></defs>
    <g id="100x100-NFL" stroke="none" stroke-width="1" fill="none" fill-rule="evenodd">
        <g id="BAL">
            <g transform="translate(6.000000, 131.000000)">
                <path d="M491.311901,145.843437 C489.324167,133.741756 481.331906,115.968701 454.536754,99.9774896 C452.726718,98.9009597 450.825767,97.8491776 448.871092,96.8138941 C453.879686,95.1310428 459.061846,93.3945713 459.061846,93.3945713 L429.365677,81.8332179 C426.82832,80.84743 424.158723,79.9523841 421.460198,79.0862106 C423.423137,77.0981363 425.493521,74.9986968 425.493521,74.9986968 L402.72756,71.8144782 C392.883938,70.4368499 385.123096,70.119253 379.176424,70.2058704 C379.122702,69.2489549 379.044184,68.3662829 378.945004,67.5743529 C378.945004,67.5702283 375.143101,39.1143678 375.143101,39.1143678 C375.143101,39.1143678 366.332604,51.1211818 365.456513,52.3132015 C363.584489,49.1991016 361.460382,46.2706104 359.022205,43.5153539 L334.462738,15.7936785 C334.462738,15.7936785 335.442142,23.9522076 336.227317,30.4608825 C328.263983,24.9132477 319.507209,19.9595604 309.820621,15.8143017 C270.309757,-1.09670392 220.335394,-4.61501802 172.716559,6.15852996 C132.887492,15.1791078 75.3795756,38.6812811 27.6161023,99.4495362 L0.0481727442,134.529561 L41.5426385,118.026895 C41.8732388,117.899031 73.9042719,105.434382 99.7365501,101.800578 C109.369415,100.443573 116.745934,100.332208 110.757936,113.506294 C106.038618,123.900376 95.3189041,139.06666 95.2073265,139.223397 L74.4290999,169.382731 L109.088405,157.371793 C125.758923,151.589054 140.722718,148.734806 148.289332,148.470829 C150.991989,148.5162 151.487889,150.298043 150.636593,152.240746 C150.392776,152.908937 150.252271,153.263656 148.380247,156.130278 L126.647412,187.089792 L162.294385,174.344668 C188.163856,165.080737 222.174358,158.984525 234.340448,163.62474 C235.332249,163.995957 238.547336,165.699432 235.361176,170.364395 L221.360255,192.600305 C221.360255,192.600305 242.031037,189.465582 244.969247,189.015997 C246.59332,209.317453 256.796471,220.38385 258.052752,221.666611 L273.070269,237.035003 L278.343343,216.217968 C282.128716,201.241416 289.261417,193.074638 295.625472,188.628281 C295.625472,188.63653 296.848693,197.182775 296.848693,197.182775 L310.771097,192.171343 C322.478479,187.947716 331.739419,182.878539 338.409279,177.087551 C347.232173,176.390487 368.787311,175.11185 389.491152,177.157669 C425.175318,180.675984 449.110778,175.940902 455.598808,174.406538 C464.277065,172.356594 471.595728,176.052267 471.670113,176.093513 L482.278249,181.851505 L488.001766,171.127452 C488.679497,169.840566 491.915247,163.146283 491.915247,153.22241 C491.915247,150.764127 491.716887,148.285221 491.311901,145.843437" id="Fill-1" stroke="#FFFFFF" stroke-width="3.01840491" fill="#FFFFFF"></path>
                <path d="M486.340087,147.90163 C484.575508,137.181702 477.306434,121.338977 452.660185,106.622277 C446.068842,102.699749 438.911346,99.3464203 431.667068,96.4962972 L440.394915,93.5719306 L428.406523,88.8987185 C422.468116,86.584798 416.228036,84.6792164 409.793728,83.1324781 C411.029346,81.8868382 412.368277,80.5174592 412.368277,80.5174592 L403.181723,79.2264482 C389.032031,77.2507478 379.262793,77.4776028 373.514481,78.01793 C373.568204,76.7805394 373.609529,75.4689053 373.609529,74.1490219 C373.609529,72.3011852 373.539276,70.4822209 373.345049,69.0138507 L371.803625,57.5143669 C371.803625,57.5143669 366.220613,65.1325687 365.410642,66.2338463 C363.563413,61.111049 360.538421,54.763235 355.004999,48.5144121 L345.078726,37.3036528 L346.202767,46.6624508 C337.284825,38.3884319 324.932772,29.685451 308.010171,22.442591 C269.606818,6.00179381 220.917664,2.60721878 174.451797,13.1250394 C135.507086,21.9352608 79.267848,44.9424778 32.5127055,104.427971 L20.7268061,119.425146 L38.4676428,112.36377 C38.7982431,112.235906 71.796282,99.1938088 98.620361,95.6136252 C109.141714,94.2153737 116.39839,95.4610137 119.05559,99.1195654 C121.539224,102.551262 120.737519,109.340412 116.890158,117.300959 C111.612951,128.218869 100.835383,143.888359 100.727938,144.053345 L91.8430556,156.942831 L106.662212,151.811784 C126.192423,145.039133 150.809745,140.0277 156.5126,143.748122 C157.830868,144.610171 158.541659,145.624831 158.818537,147.043706 C159.73182,151.778787 155.653039,158.959778 154.144675,161.108713 L144.842411,174.336419 L160.091348,168.8919 C184.452455,160.176545 228.133015,150.178428 241.629771,160.506516 C247.873983,165.286968 242.038888,174.732384 241.778541,175.128349 L235.786411,184.648008 L246.91111,182.952782 C246.91111,182.952782 249.65096,182.527945 252.353617,182.111357 C252.320557,182.981655 252.262702,183.868451 252.262702,184.697503 C252.262702,206.190979 263.15598,217.616219 263.680808,218.160671 L270.106851,224.73534 L272.363198,215.826127 C278.685928,190.801964 293.649722,182.144354 301.993246,179.203489 C302.220534,180.861592 303.381768,188.966501 303.381768,188.966501 L309.332572,186.82169 C323.928574,181.56278 332.102666,175.79654 336.594697,171.465672 C343.305882,170.87585 367.906674,169.019764 391.532196,171.350183 C426.315476,174.790129 449.436832,170.220033 455.697575,168.739288 C467.231391,166.017029 476.608041,170.995464 476.703089,171.040835 L481.281903,173.540364 L483.740742,168.941395 C483.897777,168.648546 486.860782,162.898804 486.860782,154.195823 C486.860782,152.244871 486.70788,150.137182 486.340087,147.90163" id="Fill-4" fill="#9E7C0C"></path>
                <path d="M449.59924,111.813131 C439.309306,104.549648 425.44889,99.2618653 411.997592,95.4878238 C417.601266,93.6812334 423.209073,93.8008479 423.209073,93.8008479 C414.592804,90.5135133 405.596344,88.4594449 397.228025,87.1643093 L400.360463,84.3595571 C385.033008,81.7486629 374.333957,81.95077 367.986432,82.6107117 C368.779872,79.4759887 369.432808,74.6872868 368.61044,68.2941018 C368.61044,68.2941018 366.754946,73.8046148 362.246385,77.2280623 C361.651304,70.0759443 359.361897,59.7313584 351.584526,52.7112288 L353.02677,65.3367381 C346.175079,55.0333986 333.132899,41.867562 308.486649,30.3598289 C241.478108,-0.900783735 123.400091,10.9492941 58.5900412,94.5020359 C58.5900412,94.5020359 83.7900464,81.9260222 118.713832,81.0969705 C137.004292,80.6680084 141.454998,90.8929798 134.78927,108.125707 C128.086349,125.445052 116.33351,140.640209 116.33351,140.640209 C116.33351,140.640209 195.359371,112.691679 170.407316,151.512748 C170.407316,151.512748 230.064134,133.686073 247.957873,154.597975 C256.276602,164.307367 246.590014,177.881543 246.590014,177.881543 L263.512615,174.222991 C258.024651,195.675221 267.632721,209.381384 267.632721,209.381384 C274.616652,181.337988 298.969494,173.868273 307.589896,172.453523 L309.453655,180.046977 C323.900886,174.837562 330.694722,169.289927 334.579275,164.719831 C365.172197,159.918755 385.946291,164.022768 409.530487,165.305529 C443.883987,167.173989 461.641354,161.205642 467.315281,161.242763 C471.480845,161.279885 476.419186,164.90544 476.419186,164.90544 C476.419186,164.90544 490.696985,140.850565 449.59924,111.813131" id="Fill-6" fill="#000000"></path>
                <path d="M421.39821,157.435725 C438.506774,157.340858 451.309269,155.802369 461.38018,153.455451 C424.208313,137.554981 351.430797,130.753458 340.157328,131.673251 C340.157328,131.673251 333.995765,133.405598 341.087141,140.202997 C331.169133,136.305217 321.271788,128.876748 320.585792,125.115081 C319.858472,121.118309 327.10275,119.996408 344.256771,122.013355 C408.492403,129.586186 464.08697,140.318487 471.599861,156.025099 C471.599861,156.025099 475.521606,136.362962 443.494706,117.637117 C416.092076,99.4021029 373.990132,96.4199914 373.990132,96.4199914 L384.627196,104.97861 L364.84077,103.266886 L380.50709,114.572512 C363.691934,109.086747 318.412095,94.2793056 280.893098,103.642228 C280.893098,103.642228 322.065228,103.180269 340.855721,114.37453 C271.309823,103.044156 235.146286,127.152651 235.146286,127.152651 C274.264563,116.003761 305.485625,119.080739 315.734233,120.606854 C299.282738,124.525258 318.651781,136.54857 330.48727,142.83039 C331.830334,146.125974 335.074349,152.857379 331.900586,158.524628 C331.900586,158.524628 335.466937,153.995779 338.066281,147.334492 L347.690881,155.047561 C376.420044,151.508623 397.611521,157.54709 421.39821,157.435725" id="Fill-8" fill="#FFFFFF"></path>
                <path d="M289.880466,33.0404295 C213.838273,10.3920559 134.485944,32.3021198 90.4458562,74.3981499 C90.4458562,74.3981499 134.779352,60.4733804 148.077747,74.1547964 C163.545707,90.0635156 140.110281,127.469835 140.110281,127.469835 L155.437736,125.073422 C154.334357,125.20541 153.702084,125.283778 153.702084,125.283778 C165.673946,83.4682234 176.484575,68.8051441 183.720588,61.6365276 C188.022524,56.3982405 195.62633,52.8469293 201.725905,50.7763623 C160.74387,52.7273149 120.902406,61.145696 120.902406,61.145696 C146.672696,41.1865847 206.412164,27.241192 240.852447,30.7471322 C275.288597,34.257197 272.945467,48.1984651 269.403912,56.1507623 C266.540087,62.5769445 252.468914,71.2881747 239.24077,74.1053008 C252.940019,75.8830187 260.696728,86.4338364 255.787314,96.9681555 C255.365798,97.8714507 254.878163,98.7458734 254.357468,99.587299 C239.740803,103.051993 226.773008,108.546007 216.123547,114.547352 C215.755754,114.765958 215.387961,114.980439 215.011904,115.190795 C214.516003,115.47952 214.020103,115.768244 213.524202,116.061093 C213.152277,116.283824 212.772087,116.502429 212.391896,116.737534 C211.933189,117.013884 211.474481,117.298484 211.024038,117.578959 C210.64798,117.818188 210.263657,118.049168 209.895864,118.292521 C209.457819,118.560622 209.032171,118.841098 208.606523,119.121573 C208.242863,119.352552 207.866805,119.595906 207.503145,119.839259 C207.102292,120.123859 206.697307,120.396085 206.296454,120.668311 C197.547945,126.669656 191.196287,132.67925 187.902682,137.340088 C187.902682,137.340088 277.466426,119.232938 261.948876,164.253335 L285.08263,157.926144 C283.450291,160.772142 280.867476,164.022355 277.354848,167.93251 C266.420245,180.058938 267.17236,191.58317 267.17236,191.58317 C267.17236,191.58317 270.383315,178.970034 291.074759,170.324798 C309.94377,162.454994 314.295296,149.074676 314.295296,149.074676 C314.295296,149.074676 320.584966,158.346857 315.439999,171.331209 C315.439999,171.331209 324.126521,169.165776 331.903892,158.515967 C335.073522,152.856967 331.829507,146.125562 330.486444,142.829978 C318.650954,136.548158 299.281911,124.52897 315.733407,120.606442 C305.484799,119.080327 274.267869,116.003348 235.14546,127.152238 C235.14546,127.152238 271.308996,103.043744 340.854894,114.374117 C322.064402,103.179857 280.892271,103.641816 280.892271,103.641816 C295.21966,100.065757 310.67109,100.020386 325.242297,101.624869 C319.38654,99.9997626 311.423206,98.1065549 302.063086,96.6876803 C287.760492,94.9965797 274.110833,95.7555126 261.514963,98.0735578 C275.668787,83.4146032 301.44321,85.3408079 301.44321,85.3408079 C284.256129,73.7794546 261.837299,77.4792526 261.837299,77.4792526 C286.967051,64.4990246 314.911039,68.8917615 314.911039,68.8917615 C306.125337,57.3139096 285.376037,54.7648848 285.376037,54.7648848 C326.50271,53.1026567 340.912749,74.6745005 340.912749,74.6745005 C330.655876,70.2157695 323.357875,70.8880851 323.357875,70.8880851 C323.357875,70.8880851 333.238691,72.4884437 339.929214,84.9695907 C347.016457,98.1931722 353.025117,97.8178304 353.025117,97.8178304 C353.025117,97.8178304 364.294453,55.2062208 289.880466,33.0404295" id="Fill-10" fill="#241773"></path>
                <path d="M208.606523,119.121985 C209.032171,118.84151 210.64798,117.818601 211.024038,117.579372 C211.474481,117.298896 211.933189,117.014297 212.391896,116.733821 C212.772087,116.502842 213.152277,116.284236 213.524202,116.061506 C214.020103,115.768657 214.516003,115.479932 215.011904,115.191208 C215.387961,114.980851 215.751622,114.76637 216.123547,114.547765 C226.768875,108.54642 239.740803,103.052405 254.357468,99.5877115 C254.878163,98.7462859 255.365798,97.8718631 255.787314,96.9685679 C260.692595,86.4342488 252.940019,75.8834312 239.24077,74.1015886 C252.468914,71.2885872 266.540087,62.577357 269.403912,56.1470502 C272.945467,48.1988775 275.288597,34.2576095 240.852447,30.7475446 C206.412164,27.2416044 146.672696,41.1869971 120.902406,61.1461084 C120.902406,61.1461084 160.74387,52.7277273 201.725905,50.7767747 C195.62633,52.8473418 188.022524,56.3986529 183.720588,61.6369401 C176.484575,68.8055566 165.673946,83.4645112 153.702084,125.284191 C153.702084,125.284191 154.334357,125.205823 155.437736,125.073834 C160.574437,124.422142 176.017602,122.570181 185.166965,122.104097 L200.581202,121.2173 C202.250733,121.2173 203.969855,121.159555 205.713771,121.064689 C205.907999,120.936825 206.106359,120.796587 206.296454,120.668724 C206.697307,120.396498 207.102292,120.124272 207.503145,119.839672 C207.866805,119.596318 208.242863,119.352965 208.606523,119.121985" id="Fill-12" fill="#FFFFFF"></path>
                <path d="M228.809092,67.086821 C228.271867,68.2417189 227.701581,69.2233822 227.118898,70.0730571 C232.044842,68.6046868 235.863275,65.886552 237.735299,62.6404639 C241.859538,55.4512242 238.702305,50.2913051 232.044842,49.5901171 L225.131164,49.6107403 C225.131164,49.6107403 223.936871,50.5882789 221.754909,53.8921119 C229.792628,53.9581061 233.061438,57.9672518 228.809092,67.086821" id="Fill-14" fill="#000000"></path>
                <path d="M216.867811,101.412863 C215.566072,104.217615 213.813891,106.370675 211.838554,108.041152 C217.053773,106.750141 222.690508,103.636041 225.794018,96.9665056 C230.910057,85.9867259 226.351906,81.3836326 218.157152,81.3836326 L207.970531,81.3836326 C207.206018,82.8685014 206.470432,84.3574948 205.772039,85.8341143 L209.22268,85.8341143 C217.425699,85.8341143 221.975585,90.433083 216.867811,101.412863" id="Fill-16" fill="#000000"></path>
                <path d="M211.839381,108.03909 C213.810585,106.372737 215.562766,104.215553 216.868637,101.4108 C221.976411,90.4351453 217.426525,85.832052 209.223506,85.832052 L205.772866,85.832052 C200.090674,97.838866 196.557383,108.835144 196.557383,108.835144 L205.359616,108.835144 C207.256435,108.835144 209.508649,108.628913 211.839381,108.03909" id="Fill-18" fill="#241773"></path>
                <path d="M227.118072,70.0714072 C227.704887,69.225857 228.27104,68.2400691 228.808266,67.0851711 C233.064744,57.965602 229.795934,53.9605809 221.754083,53.8904621 C219.634108,57.08293 216.580189,62.4449562 212.75349,71.2304298 L218.931583,71.2304298 C221.869793,71.2304298 224.630305,70.8055924 227.118072,70.0714072" id="Fill-20" fill="#241773"></path>
                <path d="M266.264036,45.1441725 C263.044816,39.8728883 255.184795,36.7464145 241.229331,36.0369772 C241.229331,36.0369772 227.100302,34.1231463 209.223093,36.5154349 C202.148247,37.4558518 167.757555,40.9494181 138.474636,55.2165324 C164.083759,48.9924574 194.350213,46.7156586 213.512631,46.0185952 C221.575145,45.7339953 230.422835,45.9897227 230.422835,45.9897227 C236.154617,45.9897227 241.469016,47.6808233 243.50634,51.0135288 C245.61805,54.4699734 246.200733,58.6069828 242.229397,63.6679106 C240.043303,66.4561642 237.477018,69.3887801 230.026115,72.4203872 L238.613456,70.589049 C251.449012,67.850291 263.098539,60.6569267 265.776401,55.0721702 C267.731075,50.9970303 267.842652,47.7344436 266.264036,45.1441725" id="Fill-22" fill="#9E7C0C"></path>
                <path d="M204.14342,77.8129356 L218.284846,77.8129356 C225.582847,77.8129356 228.93844,80.7991718 230.475731,83.3193241 C232.88498,87.2542264 232.4552,92.5626323 229.471533,99.2156694 C223.714956,112.035037 209.767757,113.189935 205.585663,113.189935 L189.535021,113.804505 C196.490024,91.7748269 204.14342,77.8129356 204.14342,77.8129356 M211.499276,117.273324 C221.706559,110.987379 234.480127,105.002533 249.063731,100.948016 C249.989412,99.7229995 250.77872,98.427864 251.410993,97.058485 C252.878031,93.9196374 253.047464,90.0177322 252.001941,86.9325048 C250.427457,82.2510435 247.290887,79.132819 237.405939,76.8230231 C224.396819,73.791416 205.399701,75.1277979 205.399701,75.1277979 C209.767757,64.5316093 213.032434,58.3364067 216.301245,52.9661313 C213.495275,52.7846473 199.320788,54.2860146 188.439907,64.6512237 C178.964077,73.0077353 168.731999,94.7280659 160.586835,120.585406 C174.596021,119.117036 187.286939,118.452969 187.286939,118.452969 L200.601864,117.879645 C204.102095,117.879645 207.784155,117.689912 211.499276,117.273324" id="Fill-24" fill="#9E7C0C"></path>
                <path d="M330.095922,81.9235474 C332.228294,86.963852 329.290084,92.5651071 323.529374,94.4335669 C317.772797,96.3061515 311.37155,93.7241296 309.239178,88.6797004 C307.106806,83.6352712 310.045016,78.0340161 315.805726,76.1696809 C321.55817,74.301221 327.959418,76.8791182 330.095922,81.9235474" id="Fill-26" fill="#C60C30"></path>
                <path d="M315.28503,89.3392296 C313.677486,85.5486896 315.999953,81.2961903 320.450659,79.8484433 C322.169781,79.2874928 323.95089,79.2256233 325.579096,79.5885912 C323.355809,78.1862152 320.343214,77.7490038 317.520714,78.6646729 C313.057611,80.1082953 310.739276,84.3566699 312.355085,88.1678331 C313.334489,90.5065015 315.586703,92.1274832 318.20671,92.6884337 C316.917369,91.8758805 315.880111,90.7374811 315.28503,89.3392296" id="Fill-28" fill="#FFFFFF"></path>
                <path d="M329.571094,84.9968133 C330.732328,88.0160465 329.071061,91.394123 325.860106,92.549021 C322.649151,93.6874204 319.115861,92.1778038 317.954627,89.1461967 C316.793394,86.1310881 318.467058,82.7571362 321.669748,81.6146122 C324.87657,80.4597143 328.413993,81.9734555 329.571094,84.9968133" id="Fill-30" fill="#000000"></path>
            </g>
        </g>
    </g>
</svg>