<?xml version="1.0" encoding="UTF-8" standalone="no"?>
<svg width="500px" height="500px" viewBox="0 0 500 500" version="1.1" xmlns="http://www.w3.org/2000/svg" xmlns:xlink="http://www.w3.org/1999/xlink">
    <!-- Generator: Sketch 39.1 (31720) - http://www.bohemiancoding.com/sketch -->
    <title>BUF</title>
    <desc>Created with Sketch.</desc>
    <defs></defs>
    <g id="100x100-NFL" stroke="none" stroke-width="1" fill="none" fill-rule="evenodd">
        <g id="BUF">
            <g transform="translate(0.000000, 81.000000)">
                <path d="M56.1396436,237.045108 C90.478576,215.12292 101.280217,190.42831 101.280217,190.42831 L4.03972663,204.383002 L45.3637204,130.998708 L128.392337,124.008503 C128.392337,124.008503 160.699532,95.1784074 210.705988,74.5164105 C210.705988,74.5164105 215.921638,65.4173135 244.484264,48.9833877 C244.484264,48.9833877 270.680816,33.5524714 300.513921,23.6818286 C300.513921,23.6818286 320.733565,16.727629 326.700186,16.3778616 L324.946205,9.94831315 L363.070856,6.68210254 L364.053291,3.03011902 C364.053291,3.03011902 383.954029,4.37260874 395.367763,9.42880564 L397.615534,6.43006424 C397.615534,6.43006424 424.249295,18.6719245 444.072879,48.7519239 C444.072879,48.7519239 463.2998,47.6820471 480.510416,55.9221564 C480.510416,55.9221564 498.749759,63.174687 497.926777,84.3407605 C497.926777,84.3407605 497.803329,111.355151 489.727816,138.127791 C489.727816,138.127791 488.488199,142.314713 487.336024,144.819665 C487.336024,144.819665 485.659198,148.229898 482.423849,152.535123 C482.423849,152.535123 473.396763,161.839966 469.888802,170.028639 C469.888802,170.028639 467.990799,175.470608 464.220512,185.366969 C464.220512,185.366969 461.3195,198.982181 441.547352,199.733152 C441.547352,199.733152 422.305,224.083138 414.280923,231.078487 L413.601963,225.158159 C413.601963,225.158159 400.177066,237.595477 388.526724,244.940593 L392.461607,210.467927 C392.461607,210.467927 393.428612,204.316135 389.519446,203.873782 L379.463632,203.632031 C379.463632,203.632031 382.755561,224.376326 378.779528,233.969212 C378.779528,233.969212 376.248858,249.029786 352.881307,256.205162 C352.881307,256.205162 334.827135,261.950607 314.170282,263.560566 L309.731322,262.861031 L277.213237,276.183055 L286.718682,242.085874 C286.718682,242.085874 274.533402,243.325491 273.484099,241.79783 L237.272882,257.316188 L251.505331,216.53742 L261.25767,211.1366 L258.145769,206.908528 L238.126727,207.088556 L230.761036,212.813426 C213.756166,208.389896 197.224511,209.578077 197.224511,209.578077 L113.079725,277.870169 L91.9959494,324.47668 L66.8178377,290.811564 L74.6978923,280.503712 L71.7042945,278.255942 L60.2905601,287.236735 L43.3937068,332.742507 L18.5087825,297.621742 L24.9074691,283.348144 L23.4929684,274.609102 C30.8998082,269.717501 35.6936795,266.441003 39.4382486,262.228363 C41.4802732,259.599964 42.60673,258.684396 44.9779475,254.255723 C47.2154304,248.839472 47.2977286,242.980867 49.7923934,241.124014 C52.9145821,239.009978 55.3012305,237.580046 56.1396436,237.045108" id="Fill-1" stroke="#FFFFFF" stroke-width="4" fill="#FFFFFF"></path>
                <path d="M67.0381635,231.96552 C78.8900529,223.110837 88.1799734,213.612489 95.1973275,204.100897 C97.662446,200.75958 99.6688109,197.650625 101.252992,194.852383 C101.811648,193.865593 102.278448,192.985875 102.657965,192.222998 C102.891071,191.754424 103.046016,191.422262 103.127371,191.236271 L104.578739,187.918165 L100.993823,188.432626 L3.753332,202.387318 L5.79647151,205.372256 L47.1204653,131.987962 L45.5328606,133.007729 L128.561477,126.017524 C129.877566,125.385286 130.170113,125.129568 130.608953,124.754167 C131.346869,124.122926 132.224319,123.38908 133.237907,122.561181 C136.141669,120.189386 139.549414,117.543815 143.433941,114.692854 C154.543555,106.539205 167.235556,98.3827771 181.291482,90.7701037 C191.037383,85.4917347 201.112154,80.6619049 211.475894,76.3797467 L212.455138,75.5190324 C212.556398,75.3423774 212.883498,74.8792631 213.508924,74.1371038 C214.61355,72.8263037 216.161047,71.2513204 218.222955,69.4200543 C224.206448,64.1058664 233.106514,57.8557695 245.489725,50.7309072 C246.65975,50.0550571 247.277199,49.7046534 247.983254,49.309471 C250.00475,48.1780303 252.328145,46.916289 254.918288,45.5568553 C262.322634,41.6706917 270.373803,37.7839135 278.789434,34.157419 C286.338963,30.9041485 293.827185,28.0178322 301.147218,25.5959109 C302.819882,25.0287914 303.64926,24.7515729 304.553833,24.4529581 C307.138216,23.5998096 309.805493,22.7467117 312.409076,21.9511416 C313.293233,21.6809719 314.15669,21.421603 314.995933,21.174404 C320.605653,19.5220595 324.81783,18.5077968 326.81817,18.3905354 L329.299368,18.2450859 L328.645238,15.8472513 L326.891258,9.41770285 L325.1183,11.9570838 L363.242951,8.69087319 L365.017767,7.20584924 L366.000202,3.55386572 L363.917592,5.04167619 C364.687431,5.09992127 365.095254,5.13380273 365.555468,5.17477518 C366.874212,5.29218182 368.345243,5.44267252 369.930042,5.62934431 C374.453979,6.162214 378.97593,6.87692024 383.183333,7.79601998 C387.677216,8.77770071 391.535999,9.93646133 394.551172,11.2721597 L396.018461,11.9221577 L396.980999,10.6380403 L399.228769,7.63929887 L396.773531,8.26195065 C398.06697,8.90079466 398.76225,9.26546617 399.548193,9.69710914 C401.807448,10.9379013 404.330713,12.4627669 407.051965,14.2822695 C414.842864,19.4914738 422.63883,26.0074908 429.914589,33.9133805 C434.43787,38.828409 438.619297,44.1405865 442.389447,49.8613537 L443.027383,50.8293482 C444.269769,50.760216 444.450713,50.7524432 444.721866,50.7444436 C447.589473,50.6598428 451.392713,50.7800207 455.785033,51.269587 C462.352379,52.0015809 468.827286,53.427916 474.861674,55.7048742 C476.503749,56.3244792 478.097952,57.0024117 479.639777,57.7406073 C480.933399,58.3390417 481.547206,58.6647287 482.211841,59.0566627 C484.124044,60.184286 486.040073,61.6085717 487.825518,63.347298 C493.183965,68.5655346 496.255555,75.4309948 495.91217,84.2624283 C495.90978,84.5260031 495.904346,84.914635 495.890658,85.4844472 C495.867664,86.4416 495.829002,87.554021 495.770967,88.8087039 C495.604806,92.4010266 495.316752,96.4069748 494.877302,100.72232 C493.622358,113.04571 491.409159,125.365496 488.007799,136.842487 C487.776615,137.616304 487.740831,137.735292 487.689195,137.904004 C487.083192,139.820363 486.754165,140.793703 486.42365,141.6967 C486.175345,142.37509 485.936213,142.985712 485.711502,143.509899 C485.000529,144.925494 484.704106,145.451938 484.35846,146.035569 C483.364984,147.713078 482.181046,149.502275 480.812102,151.323906 C479.862433,152.319533 479.320694,152.917242 478.737967,153.578961 C477.073883,155.468623 475.409811,157.497769 473.852839,159.592101 C472.107472,161.939848 470.605053,164.226298 469.417361,166.407773 C468.88937,167.377552 468.427231,168.320461 468.035566,169.234727 C467.927288,169.530549 467.810251,169.862592 467.634126,170.356963 C467.339623,171.183608 466.986233,172.164867 466.574057,173.29688 C465.395194,176.534547 463.982397,180.328943 462.336479,184.649196 C461.993637,185.788843 461.812509,186.260541 461.576231,186.774239 C460.889392,188.267507 459.902252,189.768942 458.561522,191.174723 C454.919027,194.993948 449.392704,197.417593 441.470832,197.718476 L439.965518,198.483122 C439.432649,199.154688 439.152972,199.505851 438.836872,199.901574 C437.933131,201.032959 436.919227,202.293952 435.818892,203.652069 C432.675648,207.531702 429.470766,211.410994 426.394936,215.029226 C425.80748,215.720275 425.229425,216.3962 424.661618,217.055845 C419.59341,222.943797 415.544083,227.302554 412.956054,229.558784 L416.283923,230.848777 L415.604963,224.928449 L415.151485,220.974259 L412.231782,223.679179 C411.688066,224.177586 411.39877,224.440256 411.070002,224.736513 C410.128673,225.584758 409.061278,226.530692 407.889158,227.549767 C404.540515,230.461175 401.027377,233.372292 397.52222,236.085826 C395.445027,237.693895 393.430624,239.184963 391.499976,240.535594 C390.095202,241.518338 388.743458,242.420579 387.451485,243.23512 L390.529846,245.16924 L394.464729,210.696573 C394.624086,209.111731 394.614924,207.945175 394.411608,206.804536 C393.934794,204.129507 392.452368,202.176669 389.74614,201.870438 L379.512088,201.616484 L377.093198,201.558332 L377.47242,203.948018 C377.566683,204.577635 377.614268,204.913522 377.665633,205.293376 C377.812946,206.382798 377.960464,207.602809 378.098219,208.922866 C378.532539,213.08481 378.773199,217.26853 378.719994,221.153799 C378.649918,226.271018 378.066859,230.423114 376.917042,233.197254 C376.771386,233.753471 376.702856,234.048325 376.56635,234.494408 C376.325436,235.281685 375.977859,236.170815 375.504354,237.137195 C374.127772,239.946671 372.013842,242.774542 368.999068,245.43338 C364.862215,249.08182 359.360649,252.10654 352.289495,254.277849 C350.330147,254.867667 349.306931,255.159462 348.152641,255.474108 C344.847955,256.374926 341.161369,257.276404 337.188617,258.117924 C329.480814,259.750614 321.659622,260.954617 314.013623,261.550532 L310.04517,260.86948 L276.448923,274.317419 L279.155314,276.724458 L288.660758,242.627276 L289.454215,239.781052 L286.514633,240.080097 C285.140469,240.206562 284.471394,240.261245 283.76515,240.312276 C282.464486,240.406258 281.190369,240.476835 280.001675,240.514455 C278.380241,240.565771 277.01119,240.552274 275.995938,240.464668 C274.854182,240.326694 274.209779,239.293372 274.209779,239.293372 L272.689939,239.944702 L236.478722,255.46306 L239.176406,257.980549 L253.408854,217.201781 L252.482079,218.301149 L262.234418,212.900328 L264.241176,211.788991 L262.881412,209.94151 L259.76951,205.713439 L258.127639,204.892481 L238.108597,205.072508 L229.523791,211.221571 L231.268605,210.862234 C219.907784,207.906908 208.269533,207.110208 198.573981,207.490945 C197.287271,207.553257 196.446859,207.61264 196.446859,207.61264 L111.809215,276.304735 L90.1590365,323.6457 L93.6104793,323.269174 L68.4323675,289.604058 L68.419547,292.036024 L76.2996016,281.728172 L77.5346969,280.112552 L75.9084559,278.891474 L72.9148582,276.643704 L71.675541,275.713151 L70.4575831,276.67149 L59.0438487,285.652283 L41.5036647,332.040711 L45.0387469,331.576909 L20.1538226,296.456143 L20.3485105,298.44647 L26.7471971,284.172873 L26.897696,283.026006 L25.4831954,274.286964 L24.6040256,276.29146 C33.9715855,270.104967 37.506526,267.436227 40.9451222,263.567807 C41.3168225,263.096557 41.5955398,262.748207 41.9404172,262.325271 C41.9915003,262.262626 42.6140995,261.502795 42.7938961,261.280778 C44.4869939,259.127738 45.4764836,257.595874 46.7553396,255.207382 C47.0732349,254.464147 47.2899453,253.883638 47.4956452,253.277725 C47.8255173,252.306046 48.1180205,251.30022 48.4257543,250.115955 C48.5979227,249.453392 49.1237412,247.319563 49.140564,247.252795 C49.8433307,244.463607 50.3722079,243.205759 50.9961939,242.741308 C52.277502,241.876162 53.5728031,241.033524 54.8980127,240.197658 C55.5261704,239.801453 57.0552889,238.852442 57.2240772,238.744749 L55.05521,235.345467 C54.9123527,235.436615 53.3955579,236.377977 52.746856,236.787141 C51.3868402,237.64496 50.0556353,238.510955 48.6620161,239.454575 C46.9224842,240.746854 46.1715011,242.532944 45.2305099,246.267614 C45.2081814,246.356233 44.6876224,248.468719 44.5231038,249.101843 C44.23815,250.198442 43.9717845,251.114389 43.6774166,251.981485 C43.4986861,252.507958 43.3121487,253.007641 43.1145579,253.485947 C42.028446,255.493189 41.1644585,256.830759 40.1174185,258.169772 C39.4892338,258.954362 38.8729868,259.70644 38.8154217,259.777034 C38.4520702,260.222626 38.154493,260.594547 37.8461418,260.991443 C34.8069087,264.403945 31.4526501,266.936277 22.3819112,272.926744 L21.2945295,273.644869 L21.5027414,274.93124 L22.9172421,283.670282 L23.0677411,282.523416 L16.6690544,296.797013 L16.1980104,297.847774 L16.8637423,298.78734 L41.7486666,333.908105 L43.9552097,337.022259 L45.2837488,333.444303 L62.1806021,287.938531 L72.9510059,279.840393 L70.4937308,279.86818 L73.4873286,282.11595 L73.0961829,279.279251 L65.2161283,289.587103 L64.29025,290.798239 L65.2033078,292.019069 L90.3814195,325.684185 L92.4258967,328.417812 L93.8328623,325.307659 L114.916638,278.701148 L198.49502,211.143511 C208.066597,211.153543 219.337933,211.925126 230.253466,214.764618 L231.998281,214.405281 L239.363971,208.680411 L258.163898,208.924576 L256.522027,208.103618 L259.633928,212.331689 L260.280922,209.372871 L250.528582,214.773692 L249.601807,215.87306 L235.369359,256.651828 L233.861719,260.971513 L238.067043,259.169317 L274.27826,243.650959 L273.484099,241.79783 L271.822235,242.939313 C272.894453,244.500336 275.211997,244.700317 280.129226,244.544695 C281.377634,244.505185 282.704477,244.431688 284.055751,244.334049 C284.786233,244.281266 285.478116,244.22472 286.11014,244.168119 C286.491174,244.133996 284.776606,241.544472 284.776606,241.544472 L275.271161,275.641653 L274.164675,279.610753 L277.977552,278.048692 L310.495636,264.726667 L313.856434,265.552117 C322.16283,264.959884 330.154524,263.729634 338.024202,262.062655 C342.075805,261.204432 345.83681,260.284757 349.213094,259.364422 C350.397143,259.041664 351.449415,258.741583 352.358108,258.47177 C361.082488,255.795898 367.091319,252.492289 371.666188,248.457545 C375.088511,245.439274 377.521546,242.184527 379.125314,238.911386 C380.109638,236.902472 380.600667,235.297851 380.767784,234.303304 C382.029402,231.393853 382.675399,226.793563 382.751874,221.209012 C382.807511,217.146101 382.558174,212.811515 382.108699,208.504352 C381.96653,207.141989 381.814129,205.881602 381.661524,204.753045 C381.607917,204.356607 381.558028,204.004453 381.513107,203.700329 C381.485793,203.515404 379.415177,205.647577 379.415177,205.647577 L389.470991,205.889328 C389.897023,205.945503 390.244195,206.402842 390.44192,207.512119 C390.571914,208.241413 390.578399,209.067199 390.507205,209.828514 C390.491456,209.996924 386.523602,244.711947 386.523602,244.711947 L386.047002,248.88734 L389.601962,246.646066 C390.950972,245.795565 392.355895,244.857829 393.81138,243.83961 C395.798401,242.449541 397.864433,240.920257 399.990583,239.274288 C403.561957,236.509492 407.132304,233.550969 410.534804,230.592737 C411.725584,229.557438 412.810769,228.595739 413.769285,227.732006 C414.810039,226.786698 414.91619,226.688976 414.972144,226.637138 L411.598963,225.387869 L412.277923,231.308197 L412.714895,235.11846 L415.605792,232.59819 C418.383925,230.176228 422.527337,225.716197 427.717644,219.686399 C428.290973,219.020339 428.874409,218.338121 429.467133,217.640875 C432.565801,213.995777 435.790145,210.092928 438.951921,206.190422 C440.058344,204.82479 441.078045,203.556588 441.987393,202.418182 C442.305874,202.019479 442.587886,201.665385 442.830471,201.359951 C450.58008,201.407661 457.10221,198.54729 461.479472,193.957648 C463.142653,192.213771 464.374214,190.340574 465.239559,188.45921 C465.771054,187.303677 466.066967,186.375698 466.192377,185.787117 C467.757628,181.74568 469.177369,177.932634 470.362972,174.676457 C470.778359,173.535625 471.134912,172.545584 471.432531,171.710191 C471.776553,170.738215 471.776553,170.738215 471.79247,170.692583 C472.08171,170.029648 472.488724,169.199212 472.958765,168.335871 C474.04678,166.337476 475.448499,164.204277 477.088834,161.99781 C478.573806,160.000329 480.168958,158.055222 481.764099,156.24385 C482.322101,155.610207 482.839609,155.039233 483.30294,154.540838 C485.497583,151.800899 486.762338,149.889569 487.827925,148.0903 C488.473411,147.000381 488.913471,146.180696 489.145269,145.709278 C489.673787,144.500981 489.938634,143.824695 490.210232,143.082665 C490.56219,142.121085 490.908485,141.096662 491.235419,140.073029 C491.34966,139.715339 491.453432,139.382961 491.544905,139.08409 C491.730456,138.469958 491.80239,138.229367 491.87385,137.988243 C495.354089,126.245095 497.61025,113.68616 498.888813,101.130829 C499.33609,96.7386219 499.629443,92.6589858 499.798919,88.9950148 C499.858357,87.709995 499.898054,86.5677819 499.921753,85.5812846 C499.941622,84.516445 499.942619,84.40808 499.942885,84.3499735 C500.331676,74.3812614 496.777126,66.4363133 490.63871,60.4585172 C488.608412,58.4813444 486.436145,56.8665842 484.260052,55.5833448 C482.938978,54.8043095 481.892393,54.3020055 481.25536,54.0487011 C479.733304,53.3147941 478.03316,52.5918102 476.285199,51.9322516 C469.908875,49.5262706 463.112093,48.0290307 456.231701,47.2621448 C451.63794,46.750126 447.648901,46.624077 444.602958,46.7139392 C444.296208,46.722989 445.75631,47.6424942 445.75631,47.6424942 C441.864114,41.7365358 437.548626,36.2540457 432.881615,31.1828383 C425.3775,23.0288142 417.337888,16.3091541 409.293207,10.9302637 C406.472006,9.04393319 403.848709,7.45861582 401.489253,6.16279329 C400.658647,5.70662113 399.918828,5.31858893 399.27803,4.99727053 C398.886233,4.80080956 396.978569,3.9183901 396.978569,3.9183901 L396.002298,5.22082961 L393.754528,8.219571 L396.184355,7.58545157 C392.884951,6.12384079 388.781199,4.89151796 384.043879,3.85665899 C379.693645,2.90635802 375.046697,2.17189572 370.401736,1.62477074 C368.777421,1.43344439 367.26856,1.27908355 365.913042,1.15840296 C364.426751,1.03535484 364.272007,1.02416218 364.188989,1.01856185 L362.536607,0.907093361 L362.106379,2.50637232 L361.123944,6.15835584 L362.89876,4.67333189 L324.77411,7.9395425 L322.36472,8.14595947 L323.001153,10.4789235 L324.755134,16.9084719 L326.582202,14.3651878 C324.158631,14.5072592 319.782116,15.5610933 313.856625,17.306448 C313.003934,17.5576082 312.127514,17.820871 311.230733,18.094898 C308.595771,18.9000568 305.900759,19.7620255 303.289811,20.6239436 C302.376018,20.9256021 301.537784,21.2057804 300.793218,21.4573488 C292.442524,24.2287314 284.84596,27.1568081 277.193694,30.4543501 C268.677306,34.1242633 260.534947,38.0550646 253.044381,41.9864806 C250.421304,43.3631998 248.066179,44.6421719 246.01387,45.7908586 C245.294094,46.1937207 244.663146,46.5517852 244.125388,46.8609842 C230.869717,54.490691 221.747437,60.8968387 215.545328,66.4051883 C213.342275,68.3618102 211.659045,70.0749382 210.425525,71.5386892 C209.648064,72.4612605 209.181557,73.1217501 208.956838,73.5137886 L209.936083,72.6530743 C199.438597,76.9904947 189.237396,81.8809343 179.371171,87.2244709 C165.145268,94.9292042 152.299757,103.184283 141.048155,111.442142 C137.106257,114.335209 133.643644,117.023377 130.687114,119.438272 C129.6496,120.285714 128.748713,121.039161 127.987807,121.690069 C127.174775,122.3936 127.093401,122.465477 127.049968,122.504235 L45.1945803,128.989686 L43.6069755,130.009454 L2.28298175,203.393748 L0.274710428,206.960092 L4.32612126,206.378686 L101.566612,192.423994 L99.4330642,189.620349 C98.6999777,191.126109 98.2668876,191.942299 97.7440377,192.865843 C96.238203,195.525696 94.3196264,198.498619 91.9525709,201.707017 C85.1637133,210.908896 76.1508032,220.124019 64.6247843,228.735241 C61.5804896,231.009669 58.3915934,233.215499 55.0547639,235.345752 L57.2245233,238.744464 C60.6448604,236.5609 63.9150016,234.298871 67.0381635,231.96552 Z" id="Fill-1" fill="#FFFFFF"></path>
                <path d="M50.0866095,138.348967 L17.9131491,195.052441 L433.061377,133.179611 C433.061377,133.179611 418.63347,122.208229 439.547505,104.858736 L50.0866095,138.348967 Z" id="Fill-4" fill="#C60C30"></path>
                <path d="M471.495674,96.9637644 C471.495674,96.9637644 439.075319,119.127704 450.319314,138.236322 C450.319314,138.236322 438.555812,144.758456 451.553787,153.934707 C451.553787,153.934707 431.462734,162.972081 436.776113,138.164311 L110.391659,187.548387 C110.391659,187.548387 103.411741,217.103735 57.1189924,245.090273 C57.1189924,245.090273 53.7293345,247.080862 53.4258598,250.799712 C53.4258598,250.799712 53.749909,255.428987 49.5372689,261.035554 C49.5372689,261.035554 44.3216192,270.13465 32.2289245,277.870683 L33.0930558,283.92989 L27.4299095,296.927865 L41.292016,316.844034 L53.8373509,282.978316 L78.6811261,263.90056 C78.6811261,263.90056 102.989963,225.853064 142.966323,210.967374 C142.966323,210.967374 178.236254,195.917087 229.734366,204.434953 L234.435651,199.923981 L294.055568,198.60721 C294.055568,198.60721 296.298195,199.121574 294.801396,200.335473 C294.801396,200.335473 283.058469,209.367702 270.194228,210.535308 L271.382409,214.197579 C271.382409,214.197579 271.73732,215.483489 270.775459,215.792107 L258.286704,220.750575 L250.02602,243.644911 L273.460439,233.450219 L274.772066,234.432654 C274.772066,234.432654 295.166594,235.697989 325.853543,229.489617 C325.853543,229.489617 347.13792,225.28212 353.058248,197.712217 L393.569547,195.947949 C393.569547,195.947949 402.005115,197.743079 400.950669,205.581984 L398.049657,228.548331 L416.5719,212.042394 L417.857809,216.368195 C417.857809,216.368195 431.899943,201.168742 435.50049,192.470849 C435.50049,192.470849 450.910832,192.779467 454.706838,186.550521 C454.706838,186.550521 456.455675,184.806827 461.378137,171.243052 C461.378137,171.243052 463.692774,161.717033 473.21365,152.345323 C473.21365,152.345323 480.584484,145.447703 484.678821,127.32152 C484.678821,127.32152 489.621857,101.058101 489.580708,96.0533403 C489.580708,96.0533403 494.894087,70.072821 477.091953,62.4190865 C477.091953,62.4190865 463.862515,55.1202631 439.09075,57.1468568 C439.09075,57.1468568 434.152857,39.9105233 400.01967,16.2806468 L397.540436,19.9737795 C397.540436,19.9737795 385.874664,11.949703 369.35844,12.134874 L368.520027,14.4237932 C368.520027,14.4237932 358.484787,14.3517823 336.593461,16.6407015 L338.630342,22.699908 C338.630342,22.699908 293.484624,24.793369 229.441178,67.665598 L228.268428,71.1735597 L220.131192,75.0107142 L224.477567,77.3922189 C224.477567,77.3922189 175.546131,95.0657617 139.947007,124.194188 L471.495674,96.9637644 Z" id="Fill-6" fill="#00338D"></path>
                <path d="M357.127895,202.80802 L371.134024,202.648567 C371.134024,202.648567 373.937307,221.134805 372.281055,229.380057 C372.281055,229.380057 369.518921,241.637349 356.999304,246.426076 C356.999304,246.426076 338.569647,254.23412 310.922588,256.003532 L309.590386,254.8565 L288.635202,263.698415 L295.512247,239.327855 C295.512247,239.327855 323.601658,237.157239 332.093806,234.616282 C332.093806,234.616282 353.871972,230.336774 357.127895,202.80802" id="Fill-8" fill="#00338D"></path>
                <path d="M184.594821,210.041004 C184.594821,210.041004 134.896983,209.449486 100.856382,249.54415 C100.856382,249.54415 100.758652,264.090361 83.1211151,273.95586 L83.7743572,278.543985 L75.3953697,290.091454 L90.270773,310.017911 L107.023604,272.891126 L184.594821,210.041004 Z" id="Fill-10" fill="#00338D"></path>
            </g>
        </g>
    </g>
</svg>