<?xml version="1.0" encoding="UTF-8" standalone="no"?>
<svg width="500px" height="500px" viewBox="0 0 500 500" version="1.1" xmlns="http://www.w3.org/2000/svg" xmlns:xlink="http://www.w3.org/1999/xlink">
    <!-- Generator: Sketch 39.1 (31720) - http://www.bohemiancoding.com/sketch -->
    <title>CAR</title>
    <desc>Created with Sketch.</desc>
    <defs></defs>
    <g id="100x100-NFL" stroke="none" stroke-width="1" fill="none" fill-rule="evenodd">
        <g id="CAR">
            <g transform="translate(0.000000, 113.000000)">
                <path d="M456.251439,27.6100719 C456.36295,27.347482 456.452878,27.0956835 456.528417,26.8582734 C456.596763,26.6496403 456.647122,26.4517986 456.697482,26.2611511 C456.693885,26.2503597 456.693885,26.2395683 456.686691,26.2323741 C455.967266,24.1640288 454.528417,24.0129496 451.503237,24.2503597 C447.093165,25.0956835 443.010432,25.6244604 439.582374,25.9697842 L439.585971,25.9697842 C439.395324,25.9913669 439.219065,26.0093525 439.032014,26.0273381 C438.898921,26.0381295 438.76223,26.052518 438.632734,26.0633094 C438.118345,26.1100719 437.621942,26.1568345 437.143525,26.1928058 C437.071583,26.2 437.003237,26.2035971 436.934892,26.2107914 C432.510432,26.5705036 429.711871,26.5884892 429.711871,26.5884892 C441.014029,35.1352518 442.334173,48.3690647 442.334173,48.3690647 L442.909712,47.876259 C451.585971,41.5776978 456.251439,27.6100719 456.251439,27.6100719" id="Fill-1" fill="#000000"></path>
                <path d="M338.828417,97.8906475 C344.432734,114.401439 334.997482,136.516547 334.997482,136.516547 C347.378777,125.901439 357.108993,104.084892 357.108993,104.084892 C377.454317,99.9553957 388.66295,104.084892 388.66295,104.084892 C391.314029,120.005755 385.414748,132.976978 385.414748,132.976978 C397.209712,123.545324 402.519065,98.4769784 402.519065,98.4769784 C402.519065,98.4769784 397.803237,94.0561151 376.867986,92.581295 C355.929137,91.1064748 338.828417,97.8906475 338.828417,97.8906475" id="Fill-3" fill="#BFC0BF"></path>
                <path d="M354.088129,161.044245 C354.088129,161.044245 347.940647,178.155755 341.624101,184.475899 C341.624101,184.475899 349.785971,188.947122 363.998201,187.634173 C378.217626,186.314029 381.638489,181.051439 382.955036,175.788849 C384.27518,170.522662 382.955036,163.148561 380.584532,157.619784 C380.584532,157.619784 381.638489,171.573022 371.897482,178.680935 C371.897482,178.680935 361.401079,180.878777 354.555755,178.770863 C354.555755,178.770863 357.246403,173.155755 354.088129,161.044245" id="Fill-5" fill="#BFC0BF"></path>
                <path d="M320.577698,28.0280576 C320.717986,28.0568345 320.865468,28.0856115 321.01295,28.1179856 C320.865468,28.0892086 320.721583,28.0568345 320.577698,28.0280576 C311.994964,26.394964 308.379856,32.8769784 308.379856,32.8769784 C305.660432,36.8985612 306.696403,38.8266187 306.696403,38.8266187 C333.138849,38.3625899 347.394245,42.6359712 347.394245,42.6359712 C347.394245,42.6359712 337.541727,31.8661871 321.656835,28.2510791 L320.577698,28.0280576 Z" id="Fill-7" fill="#BFC0BF"></path>
                <path d="M426.23777,41.6086331 C422.755755,38.3640288 415.334892,34.1877698 407.216187,35.8100719 C399.101079,37.4359712 398.633453,46.2489209 398.633453,46.2489209 C407.446403,38.1302158 426.23777,41.6086331 426.23777,41.6086331" id="Fill-9" fill="#BFC0BF"></path>
                <path d="M229.428777,58.9669065 C229.428777,58.9669065 273.004317,50.6251799 322.846043,62.3985612 C324.63741,60.7906475 326.702158,59.1539568 329.094245,57.4920863 C329.094245,57.4920863 283.389209,44.8122302 229.428777,58.9669065" id="Fill-11" fill="#0085CA"></path>
                <path d="M229.664029,75.9884892 C229.664029,75.9884892 267.858273,66.4705036 314.423022,72.8877698 C315.315108,71.1215827 316.516547,69.2654676 318.088489,67.3374101 C301.279137,65.4129496 267.171223,63.9021583 229.664029,75.9884892" id="Fill-13" fill="#0085CA"></path>
                <path d="M230.635612,92.4669065 C230.635612,92.4669065 266.729137,81.3194245 312.239928,84.4669065 C312.016906,82.8374101 311.998921,80.8877698 312.416187,78.6899281 C294.171583,78.1899281 263.455755,79.8517986 230.635612,92.4669065" id="Fill-15" fill="#0085CA"></path>
                <path d="M124.192086,206.117266 L124.210072,206.117266 C124.246043,206.120863 124.317986,206.128058 124.422302,206.138849 C125.217266,206.210791 127.760432,206.448201 127.900719,206.46259 C128.246043,206.494964 132.616547,206.951799 132.652518,206.955396 C138.861151,207.653237 145.145324,208.523741 151.476259,209.599281 C165.756835,157.333094 205.933094,129.401439 205.933094,129.401439 C151.591367,155.685612 128.742446,198.466187 124.192086,206.117266" id="Fill-17" fill="#0085CA"></path>
                <path d="M380.41295,133.721583 C377.017266,117.955396 386.002878,107.160432 386.002878,107.160432 C365.582014,125.066906 377.941727,142.991367 384.12518,156.897842 C390.301439,170.807914 387.833813,181.005755 381.653957,188.113669 C375.470504,195.22518 358.470504,195.843885 347.038849,193.678417 C335.603597,191.51295 329.729496,179.458993 326.639568,165.246763 C323.54964,151.027338 329.110791,125.994964 329.110791,125.994964 C320.765468,138.667626 320.765468,164.628058 327.258273,185.646043 C333.743885,206.656835 350.743885,211.908633 363.107194,211.908633 C375.470504,211.908633 397.722302,201.405036 394.290647,176.379856 C390.858993,151.358273 383.815827,149.484173 380.41295,133.721583" id="Fill-19" fill="#0085CA"></path>
                <path d="M247.493525,146.504676 C226.169784,124.914748 225.522302,100.490288 225.522302,100.490288 C225.522302,100.490288 218.205755,128.968705 235.583453,150.292446 C252.961151,171.616187 295.284892,173.943525 295.284892,173.943525 C295.284892,173.943525 268.817266,168.091007 247.493525,146.504676" id="Fill-21" fill="#0085CA"></path>
                <path d="M355.338489,53.0690647 C380.403237,62.8028777 380.108273,77.8388489 380.108273,77.8388489 C383.939209,63.3928058 401.633453,55.7273381 401.633453,55.7273381 C401.633453,55.7273381 392.493165,51.2992806 379.813309,50.4179856 C367.129856,49.5294964 355.338489,53.0690647 355.338489,53.0690647" id="Fill-23" fill="#0085CA"></path>
                <path d="M320.577698,28.0280576 C305.473381,25.0280576 290.98777,31.0784173 290.253957,31.3913669 C290.25036,31.394964 290.243165,31.394964 290.239568,31.3985612 L290.228777,31.3985612 L290.22518,31.4057554 C304.142446,31.6395683 308.379856,32.8769784 308.379856,32.8769784 C308.379856,32.8769784 311.994964,26.394964 320.577698,28.0280576" id="Fill-25" fill="#0085CA"></path>
                <path d="M369.664029,224.155396 L369.660432,224.155396 C369.498561,224.216547 360.631655,227.338849 349.656835,225.367626 C349.656835,225.367626 364.178417,239.417986 378.919424,270.141007 C378.926619,270.158993 378.933813,270.173381 378.941007,270.191367 L379.509353,270.148201 C378.084892,256.144604 372.106475,232.684173 370.732374,228.356835 L369.664029,224.155396 Z" id="Fill-27" fill="#0085CA"></path>
                <path d="M496.77518,97.8136691 C478.411871,87.7956835 457.580935,84.6805755 441.606115,84.0582734 C441.606115,84.0582734 441.573741,84.0618705 441.51259,84.0618705 C441.573741,84.0618705 441.606115,84.0582734 441.606115,84.0582734 C442.206835,82.0330935 442.93705,79.4611511 443.645683,76.6877698 C444.001799,76.6661871 444.25,76.6482014 444.25,76.6482014 C476.267986,75.5978417 493.192446,84.0690647 493.192446,84.0690647 L491.580935,82.8280576 C475.980216,75.5978417 459.48741,72.9611511 445.214029,72.5546763 L444.634892,72.5546763 C445.131295,70.3352518 445.767986,65.8280576 445.893885,65.8352518 L446.22482,65.8496403 C470.857914,66.1086331 484.296763,71.9467626 484.296763,71.9467626 L482.681655,70.6733813 C470.458633,65.4611511 457.969424,63.1014388 446.271583,62.3208633 C446.339928,57.7669065 445.580935,54.0115108 443.850719,50.7669065 C452.883094,42.928777 456.221223,30.9863309 456.696043,26.2705036 C456.696043,26.2705036 456.696043,26.2669065 456.69964,26.2669065 L456.69964,26.2561151 C456.739209,26.0978417 456.821942,25.6661871 456.832734,25.5798561 C456.843525,25.4863309 456.854317,25.3964029 456.861511,25.3100719 C456.883094,25.1446043 456.890288,24.9899281 456.890288,24.842446 C456.890288,24.7561151 456.890288,24.6769784 456.886691,24.5978417 C456.879496,24.457554 456.861511,24.3244604 456.843525,24.1913669 C456.832734,24.1194245 456.821942,24.0510791 456.811151,23.9827338 C456.778777,23.8568345 456.746403,23.7381295 456.706835,23.6266187 C456.685252,23.5654676 456.667266,23.5043165 456.645683,23.4503597 C456.598921,23.3388489 456.544964,23.2381295 456.494604,23.1410072 C456.46223,23.0870504 456.43705,23.0366906 456.404676,22.9863309 C456.347122,22.8928058 456.285971,22.8100719 456.221223,22.723741 C456.181655,22.6841727 456.149281,22.6410072 456.113309,22.5978417 C456.048561,22.518705 455.973022,22.4503597 455.897482,22.3784173 C455.857914,22.3460432 455.818345,22.3064748 455.782374,22.2776978 C455.69964,22.2093525 455.620504,22.1517986 455.53777,22.0906475 C455.498201,22.0618705 455.46223,22.0366906 455.422662,22.0079137 C455.336331,21.957554 455.25,21.9071942 455.167266,21.8640288 C455.124101,21.842446 455.084532,21.8208633 455.048561,21.7956835 C454.958633,21.752518 454.875899,21.7165468 454.785971,21.6805755 C454.75,21.6661871 454.714029,21.6482014 454.67446,21.6338129 C454.588129,21.6014388 454.508993,21.5726619 454.426259,21.5438849 C454.390288,21.5330935 454.354317,21.518705 454.318345,21.5115108 C454.235612,21.4827338 454.160072,21.4611511 454.084532,21.4467626 C454.059353,21.4359712 454.023381,21.428777 453.998201,21.4251799 C453.922662,21.4035971 453.854317,21.3892086 453.789568,21.3784173 C453.767986,21.3748201 453.742806,21.3676259 453.721223,21.3640288 C453.660072,21.3532374 453.606115,21.342446 453.548561,21.3352518 C453.53777,21.3352518 453.519784,21.3316547 453.508993,21.3280576 C453.383094,21.3136691 453.314748,21.3100719 453.314748,21.3100719 C437.717626,21.4791367 424.897482,16.1841727 424.897482,16.1841727 C424.552158,16.0546763 424.19964,15.9323741 423.850719,15.8064748 C389.152878,3.10863309 353.142086,-0.524460432 321.077338,0.0582733813 L321.066547,0.0258992806 C306.75,0.158992806 296.293165,1.33165468 296.293165,1.33165468 C250.264388,5.22374101 217.260791,16.2489209 217.260791,16.2489209 C217.260791,16.2489209 204.732014,19.7848921 188.048561,18.9539568 C188.048561,18.9539568 181.854317,18.8460432 180.631295,22.7848921 C179.580935,25.2956835 179.440647,28.2848921 181.80036,34.8280576 C184.519784,42.371223 195.401079,56.5510791 195.48741,56.6625899 C162.566547,70.0330935 76.8183453,118.126619 -0.00179856115,214.828058 C-0.00179856115,214.828058 16.2320144,210.608633 41.7643885,207.619424 L41.7643885,207.615827 C92.4334532,112.518705 217.491007,51.6589928 217.491007,51.6589928 C209.397482,52.5258993 202.577338,53.9719424 202.577338,53.9719424 C191.170863,45.7741007 182.508993,29.8136691 181.055755,27.0258993 C181.131295,27.1769784 181.232014,27.371223 181.354317,27.5978417 C181.354317,27.5978417 180.710432,26.1446043 180.80036,25.0942446 C180.807554,25.0007194 180.821942,24.9071942 180.843525,24.8208633 C180.861511,24.7489209 180.886691,24.6769784 180.911871,24.6086331 C181.570144,23.1014388 183.145683,23.0043165 185.239209,23.2669065 C185.365108,23.2776978 185.498201,23.3100719 185.631295,23.3460432 C190.803957,24.1086331 205.170863,27.8316547 225.526978,25.5942446 C246.893885,23.2453237 254.642086,16.6697842 254.408273,14.7920863 C254.408273,14.7920863 270.595324,7.07985612 290.969424,5.72374101 C311.343525,4.36402878 338.508993,10.3100719 349.210432,24.0618705 C351.163669,26.5690647 352.27518,28.5366906 352.803957,30.076259 C353.469424,29.0079137 353.818345,27.7129496 353.670863,26.2345324 C353.098921,20.7201439 346.375899,14.9179856 340.375899,11.4971223 C335.095324,8.48633094 321.922662,3.63381295 329.451439,4.04028777 C336.983813,4.43956835 376.06295,10.1374101 390.839928,19.694964 C399.933453,25.5798561 400.75,31.6158273 400.75,31.6158273 C400.75,31.6158273 411.96223,26.9899281 424.469424,32.1014388 C436.980216,37.2129496 439.847122,43.8280576 442.332734,48.3676259 C442.332734,48.3676259 441.01259,35.1338129 429.710432,26.5870504 C429.710432,26.5870504 432.51259,26.5690647 436.933453,26.2129496 C437.005396,26.2057554 437.070144,26.2021583 437.142086,26.194964 C437.624101,26.1553957 438.116906,26.1122302 438.631295,26.0618705 C438.760791,26.0510791 438.897482,26.0366906 439.030576,26.0258993 C439.217626,26.0079137 439.397482,25.9899281 439.588129,25.9719424 L439.584532,25.9683453 C443.01259,25.6266187 447.095324,25.0942446 451.501799,24.252518 C454.530576,24.0115108 455.965827,24.1625899 456.685252,26.2309353 C456.692446,26.2381295 456.692446,26.2489209 456.696043,26.2597122 C456.649281,26.4503597 456.595324,26.6517986 456.526978,26.8568345 C456.451439,27.0978417 456.365108,27.3460432 456.25,27.6086331 C456.25,27.6086331 451.584532,41.5798561 442.908273,47.8748201 L442.332734,48.3676259 C442.332734,48.3676259 428.872302,45.3172662 416.429856,47.4323741 C403.980216,49.5438849 401.634892,55.7273381 401.634892,55.7273381 C401.634892,55.7273381 416.760791,61.2705036 418.613309,72.9359712 C420.473022,84.605036 413.314748,93.6194245 409.336331,96.2705036 C409.336331,96.2705036 426.303957,89.6410072 425.51259,73.2021583 C425.25,67.8640288 422.645683,64.1517986 419.239209,61.5690647 C419.242806,61.5726619 419.246403,61.5726619 419.246403,61.5726619 C419.246403,61.5726619 424.134892,63.0906475 426.850719,65.6517986 C428.091727,66.8244604 429.458633,68.0438849 430.678058,69.5942446 C432.102518,71.457554 432.573741,72.6446043 432.577338,72.6446043 C433.163669,73.8856115 433.634892,75.3172662 433.929856,76.9971223 C434.983813,83.0043165 433.138489,88.8748201 433.138489,88.8748201 C425.156475,121.331655 393.739209,162.569065 393.739209,162.569065 C393.742806,162.565468 393.75,162.561871 393.753597,162.558273 C417.505396,142.299281 433.332734,106.45036 440.260791,88.3964029 C477.706835,88.8028777 498.167266,99.2273381 498.167266,99.2273381 L496.77518,97.8136691 Z" id="Fill-32" fill="#0085CA"></path>
                <path d="M385.415468,132.976978 C385.415468,132.976978 391.314748,120.009353 388.660072,104.084892 C388.660072,104.084892 377.455036,99.9553957 357.109712,104.084892 C357.109712,104.084892 347.379496,125.901439 334.994604,136.516547 C334.994604,136.516547 344.429856,114.401439 338.829137,97.8906475 C338.829137,97.8906475 355.929856,91.1064748 376.868705,92.581295 C397.80036,94.0561151 402.519784,98.4769784 402.519784,98.4769784 C402.519784,98.4769784 397.210432,123.545324 385.415468,132.976978 L385.415468,132.976978 Z M371.897482,178.682014 C381.638489,171.570504 380.584532,157.617266 380.584532,157.617266 C382.955036,163.14964 384.27518,170.523741 382.955036,175.786331 C381.638489,181.052518 378.217626,186.315108 363.998201,187.631655 C349.785971,188.944604 341.624101,184.473381 341.624101,184.473381 C347.940647,178.153237 354.088129,161.045324 354.088129,161.045324 C357.246403,173.156835 354.555755,178.768345 354.555755,178.768345 C361.401079,180.876259 371.897482,178.682014 371.897482,178.682014 L371.897482,178.682014 Z M394.293165,176.379856 C397.721223,201.405036 375.469424,211.908633 363.109712,211.908633 C350.742806,211.908633 333.746403,206.656835 327.257194,185.646043 C320.764388,164.628058 320.764388,138.667626 329.113309,125.994964 C329.113309,125.994964 323.552158,151.027338 326.638489,165.246763 C329.732014,179.458993 335.602518,191.51295 347.03777,193.678417 C358.473022,195.843885 375.469424,195.22518 381.652878,188.113669 C387.832734,181.005755 390.30036,170.807914 384.127698,156.897842 C377.944245,142.991367 365.580935,125.066906 386.001799,107.160432 C386.001799,107.160432 377.016187,117.955396 380.411871,133.721583 C383.818345,149.484173 390.861511,151.358273 394.293165,176.379856 L394.293165,176.379856 Z M314.426259,72.8870504 C267.857914,66.4697842 229.663669,75.9877698 229.663669,75.9877698 C267.170863,63.9014388 301.278777,65.4122302 318.088129,67.3366906 C316.516187,69.2647482 315.314748,71.1244604 314.426259,72.8870504 L314.426259,72.8870504 Z M312.239209,84.4697842 C266.728417,81.3223022 230.634892,92.4661871 230.634892,92.4661871 C263.455036,79.8510791 294.17446,78.1928058 312.415468,78.6892086 C311.998201,80.8906475 312.016187,82.8366906 312.239209,84.4697842 L312.239209,84.4697842 Z M235.584532,150.289928 C218.206835,128.969784 225.519784,100.491367 225.519784,100.491367 C225.519784,100.491367 226.167266,124.915827 247.494604,146.505755 C268.818345,168.092086 295.282374,173.944604 295.282374,173.944604 C295.282374,173.944604 252.96223,171.617266 235.584532,150.289928 L235.584532,150.289928 Z M329.095324,57.494964 C326.703237,59.1532374 324.638489,60.7935252 322.843525,62.3978417 C273.005396,50.6244604 229.429856,58.9661871 229.429856,58.9661871 C283.390288,44.8115108 329.095324,57.494964 329.095324,57.494964 L329.095324,57.494964 Z M290.228417,31.4014388 C290.232014,31.4014388 290.235612,31.3978417 290.239209,31.3978417 C290.242806,31.3942446 290.25,31.3942446 290.253597,31.3906475 C291.005396,31.0705036 306.17446,24.728777 321.656475,28.2539568 C337.541367,31.8690647 347.397482,42.6352518 347.397482,42.6352518 C347.397482,42.6352518 333.138489,38.3618705 306.696043,38.8258993 C306.696043,38.8258993 305.660072,36.8978417 308.379496,32.876259 C308.379496,32.876259 304.142086,31.6388489 290.22482,31.405036 L290.228417,31.4014388 Z M407.214029,35.8115108 C415.332734,34.1892086 422.757194,38.3618705 426.239209,41.6100719 C426.239209,41.6100719 407.447842,38.1316547 398.634892,46.2503597 C398.634892,46.2503597 399.102518,37.4338129 407.214029,35.8115108 L407.214029,35.8115108 Z M433.929856,76.994964 C433.634892,75.318705 433.163669,73.8870504 432.577338,72.642446 C432.573741,72.642446 432.102518,71.4553957 430.678058,69.5956835 C429.458633,68.0417266 428.091727,66.8223022 426.847122,65.6496403 C424.134892,63.0884892 419.246403,61.5705036 419.246403,61.5705036 C419.246403,61.5705036 419.242806,61.5705036 419.239209,61.5669065 C422.645683,64.1496403 425.25,67.8618705 425.508993,73.2 C426.303957,89.6388489 409.336331,96.2719424 409.336331,96.2719424 C413.314748,93.6208633 420.473022,84.6064748 418.613309,72.9374101 C416.760791,61.2683453 401.634892,55.7251799 401.634892,55.7251799 C401.634892,55.7251799 383.940647,63.3906475 380.106115,77.8402878 C380.106115,77.8402878 380.401079,62.8043165 355.339928,53.0705036 C355.339928,53.0705036 367.131295,49.5309353 379.811151,50.4158273 C392.494604,51.3007194 401.634892,55.7251799 401.634892,55.7251799 C401.634892,55.7251799 403.980216,49.5453237 416.429856,47.4338129 C428.872302,45.318705 442.332734,48.3690647 442.332734,48.3690647 C439.847122,43.8294964 436.980216,37.2143885 424.469424,32.0992806 C411.96223,26.9913669 400.75,31.6136691 400.75,31.6136691 C400.75,31.6136691 399.933453,25.5776978 390.839928,19.6964029 C376.06295,10.1352518 336.983813,4.44100719 329.451439,4.0381295 C321.922662,3.6352518 335.095324,8.48776978 340.375899,11.4985612 C346.375899,14.9194245 353.098921,20.7215827 353.670863,26.2323741 C353.818345,27.7143885 353.469424,29.0093525 352.803957,30.0741007 C352.27518,28.5345324 351.160072,26.5705036 349.206835,24.0633094 C338.508993,10.3079137 311.343525,4.36546763 290.969424,5.72517986 C270.595324,7.08129496 254.408273,14.7935252 254.408273,14.7935252 C254.642086,16.671223 246.893885,23.2467626 225.526978,25.5956835 C205.170863,27.8330935 190.803957,24.1064748 185.631295,23.3438849 C185.498201,23.3115108 185.365108,23.2791367 185.239209,23.2683453 C183.142086,23.0057554 181.570144,23.1028777 180.911871,24.6100719 C180.886691,24.6784173 180.861511,24.7467626 180.843525,24.8223022 C180.82554,24.9086331 180.811151,25.0021583 180.80036,25.0956835 C180.710432,26.1460432 181.354317,27.5956835 181.354317,27.5956835 C181.232014,27.3690647 181.131295,27.1784173 181.052158,27.0273381 C182.508993,29.8115108 191.170863,45.7755396 202.577338,53.9697842 C202.577338,53.9697842 209.397482,52.523741 217.491007,51.6568345 C217.491007,51.6568345 92.4334532,112.520144 41.7643885,207.617266 C63.8435252,205.030935 92.8866906,203.365468 124.422662,206.138849 C124.318345,206.128058 124.246403,206.120863 124.210432,206.117266 L124.192446,206.117266 C128.742806,198.466187 151.591727,155.682014 205.929856,129.401439 C205.929856,129.401439 165.753597,157.333094 151.476619,209.599281 C169.645683,212.685612 188.19964,217.46259 206.365108,224.534532 C264.77518,247.297122 314.001799,271.092086 369.498201,270.602878 L378.940647,270.189209 C378.933453,270.17482 378.926259,270.160432 378.919065,270.142446 C364.178058,239.419424 349.656475,225.365468 349.656475,225.365468 C360.631295,227.336691 369.498201,224.214388 369.660072,224.156835 C370.491007,223.861871 371.206835,223.559712 371.796763,223.286331 C389.951439,213.505755 392.983813,196.941007 394.469424,185.070504 C396.181655,171.351079 393.739209,162.570504 393.739209,162.570504 C393.739209,162.570504 425.156475,121.333094 433.138489,88.8726619 C433.138489,88.8726619 434.983813,83.0021583 433.929856,76.994964 L433.929856,76.994964 Z" id="Fill-29" fill="#000000"></path>
            </g>
        </g>
    </g>
</svg>