<?xml version="1.0" encoding="UTF-8" standalone="no"?>
<svg width="500px" height="500px" viewBox="0 0 500 500" version="1.1" xmlns="http://www.w3.org/2000/svg" xmlns:xlink="http://www.w3.org/1999/xlink">
    <!-- Generator: Sketch 39.1 (31720) - http://www.bohemiancoding.com/sketch -->
    <title>CHI</title>
    <desc>Created with Sketch.</desc>
    <defs></defs>
    <g id="100x100-NFL" stroke="none" stroke-width="1" fill="none" fill-rule="evenodd">
        <g id="CHI">
            <g transform="translate(4.000000, 85.000000)">
                <path d="M48.2443037,213.769113 C62.5112982,238.582919 73.4339433,252.255286 88.3096094,265.927653 C112.790247,288.719395 132.013567,297.323211 144.755538,303.811224 C203.442181,334.798352 305.511725,336.820416 372.793346,310.694277 C416.296643,294.792283 437.285779,273.90878 452.007605,260.765364 C483.39098,230.360751 489.644913,208.713953 492.674894,184.911179 L407.186635,184.911179 C399.60165,209.222817 379.114166,229.979103 350.031704,245.171366 C307.036748,265.673221 242.283455,270.487341 193.723502,250.333656 C172.480195,241.629406 156.801885,230.481272 142.334229,216.413866 C110.56291,182.989548 115.318575,143.391909 137.879556,116.047175 C150.220205,102.883672 160.340207,94.7820246 178.546845,84.6516175 C221.040148,63.8953306 311.009835,49.3659298 377.742983,101.973074 L478.71558,101.973074 C462.528928,66.5266922 415.788301,39.0815245 400.109992,31.8904754 C356.098354,8.19483051 264.790927,-11.5504243 177.02851,13.9664174 C155.537721,20.0928698 130.495233,32.4997729 108.743584,47.0827383 C85.9819422,63.3864668 68.0294747,83.8950174 57.1937827,106.934496 C51.5819644,119.086967 50.0636298,124.148823 42.3783149,136.301294 C26.7936468,162.126132 1.00202429,171.747675 1.00202429,171.747675 C6.69410695,174.151387 30.3386571,180.987571 48.2443037,213.769113 Z" id="Fill-1" stroke="#FFFFFF" stroke-width="2.97" fill="#FFFFFF"></path>
                <path d="M5.43077515,175.126138 C8.05675427,176.221108 10.5720091,177.419186 13.1840286,178.873627 C20.2833161,182.826697 27.0624902,188.115473 33.4411445,195.214201 C38.3608064,200.689233 42.8790119,207.082594 46.9255263,214.490926 C60.8019898,238.626226 71.7200825,252.722653 87.2930693,267.035934 C98.4431794,277.416851 109.167851,285.519791 120.148385,292.265679 C124.445957,294.905892 128.660259,297.268616 133.308138,299.694053 C136.023982,301.111283 144.534261,305.386595 144.074093,305.152285 C202.411866,335.955393 304.783493,338.717014 373.336926,312.097017 C389.212556,306.294231 402.992733,299.517329 415.317291,291.75965 C423.196714,286.799957 430.277917,281.581223 437.335438,275.708211 C440.078035,273.425923 442.730332,271.121126 445.798882,268.377506 C447.103787,267.210777 451.899412,262.878 453.008033,261.88824 C468.067844,247.299842 478.006412,234.151397 484.327877,221.01557 C489.632654,209.992393 492.338721,199.455028 494.165874,185.101364 L494.38161,183.406597 L492.674894,183.406597 L407.186635,183.406597 L405.751939,184.462647 C398.442418,207.891362 378.687308,228.504958 349.336335,243.837487 C304.574696,265.180667 240.399909,268.076848 194.299148,248.943793 C174.40127,240.790805 158.73513,230.263507 143.381472,215.33461 C114.523354,184.97337 114.605836,146.618504 139.038443,117.005291 C151.609427,103.6005 161.728329,95.7310441 179.27707,85.9666992 C202.903838,74.4283456 236.143688,66.9879344 269.040475,67.305571 C309.191513,67.6932514 346.423372,79.1982891 376.813063,103.155121 L478.71558,103.477656 L481.055279,103.477656 L480.082564,101.347553 C472.686064,85.1503086 458.624522,69.5267398 440.144556,55.1480863 C426.643771,44.6435697 411.351721,35.3916339 400.736078,30.5226392 C376.945745,17.7105656 342.316642,7.43253194 305.154423,2.97984545 C261.86437,-2.20706321 217.635032,0.593347056 176.609278,12.5215473 C155.437245,18.5571093 130.306904,30.815181 107.907193,45.8326275 C84.6232774,62.5095643 66.6552597,83.2846477 55.8339147,106.293621 C54.3878534,109.424999 50.6854578,117.769922 50.4122115,118.370983 C49.988665,119.30266 49.5944045,120.153555 49.205905,120.972441 C46.9592427,125.707992 44.6194035,129.944651 41.1083629,135.496514 C37.0617082,142.201454 32.1169834,148.150893 26.4582513,153.40747 C20.7596515,158.701082 14.6508286,163.017447 8.54443344,166.426912 C6.4103242,167.618478 4.43105622,168.610744 2.65846468,169.412773 C2.04145869,169.691944 1.49545984,169.927026 1.02695007,170.119166 C0.751130799,170.232281 1.52689252,173.157538 1.52689252,173.157538 C2.6677339,172.698174 3.24655918,172.448958 3.89659646,172.154842 C5.74412854,171.318906 7.7987126,170.288881 10.0087517,169.054921 C16.314209,165.53431 22.6172385,161.080722 28.5030343,155.613218 C34.3598743,150.172612 39.4836932,144.007689 43.6648271,137.079271 C47.2235689,131.452596 49.6221187,127.109632 51.9213151,122.263349 C52.3172673,121.428754 52.7183144,120.563213 53.1482943,119.617384 C53.4307333,118.996102 57.1281448,110.662412 58.5581045,107.565814 C69.1474577,85.0502025 86.7756422,64.6680429 109.618225,48.3063377 C131.733019,33.4807764 156.583821,21.3590579 177.440178,15.4134653 C218.065755,3.60163757 261.89123,0.826798146 304.797163,5.9676824 C341.602211,10.3775736 375.870773,20.5485975 399.398038,33.2155589 C409.890203,38.0312878 424.98324,47.1628174 438.29976,57.5239634 C456.430842,71.6311623 470.186691,86.9150797 477.348595,102.598594 L478.71558,100.468492 L377.742983,100.468492 C347.725263,76.3943508 309.849368,64.6902995 269.069469,64.2965471 C235.708273,63.9744264 202.006974,71.5181284 177.88771,83.2994286 C159.997503,93.2513203 149.631512,101.312938 136.783557,115.017573 C111.348598,145.840938 111.262434,185.908143 141.245357,217.451018 C156.908408,232.682374 172.895399,243.425277 193.15413,251.726105 C240.055722,271.191542 305.116656,268.255371 350.67809,246.529708 C380.733779,230.830171 401.048383,209.632768 408.62133,185.35971 L407.186635,186.415761 L492.674894,186.415761 L491.183914,184.720993 C489.394341,198.779432 486.76516,209.017403 481.619667,219.709594 C475.463039,232.502894 465.736599,245.370699 450.962319,259.684209 C449.889956,260.639925 445.093233,264.973695 443.796373,266.13323 C440.752343,268.854926 438.12575,271.137386 435.413761,273.394205 C428.453275,279.186467 421.47764,284.327399 413.717124,289.212247 C401.571113,296.857539 387.981583,303.540683 372.277794,309.280974 C304.478745,335.607715 203.012699,332.870524 145.456771,302.480425 C145.878894,302.695177 137.389181,298.430197 134.697728,297.025696 C130.108289,294.630754 125.953872,292.301604 121.720763,289.700995 C110.907379,283.057795 100.342,275.075207 89.3332285,264.82592 C73.9920492,250.725654 63.2612199,236.871003 49.546984,213.01858 C45.4051958,205.43507 40.7520369,198.850747 35.6761108,193.20181 C29.0675119,185.84718 22.0257615,180.353555 14.6453091,176.243925 C11.927514,174.730585 9.31156349,173.484543 6.58667521,172.348331 C5.22462645,171.78039 1.89943961,170.493662 1.58623373,170.361398 L0.417814854,173.133952 C0.785104327,173.289055 4.11876112,174.57906 5.43077515,175.126138 Z" id="Fill-1" fill="#FFFFFF"></path>
                <path d="M48.0449805,152.503919 C57.649952,141.871344 65.2416251,114.52661 80.4182826,93.770323 C101.975959,63.3523194 130.509948,47.4235431 151.739878,37.2596581 C200.299831,13.456884 270.103091,6.67426511 338.394706,23.0784273 C363.176335,28.9571434 387.964652,37.7618264 405.669638,49.3116957 C423.374624,59.8438374 444.116279,75.0361002 455.747926,89.8199329 L382.807666,89.8199329 C361.163036,72.4984768 337.384712,64.0955284 316.134716,59.5358408 C292.363081,53.462953 254.933122,50.2222941 210.413143,60.8548694 C184.11318,67.436621 165.906542,76.5493005 148.201556,89.2106355 C113.299926,114.024442 74.8532852,179.239356 143.1449,235.950888 C165.398201,254.785544 184.11318,260.865128 204.848146,268.056177 C243.294786,279.197616 291.353087,277.075118 319.171385,269.475639 C361.163036,258.340896 376.834658,243.650801 390.49298,232.000498 C403.14131,219.854722 413.762963,205.164628 416.699302,197.565148 L476.589911,197.47141 C472.442918,219.854722 456.256267,238.080081 440.577957,253.272344 C422.618801,270.218848 409.214648,279.090487 382.707335,292.361119 C320.68972,322.136348 229.636464,321.125315 173.491526,300.770763 C144.656546,290.231926 136.56322,285.471371 114.811572,270.379542 C97.106586,256.104573 85.4749389,246.683897 68.7866354,220.865754 C61.1949623,208.204419 57.649952,201.113804 49.054974,189.470197 C42.9816355,182.888445 38.9416615,176.808862 28.3200078,171.747006 C38.0520645,164.917518 43.3628914,159.848967 48.0449805,152.503919" id="Fill-4" fill="#DD4813"></path>
            </g>
        </g>
    </g>
</svg>