<?xml version="1.0" encoding="UTF-8" standalone="no"?>
<svg width="500px" height="500px" viewBox="0 0 500 500" version="1.1" xmlns="http://www.w3.org/2000/svg" xmlns:xlink="http://www.w3.org/1999/xlink">
    <!-- Generator: Sketch 39.1 (31720) - http://www.bohemiancoding.com/sketch -->
    <title>CIN</title>
    <desc>Created with Sketch.</desc>
    <defs></defs>
    <g id="100x100-NFL" stroke="none" stroke-width="1" fill="none" fill-rule="evenodd">
        <g id="CIN">
            <g transform="translate(0.000000, 71.000000)">
                <path d="M452.710166,167.318269 C475.517077,150.418057 487.804169,128.73959 487.804169,95.2565415 C487.804169,55.6199463 459.460829,0 348.635287,0 L68.1474378,0 L3.43822778,112.712159 L50.9474829,112.712159 C56.2546961,112.712159 60.5392569,116.99672 60.5392569,122.295117 L60.5392569,234.813326 C60.5392569,240.111723 56.2546961,244.396283 50.9474829,244.396283 L0,244.396283 L65.3880396,356.72054 L360.106222,356.685276 C457.557939,356.685276 499.689454,305.834769 499.689454,251.272739 C499.689454,215.127267 479.202152,185.84062 453.124517,172.546139 C450.444462,171.18848 450.779469,168.755272 452.710166,167.318269 Z" id="Fill-1" fill="#FFFFFF"></path>
                <path d="M284.009045,152.140659 L236.219272,152.140659 L236.219272,106.137503 C236.264162,101.316329 240.160604,97.4288653 244.990756,97.4288653 L284.009045,97.4288653 C306.902887,97.4288653 315.405031,109.100236 315.405031,124.335863 C315.405031,140.487244 306.902887,152.140659 284.009045,152.140659 M284.009045,257.973054 L244.990756,257.973054 C240.142648,257.973054 236.219272,254.049678 236.219272,249.201571 L236.219272,203.261261 L284.009045,203.261261 C306.902887,203.261261 315.405031,214.483733 315.405031,230.177237 C315.405031,246.310662 306.902887,257.973054 284.009045,257.973054 M420.402475,174.172615 C416.910042,173.337663 417.475654,169.055168 420.034378,168.085546 C451.591968,156.144836 470.005799,134.893964 470.005799,97.4288653 C470.44572,47.1970827 426.049623,12.6677822 353.857708,12.6677822 L80.2718072,12.6677822 L32.2665629,97.4737552 L65.3055191,97.4737552 C71.8325086,97.4737552 77.1115592,102.761784 77.1115592,109.288773 L77.1115592,246.131102 C77.1115592,252.649114 71.8325086,257.928164 65.3055191,257.928164 L32.63466,257.928164 L80.9990233,342.32115 L366.866797,342.285239 C448.47661,342.285239 482.108112,288.031322 482.108112,248.106257 C482.108112,213.0293 456.260516,182.746583 420.402475,174.172615" id="Fill-4" fill="#FB4F13"></path>
                <path d="M173.345599,318.364316 C122.620028,223.00922 109.287732,113.370162 128.186374,12.673169 L80.2709094,12.673169 L32.2656651,97.470164 L65.3046213,97.470164 C71.8316108,97.470164 77.1106614,102.758193 77.1106614,109.285182 L77.1106614,214.282626 C101.728275,254.234625 137.388801,292.498764 173.345599,318.364316 L173.345599,318.364316 Z M412.572781,22.1180011 C354.52118,108.216803 323.062348,217.963597 337.184706,317.924395 C354.485268,233.83666 399.61756,156.177157 469.915121,99.9211518 C469.933077,99.0861999 470.004901,98.278182 470.004901,97.4252741 C470.301175,62.8061939 449.301686,35.6388348 412.572781,22.1180011 L412.572781,22.1180011 Z M315.251508,12.673169 C306.147839,36.5186766 296.586293,65.2930936 288.542025,97.5958557 C287.105549,97.48812 285.588271,97.4252741 284.008147,97.4252741 L244.989858,97.4252741 C240.159706,97.4252741 236.263264,101.312738 236.218374,106.133912 L236.218374,152.137067 L277.238752,152.137067 C274.536381,168.629612 272.336776,185.714702 270.891322,203.266648 L236.218374,203.266648 L236.218374,249.197979 C236.218374,254.046087 240.14175,257.969463 244.989858,257.969463 L268.943101,257.969463 C269.30222,285.504919 271.762186,313.758614 276.915545,342.281647 L241.246041,342.281647 C213.118039,274.336316 174.396023,159.382295 212.911545,12.673169 L315.251508,12.673169 Z" id="Fill-6" fill="#000000"></path>
            </g>
        </g>
    </g>
</svg>