<?xml version="1.0" encoding="UTF-8" standalone="no"?>
<svg width="500px" height="500px" viewBox="0 0 500 500" version="1.1" xmlns="http://www.w3.org/2000/svg" xmlns:xlink="http://www.w3.org/1999/xlink">
    <!-- Generator: Sketch 39.1 (31720) - http://www.bohemiancoding.com/sketch -->
    <title>CLE</title>
    <desc>Created with Sketch.</desc>
    <defs>
        <polygon id="path-1" points="0 391.293478 499.456522 391.293478 499.456522 5.2173913 0 5.2173913"></polygon>
    </defs>
    <g id="100x100-NFL" stroke="none" stroke-width="1" fill="none" fill-rule="evenodd">
        <g id="CLE">
            <g transform="translate(0.000000, 49.000000)">
                <g id="Group-3" transform="translate(0.000000, 5.657609)">
                    <mask id="mask-2" fill="white">
                        <use xlink:href="#path-1"></use>
                    </mask>
                    <g id="Clip-2"></g>
                    <path d="M485.58587,371.277174 L485.379348,371.396739 C485.596739,371.277174 485.781522,371.092391 485.998913,370.961957 L485.58587,371.277174 Z M285.944565,348.516304 C285.944565,348.516304 272.933696,350.277174 262.477174,348.125 C236.292391,388.168478 165.401087,385.483696 122.053261,351.657609 C121.248913,351.059783 120.422826,350.461957 119.58587,349.875 C116.651087,352.146739 103.857609,361.005435 79.401087,364.788043 C58.8576087,368.744565 50.3793478,355.407609 52.8358696,346.353261 C46.7706522,332.961957 45.0858696,328.320652 43.0858696,320.788043 C41.8467391,315.451087 42.6184783,311.451087 43.1293478,309.331522 C37.0532609,297.701087 30.6184783,283.233696 25.4228261,266.63587 C-48.501087,30.8206522 258.683696,-67.951087 358.411957,110.255435 C360.368478,110.429348 361.531522,110.896739 362.140217,112.146739 L364.879348,111.048913 L376.901087,138.211957 C375.422826,137.907609 371.31413,137.559783 370.303261,137.483696 C370.31413,137.527174 370.325,137.570652 370.346739,137.625 C369.661957,137.559783 368.977174,137.494565 368.292391,137.429348 L367.31413,137.38587 C364.694565,129.331522 361.292391,119.092391 358.944565,113.103261 C357.607609,112.798913 355.248913,112.766304 354.651087,112.755435 C354.683696,112.820652 354.716304,112.86413 354.748913,112.929348 C356.575,116.342391 362.129348,133.527174 363.977174,138.211957 C366.542391,144.711957 366.357609,148.36413 366.357609,148.36413 L354.411957,148.146739 C354.238043,144.657609 350.922826,138.103261 350.922826,138.103261 L346.477174,129.125 L345.270652,126.548913 L340.651087,116.842391 L340.618478,116.86413 C340.118478,115.777174 339.292391,113.451087 339.053261,111.505435 C338.259783,105.233696 344.433696,105.233696 344.596739,105.233696 C347.792391,105.288043 350.411957,106.472826 352.998913,110.11413 C353.575,110.11413 354.140217,110.125 354.651087,110.125 C350.933696,102.711957 348.825,100.429348 346.368478,96.3315217 C299.966304,30.1576087 222.825,10.6032609 154.879348,27.125 C240.977174,14.5271739 306.661957,51.5706522 339.433696,106.951087 C336.694565,108.309783 332.151087,110.581522 330.042391,111.722826 C329.096739,111.701087 325.575,111.63587 324.401087,111.733696 C322.357609,111.896739 320.433696,111.994565 321.83587,116.86413 C322.868478,120.461957 323.248913,121.309783 324.06413,123.538043 C325.031522,126.211957 328.151087,134.266304 330.433696,141.11413 C329.629348,141.266304 328.825,141.418478 328.031522,141.570652 C327.607609,140.353261 327.151087,139.081522 326.629348,137.755435 C323.955435,130.940217 320.727174,122.092391 319.781522,119.092391 C319.303261,117.538043 318.575,114.581522 319.444565,112.016304 C319.444565,112.016304 316.194565,114.581522 319.096739,121.494565 L326.444565,141.875 C325.455435,142.070652 324.466304,142.266304 323.477174,142.461957 C301.161957,146.940217 279.325,152.853261 267.06413,157.983696 C267.06413,157.983696 257.868478,161.309783 251.357609,166.625 C251.118478,166.820652 251.009783,166.994565 250.988043,167.146739 C249.129348,167.679348 247.33587,168.940217 246.140217,170.559783 C245.216304,171.277174 243.107609,172.972826 242.172826,174.038043 C239.596739,177.005435 237.33587,179.646739 234.455435,183.603261 C231.933696,187.353261 222.890217,201.668478 214.81413,214.744565 C214.129348,214.994565 213.444565,215.353261 212.803261,215.86413 C210.683696,217.538043 209.292391,220.440217 209.81413,223.429348 C203.270652,234.038043 199.422826,240.190217 197.825,242.755435 C194.227174,243.027174 192.401087,245.853261 192.227174,246.222826 C190.640217,249.38587 183.770652,260.657609 182.531522,261.896739 C181.803261,262.63587 180.172826,265.646739 180.879348,269.092391 L180.259783,270.309783 C180.259783,270.309783 165.140217,292.853261 165.161957,292.820652 C163.857609,294.646739 163.661957,296.711957 164.575,298.668478 C165.825,301.288043 168.933696,303.266304 172.151087,303.483696 C173.890217,303.603261 175.455435,303.157609 176.705435,302.266304 C182.83587,303.288043 225.118478,310.331522 257.009783,315.646739 C258.33587,315.86413 259.640217,316.081522 260.933696,316.298913 C263.096739,316.657609 265.194565,317.005435 267.216304,317.342391 C268.966304,317.63587 270.672826,317.918478 272.292391,318.190217 C271.509783,327.429348 269.205435,335.527174 265.694565,342.516304 L267.107609,342.711957 C289.259783,344.505435 305.053261,340.570652 315.988043,333.157609 C316.922826,334.951087 317.922826,336.679348 318.966304,338.353261 C310.433696,343.994565 299.509783,347.625 285.944565,348.516304 L285.944565,348.516304 Z M375.379348,157.831522 C375.759783,162.298913 375.444565,167.809783 373.151087,171.983696 C370.477174,176.842391 366.803261,179.972826 359.792391,181.233696 C359.629348,181.266304 359.248913,181.288043 358.803261,181.320652 L358.803261,181.331522 C358.56413,181.353261 358.357609,181.38587 358.118478,181.418478 C357.596739,181.451087 357.096739,181.494565 356.618478,181.559783 C363.672826,198.309783 386.890217,253.298913 386.890217,253.298913 C382.433696,254.103261 377.542391,254.429348 377.542391,254.429348 L348.205435,185.657609 C347.466304,186.396739 346.988043,187.038043 346.716304,187.429348 C346.433696,187.766304 346.151087,188.092391 345.846739,188.472826 C341.292391,194.179348 338.520652,201.527174 336.955435,209.320652 C336.846739,209.831522 336.661957,210.625 336.477174,211.679348 C350.31413,232.951087 368.933696,240.907609 368.933696,240.907609 L373.553261,252.211957 C355.06413,246.842391 339.596739,230.070652 335.281522,225.048913 C335.281522,225.505435 335.292391,225.972826 335.303261,226.440217 C335.238043,235.788043 336.379348,244.61413 337.901087,250.929348 C338.781522,253.701087 339.553261,256.483696 340.238043,259.255435 C338.096739,259.472826 335.988043,259.690217 333.911957,259.896739 C332.488043,254.36413 330.716304,249.125 328.727174,244.418478 C318.270652,219.690217 289.738043,230.994565 291.738043,245.88587 C283.031522,226.679348 274.183696,207.13587 267.575,192.559783 C270.107609,189.788043 275.281522,184.538043 283.607609,179.201087 C277.792391,181.766304 273.183696,185.820652 273.183696,185.820652 C270.911957,187.581522 268.857609,189.396739 266.977174,191.255435 C266.488043,190.146739 265.998913,189.081522 265.520652,188.038043 C263.83587,184.298913 262.33587,180.983696 261.075,178.222826 C265.33587,175.472826 269.672826,172.668478 275.151087,170.690217 C290.998913,164.244565 309.303261,159.86413 326.825,156.190217 C327.803261,155.983696 328.781522,155.788043 329.748913,155.592391 C330.292391,164.331522 325.857609,167.668478 318.238043,169.255435 C313.281522,170.277174 309.238043,170.440217 307.183696,171.13587 L311.911957,171.298913 C312.151087,171.331522 317.368478,171.255435 324.629348,168.798913 C329.379348,167.027174 332.966304,163.831522 331.433696,155.233696 C332.248913,155.070652 333.075,154.896739 333.879348,154.733696 C335.172826,162.907609 333.966304,170.798913 318.129348,172.331522 C320.83587,174.201087 345.498913,169.625 360.346739,173.027174 C360.694565,173.190217 366.922826,175.331522 359.81413,178.440217 C373.58587,175.375 374.346739,161.657609 371.727174,151.451087 L372.292391,151.527174 C374.846739,151.701087 377.053261,152.038043 378.81413,152.353261 C378.81413,152.36413 378.825,152.375 378.83587,152.38587 C380.151087,152.538043 381.759783,152.711957 383.411957,152.929348 C393.672826,153.951087 392.727174,141.831522 387.346739,140.266304 C383.238043,139.059783 382.183696,139.038043 381.151087,138.86413 L379.705435,138.690217 L366.911957,110.168478 L373.998913,106.88587 L392.303261,139.918478 C400.803261,153.418478 386.716304,158.983696 378.944565,154.918478 C377.161957,155.820652 376.216304,156.679348 375.379348,157.831522 L375.379348,157.831522 Z M409.640217,249.820652 C403.477174,251.36413 389.238043,252.907609 389.238043,252.907609 L386.31413,246.233696 C401.194565,248.288043 412.368478,247.081522 412.368478,247.081522 C409.81413,247.418478 409.640217,249.820652 409.640217,249.820652 L409.640217,249.820652 Z M422.977174,247.918478 C421.357609,246.61413 419.759783,246.429348 419.325,246.407609 C419.292391,246.407609 419.248913,246.396739 419.216304,246.396739 C419.216304,246.396739 419.259783,246.396739 419.325,246.407609 C423.901087,246.722826 437.520652,245.36413 437.520652,245.36413 C434.955435,246.396739 422.977174,247.918478 422.977174,247.918478 L422.977174,247.918478 Z M453.379348,249.179348 C453.498913,249.929348 453.118478,252.766304 450.009783,253.353261 L448.890217,253.592391 C446.08587,254.472826 440.466304,255.788043 434.846739,256.853261 C431.368478,257.516304 428.151087,258.13587 428.433696,257.961957 C427.705435,256.331522 427.183696,254.657609 425.053261,250.505435 C431.227174,249.451087 439.161957,247.853261 444.651087,246.244565 C446.357609,245.733696 449.575,245.331522 449.575,245.331522 C452.031522,245.744565 453.08587,247.190217 453.379348,249.179348 L453.379348,249.179348 Z M481.694565,350.63587 C481.694565,348.581522 478.509783,344.755435 473.031522,343.625 C473.031522,343.625 473.140217,341.516304 472.977174,338.951087 C471.607609,325.016304 466.596739,299.690217 466.596739,299.690217 C474.346739,297.179348 473.661957,281.320652 460.433696,281.418478 C457.248913,267.048913 452.618478,255.581522 452.618478,255.581522 C459.81413,251.646739 456.444565,245.016304 452.498913,243.820652 C452.498913,243.820652 459.694565,242.277174 463.009783,254.711957 C475.031522,288.451087 484.368478,334.657609 481.694565,350.63587 L481.694565,350.63587 Z M465.161957,297.233696 C465.161957,297.233696 461.238043,299.233696 443.096739,302.483696 C443.096739,302.483696 441.618478,296.831522 440.944565,293.929348 C440.944565,293.929348 456.281522,290.733696 462.259783,288.494565 C462.259783,288.494565 462.140217,286.505435 459.183696,286.559783 C459.183696,286.559783 443.618478,290.505435 440.020652,290.842391 L439.172826,288.451087 C439.172826,288.451087 452.498913,285.88587 456.955435,284.853261 C456.955435,284.853261 466.368478,281.603261 468.422826,288.798913 C468.422826,288.798913 470.466304,295.016304 465.161957,297.233696 L465.161957,297.233696 Z M469.390217,360.505435 C464.553261,361.875 448.857609,365.994565 448.857609,365.994565 C449.716304,362.222826 449.542391,356.233696 449.542391,356.233696 C479.825,349.733696 451.08587,346.994565 451.08587,346.994565 C457.759783,349.048913 457.575,351.440217 457.575,351.440217 C454.672826,351.603261 449.542391,350.070652 449.542391,350.070652 C449.716304,348.190217 449.205435,340.483696 449.205435,340.483696 C457.075,343.907609 458.33587,342.929348 466.488043,344.755435 C474.846739,346.646739 470.748913,350.070652 470.748913,350.070652 C466.488043,355.38587 450.748913,357.603261 450.748913,357.603261 C477.08587,354.179348 474.683696,346.994565 474.683696,346.994565 C485.455435,354.016304 474.846739,358.972826 469.390217,360.505435 L469.390217,360.505435 Z M258.825,207.211957 L283.477174,261.559783 C272.08587,260.277174 264.672826,256.951087 256.857609,251.451087 C253.988043,236.625 253.172826,221.527174 258.825,207.211957 L258.825,207.211957 Z M255.738043,200.396739 L257.390217,204.048913 C249.922826,218.059783 250.020652,233.690217 252.911957,248.538043 C252.672826,248.342391 252.422826,248.168478 252.183696,247.972826 C251.292391,247.146739 250.303261,246.201087 249.292391,245.233696 C242.607609,238.809783 233.694565,229.744565 227.694565,223.342391 C236.118478,209.733696 244.238043,196.755435 244.238043,196.766304 C246.433696,193.320652 248.759783,189.766304 250.042391,187.853261 L255.738043,200.396739 Z M252.998913,169.461957 C254.096739,169.472826 255.096739,169.820652 255.151087,169.907609 L296.857609,262.233696 C296.857609,262.233696 291.096739,262.494565 286.58587,261.548913 C268.81413,222.690217 248.009783,177.146739 247.977174,177.092391 C247.118478,175.548913 247.129348,174.027174 248.009783,172.527174 C249.172826,170.592391 251.455435,169.440217 252.998913,169.461957 L252.998913,169.461957 Z M350.56413,156.581522 C350.56413,156.581522 353.651087,154.472826 353.81413,152.244565 C353.81413,152.244565 361.009783,152.244565 364.661957,152.298913 C364.661957,152.298913 361.966304,157.375 350.56413,156.581522 L350.56413,156.581522 Z M385.857609,142.38587 L385.977174,142.429348 L386.08587,142.440217 C387.879348,142.701087 388.944565,145.027174 388.781522,146.940217 C388.672826,147.972826 388.053261,150.320652 384.509783,150.320652 C381.31413,149.61413 372.922826,148.820652 368.640217,148.407609 C368.640217,144.820652 366.433696,139.679348 366.433696,139.679348 C371.172826,140.13587 383.33587,141.538043 385.857609,142.38587 L385.857609,142.38587 Z M333.998913,111.472826 L337.06413,109.875 C337.06413,109.875 337.325,109.711957 337.31413,109.755435 C337.140217,110.092391 337.183696,110.907609 337.183696,110.907609 C337.118478,111.994565 337.151087,112.538043 338.303261,115.668478 C340.118478,120.559783 349.58587,140.201087 350.683696,143.048913 C356.151087,157.266304 342.009783,159.896739 340.542391,153.61413 C355.58587,152.472826 349.477174,136.722826 340.944565,138.951087 C337.683696,130.907609 335.118478,122.853261 335.118478,122.853261 C335.118478,122.853261 331.781522,114.125 333.998913,111.472826 L333.998913,111.472826 Z M331.58587,112.61413 C330.31413,116.711957 332.727174,123.027174 332.727174,123.027174 L338.596739,139.407609 L335.509783,139.972826 C335.509783,139.972826 331.705435,129.461957 329.292391,122.179348 C327.477174,116.63587 328.792391,113.951087 328.792391,113.951087 L331.58587,112.61413 Z M341.444565,141.831522 C344.33587,141.429348 346.738043,143.418478 347.06413,145.505435 C347.325,147.36413 346.379348,149.527174 342.825,150.092391 L341.172826,150.418478 C319.411957,154.777174 294.770652,159.711957 274.161957,168.081522 C267.683696,170.418478 264.227174,172.38587 260.58587,175.146739 C260.58587,175.146739 258.58587,170.798913 257.857609,169.538043 C256.716304,167.505435 256.553261,167.298913 255.596739,166.755435 C258.575,164.755435 262.433696,162.86413 267.672826,160.679348 C282.825,154.331522 314.270652,146.211957 341.444565,141.831522 L341.444565,141.831522 Z M244.988043,174.092391 C244.988043,174.092391 244.803261,176.353261 245.998913,178.777174 C246.977174,180.711957 248.933696,185.581522 248.933696,185.581522 C249.259783,185.255435 244.542391,191.125 241.911957,195.255435 L226.053261,221.288043 L221.781522,216.592391 C221.781522,216.592391 219.955435,214.407609 218.248913,214.407609 C226.553261,200.940217 234.118478,188.961957 236.694565,185.11413 C239.390217,180.679348 245.83587,173.081522 244.988043,174.092391 L244.988043,174.092391 Z M317.879348,308.907609 C317.879348,308.907609 314.053261,309.657609 307.56413,309.146739 C304.488043,303.331522 301.08587,295.407609 292.401087,276.396739 C298.31413,277.070652 302.781522,276.451087 302.781522,276.451087 L317.879348,308.907609 Z M343.33587,278.646739 C343.368478,279.11413 343.379348,279.581522 343.401087,280.059783 L388.227174,287.755435 C389.08587,290.211957 392.292391,297.472826 392.292391,297.472826 L343.488043,289.179348 C343.488043,289.668478 343.477174,290.179348 343.477174,290.690217 C343.183696,296.277174 342.346739,301.668478 340.977174,306.777174 C338.81413,307.005435 336.640217,307.222826 334.444565,307.429348 C337.672826,296.88587 338.031522,285.125 336.58587,273.788043 C338.640217,273.570652 340.716304,273.353261 342.803261,273.11413 C343.042391,274.972826 343.205435,276.809783 343.33587,278.646739 L343.33587,278.646739 Z M407.58587,297.11413 L404.161957,289.233696 C415.618478,289.418478 423.890217,289.309783 423.890217,289.309783 C425.259783,294.375 420.531522,294.559783 420.531522,294.559783 L407.58587,297.11413 Z M405.346739,297.809783 C403.81413,298.494565 396.292391,299.570652 396.292391,299.570652 C394.498913,296.157609 383.118478,268.298913 383.118478,268.298913 C384.466304,268.13587 392.118478,266.875 392.118478,266.875 C397.922826,283.048913 405.346739,297.809783 405.346739,297.809783 L405.346739,297.809783 Z M192.531522,279.570652 C201.411957,284.875 214.020652,292.701087 214.020652,292.701087 C222.705435,298.233696 229.390217,290.277174 231.509783,287.461957 C233.151087,285.266304 238.205435,278.483696 238.031522,272.657609 C237.857609,266.994565 233.520652,263.961957 229.651087,261.407609 L211.596739,249.570652 C213.270652,246.86413 215.966304,242.505435 220.053261,235.88587 C228.161957,243.983696 237.488043,252.86413 237.56413,252.951087 C243.096739,258.951087 248.738043,263.375 254.357609,266.657609 C255.694565,267.440217 257.031522,268.13587 258.357609,268.798913 C261.944565,279.766304 265.868478,289.483696 267.56413,296.646739 C266.194565,288.298913 263.705435,279.375 261.270652,270.146739 C270.879348,274.288043 280.281522,275.570652 288.879348,276.048913 C289.281522,276.070652 289.683696,276.103261 290.08587,276.125 L290.661957,277.38587 C287.248913,286.461957 280.901087,296.190217 272.683696,302.125 C272.716304,302.603261 272.738043,303.081522 272.748913,303.559783 C270.368478,303.179348 267.868478,302.777174 265.281522,302.375 C263.390217,302.070652 261.455435,301.766304 259.477174,301.451087 C258.553261,301.298913 257.618478,301.146739 256.672826,301.005435 C227.607609,296.36413 192.194565,290.733696 185.683696,289.690217 L192.531522,279.570652 Z M195.922826,255.701087 C202.618478,259.907609 216.705435,268.429348 220.759783,270.679348 C225.118478,273.103261 225.988043,274.266304 225.988043,274.266304 C231.053261,279.070652 230.08587,283.842391 227.618478,287.168478 C224.825,290.929348 219.455435,293.320652 214.977174,290.353261 L208.901087,286.603261 L208.911957,286.581522 L206.716304,285.255435 L187.83587,273.679348 L187.792391,273.646739 L187.727174,273.603261 C187.694565,273.592391 184.575,272.146739 183.792391,269.244565 C183.270652,267.288043 183.890217,265.059783 185.640217,262.592391 C189.629348,256.983696 191.56413,253.766304 192.411957,252.277174 C193.281522,254.168478 195.922826,255.701087 195.922826,255.701087 L195.922826,255.701087 Z M207.140217,254.853261 L227.270652,268.320652 C230.292391,270.494565 233.270652,274.211957 231.498913,279.244565 C231.238043,274.538043 225.401087,270.809783 225.401087,270.809783 C225.401087,270.809783 203.759783,258.070652 197.118478,253.907609 C193.325,251.527174 193.705435,248.233696 195.705435,246.505435 C195.411957,251.690217 203.368478,255.875 207.140217,254.853261 L207.140217,254.853261 Z M228.509783,266.538043 C224.56413,263.896739 209.183696,253.646739 209.183696,253.646739 L210.81413,252.070652 C217.759783,256.538043 226.879348,262.527174 230.825,265.516304 C237.890217,270.875 234.075,277.320652 234.075,277.320652 C234.781522,273.451087 233.020652,269.592391 228.509783,266.538043 L228.509783,266.538043 Z M210.890217,226.570652 C213.629348,230.342391 218.009783,234.298913 218.009783,234.298913 L206.998913,251.755435 C205.520652,252.929348 202.411957,251.722826 200.466304,249.853261 C200.020652,249.418478 197.879348,247.211957 199.161957,245.679348 L199.238043,245.603261 L199.281522,245.505435 C199.455435,245.233696 201.83587,241.266304 210.890217,226.570652 L210.890217,226.570652 Z M172.498913,300.581522 C170.303261,300.440217 168.031522,299.027174 167.227174,297.320652 C166.727174,296.288043 166.846739,295.244565 167.575,294.201087 L181.944565,272.255435 C182.846739,273.994565 190.06413,278.320652 190.06413,278.320652 C187.042391,282.809783 176.238043,298.875 176.227174,298.88587 C175.227174,300.418478 173.651087,300.657609 172.498913,300.581522 L172.498913,300.581522 Z M329.738043,328.788043 C329.031522,327.625 328.33587,326.429348 327.683696,325.190217 L326.716304,323.255435 C328.303261,323.081522 329.205435,322.929348 329.205435,322.929348 C330.890217,322.755435 332.629348,322.570652 334.368478,322.38587 C332.998913,324.63587 331.444565,326.766304 329.738043,328.788043 L329.738043,328.788043 Z M402.509783,313.451087 C404.390217,313.103261 412.151087,311.38587 412.151087,311.38587 C420.346739,323.701087 433.520652,332.603261 433.520652,332.603261 C433.857609,335.690217 434.140217,343.570652 434.140217,343.570652 C413.455435,333.461957 402.509783,313.451087 402.509783,313.451087 L402.509783,313.451087 Z M433.661957,368.798913 C411.520652,374.494565 387.781522,374.831522 367.803261,369.548913 C349.661957,364.755435 328.205435,354.244565 316.292391,327.86413 C316.292391,327.86413 314.770652,324.994565 314.433696,323.625 C314.433696,323.625 320.509783,323.744565 324.509783,323.407609 C342.998913,363.016304 390.651087,370.396739 431.488043,359.940217 C431.488043,359.940217 435.216304,359.298913 436.270652,358.168478 C437.118478,356.211957 437.031522,351.157609 437.031522,351.157609 C436.977174,350.005435 436.031522,325.61413 431.531522,309.396739 C431.129348,307.679348 430.58587,306.625 430.161957,306.222826 C430.161957,306.222826 428.922826,305.701087 428.053261,305.679348 C425.868478,305.603261 422.998913,306.211957 422.998913,306.211957 C397.803261,312.201087 358.846739,317.179348 328.096739,320.298913 C328.042391,320.298913 325.683696,320.657609 321.520652,320.831522 L318.205435,320.929348 C312.368478,320.983696 304.096739,320.625 293.672826,318.972826 C293.672826,318.972826 178.955435,300.309783 179.433696,300.298913 L185.56413,291.896739 C185.56413,291.896739 295.998913,310.038043 296.020652,310.038043 C312.857609,312.559783 320.683696,311.342391 320.890217,311.298913 C350.651087,309.646739 405.672826,301.483696 418.977174,297.940217 C418.977174,297.940217 426.172826,296.244565 427.08587,295.320652 C427.672826,294.733696 426.183696,289.331522 426.183696,289.331522 C426.129348,289.146739 420.738043,271.516304 418.031522,264.722826 L418.075,264.86413 C418.009783,264.581522 416.83587,260.820652 415.607609,260.244565 L414.705435,260.266304 C414.705435,260.266304 413.118478,260.570652 411.172826,261.005435 C385.248913,265.722826 337.879348,272.342391 310.042391,274.027174 C312.444565,273.875 298.770652,274.505435 288.140217,273.777174 C273.009783,272.929348 256.216304,269.168478 239.520652,251.038043 C239.33587,250.853261 220.857609,233.244565 213.422826,225.092391 C211.56413,222.461957 212.553261,219.559783 214.498913,218.027174 C215.879348,216.918478 218.607609,216.429348 220.140217,218.211957 C223.401087,222.581522 242.08587,241.88587 251.31413,250.516304 C261.553261,258.505435 268.911957,262.679348 283.205435,264.288043 C290.944565,265.201087 300.08587,265.081522 300.531522,265.092391 C319.368478,265.570652 387.998913,257.179348 408.183696,253.201087 C410.738043,252.853261 412.270652,252.255435 412.270652,252.255435 L412.238043,251.86413 L412.357609,251.016304 C412.390217,250.722826 413.553261,249.788043 414.520652,249.353261 C416.368478,248.494565 418.846739,248.483696 420.922826,250.168478 C435.31413,276.701087 449.531522,325.972826 446.238043,363.201087 C446.06413,365.168478 445.259783,366.777174 443.738043,367.548913 C443.738043,367.548913 440.455435,369.038043 437.118478,367.331522 C437.118478,367.331522 437.248913,367.603261 433.661957,368.798913 L433.661957,368.798913 Z M499.433696,342.744565 L499.422826,342.538043 L499.411957,342.320652 C497.161957,311.940217 490.368478,281.201087 478.629348,248.342391 L478.498913,248.016304 L478.368478,247.690217 L476.988043,244.429348 L477.151087,244.788043 C472.259783,232.081522 462.053261,226.603261 447.020652,228.461957 C447.020652,228.461957 440.009783,229.222826 440.259783,229.201087 L437.488043,229.440217 C425.901087,230.505435 409.248913,231.994565 394.575,230.63587 L376.33587,187.451087 C380.096739,184.983696 383.292391,182.103261 385.292391,178.461957 C386.922826,175.527174 387.933696,172.418478 388.553261,169.353261 C394.161957,168.581522 399.455435,166.092391 403.248913,161.994565 C408.792391,155.940217 411.933696,145.048913 404.096739,132.625 L404.488043,133.277174 L380.053261,89.2228261 L365.607609,95.3641304 C307.661957,1.96195652 197.433696,-12.3423913 116.06413,22.7663043 C42.2597826,54.625 -29.2184783,138.679348 12.1836957,270.733696 C16.5641304,284.646739 22.1836957,298.342391 28.8467391,311.570652 C28.4336957,315.679348 28.6728261,319.755435 29.6293478,323.918478 L29.6728261,324.13587 L29.7380435,324.36413 C31.8576087,332.331522 33.7815217,337.625 38.7163043,348.61413 C38.4336957,355.842391 41.1076087,363.201087 46.325,368.798913 C54.4663043,377.548913 67.3684783,380.983696 81.748913,378.201087 L81.0641304,378.298913 C100.075,375.63587 112.422826,370.059783 118.901087,366.353261 C147.379348,386.277174 184.618478,395.201087 217.683696,389.711957 C239.227174,386.13587 256.651087,376.809783 268.651087,362.63587 C277.825,363.255435 286.08587,362.277174 287.738043,362.070652 C297.901087,361.331522 307.151087,359.190217 315.390217,355.711957 C327.607609,369.961957 344.129348,380.179348 363.955435,385.418478 C387.107609,391.527174 413.357609,391.11413 438.325,384.418478 C443.161957,384.875 447.879348,383.548913 451.303261,381.972826 C477.531522,375.972826 483.390217,373.461957 487.281522,370.146739 C487.325,370.11413 487.379348,370.059783 487.422826,370.005435 C496.748913,363.625 499.803261,351.61413 499.433696,342.744565 L499.433696,342.744565 Z" id="Fill-1" fill="#FFFFFF" mask="url(#mask-2)"></path>
                </g>
                <path d="M238.516304,371.081522 C246.722826,366.798913 253.777174,360.831522 259.103261,352.929348 C259.092391,352.918478 259.070652,352.918478 259.048913,352.907609 C261.472826,349.472826 263.244565,345.929348 264.516304,342.353261 C259.125,355.559783 249.907609,364.940217 238.516304,371.081522" id="Fill-4" fill="#FFFFFF"></path>
                <path d="M227.696739,229.004348 C233.696739,235.395652 242.609783,244.46087 249.294565,250.884783 C247.772826,241.276087 247.41413,231.395652 249.403261,222.254348 C250.751087,216.047826 253.011957,210.678261 255.729348,206.058696 L250.044565,193.504348 C248.761957,195.428261 246.43587,198.982609 244.229348,202.428261 C244.229348,202.406522 236.120652,215.384783 227.696739,229.004348" id="Fill-6" fill="#E93825"></path>
                <path d="M249.206522,276.241304 C253.119565,284.643478 257.184783,295.371739 259.478261,307.1 C261.456522,307.426087 263.391304,307.730435 265.282609,308.023913 C264.673913,305.045652 264.032609,302.35 263.532609,300.023913 C262.478261,295.186957 258.173913,284.882609 254.358696,272.317391 C248.73913,269.034783 243.097826,264.61087 237.565217,258.61087 C237.48913,258.523913 228.163043,249.643478 220.054348,241.545652 C215.967391,248.165217 213.271739,252.523913 211.597826,255.230435 L229.652174,267.067391 C233.521739,269.621739 237.858696,272.654348 238.032609,278.306522 C238.206522,284.132609 233.152174,290.926087 231.51087,293.121739 C229.391304,295.936957 222.706522,303.882609 214.021739,298.36087 C214.021739,298.36087 201.413043,290.534783 192.532609,285.230435 L185.684783,295.35 C192.195652,296.382609 227.608696,302.023913 256.673913,306.654348 C255.141304,295.436957 251.445652,285.186957 249.206522,276.241304" id="Fill-8" fill="#E93825"></path>
                <path d="M278.804348,183.7 C289.163043,178.091304 295.554348,175.058696 311.978261,172.95 C311.913043,172.96087 316.065217,172.384783 316.065217,172.384783 C318.858696,171.971739 324.195652,170.863043 325.73913,168.080435 C326.608696,166.504348 326.945652,164.384783 326.826087,161.852174 C309.304348,165.515217 291,169.906522 275.152174,176.352174 C269.673913,178.330435 265.336957,181.134783 261.076087,183.873913 C262.336957,186.645652 263.836957,189.95 265.521739,193.68913 C269.706522,189.656522 273.847826,186.797826 276.934783,184.96087 C277.521739,184.515217 278.804348,183.7 278.804348,183.7" id="Fill-10" fill="#E93825"></path>
                <path d="M159.15,300.761957 C157.236957,301.392391 155.193478,301.718478 153.084783,301.68587 C147.280435,301.653261 141.497826,299.055435 137.215217,294.555435 C128.813043,285.751087 128.269565,272.175 135.997826,264.294565 C139.486957,260.740217 144.215217,258.805435 149.323913,258.838043 C155.128261,258.881522 160.91087,261.490217 165.193478,265.968478 C169.519565,270.501087 171.758696,276.316304 171.867391,281.946739 L159.15,300.761957 Z M187.802174,320.696739 C171.954348,337.457609 140.541304,337.348913 122.693478,314.479348 C152.9,342.501087 181.063043,323.990217 187.802174,320.696739 L187.802174,320.696739 Z M141.247826,346.109783 C139.88913,347.240217 138.052174,347.66413 136.13913,347.501087 C134.019565,348.838043 130.715217,348.098913 128.367391,345.609783 C126.182609,343.305435 125.541304,340.272826 126.606522,338.207609 C126.15,334.859783 127.182609,331.533696 129.541304,329.859783 C133.128261,327.348913 138.552174,328.903261 141.671739,333.316304 C144.780435,337.751087 144.628261,343.283696 141.247826,346.109783 L141.247826,346.109783 Z M215.617391,316.229348 C220.834783,316.261957 225.063043,320.501087 225.041304,325.740217 C225.030435,329.620652 222.671739,332.93587 219.313043,334.370652 C218.182609,335.577174 216.606522,336.327174 214.845652,336.316304 C212.378261,336.316304 210.269565,334.827174 209.291304,332.68587 C207.367391,330.957609 206.13913,328.468478 206.15,325.66413 C206.171739,320.446739 210.41087,316.229348 215.617391,316.229348 L215.617391,316.229348 Z M315.976087,117.457609 C316.454348,116.707609 317.16087,116.142391 317.954348,115.675 C290.813043,69.7293478 225.747826,22.2293478 141.269565,36.6206522 C59.4326087,62.8706522 -4.42608696,142.620652 23.9543478,256.316304 C35.8130435,299.468478 49.6717391,322.348913 64.7152174,343.794565 C64.7152174,343.794565 64.0304348,354.207609 81.9978261,348.772826 C98.2586957,343.848913 108.171739,343.468478 125.15,356.131522 C154.758696,378.18587 205.693478,388.196739 238.519565,371.077174 C249.91087,364.93587 259.128261,355.555435 264.508696,342.348913 C266.823913,335.827174 267.432609,329.207609 267.215217,323.001087 C265.193478,322.66413 263.095652,322.316304 260.932609,321.957609 C259.530435,348.794565 232.91087,374.642391 185.323913,371.66413 C165.486957,370.925 144.302174,361.283696 131.671739,354.403261 C125.856522,350.501087 109.476087,341.305435 101.617391,339.577174 C108.443478,339.93587 125.541304,348.892391 132.704348,353.033696 C147.38913,360.598913 167.88913,367.859783 185.334783,368.588043 C217.106522,371.577174 253.16087,355.294565 257.008696,321.305435 C225.128261,315.990217 182.834783,308.946739 176.704348,307.925 C175.454348,308.816304 173.88913,309.261957 172.15,309.142391 C168.932609,308.925 165.823913,306.946739 164.584783,304.327174 C163.66087,302.370652 163.856522,300.305435 165.16087,298.479348 C165.13913,298.511957 180.258696,275.968478 180.258696,275.968478 L180.878261,274.751087 C180.171739,271.305435 181.802174,268.283696 182.530435,267.555435 C183.769565,266.316304 190.63913,255.044565 192.226087,251.881522 C192.4,251.511957 194.226087,248.68587 197.823913,248.41413 C199.421739,245.848913 203.280435,239.696739 209.813043,229.088043 C209.302174,226.098913 210.682609,223.196739 212.813043,221.522826 C213.454348,221.011957 214.128261,220.653261 214.813043,220.403261 C222.9,207.327174 231.932609,193.011957 234.454348,189.261957 C237.334783,185.305435 239.595652,182.66413 242.171739,179.696739 C243.106522,178.631522 245.215217,176.93587 246.13913,176.218478 C247.334783,174.598913 249.128261,173.338043 250.986957,172.794565 C251.008696,172.653261 251.117391,172.479348 251.356522,172.283696 C257.867391,166.968478 267.063043,163.642391 267.063043,163.642391 C279.334783,158.511957 301.16087,152.598913 323.476087,148.120652 C321.91087,143.609783 316.954348,129.338043 316.954348,129.338043 C316.704348,128.718478 313.269565,121.68587 315.976087,117.457609 L315.976087,117.457609 Z" id="Fill-12" fill="#E93825"></path>
                <path d="M256.677174,306.657609 C257.622826,306.809783 258.557609,306.961957 259.481522,307.103261 C257.177174,295.36413 253.111957,284.63587 249.209783,276.244565 C251.448913,285.179348 255.144565,295.440217 256.677174,306.657609" id="Fill-14" fill="#2D1B00"></path>
                <path d="M185.331522,368.591304 C167.88587,367.863043 147.396739,360.591304 132.701087,353.026087 C125.538043,348.884783 108.451087,339.93913 101.61413,339.580435 C109.472826,341.308696 125.86413,350.493478 131.668478,354.395652 C144.309783,361.286957 165.483696,370.928261 185.320652,371.667391 C232.918478,374.645652 259.527174,348.786957 260.929348,321.95 C259.646739,321.743478 258.342391,321.526087 257.005435,321.297826 C253.157609,355.286957 217.103261,371.580435 185.331522,368.591304" id="Fill-16" fill="#2D1B00"></path>
                <path d="M149.329348,258.842391 C144.220652,258.809783 139.492391,260.744565 136.003261,264.298913 C128.26413,272.168478 128.818478,285.755435 137.220652,294.559783 C141.503261,299.048913 147.28587,301.646739 153.079348,301.690217 C155.188043,301.722826 157.242391,301.396739 159.155435,300.766304 L171.861957,281.951087 C171.76413,276.320652 169.525,270.505435 165.188043,265.972826 C160.916304,261.483696 155.122826,258.875 149.329348,258.842391" id="Fill-18" fill="#2D1B00"></path>
                <path d="M122.693478,314.480435 C140.541304,337.35 171.954348,337.458696 187.802174,320.697826 C181.063043,323.991304 152.9,342.502174 122.693478,314.480435" id="Fill-20" fill="#2D1B00"></path>
                <path d="M215.846739,317.929348 C221.998913,317.918478 226.281522,325.809783 221.151087,331.11413 C223.379348,326.331522 221.553261,320.233696 215.672826,319.983696 C209.575,319.733696 207.542391,325.86413 208.607609,329.070652 C206.542391,327.125 207.248913,317.961957 215.846739,317.929348 M218.901087,324.788043 C217.575,323.298913 214.227174,322.61413 212.31413,323.896739 C211.444565,324.429348 210.553261,323.733696 211.651087,322.61413 C213.81413,320.722826 217.83587,320.820652 219.683696,323.559783 C220.607609,324.940217 219.618478,325.88587 218.901087,324.788043 M214.825,335.222826 C211.977174,335.222826 209.672826,332.896739 209.672826,330.016304 C209.672826,327.146739 211.977174,324.820652 214.825,324.820652 C217.651087,324.820652 219.955435,327.146739 219.955435,330.016304 C219.955435,332.896739 217.651087,335.222826 214.825,335.222826 M209.292391,332.690217 C210.270652,334.831522 212.379348,336.320652 214.846739,336.320652 C216.607609,336.331522 218.183696,335.581522 219.31413,334.375 C222.672826,332.940217 225.031522,329.61413 225.042391,325.733696 C225.053261,320.494565 220.83587,316.266304 215.618478,316.233696 C210.411957,316.222826 206.172826,320.451087 206.151087,325.668478 C206.140217,328.461957 207.368478,330.951087 209.292391,332.690217" id="Fill-22" fill="#2D1B00"></path>
                <path d="M211.654348,322.61087 C210.556522,323.730435 211.447826,324.426087 212.306522,323.893478 C214.230435,322.61087 217.578261,323.306522 218.904348,324.784783 C219.621739,325.882609 220.6,324.947826 219.676087,323.556522 C217.83913,320.828261 213.817391,320.719565 211.654348,322.61087" id="Fill-24" fill="#FFFFFF"></path>
                <path d="M215.676087,319.978261 C221.556522,320.228261 223.382609,326.326087 221.154348,331.108696 C226.284783,325.804348 222.002174,317.913043 215.85,317.923913 C207.252174,317.967391 206.545652,327.119565 208.61087,329.065217 C207.545652,325.858696 209.567391,319.73913 215.676087,319.978261" id="Fill-26" fill="#FFFFFF"></path>
                <path d="M214.773913,334.086957 C212.502174,334.086957 210.665217,332.25 210.665217,329.978261 C210.665217,327.706522 212.502174,325.869565 214.773913,325.869565 C217.045652,325.869565 218.893478,327.706522 218.893478,329.978261 C218.893478,332.25 217.045652,334.086957 214.773913,334.086957 M219.958696,330.021739 C219.958696,327.152174 217.654348,324.815217 214.817391,324.815217 C211.969565,324.815217 209.676087,327.152174 209.676087,330.021739 C209.676087,332.902174 211.969565,335.228261 214.817391,335.228261 C217.654348,335.228261 219.958696,332.902174 219.958696,330.021739" id="Fill-28" fill="#FFFFFF"></path>
                <path d="M211.738043,330.119565 C211.846739,329.597826 212.096739,329.847826 212.205435,330.26087 C213.325,332.021739 216.444565,332.163043 217.390217,330.793478 C217.879348,330.097826 217.868478,331.054348 217.868478,331.054348 C215.911957,334.913043 211.433696,332.478261 211.738043,330.119565 M214.770652,325.869565 C212.509783,325.869565 210.661957,327.706522 210.661957,329.978261 C210.661957,332.25 212.509783,334.086957 214.770652,334.086957 C217.053261,334.086957 218.890217,332.25 218.890217,329.978261 C218.890217,327.706522 217.053261,325.869565 214.770652,325.869565" id="Fill-30" fill="#2D1B00"></path>
                <path d="M217.38913,330.795652 C216.443478,332.165217 213.323913,332.023913 212.204348,330.252174 C212.095652,329.85 211.845652,329.58913 211.736957,330.121739 C211.432609,332.469565 215.91087,334.915217 217.867391,331.056522 C217.867391,331.056522 217.878261,330.1 217.38913,330.795652" id="Fill-32" fill="#FFFFFF"></path>
                <path d="M139.003261,345.707609 C145.318478,337.501087 133.03587,327.93587 128.188043,335.533696 C132.231522,323.131522 148.51413,338.707609 139.003261,345.707609 M137.448913,339.229348 C136.818478,337.892391 134.796739,336.16413 133.666304,335.946739 C132.525,335.729348 132.959783,333.870652 134.329348,334.348913 C135.611957,334.783696 137.590217,336.468478 138.068478,337.272826 C139.340217,339.348913 137.992391,340.392391 137.448913,339.229348 M128.970652,344.859783 C126.76413,342.533696 126.383696,339.316304 128.122826,337.66413 C129.861957,336.033696 133.057609,336.566304 135.253261,338.892391 C137.459783,341.218478 137.840217,344.446739 136.111957,346.088043 C134.372826,347.740217 131.177174,347.196739 128.970652,344.859783 M129.546739,329.859783 C127.177174,331.533696 126.144565,334.859783 126.601087,338.207609 C125.53587,340.272826 126.188043,343.305435 128.372826,345.609783 C130.720652,348.098913 134.01413,348.838043 136.133696,347.501087 C138.046739,347.66413 139.883696,347.240217 141.242391,346.109783 C144.633696,343.283696 144.78587,337.751087 141.666304,333.316304 C138.546739,328.903261 133.122826,327.348913 129.546739,329.859783" id="Fill-34" fill="#2D1B00"></path>
                <path d="M134.331522,334.345652 C132.951087,333.867391 132.516304,335.726087 133.668478,335.954348 C134.798913,336.171739 136.820652,337.88913 137.440217,339.236957 C137.994565,340.38913 139.331522,339.345652 138.070652,337.269565 C137.581522,336.465217 135.603261,334.791304 134.331522,334.345652" id="Fill-36" fill="#FFFFFF"></path>
                <path d="M128.190217,335.533696 C133.038043,327.93587 145.309783,337.501087 139.005435,345.707609 C148.516304,338.707609 132.233696,323.131522 128.190217,335.533696" id="Fill-38" fill="#FFFFFF"></path>
                <path d="M135.195652,345.590217 C133.75,346.655435 131.315217,345.78587 129.521739,344.133696 C127.597826,342.372826 127.445652,339.644565 128.76087,338.351087 C130.25,336.927174 132.891304,337.818478 134.467391,339.633696 C135.75,341.101087 136.847826,344.340217 135.195652,345.590217 M135.26087,338.894565 C133.054348,336.568478 129.869565,336.025 128.119565,337.666304 C126.391304,339.318478 126.76087,342.53587 128.978261,344.861957 C131.173913,347.188043 134.380435,347.742391 136.108696,346.090217 C137.836957,344.448913 137.467391,341.220652 135.26087,338.894565" id="Fill-40" fill="#FFFFFF"></path>
                <path d="M133.973913,344.879348 C131.017391,345.161957 128.365217,341.575 129.452174,339.977174 C129.452174,339.977174 130.267391,338.868478 130.419565,339.901087 C130.680435,341.661957 132.53913,343.509783 134.3,343.977174 C134.723913,344.075 134.865217,344.716304 133.973913,344.879348 M128.767391,338.346739 C127.441304,339.640217 127.593478,342.368478 129.528261,344.140217 C131.31087,345.781522 133.756522,346.651087 135.191304,345.58587 C136.843478,344.33587 135.745652,341.096739 134.463043,339.629348 C132.886957,337.825 130.245652,336.933696 128.767391,338.346739" id="Fill-42" fill="#2D1B00"></path>
                <path d="M130.417391,339.898913 C130.265217,338.866304 129.46087,339.98587 129.46087,339.98587 C128.363043,341.572826 131.015217,345.159783 133.971739,344.877174 C134.863043,344.725 134.721739,344.072826 134.297826,343.975 C132.536957,343.507609 130.678261,341.659783 130.417391,339.898913" id="Fill-44" fill="#FFFFFF"></path>
                <path d="M115.616304,355.169565 C116.203261,354.767391 116.811957,354.321739 117.279348,353.973913 C109.181522,348.81087 99.1380435,345.441304 82.8228261,350.821739 C82.5728261,350.897826 82.3445652,350.973913 82.0945652,351.05 C86.0184783,350.256522 91.4423913,349.354348 94.8228261,349.582609 C99.1380435,349.897826 105.475,350.517391 111.48587,354.332609 L108.475,355.963043 C94.2467391,362.865217 82.2358696,364.78913 75.4423913,365.267391 C68.7684783,365.745652 70.051087,361.843478 74.4532609,359.626087 C76.8663043,358.397826 78.9097826,356.06087 79.801087,351.78913 C79.0728261,352.158696 79.0728261,352.006522 78.0076087,352.202174 C77.9641304,352.213043 77.9315217,352.223913 77.8880435,352.234783 C76.4315217,362.713043 55.9206522,361.636957 58.1923913,347.365217 C58.1923913,347.365217 55.2467391,341.3 53.551087,337.778261 C53.5836957,337.930435 53.1271739,335.571739 53.3554348,335.517391 C53.3554348,335.517391 58.3771739,343.658696 60.4423913,346.234783 C57.6706522,355.973913 71.9097826,360.028261 75.725,352.702174 C63.1706522,355.03913 62.7032609,348.615217 62.8880435,346.473913 C62.7793478,346.158696 62.7141304,345.8 62.6271739,345.463043 C60.4423913,343.234783 53.3445652,333.8 45.2467391,318.963043 C44.1597826,327.604348 53.9532609,347.593478 54.7576087,349.571739 L55.5945652,351.636957 C52.6380435,359.821739 61.1597826,370.55 76.4532609,368.082609 C91.4967391,366.658696 108.398913,360.354348 115.616304,355.169565" id="Fill-46" fill="#FFFFFF"></path>
                <path d="M326.711957,328.915217 L327.690217,330.85 C328.342391,332.08913 329.027174,333.273913 329.744565,334.436957 C331.440217,332.426087 332.994565,330.284783 334.375,328.045652 C332.625,328.230435 330.896739,328.415217 329.211957,328.58913 C329.211957,328.58913 328.298913,328.741304 326.711957,328.915217" id="Fill-48" fill="#2D1B00"></path>
                <path d="M334.45,313.084783 C336.645652,312.878261 338.819565,312.66087 340.971739,312.432609 C342.352174,307.334783 343.178261,301.943478 343.482609,296.345652 C343.482609,295.834783 343.493478,295.323913 343.493478,294.834783 L392.297826,303.128261 C392.297826,303.128261 389.080435,295.867391 388.232609,293.41087 L343.395652,285.715217 C343.373913,285.236957 343.363043,284.769565 343.341304,284.302174 C343.21087,282.465217 343.036957,280.628261 342.808696,278.769565 C340.71087,279.008696 338.634783,279.226087 336.591304,279.443478 C338.026087,290.780435 337.678261,302.541304 334.45,313.084783" id="Fill-50" fill="#2D1B00"></path>
                <path d="M249.290217,250.88587 C250.301087,251.86413 251.290217,252.798913 252.181522,253.63587 C252.431522,253.831522 252.670652,254.005435 252.909783,254.201087 C250.029348,239.353261 249.920652,223.722826 257.388043,209.711957 L255.73587,206.048913 C253.018478,210.679348 250.757609,216.048913 249.409783,222.255435 C247.409783,231.396739 247.779348,241.277174 249.290217,250.88587" id="Fill-52" fill="#2D1B00"></path>
                <path d="M265.28587,308.028261 C267.872826,308.441304 270.372826,308.832609 272.753261,309.223913 C272.731522,308.734783 272.709783,308.256522 272.677174,307.78913 C280.905435,301.854348 287.253261,292.126087 290.655435,283.03913 L290.090217,281.778261 C289.677174,281.756522 289.275,281.734783 288.883696,281.702174 C280.28587,281.223913 270.872826,279.952174 261.275,275.81087 C263.698913,285.03913 266.188043,293.963043 267.568478,302.3 C265.872826,295.136957 261.948913,285.430435 258.361957,274.452174 C257.025,273.8 255.698913,273.093478 254.361957,272.321739 C258.166304,284.886957 262.470652,295.191304 263.53587,300.028261 C264.03587,302.343478 264.677174,305.05 265.28587,308.028261" id="Fill-54" fill="#2D1B00"></path>
                <path d="M331.522826,239.782609 C328.566304,226.021739 331.696739,200.456522 341.729348,193.163043 C327.403261,194.891304 323.41413,230.826087 331.522826,239.782609" id="Fill-56" fill="#FFFFFF"></path>
                <path d="M283.482609,267.215217 L258.830435,212.878261 C253.167391,227.182609 253.993478,242.280435 256.863043,257.117391 C264.678261,262.606522 272.080435,265.932609 283.482609,267.215217" id="Fill-58" fill="#2D1B00"></path>
                <path d="M331.522826,239.782609 C323.41413,230.826087 327.403261,194.891304 341.729348,193.163043 C331.696739,200.456522 328.566304,226.021739 331.522826,239.782609 M378.946739,160.576087 C386.718478,164.641304 400.805435,159.076087 392.305435,145.576087 L374.001087,112.543478 L366.91413,115.826087 L379.707609,144.347826 L381.153261,144.521739 C382.18587,144.684783 383.240217,144.717391 387.338043,145.923913 C392.729348,147.48913 393.675,159.608696 383.41413,158.586957 C381.761957,158.369565 380.153261,158.195652 378.838043,158.043478 C378.827174,158.032609 378.816304,158.021739 378.816304,158.01087 C377.055435,157.695652 374.848913,157.358696 372.294565,157.184783 L371.729348,157.108696 C374.348913,167.315217 373.588043,181.032609 359.816304,184.097826 C366.925,180.98913 360.696739,178.847826 360.338043,178.684783 C345.490217,175.282609 320.838043,179.858696 318.131522,177.98913 C333.968478,176.456522 335.16413,168.565217 333.881522,160.391304 C333.066304,160.554348 332.251087,160.728261 331.43587,160.891304 C332.957609,169.48913 329.381522,172.684783 324.620652,174.456522 C317.370652,176.913043 312.142391,176.98913 311.91413,176.956522 L307.18587,176.793478 C309.240217,176.097826 313.283696,175.934783 318.240217,174.913043 C325.859783,173.326087 330.283696,169.98913 329.751087,161.25 C328.772826,161.445652 327.805435,161.641304 326.827174,161.847826 C326.93587,164.380435 326.609783,166.5 325.729348,168.086957 C324.196739,170.858696 318.859783,171.967391 316.066304,172.391304 C316.066304,172.391304 311.91413,172.956522 311.979348,172.956522 C295.544565,175.054348 289.16413,178.097826 278.805435,183.695652 C278.805435,183.695652 277.522826,184.51087 276.93587,184.956522 C273.848913,186.804348 269.707609,189.663043 265.522826,193.695652 C266.001087,194.73913 266.479348,195.804348 266.979348,196.913043 C268.859783,195.054348 270.91413,193.23913 273.18587,191.478261 C273.18587,191.478261 277.794565,187.423913 283.609783,184.858696 C275.283696,190.195652 270.109783,195.445652 267.577174,198.217391 C274.175,212.793478 283.033696,232.336957 291.740217,251.543478 C289.729348,236.652174 318.272826,225.347826 328.729348,250.076087 C330.718478,254.782609 332.490217,260.021739 333.91413,265.554348 C335.990217,265.347826 338.098913,265.130435 340.229348,264.913043 C339.555435,262.141304 338.772826,259.358696 337.892391,256.586957 C336.381522,250.271739 335.240217,241.445652 335.305435,232.097826 C335.294565,231.630435 335.283696,231.163043 335.283696,230.706522 C339.588043,235.728261 355.066304,252.5 373.544565,257.869565 L368.93587,246.565217 C368.93587,246.565217 350.316304,238.608696 336.479348,217.336957 C336.66413,216.282609 336.838043,215.48913 336.957609,214.978261 C338.522826,207.184783 341.294565,199.836957 345.848913,194.130435 C346.153261,193.75 346.43587,193.423913 346.718478,193.086957 C346.990217,192.695652 347.468478,192.054348 348.207609,191.315217 L377.533696,260.086957 C377.533696,260.086957 382.425,259.76087 386.892391,258.956522 C386.892391,258.956522 363.675,203.967391 356.620652,187.217391 C357.098913,187.152174 357.598913,187.108696 358.120652,187.076087 C358.359783,187.043478 358.555435,187.01087 358.805435,186.978261 C359.240217,186.945652 359.620652,186.923913 359.794565,186.891304 C366.805435,185.630435 370.479348,182.5 373.153261,177.641304 C375.446739,173.467391 375.751087,167.956522 375.381522,163.478261 C376.207609,162.336957 377.16413,161.478261 378.946739,160.576087" id="Fill-60" fill="#2D1B00"></path>
                <path d="M200.801087,276.975 C200.116304,285.529348 207.920652,286.768478 212.301087,285.159783 C213.257609,292.083696 219.279348,292.257609 222.192391,291.790217 C218.551087,294.105435 211.518478,292.551087 210.21413,286.040217 C204.703261,287.725 198.46413,283.279348 200.801087,276.975 M202.311957,275.159783 C203.638043,274.040217 204.692391,273.551087 206.670652,273.648913 C205.833696,274.953261 205.518478,276.909783 205.398913,278.898913 C204.996739,278.561957 204.670652,278.551087 204.268478,278.116304 L204.257609,279.540217 C204.518478,280.007609 204.931522,280.148913 205.453261,280.507609 C205.475,281.757609 205.529348,282.71413 205.757609,283.551087 C205.496739,283.46413 205.333696,283.23587 205.051087,283.105435 C200.942391,280.790217 202.311957,275.159783 202.311957,275.159783 M209.159783,273.888043 C212.105435,274.822826 214.23587,277.409783 214.094565,280.051087 L214.431522,280.083696 C214.192391,282.018478 212.159783,284.638043 208.029348,283.996739 C207.811957,283.159783 207.790217,282.333696 207.73587,281.409783 C208.420652,281.638043 209.170652,281.768478 209.98587,281.73587 C209.96413,281.355435 210.072826,280.529348 210.072826,280.529348 C209.246739,280.46413 208.518478,280.192391 207.71413,279.844565 C207.790217,277.605435 208.268478,275.572826 209.159783,273.888043 M216.083696,280.21413 C222.007609,280.040217 226.638043,285.96413 223.659783,290.311957 L222.583696,290.48587 C217.420652,291.159783 214.507609,289.116304 213.648913,284.507609 C214.453261,283.920652 215.768478,282.344565 216.083696,280.21413 M209.148913,287.822826 C209.148913,287.822826 209.453261,288.703261 210.105435,289.920652 L210.105435,289.909783 C210.681522,290.96413 211.648913,291.953261 212.725,292.605435 C220.659783,297.322826 225.029348,291.322826 225.061957,291.257609 C225.105435,291.21413 228.71413,286.496739 223.442391,281.322826 C223.301087,281.181522 220.083696,278.322826 215.692391,278.866304 C215.23587,277.051087 212.942391,271.96413 206.366304,272.181522 L206.322826,272.181522 L206.279348,272.192391 C201.018478,272.561957 199.790217,275.398913 199.192391,277.040217 C199.192391,277.040217 197.833696,280.659783 199.833696,283.779348 C199.855435,283.822826 202.409783,288.866304 209.148913,287.822826" id="Fill-62" fill="#FFFFFF"></path>
                <path d="M348.309783,125.36413 C346.570652,124.244565 343.929348,120.429348 344.331522,117.331522 C348.396739,117.38587 349.592391,123.320652 348.309783,125.36413" id="Fill-64" fill="#2D1B00"></path>
                <path d="M352.53587,136.454348 C350.492391,134.41087 349.427174,132.171739 349.209783,128.91087 C352.448913,129.563043 354.416304,133.595652 352.53587,136.454348" id="Fill-66" fill="#2D1B00"></path>
                <path d="M335.11413,128.515217 C335.11413,128.515217 337.690217,136.558696 340.940217,144.602174 C349.483696,142.384783 355.592391,158.123913 340.538043,159.276087 C342.005435,165.547826 356.157609,162.917391 350.679348,148.71087 C349.581522,145.852174 340.125,126.221739 338.309783,121.319565 C337.157609,118.2 337.11413,117.656522 337.179348,116.569565 C337.179348,116.569565 337.146739,115.754348 337.309783,115.417391 C337.320652,115.373913 337.070652,115.536957 337.070652,115.536957 L334.005435,117.134783 C331.788043,119.786957 335.11413,128.515217 335.11413,128.515217" id="Fill-68" fill="#2D1B00"></path>
                <path d="M329.297826,127.834783 C331.7,135.117391 335.515217,145.628261 335.515217,145.628261 L338.591304,145.063043 L332.721739,128.682609 C332.721739,128.682609 330.319565,122.367391 331.591304,118.269565 L328.786957,119.606522 C328.786957,119.606522 327.471739,122.291304 329.297826,127.834783" id="Fill-70" fill="#2D1B00"></path>
                <path d="M350.566304,162.23587 C361.968478,163.029348 364.653261,157.96413 364.653261,157.96413 C361.011957,157.898913 353.816304,157.898913 353.816304,157.898913 C353.653261,160.127174 350.566304,162.23587 350.566304,162.23587" id="Fill-72" fill="#2D1B00"></path>
                <path d="M218.247826,220.069565 C219.954348,220.069565 221.780435,222.254348 221.780435,222.254348 L226.052174,226.95 L241.91087,200.917391 C244.541304,196.776087 249.269565,190.917391 248.932609,191.232609 C248.932609,191.232609 246.976087,186.373913 246.008696,184.43913 C244.802174,182.015217 244.986957,179.754348 244.986957,179.754348 C245.834783,178.732609 239.38913,186.330435 236.693478,190.776087 C234.117391,194.623913 226.552174,206.591304 218.247826,220.069565" id="Fill-74" fill="#2D1B00"></path>
                <path d="M419.328261,252.059783 C419.752174,252.081522 421.36087,252.266304 422.969565,253.581522 C422.969565,253.581522 434.947826,252.048913 437.513043,251.027174 C437.513043,251.027174 423.904348,252.38587 419.328261,252.059783" id="Fill-76" fill="#2D1B00"></path>
                <path d="M419.328261,252.059783 C419.263043,252.059783 419.219565,252.048913 419.219565,252.048913 C419.241304,252.059783 419.295652,252.059783 419.328261,252.059783" id="Fill-78" fill="#2D1B00"></path>
                <path d="M423.88913,294.963043 C423.88913,294.963043 415.628261,295.082609 404.16087,294.897826 L407.584783,302.778261 L420.530435,300.223913 C420.530435,300.223913 425.258696,300.03913 423.88913,294.963043" id="Fill-80" fill="#2D1B00"></path>
                <path d="M392.11413,272.536957 C392.11413,272.536957 384.472826,273.786957 383.11413,273.96087 C383.11413,273.96087 394.494565,301.819565 396.298913,305.232609 C396.298913,305.232609 403.809783,304.145652 405.353261,303.46087 C405.353261,303.46087 397.918478,288.7 392.11413,272.536957" id="Fill-82" fill="#2D1B00"></path>
                <path d="M412.147826,317.03913 C412.147826,317.03913 404.397826,318.756522 402.506522,319.104348 C402.506522,319.104348 413.452174,339.115217 434.147826,349.234783 C434.147826,349.234783 433.865217,341.354348 433.528261,338.256522 C433.528261,338.256522 420.343478,329.365217 412.147826,317.03913" id="Fill-84" fill="#2D1B00"></path>
                <path d="M474.684783,352.652174 C474.684783,352.652174 477.086957,359.836957 450.75,363.26087 C450.75,363.26087 466.478261,361.043478 470.75,355.728261 C470.75,355.728261 474.847826,352.304348 466.478261,350.413043 C458.326087,348.586957 457.076087,349.565217 449.206522,346.141304 C449.206522,346.141304 449.717391,353.847826 449.543478,355.728261 C449.543478,355.728261 454.673913,357.26087 457.576087,357.097826 C457.576087,357.097826 457.76087,354.706522 451.076087,352.652174 C451.076087,352.652174 479.826087,355.391304 449.543478,361.891304 C449.543478,361.891304 449.717391,367.880435 448.858696,371.652174 C448.858696,371.652174 464.554348,367.532609 469.391304,366.163043 C474.847826,364.630435 485.456522,359.673913 474.684783,352.652174" id="Fill-86" fill="#2D1B00"></path>
                <path d="M292.405435,282.054348 C301.090217,301.065217 304.481522,308.98913 307.557609,314.804348 C314.057609,315.315217 317.883696,314.565217 317.883696,314.565217 L302.78587,282.108696 C302.78587,282.108696 298.318478,282.728261 292.405435,282.054348" id="Fill-88" fill="#2D1B00"></path>
                <path d="M248.007609,178.184783 C247.127174,179.684783 247.116304,181.206522 247.98587,182.75 C248.007609,182.804348 268.811957,228.347826 286.583696,267.206522 C291.094565,268.152174 296.855435,267.891304 296.855435,267.891304 L255.148913,175.565217 C255.094565,175.478261 254.094565,175.130435 252.996739,175.119565 C251.453261,175.097826 249.170652,176.25 248.007609,178.184783" id="Fill-90" fill="#2D1B00"></path>
                <path d="M443.743478,373.204348 C445.265217,372.432609 446.058696,370.823913 446.243478,368.856522 C449.526087,331.628261 435.308696,282.356522 420.917391,255.834783 C418.852174,254.13913 416.373913,254.15 414.526087,255.008696 C413.558696,255.443478 412.395652,256.378261 412.352174,256.671739 L412.243478,257.519565 L412.276087,257.91087 C412.276087,257.91087 410.743478,258.519565 408.178261,258.856522 C388.004348,262.834783 319.373913,271.226087 300.536957,270.747826 C300.080435,270.736957 290.95,270.867391 283.21087,269.943478 C268.917391,268.334783 261.558696,264.16087 251.308696,256.182609 C242.091304,247.552174 223.406522,228.236957 220.134783,223.867391 C218.613043,222.084783 215.873913,222.573913 214.504348,223.682609 C212.558696,225.215217 211.569565,228.117391 213.417391,230.747826 C220.863043,238.9 239.341304,256.508696 239.515217,256.693478 C256.221739,274.823913 273.015217,278.584783 288.145652,279.432609 C298.776087,280.16087 312.45,279.530435 310.036957,279.682609 C337.873913,277.997826 385.243478,271.378261 411.178261,266.671739 C413.113043,266.226087 414.71087,265.921739 414.71087,265.921739 L415.602174,265.91087 C416.841304,266.476087 418.004348,270.247826 418.069565,270.519565 L418.036957,270.378261 C420.732609,277.171739 426.123913,294.802174 426.18913,294.986957 C426.18913,294.986957 427.678261,300.38913 427.080435,300.986957 C426.178261,301.9 418.971739,303.595652 418.971739,303.595652 C405.678261,307.15 350.656522,315.302174 320.895652,316.954348 C320.68913,316.997826 312.863043,318.215217 296.026087,315.693478 C296.004348,315.693478 185.569565,297.552174 185.569565,297.552174 L179.43913,305.954348 C178.96087,305.965217 293.678261,324.628261 293.678261,324.628261 C304.091304,326.291304 312.373913,326.65 318.2,326.584783 L321.526087,326.486957 C325.678261,326.313043 328.036957,325.954348 328.091304,325.954348 C358.852174,322.834783 397.808696,317.856522 422.993478,311.867391 C422.993478,311.867391 425.863043,311.258696 428.047826,311.345652 C428.928261,311.367391 430.156522,311.878261 430.156522,311.878261 C430.591304,312.280435 431.134783,313.345652 431.536957,315.052174 C436.036957,331.269565 436.971739,355.66087 437.026087,356.813043 C437.026087,356.813043 437.123913,361.867391 436.265217,363.823913 C435.221739,364.954348 431.482609,365.595652 431.482609,365.595652 C390.656522,376.052174 342.993478,368.671739 324.515217,329.063043 C320.515217,329.4 314.428261,329.280435 314.428261,329.280435 C314.765217,330.65 316.297826,333.519565 316.297826,333.519565 C328.2,359.9 349.656522,370.41087 367.797826,375.204348 C387.786957,380.497826 411.515217,380.15 433.667391,374.454348 C437.243478,373.258696 437.123913,372.986957 437.123913,372.986957 C440.45,374.693478 443.743478,373.204348 443.743478,373.204348" id="Fill-92" fill="#2D1B00"></path>
                <path d="M199.188043,277.03913 C199.78587,275.397826 201.01413,272.56087 206.275,272.191304 L206.318478,272.180435 L206.372826,272.180435 C212.948913,271.963043 215.242391,277.05 215.698913,278.865217 C220.079348,278.321739 223.296739,281.180435 223.438043,281.321739 C228.709783,286.495652 225.101087,291.213043 225.068478,291.267391 C225.025,291.321739 220.655435,297.321739 212.720652,292.604348 C211.644565,291.952174 210.677174,290.963043 210.111957,289.908696 L210.101087,289.919565 C209.459783,288.702174 209.144565,287.832609 209.144565,287.832609 C202.405435,288.876087 199.861957,283.821739 199.829348,283.778261 C197.840217,280.658696 199.188043,277.03913 199.188043,277.03913 M192.416304,257.941304 C191.557609,259.419565 189.622826,262.636957 185.633696,268.245652 C183.883696,270.713043 183.26413,272.941304 183.78587,274.897826 C184.579348,277.8 187.698913,279.245652 187.731522,279.267391 L187.78587,279.3 L187.840217,279.343478 L206.709783,290.919565 L208.916304,292.245652 L208.905435,292.256522 L214.981522,296.006522 C219.459783,298.984783 224.818478,296.582609 227.622826,292.832609 C230.090217,289.495652 231.046739,284.723913 225.992391,279.919565 C225.992391,279.919565 225.122826,278.756522 220.76413,276.332609 C216.698913,274.082609 202.611957,265.56087 195.927174,261.354348 C195.927174,261.354348 193.28587,259.821739 192.416304,257.941304" id="Fill-94" fill="#2D1B00"></path>
                <path d="M230.821739,271.177174 C226.876087,268.177174 217.756522,262.198913 210.821739,257.731522 L209.180435,259.307609 C209.180435,259.307609 224.56087,269.546739 228.517391,272.198913 C233.028261,275.242391 234.778261,279.111957 234.071739,282.981522 C234.071739,282.981522 237.886957,276.53587 230.821739,271.177174" id="Fill-96" fill="#2D1B00"></path>
                <path d="M197.121739,259.568478 C203.763043,263.731522 225.393478,276.470652 225.393478,276.470652 C225.393478,276.470652 231.241304,280.188043 231.502174,284.894565 C233.263043,279.872826 230.295652,276.155435 227.273913,273.981522 L207.132609,260.503261 C203.371739,261.525 195.415217,257.351087 195.708696,252.166304 C193.708696,253.894565 193.328261,257.177174 197.121739,259.568478" id="Fill-98" fill="#2D1B00"></path>
                <path d="M213.644565,284.506522 C214.51413,289.126087 217.416304,291.158696 222.579348,290.484783 L223.655435,290.31087 C226.633696,285.963043 222.01413,280.03913 216.079348,280.223913 C215.775,282.343478 214.448913,283.930435 213.644565,284.506522" id="Fill-100" fill="#2D1B00"></path>
                <path d="M210.216304,286.045652 C211.520652,292.556522 218.542391,294.11087 222.194565,291.795652 C219.281522,292.263043 213.248913,292.078261 212.303261,285.154348 C207.922826,286.763043 200.118478,285.523913 200.803261,276.980435 C198.466304,283.284783 204.705435,287.719565 210.216304,286.045652" id="Fill-102" fill="#2D1B00"></path>
                <path d="M444.647826,251.903261 C439.158696,253.511957 431.234783,255.109783 425.05,256.16413 C427.180435,260.316304 427.702174,261.990217 428.441304,263.620652 C428.147826,263.783696 431.365217,263.175 434.843478,262.501087 C440.463043,261.446739 446.082609,260.131522 448.886957,259.251087 L450.006522,259.011957 C453.126087,258.425 453.506522,255.588043 453.376087,254.838043 C453.093478,252.848913 452.028261,251.403261 449.571739,250.990217 C449.571739,250.990217 446.354348,251.381522 444.647826,251.903261" id="Fill-104" fill="#2D1B00"></path>
                <path d="M456.957609,290.505435 C452.501087,291.538043 439.175,294.103261 439.175,294.103261 L440.022826,296.494565 C443.620652,296.157609 459.18587,292.222826 459.18587,292.222826 C462.142391,292.168478 462.251087,294.157609 462.251087,294.157609 C456.272826,296.38587 440.946739,299.581522 440.946739,299.581522 C441.620652,302.483696 443.098913,308.13587 443.098913,308.13587 C461.240217,304.896739 465.16413,302.896739 465.16413,302.896739 C470.468478,300.668478 468.425,294.451087 468.425,294.451087 C466.370652,287.255435 456.957609,290.505435 456.957609,290.505435" id="Fill-106" fill="#2D1B00"></path>
                <path d="M463.006522,260.371739 C459.702174,247.936957 452.506522,249.480435 452.506522,249.480435 C456.441304,250.676087 459.81087,257.295652 452.626087,261.241304 C452.626087,261.241304 457.245652,272.697826 460.441304,287.078261 C473.658696,286.980435 474.343478,302.83913 466.593478,305.35 C466.593478,305.35 471.604348,330.676087 472.973913,344.6 C473.136957,347.176087 473.028261,349.284783 473.028261,349.284783 C478.506522,350.415217 481.702174,354.241304 481.702174,356.295652 C484.376087,340.317391 475.03913,294.11087 463.006522,260.371739" id="Fill-108" fill="#2D1B00"></path>
                <path d="M386.318478,251.892391 L389.231522,258.566304 C389.231522,258.566304 403.470652,257.011957 409.633696,255.479348 C409.633696,255.479348 409.807609,253.077174 412.372826,252.740217 C412.372826,252.740217 401.198913,253.946739 386.318478,251.892391" id="Fill-110" fill="#2D1B00"></path>
                <path d="M190.069565,283.980435 C190.069565,283.980435 182.852174,279.654348 181.95,277.915217 L167.580435,299.85 C166.841304,300.904348 166.732609,301.947826 167.232609,302.980435 C168.036957,304.686957 170.297826,306.1 172.504348,306.241304 C173.645652,306.317391 175.221739,306.078261 176.221739,304.545652 C176.243478,304.534783 187.036957,288.458696 190.069565,283.980435" id="Fill-112" fill="#2D1B00"></path>
                <path d="M255.597826,172.416304 C256.554348,172.948913 256.717391,173.166304 257.858696,175.188043 C258.586957,176.459783 260.586957,180.807609 260.586957,180.807609 C264.228261,178.046739 267.684783,176.079348 274.163043,173.742391 C294.771739,165.361957 319.413043,160.427174 341.173913,156.079348 L342.826087,155.753261 C346.380435,155.188043 347.326087,153.01413 347.054348,151.166304 C346.73913,149.079348 344.336957,147.090217 341.445652,147.481522 C314.26087,151.872826 282.826087,159.981522 267.673913,166.329348 C262.434783,168.525 258.576087,170.416304 255.597826,172.416304" id="Fill-114" fill="#2D1B00"></path>
                <path d="M199.232609,251.256522 L199.167391,251.332609 C197.884783,252.876087 200.015217,255.082609 200.46087,255.506522 C202.406522,257.376087 205.526087,258.582609 207.004348,257.408696 L218.004348,239.952174 C218.004348,239.952174 213.623913,235.995652 210.895652,232.223913 C201.841304,246.930435 199.45,250.897826 199.286957,251.158696 L199.232609,251.256522 Z" id="Fill-116" fill="#2D1B00"></path>
                <path d="M366.429348,145.33913 C366.429348,145.33913 368.63587,150.469565 368.63587,154.067391 C372.929348,154.469565 381.309783,155.273913 384.516304,155.980435 C388.059783,155.980435 388.668478,153.632609 388.777174,152.6 C388.951087,150.676087 387.88587,148.36087 386.092391,148.1 L385.983696,148.08913 L385.86413,148.045652 C383.342391,147.197826 371.179348,145.795652 366.429348,145.33913" id="Fill-118" fill="#2D1B00"></path>
                <path d="M209.986957,281.732609 C209.171739,281.765217 208.421739,281.645652 207.736957,281.406522 C207.791304,282.330435 207.813043,283.156522 208.030435,284.004348 C212.16087,284.634783 214.193478,282.015217 214.432609,280.080435 L214.095652,280.058696 C214.236957,277.406522 212.106522,274.819565 209.16087,273.884783 C208.269565,275.569565 207.791304,277.613043 207.715217,279.841304 C208.519565,280.18913 209.247826,280.46087 210.073913,280.526087 C210.073913,280.526087 209.965217,281.352174 209.986957,281.732609" id="Fill-120" fill="#2D1B00"></path>
                <path d="M205.055435,283.101087 C205.338043,283.231522 205.490217,283.459783 205.761957,283.546739 C205.522826,282.709783 205.468478,281.753261 205.457609,280.503261 C204.93587,280.155435 204.522826,280.01413 204.261957,279.546739 L204.261957,278.122826 C204.66413,278.557609 204.990217,278.557609 205.403261,278.905435 C205.522826,276.916304 205.827174,274.948913 206.675,273.644565 C204.696739,273.546739 203.642391,274.046739 202.316304,275.166304 C202.316304,275.166304 200.946739,280.78587 205.055435,283.101087" id="Fill-122" fill="#2D1B00"></path>
                <path d="M356.456522,133.646739 C357.554348,138.38587 354.108696,140.951087 350.706522,137.027174 C349.293478,135.38587 348.608696,133.86413 348.01087,131.929348 L347.902174,131.63587 C347.336957,129.146739 347.597826,127.103261 347.597826,127.103261 C345.478261,125.201087 344.608696,123.516304 343.891304,122.125 C341.880435,116.157609 343.891304,114.788043 344.793478,114.461957 C348.086957,113.646739 352.695652,118.548913 352.369565,125.907609 C354.195652,127.733696 355.532609,129.451087 356.456522,133.646739 M45.25,318.951087 C53.3369565,333.798913 60.4456522,343.222826 62.6304348,345.461957 C62.7173913,345.820652 62.7934783,346.168478 62.8804348,346.472826 C62.7173913,348.625 63.173913,355.048913 75.7391304,352.711957 C71.8913043,360.038043 57.673913,355.972826 60.423913,346.222826 C58.3804348,343.668478 53.3695652,335.516304 53.3695652,335.516304 C53.1195652,335.570652 53.5869565,337.940217 53.5543478,337.777174 C55.25,341.288043 58.1956522,347.36413 58.1956522,347.36413 C55.923913,361.646739 76.423913,362.711957 77.8913043,352.244565 C77.9456522,352.211957 77.9673913,352.211957 78,352.190217 C79.0652174,351.994565 79.0869565,352.168478 79.7934783,351.777174 C78.9021739,356.059783 76.8804348,358.407609 74.4565217,359.625 C70.0434783,361.842391 68.7608696,365.755435 75.4347826,365.266304 C82.2173913,364.798913 94.2391304,362.875 108.48913,355.951087 L111.478261,354.320652 C105.467391,350.527174 99.1413043,349.907609 94.8043478,349.581522 C91.4347826,349.353261 86.0108696,350.255435 82.0869565,351.048913 C82.326087,350.961957 82.576087,350.907609 82.826087,350.831522 C99.1413043,345.429348 109.195652,348.809783 117.293478,353.994565 C116.793478,354.320652 116.195652,354.755435 115.630435,355.157609 C108.402174,360.36413 91.4891304,366.657609 76.4456522,368.081522 C61.1630435,370.559783 52.6304348,359.820652 55.5978261,351.646739 L54.7608696,349.581522 C53.9347826,347.592391 44.1521739,327.61413 45.25,318.951087 M376.891304,143.86413 L364.880435,116.701087 L362.152174,117.788043 C361.521739,116.559783 360.347826,116.103261 358.413043,115.907609 C258.695652,-62.2771739 -48.5108696,36.4836957 25.4130435,272.298913 C30.6195652,288.896739 37.0434783,303.36413 43.1195652,314.994565 C42.6086957,317.103261 41.8478261,321.103261 43.0978261,326.440217 C45.0869565,333.994565 46.7717391,338.625 52.8478261,351.994565 C50.3695652,361.070652 58.8695652,374.396739 79.4130435,370.451087 C103.858696,366.657609 116.630435,357.809783 119.608696,355.538043 C120.423913,356.11413 121.23913,356.711957 122.054348,357.309783 C165.402174,391.125 236.304348,393.820652 262.478261,353.798913 C272.923913,355.929348 285.945652,354.179348 285.945652,354.179348 C299.51087,353.277174 310.434783,349.657609 318.967391,344.016304 C317.934783,342.331522 316.923913,340.61413 316,338.809783 C305.043478,346.222826 289.271739,350.168478 267.119565,348.375 L265.695652,348.190217 C269.217391,341.179348 271.5,333.092391 272.293478,323.853261 C270.652174,323.581522 268.967391,323.277174 267.228261,323.016304 C267.445652,329.222826 266.815217,335.842391 264.5,342.353261 C263.25,345.929348 261.478261,349.461957 259.054348,352.896739 C259.076087,352.929348 259.076087,352.929348 259.108696,352.929348 C253.793478,360.831522 246.706522,366.798913 238.51087,371.070652 C205.706522,388.179348 154.75,378.190217 125.163043,356.146739 C108.163043,343.472826 98.2391304,343.853261 82,348.755435 C64.0434783,354.211957 64.7282609,343.798913 64.7282609,343.798913 C49.6630435,322.353261 35.826087,299.472826 23.9673913,256.309783 C-4.42391304,142.61413 59.4456522,62.8641304 141.26087,36.625 C225.76087,22.2336957 290.815217,69.7228261 317.956522,115.668478 C317.163043,116.125 316.456522,116.701087 315.967391,117.461957 C313.271739,121.690217 316.706522,128.711957 316.945652,129.342391 C316.945652,129.342391 321.913043,143.61413 323.456522,148.11413 C324.467391,147.929348 325.445652,147.733696 326.456522,147.538043 L319.097826,127.13587 C316.184783,120.244565 319.456522,117.679348 319.456522,117.679348 C318.586957,120.244565 319.293478,123.179348 319.782609,124.733696 C320.73913,127.766304 323.956522,136.592391 326.619565,143.396739 C327.141304,144.733696 327.597826,146.016304 328.032609,147.244565 C328.826087,147.081522 329.619565,146.918478 330.434783,146.777174 C328.152174,139.907609 325.01087,131.875 324.065217,129.201087 C323.25,126.972826 322.858696,126.125 321.826087,122.527174 C320.434783,117.657609 322.347826,117.548913 324.413043,117.38587 C325.586957,117.298913 329.097826,117.353261 330.021739,117.38587 C332.152174,116.233696 336.706522,113.972826 339.423913,112.61413 C306.652174,57.2228261 240.98913,20.1902174 154.891304,32.7771739 C222.815217,16.2663043 299.945652,35.8315217 346.380435,101.983696 C348.826087,106.103261 350.923913,108.36413 354.663043,115.777174 L353,115.777174 C350.402174,112.125 347.793478,110.951087 344.608696,110.896739 C344.445652,110.896739 338.26087,110.896739 339.043478,117.168478 C339.293478,119.092391 340.108696,121.440217 340.630435,122.527174 L340.652174,122.505435 L345.26087,132.201087 L346.48913,134.788043 L350.923913,143.755435 C350.923913,143.755435 354.217391,150.320652 354.413043,153.809783 L366.347826,154.027174 C366.347826,154.027174 366.532609,150.375 363.978261,143.86413 C362.119565,139.179348 356.565217,122.016304 354.73913,118.581522 C354.717391,118.527174 354.684783,118.472826 354.663043,118.418478 C355.26087,118.418478 357.597826,118.472826 358.934783,118.766304 C361.282609,124.733696 364.684783,134.983696 367.304348,143.048913 L368.282609,143.103261 C368.98913,143.157609 369.673913,143.211957 370.347826,143.266304 C370.326087,143.233696 370.326087,143.179348 370.293478,143.125 C371.304348,143.211957 375.423913,143.559783 376.891304,143.86413" id="Fill-124" fill="#2D1B00"></path>
                <path d="M352.53587,136.454348 C350.492391,134.41087 349.427174,132.171739 349.209783,128.91087 C352.448913,129.563043 354.416304,133.595652 352.53587,136.454348 M348.307609,125.367391 C346.568478,124.247826 343.927174,120.432609 344.329348,117.323913 C348.394565,117.378261 349.590217,123.323913 348.307609,125.367391 M356.459783,133.65 C355.525,129.454348 354.198913,127.736957 352.372826,125.91087 C352.698913,118.552174 348.090217,113.65 344.796739,114.465217 C343.894565,114.791304 341.883696,116.15 343.894565,122.117391 C344.611957,123.508696 345.481522,125.204348 347.601087,127.106522 C347.601087,127.106522 347.329348,129.15 347.905435,131.628261 L348.01413,131.932609 C348.611957,133.867391 349.28587,135.38913 350.709783,137.030435 C354.111957,140.954348 357.546739,138.38913 356.459783,133.65" id="Fill-126" fill="#FFFFFF"></path>
            </g>
        </g>
    </g>
</svg>