<?xml version="1.0" encoding="UTF-8" standalone="no"?>
<svg width="500px" height="500px" viewBox="0 0 500 500" version="1.1" xmlns="http://www.w3.org/2000/svg" xmlns:xlink="http://www.w3.org/1999/xlink">
    <!-- Generator: Sketch 39.1 (31720) - http://www.bohemiancoding.com/sketch -->
    <title>DAL</title>
    <desc>Created with Sketch.</desc>
    <defs></defs>
    <g id="100x100-NFL" stroke="none" stroke-width="1" fill="none" fill-rule="evenodd">
        <g id="DAL">
            <g transform="translate(0.000000, 14.000000)">
                <polygon id="Fill-1" stroke="#FFFFFF" stroke-width="5" fill="#FFFFFF" points="250.026096 8.03577263 191.559164 182.903281 8.03688364 182.903281 158.406609 290.56576 100.6785 465.527704 250.026096 358.831805 399.384801 465.322168 341.645582 290.571315 492.015307 182.903281 308.493027 182.903281"></polygon>
                <path d="M189.178658,182.107359 L191.559164,180.393241 L8.03688364,180.393241 L0.219515694,180.393241 L6.57565687,184.944143 L156.945382,292.606622 L156.022965,289.779285 L98.294856,464.741229 L95.8884433,472.034568 L102.137604,467.570085 L251.485199,360.874185 L248.568927,360.875566 L397.927632,467.365929 L404.175407,471.820492 L401.768117,464.534699 L344.028898,289.783847 L343.106859,292.612142 L493.476584,184.944107 L499.832347,180.393241 L492.015307,180.393241 L308.493027,180.393241 L310.873533,182.107359 L252.406602,7.23985065 L250.026096,0.120044953 L247.645589,7.23985065 L189.178658,182.107359 Z M247.645589,8.8316946 L306.11252,183.699203 L306.685636,185.413321 L308.493027,185.413321 L492.015307,185.413321 L490.554031,180.862455 L340.184305,288.530489 L338.682961,289.605485 L339.262266,291.358784 L397.001485,466.109636 L400.84197,463.278406 L251.483265,356.788043 L250.024635,355.748064 L248.566992,356.789424 L99.2193962,463.485324 L103.062144,466.31418 L160.790253,291.352236 L161.36859,289.599416 L159.867836,288.524898 L9.49811041,180.862419 L8.03688364,185.413321 L191.559164,185.413321 L193.366555,185.413321 L193.939671,183.699203 L252.406602,8.8316946 L247.645589,8.8316946 Z" id="Fill-1" fill="#FFFFFF"></path>
                <polygon id="Fill-2" fill="#002244" points="250.024429 28.8477781 196.257073 189.427691 28.3444903 189.427691 166.098691 288.057654 113.114597 448.632011 250.057759 350.813086 386.945371 448.632011 333.950167 288.057654 471.704368 189.427691 303.797341 189.427691"></polygon>
                <polygon id="Fill-3" fill="#FFFFFF" points="250.024429 73.1059951 206.789453 203.172002 70.779539 203.172002 182.35833 283.064772 139.445547 413.125225 250.357732 333.899061 360.597756 413.125225 317.684973 283.070327 429.274874 203.172002 293.26496 203.172002"></polygon>
                <polygon id="Fill-4" fill="#002244" points="250.024429 111.356978 216.044171 214.10879 108.603894 214.10879 196.751472 277.219746 162.84343 379.971558 250.474388 317.388333 337.210983 379.971558 303.297386 277.225301 391.439409 214.10879 284.010242 214.10879"></polygon>
            </g>
        </g>
    </g>
</svg>