<?xml version="1.0" encoding="UTF-8" standalone="no"?>
<svg width="500px" height="500px" viewBox="0 0 500 500" version="1.1" xmlns="http://www.w3.org/2000/svg" xmlns:xlink="http://www.w3.org/1999/xlink">
    <!-- Generator: Sketch 39.1 (31720) - http://www.bohemiancoding.com/sketch -->
    <title>DEN</title>
    <desc>Created with Sketch.</desc>
    <defs></defs>
    <g id="100x100-NFL" stroke="none" stroke-width="1" fill="none" fill-rule="evenodd">
        <g id="DEN">
            <g id="Group" transform="translate(9.000000, 107.000000)">
                <path d="M243.967015,283.185319 C243.474727,283.728694 242.750227,283.928396 242.058237,284.081656 C240.9204,284.332444 239.796496,284.090944 238.890871,283.403598 C238.147794,282.841646 237.683371,282.052127 237.62764,281.285829 C237.62764,281.271896 229.161208,253.713031 229.161208,253.713031 C224.424092,239.599213 217.262688,224.449733 203.371794,211.051127 C186.592188,194.861338 161.852371,183.668742 127.749785,176.837079 C98.0220635,170.883175 78.451275,165.765233 64.3003038,160.238598 C50.7205731,154.944175 42.709275,149.426829 34.860525,142.77629 C14.8531788,125.834137 0.906553846,104.224531 0.000928846152,77.0139827 C0.000928846152,77.0139827 19.9061019,105.144088 41.7850731,91.7083288 C52.1231308,85.3596654 59.5631885,86.2652904 59.5631885,86.2652904 C52.8336981,78.8345212 47.8690154,69.1420115 46.5407654,58.5949635 C45.4818808,50.1610404 45.9567265,40.7794333 48.5935154,30.7667327 C53.2324237,13.1513671 65.135252,0.235839844 65.135252,0.235839844 C65.135252,0.235839844 60.1065635,42.0011269 79.7098615,56.5468577 C91.79415,63.3460115 104.203535,60.6059154 104.203535,60.6059154 C104.203535,60.6059154 87.9255058,53.0636846 85.6451885,28.8718865 C84.6420346,18.2319538 86.2164288,9.87233846 86.6344096,7.73599231 C86.6344096,7.73599231 108.123265,38.0674635 129.653919,25.6116365 C134.465342,22.8250981 159.878573,9.69121346 170.834313,6.77928077 C186.917285,2.51123269 202.833063,2.20935769 218.135804,5.88294423 C230.847063,8.93884808 243.251804,14.7487808 255.01564,23.1641269 C275.984342,38.1603481 289.559429,57.6289635 294.421938,65.3012327 C294.421938,65.3012327 336.628708,63.4481846 359.719823,92.9622712 L413.174919,116.592117 L407.114198,120.465406 C424.413958,131.792685 454.657188,151.270588 462.89141,158.288021 L478.240592,165.602685 L475.444765,173.005588 C475.26364,173.51181 471.111698,185.382463 478.946515,191.26206 L482.884823,194.21579 L470.902708,226.237762 L467.856092,222.14155 C451.071842,199.017925 435.216438,194.745233 427.242294,194.582685 C418.227842,194.392271 417.591583,199.19905 418.710842,201.265733 C422.337987,207.972002 442.554323,211.445887 450.045467,212.20754 C450.040823,212.20754 455.000862,212.848444 455.144833,212.867021 L435.671573,230.32004 L400.366131,228.100098 L400.830554,221.013002 C400.649429,219.652242 398.262294,207.814098 369.389112,195.934156 C364.317612,198.209829 354.244275,202.120271 341.895265,202.779752 C327.01515,203.583204 313.203208,199.570588 300.84491,190.853367 C295.703746,192.511358 285.92764,196.33356 276.156179,203.044473 C258.015813,215.509588 248.123602,231.815483 246.744265,251.511665 C246.744265,251.511665 245.155938,267.747896 244.659006,281.225454 C244.668294,281.411223 244.45466,282.646588 243.967015,283.185319 Z" id="Fill-1" stroke="#FFFFFF" stroke-width="13" fill="#002244"></path>
                <g id="DEN" transform="translate(0.000000, 1.000000)">
                    <path d="M244.659006,280.225454 C244.668294,280.411223 244.45466,281.646588 243.967015,282.185319 C243.474727,282.728694 242.750227,282.928396 242.058237,283.081656 C240.9204,283.332444 239.796496,283.090944 238.890871,282.403598 C238.147794,281.841646 237.683371,281.052127 237.62764,280.285829 C237.62764,280.271896 237.622996,280.262608 237.622996,280.244031 L237.613708,280.248675 L229.161208,252.713031 C224.424092,238.599213 217.262688,223.449733 203.371794,210.051127 C186.592188,193.861338 161.852371,182.668742 127.749785,175.837079 C98.0220635,169.883175 78.451275,164.765233 64.3003038,159.238598 C50.7205731,153.944175 42.709275,148.426829 34.860525,141.77629 C14.8531788,124.834137 0.906553846,103.224531 0.000928846152,76.0139827 C0.000928846152,76.0139827 19.9061019,104.144088 41.7850731,90.7083288 C52.1231308,84.3596654 59.5631885,85.2652904 59.5631885,85.2652904 C52.8336981,77.8345212 47.8690154,68.1420115 46.5407654,57.5949635 C45.4818808,49.1610404 46.1738712,39.7982712 48.5935154,29.7667327 C52.7129481,12.7038288 64.7043519,0.196915385 64.8251019,0.00185769231 C64.8251019,0.00185769231 60.1065635,41.0011269 79.7098615,55.5468577 C91.79415,62.3460115 104.203535,59.6059154 104.203535,59.6059154 C104.203535,59.6059154 87.9255058,52.0636846 85.6451885,27.8718865 C84.6420346,17.2319538 86.2164288,8.87233846 86.6344096,6.73599231 C86.6344096,6.73599231 108.123265,37.0674635 129.653919,24.6116365 C134.465342,21.8250981 159.878573,8.69121346 170.834313,5.77928077 C186.917285,1.51123269 202.833063,1.20935769 218.135804,4.88294423 C230.847063,7.93884808 243.251804,13.7487808 255.01564,22.1641269 C275.984342,37.1603481 289.559429,56.6289635 294.421938,64.3012327 C294.421938,64.3012327 336.628708,62.4481846 359.719823,91.9622712 L359.756977,92.0133577 L413.174919,115.592117 L407.114198,119.465406 L406.854121,119.637242 L407.123487,119.809079 C424.413958,130.792685 454.657188,150.270588 462.89141,157.288021 L462.909987,157.306598 L462.937852,157.325175 L478.240592,164.602685 L475.444765,172.005588 L475.444765,172.010233 C475.26364,172.51181 471.111698,184.382463 478.946515,190.26206 L482.884823,193.21579 C482.884823,193.21579 482.931265,193.243656 482.968419,193.276165 L482.931265,193.373694 L470.902708,225.237762 L467.856092,221.14155 C451.071842,198.017925 435.216438,193.745233 427.242294,193.582685 C418.227842,193.392271 417.591583,198.19905 418.710842,200.265733 C422.337987,206.972002 442.554323,210.445887 450.045467,211.20754 C450.040823,211.20754 455.000862,211.848444 455.144833,211.867021 L435.671573,229.32004 L400.366131,227.100098 L400.22216,227.09081 L400.236092,226.942194 L400.830554,220.013002 L400.830554,219.985137 L400.830554,219.96656 C400.649429,218.652242 398.262294,206.814098 369.389112,194.934156 L369.31016,194.90629 L369.226563,194.943444 C364.317612,197.209829 354.244275,201.120271 341.895265,201.779752 C327.01515,202.583204 313.203208,198.570588 300.84491,189.853367 L300.761313,189.797637 L300.65914,189.825502 C295.703746,191.511358 285.92764,195.33356 276.156179,202.044473 C258.015813,214.509588 248.123602,230.815483 246.744265,250.511665 C246.744265,250.511665 245.155938,266.747896 244.659006,280.225454" id="Fill-1" fill="#002244"></path>
                    <path d="M129.548495,63.1596808 C104.242082,70.9294788 86.296774,70.8412385 74.6954856,62.8903154 C64.803274,56.1143827 58.8400817,44.085825 58.2920625,23.5861904 C50.675524,47.3507192 54.3258894,66.1877192 65.3791587,78.8293154 C74.1428221,88.8562096 89.0786683,95.4974596 105.33812,96.5981423 C137.792005,81.7180269 171.174736,72.2437962 204.557466,68.4262385 C195.473351,52.9702385 168.866553,51.089325 129.548495,63.1596808" id="Fill-4" fill="#FB4F13"></path>
                    <path d="M251.756784,30.9923452 C240.745313,22.758124 229.157957,17.0271433 217.315168,13.9573067 C203.006293,10.2512106 188.121534,10.3440952 173.116024,14.3799317 C163.395649,16.9946337 141.423793,27.7831817 133.194216,32.0512298 C111.556745,43.2670471 97.5590337,28.7584702 92.292476,23.2922106 L92.0556202,23.0507106 C92.5525529,26.0323067 93.5464183,31.4335471 95.9428413,36.9555375 C98.9383702,43.847576 103.271438,48.9144317 108.821293,52.0214221 C118.755303,57.5712779 132.576534,56.7864029 149.908803,49.6807298 C169.200938,41.776249 185.390726,39.3519606 198.013745,42.4914606 C209.392111,45.3197971 219.860207,54.3853356 226.037034,66.7529221 C246.950005,65.9123163 267.909418,67.4031144 288.348678,71.1742298 C277.875938,54.9612202 265.229697,41.070326 251.756784,30.9923452" id="Fill-6" fill="#FB4F13"></path>
                    <path d="M465.359818,179.339758 C465.415549,174.114998 466.808818,169.860883 467.101405,169.043498 L457.994068,164.789383 L457.956914,164.780094 L457.938338,164.752229 C452.314174,158.668287 391.414376,120.37196 390.801338,119.981844 L390.569126,119.833229 L390.796693,119.689258 L395.296953,116.689085 L354.023674,99.2082 L353.981876,99.1896231 L353.949366,99.1431808 C337.192982,74.0922 304.177145,73.0936904 297.83777,73.1401327 C310.414347,77.0273538 314.255126,80.8495558 315.22577,83.3992385 C315.871318,85.1036712 315.230414,86.1672 315.197905,86.2136423 L315.132886,86.3251038 L315.007491,86.28795 C172.601443,47.4714692 56.1055587,136.780027 51.2291163,140.597585 C56.8207702,146.240325 69.3880587,153.847575 114.562491,163.874469 C124.640472,156.002498 172.698972,121.830248 245.22328,123.845844 L233.454799,106.063085 C233.454799,106.063085 278.383088,117.738681 304.023886,131.991825 C302.045443,150.97744 313.80928,169.271065 332.776318,174.872008 C346.369982,178.884623 360.390914,175.420027 370.436386,166.874642 L402.658059,187.439296 L371.741414,175.443248 C358.598241,184.954633 341.238107,188.265969 324.625693,182.869373 C304.070328,176.190969 290.439511,158.050604 288.502866,137.820335 C218.909068,120.344094 167.594963,164.352825 157.340501,174.04069 C165.630453,176.669325 173.279501,179.646277 180.217982,182.966902 C188.670482,187.016671 196.282376,191.665546 202.956136,196.857796 C208.111232,190.569508 228.661953,168.973835 268.072895,168.644094 C268.072895,168.644094 229.377164,178.657056 217.046732,210.182094 C228.002472,222.870133 233.645213,236.287315 237.982924,249.09146 C238.967501,236.918931 242.859366,225.744912 249.598145,215.875921 C255.110847,207.813537 262.513751,200.596402 271.597866,194.428863 C287.058511,183.928258 302.254434,180.064258 302.407693,180.027104 L302.491289,180.008527 L302.560953,180.059613 C333.914155,205.338162 368.430078,185.432988 368.773751,185.228642 L368.848059,185.191488 L368.927011,185.219354 C378.577722,188.906873 386.732991,193.035594 393.146674,197.507988 C398.292482,201.084046 402.342251,204.883027 405.18452,208.802758 C409.601184,214.877412 409.726578,219.252277 409.703357,220.157902 L433.087059,221.690498 L439.941943,215.834123 C418.689943,213.084738 412.248395,206.480642 410.934078,200.819325 C408.649116,187.169931 422.581809,185.488719 428.930472,186.315392 C443.73628,188.247392 461.732674,201.506671 468.508607,210.734758 L473.524376,197.261844 C466.692713,192.074238 465.308732,184.652758 465.359818,179.339758" id="Fill-8" fill="#FFFFFF"></path>
                    <path d="M13.061899,97.7824212 C13.061899,97.7824212 22.197101,144.958517 90.0121587,105.993421 C71.2355337,100.062738 67.4040433,87.3468346 44.9306106,98.8598827 C24.9464856,109.105056 13.061899,97.7824212 13.061899,97.7824212" id="Fill-10" fill="#FB4F13"></path>
                    <path d="M382.910789,124.534584 C382.506741,127.260747 380.059232,129.253122 377.263405,129.034843 C374.346828,128.816564 372.164039,126.266882 372.382318,123.345661 C372.49378,121.975613 373.120751,120.763468 374.044953,119.890353 C358.417116,112.218084 350.233982,111.052382 350.233982,111.052382 C369.168511,123.61967 377.249472,134.106343 377.249472,134.106343 L382.372059,130.613882 L430.244789,157.332141 C411.198799,141.797189 395.352684,131.435911 382.910789,124.534584" id="Fill-12" fill="#002244"></path>
                    <path d="M372.384176,123.346589 C372.161253,126.267811 374.348686,128.817493 377.265262,129.035772 C380.056445,129.249407 382.508599,127.261676 382.912647,124.535513 C382.160282,124.117532 381.417205,123.708839 380.683416,123.318724 L375.458657,127.154859 L376.912301,121.330993 C375.932368,120.824772 374.975657,120.346416 374.046811,119.891282 C373.117964,120.764397 372.495637,121.976541 372.384176,123.346589" id="Fill-14" fill="#FB4F13"></path>
                    <path d="M375.459586,127.156252 L380.684345,123.320117 C379.388605,122.60955 378.125374,121.954713 376.908586,121.332387 L375.459586,127.156252 Z" id="Fill-16" fill="#002244"></path>
                    <path d="M458.629399,170.160436 C447.353207,174.669984 461.880361,187.594878 461.880361,187.594878 C430.290303,162.660003 458.629399,170.160436 458.629399,170.160436" id="Fill-18" fill="#002244"></path>
                    <path d="M321.207075,88.7280288 C341.632402,89.1413654 321.364979,80.4752308 321.364979,80.4752308 C321.364979,80.4752308 336.068613,82.7323269 344.618642,96.3724327 C336.546969,93.2607981 327.718287,90.3302885 321.207075,88.7280288" id="Fill-20" fill="#002244"></path>
                </g>
            </g>
        </g>
    </g>
</svg>