<?xml version="1.0" encoding="UTF-8" standalone="no"?>
<svg width="500px" height="500px" viewBox="0 0 500 500" version="1.1" xmlns="http://www.w3.org/2000/svg" xmlns:xlink="http://www.w3.org/1999/xlink">
    <!-- Generator: Sketch 43.2 (39069) - http://www.bohemiancoding.com/sketch -->
    <title>DET</title>
    <desc>Created with Sketch.</desc>
    <defs></defs>
    <g id="Page-1" stroke="none" stroke-width="1" fill="none" fill-rule="evenodd">
        <g id="DET" fill-rule="nonzero">
            <g transform="translate(0.000000, 60.000000)" id="Shape">
                <path d="M442.824324,121.50117 C442.824324,121.50117 449.054054,116.096915 455.567568,116.272553 C462.081081,116.448191 466.594595,118.555851 469.081081,121.176915 C472.705721,120.801816 476.368339,121.085609 479.891892,122.014574 C485.527027,123.568298 493.405405,128.215957 496.567568,133.620213 C499.815033,139.001356 499.908012,145.715069 496.810811,151.184043 C497.359794,154.265653 496.804752,157.442118 495.243243,160.155106 C493.571342,163.212536 491.171812,165.811087 488.256757,167.721064 C486.09457,172.481443 482.304194,176.314131 477.567568,178.529574 C469.824324,181.961277 459.662162,178.083723 459.662162,178.083723 C456.331952,178.721834 452.956656,179.096787 449.567568,179.205106 C445.328006,179.003365 441.152609,178.089906 437.216216,176.502979 C437.216216,176.502979 432.027027,184.109468 430.581081,185.960426 C430.581081,185.960426 437.662162,192.121277 445.445946,194.539681 C453.22973,196.958085 459.256757,198.079468 462.797297,200.605957 C464.743284,201.939361 466.398317,203.653795 467.662162,205.645426 C471.189697,205.171948 474.771994,205.29986 478.256757,206.023723 C483.459459,207.239681 489.513514,211.319894 493.5,216.75117 C497.486486,222.182447 499.905405,229.113404 498.256757,235.666064 C496.608108,242.218723 492.851351,244.718191 492.851351,244.718191 C491.695402,248.354935 489.784342,251.706636 487.243243,254.553936 C484.757519,256.894558 481.551462,258.323403 478.148649,258.607128 C478.148649,258.607128 475.216216,262.552234 467.581081,263.754681 C462.997673,264.459911 458.317984,263.386905 454.5,260.755319 C449.68607,261.035456 444.862574,260.402851 440.283784,258.890851 C432.175676,256.364362 426.513514,247.987766 426.513514,247.987766 C426.513514,247.987766 421.189189,245.434255 411.351351,244.974894 C401.513514,244.515532 379.540541,240.111064 369.756757,234.423085 C369.756757,234.423085 364,237.206277 346.567568,238.097979 C346.567568,238.097979 343.986486,230.234787 338.932432,226.289681 C338.932432,226.289681 323.945946,234.598723 319.216216,236.800957 C314.486486,239.003191 305.702703,242.853723 298,243.313085 C298,243.313085 296,255.810426 292.337838,262.552234 C288.634878,268.966719 282.750619,273.83806 275.756757,276.279043 C275.756757,276.279043 284.391892,279.345957 288.932432,286.074255 C293.472973,292.802553 295,300.219894 291.918919,306.178085 C288.837838,312.136277 285.324324,313.771064 285.324324,313.771064 C283.785449,317.888213 280.625178,321.194315 276.581081,322.917766 C269.594595,326.052234 260.810811,324.390426 260.810811,324.390426 C257.209382,326.078817 253.274859,326.937579 249.297297,326.903404 C242.635135,326.903404 234.283784,321.174894 234.283784,321.174894 C234.283784,321.174894 212.432432,323.174468 205.905405,322.620532 C199.378378,322.066596 191.702703,319.405 188.040541,309.798936 C184.964376,312.22682 181.628728,314.306625 178.094595,316.000319 C172.135135,318.878085 160.824324,324.403936 152.702703,330.186489 L152.972973,334.496383 C152.972973,334.496383 164.837838,338.968404 165.608108,351.114468 C166.378378,363.260532 159.743243,367.773085 157.864865,369.070106 C156.108323,372.555697 153.338409,375.428637 149.918919,377.311596 C146.363267,378.961028 142.386964,379.479771 138.527027,378.797766 C138.527027,378.797766 125.175676,384.715426 115.013514,374.987766 C104.851351,365.260106 107.716216,354.721809 107.837838,352.235851 C107.959459,349.749894 108.675676,327.430319 108.567568,326.403511 C108.567568,326.403511 103.513514,319.648191 104.621622,312.028191 C105.72973,304.408191 111.581081,299.652447 114.337838,297.342128 C118.076736,294.206822 120.772748,290.008158 122.067568,285.304149 C123.716216,279.454043 123.837838,267.510638 124.391892,263.09266 C124.945946,258.674681 125.175676,251.270851 125.175676,251.270851 C125.175676,251.270851 105.175676,245.758511 94.7837838,234.152872 C84.3918919,222.547234 81.5135135,214.157128 78.8513514,202.673085 C76.1891892,191.189043 74.2837838,179.421277 63.7162162,172.841596 C58.7519859,173.959656 53.5643253,173.530586 48.8513514,171.612128 C40.8918919,168.410106 36.027027,162.006064 30.9459459,155.710106 C25.8648649,149.414149 7.75675676,146.536383 1.32432432,146.25266 C1.32432432,146.25266 14.9189189,131.215319 33.2702703,124.811277 C51.6216216,118.407234 60.2972973,120.947234 66.4189189,124.378936 C72.8849556,128.077706 77.6043012,134.206686 79.527027,141.40234 C79.527027,141.40234 91.4864865,146.576915 99.6756757,156.196489 C106.866444,164.368542 111.918096,174.195814 114.378378,184.798511 C117.081081,195.309787 120.364865,208.023298 141.405405,212.657447 C141.405405,212.657447 153.891892,200.173617 158.635135,197.06617 C162.51628,194.711931 166.698423,192.893995 171.067568,191.661915 C172.77027,191.162021 180.810811,188.540957 180.810811,188.540957 C180.810811,188.540957 193.432432,178.259362 195.486486,176.205745 C195.486486,176.205745 200.189189,167.85617 203.175676,162.99234 C205.449983,159.558514 208.037619,156.342749 210.905405,153.386277 C210.905405,153.386277 204.783784,142.010319 205.121622,129.553511 C206.950645,130.363466 208.869526,130.953068 210.837838,131.309894 C211.016565,124.965323 213.030184,118.808433 216.635135,113.583936 C220.12904,108.556595 224.147065,103.914431 228.621622,99.7355319 C228.665967,92.014914 230.860609,84.4592812 234.959459,77.9158511 C234.959459,77.9158511 229.783784,69.6203191 229.337838,64.3241489 C234.446508,63.8256755 239.507481,62.9221225 244.472973,61.6220213 C251,59.7440426 254.189189,58.42 257.513514,54.4343617 C260.837838,50.4487234 268.77027,40.7480851 278.837838,35.9923404 C287.953041,31.6740804 297.992569,29.6693863 308.067568,30.1557447 C304.981404,27.5918309 301.480866,25.572368 297.716216,24.1840426 C297.716216,24.1840426 306.986486,17.4287234 325.216216,15.4156383 C325.216216,15.4156383 325.351351,6.1743617 327.324324,1.31053191 C327.324324,1.31053191 351.540541,17.8745745 363.689189,22.6303191 C375.837838,27.3860638 384.675676,28.9262766 390.972973,32.087766 C397.27027,35.2492553 401.716216,40.8696809 402.743243,44.3824468 C406.946827,46.0421545 410.964373,48.138804 414.72973,50.6378723 C419.918919,54.2857447 422.932432,63.0676596 422.932432,63.0676596 C429.834947,65.9332788 436.515425,69.3066766 442.918919,73.1601064 C453.067568,79.3479787 465.554054,92.3857447 465.554054,92.3857447 C459.67327,95.4495901 454.669321,99.9596254 451.013514,105.491064 C451.013514,105.491064 447.945946,116.191489 442.905405,121.474149" fill="#7C8796"></path>
                <path d="M428.621622,125.93266 C431.513772,125.913113 434.396854,126.258101 437.202703,126.959468 C439.463421,127.567928 441.662203,128.386642 443.77027,129.404894 C445.314109,128.429481 446.802864,127.369532 448.22973,126.229894 C451.054589,123.99422 454.626708,122.921363 458.216216,123.230532 C461.269826,123.769159 463.996357,125.468642 465.824324,127.972766 C468.02564,128.083309 470.231117,128.083309 472.432432,127.972766 C477.407114,127.913423 482.252237,129.558316 486.162162,132.633936 C490.851351,136.362872 495.135135,141.888723 489.432432,149.265532 C489.432432,149.265532 490.648649,153.940213 488.972973,157.304362 C487.297297,160.668511 482.945946,162.519468 482.945946,162.519468 C482.945946,162.519468 480.243243,170.490745 474.013514,172.544362 C467.783784,174.597979 459.891892,170.760957 459.891892,170.760957 C455.732668,171.757434 451.46582,172.233948 447.189189,172.179574 C441.864865,171.801277 436.040541,167.302234 436.040541,167.302234 C435.051667,167.970408 434.206291,168.829384 433.554054,169.828723 C432.324324,171.612128 423.162162,184.460745 421.013514,186.730532 C421.013514,186.730532 429.986486,195.444894 438.864865,199.079255 C443.942107,201.188589 449.209271,202.808214 454.594595,203.916064 C458.936363,205.402021 462.370332,208.775638 463.932432,213.089787 C467.025746,212.31908 470.204079,211.942301 473.391892,211.968404 C477.135135,212.238617 480.783784,212.981702 487.310811,219.71 C493.837838,226.438298 492.364865,232.518085 491.364865,235.314787 C490.364865,238.111489 486.445946,240.516383 486.445946,240.516383 C486.445946,240.516383 486.121622,246.150319 482.756757,249.13617 C480.526705,250.945219 477.687554,251.830149 474.824324,251.608617 C473.354578,253.965729 471.054723,255.686638 468.378378,256.431915 C463.689189,257.782979 458.648649,255.391596 456.297297,253.527128 C456.297297,253.527128 446.675676,254.378298 440.432432,251.284362 C436.525259,249.226528 433.32453,246.045304 431.243243,242.15117 C424.312173,239.468226 416.981623,237.961331 409.554054,237.69266 C398.527027,237.598085 377.121622,231.639894 370.175676,226.532872 C370.175676,226.532872 359.554054,231.369681 351,231.491277 C348.642878,225.794757 344.459912,221.042399 339.108108,217.980638 C339.108108,217.980638 319.283784,228.978298 312.175676,232.288404 C305.067568,235.598511 292.581081,236.746915 290.756757,236.936064 C291.236741,239.540441 291.186183,242.214871 290.608108,244.799255 C289.635135,249.649574 286.675676,259.188085 284.148649,262.363085 C281.621622,265.538085 274.608108,269.45617 270.5,270.955851 C266.391892,272.455532 261.256757,273.766064 256.986486,275.900745 C252.736303,278.307843 248.773878,281.190641 245.175676,284.493511 C247.999161,285.245222 250.877404,285.773766 253.783784,286.074255 C255.77027,285.993191 259.324324,284.020638 261.891892,283.00734 C264.459459,281.994043 271.878378,280.561915 277.77027,284.966383 C283.662162,289.370851 286.743243,295.045319 286.540541,299.355213 C286.337838,303.665106 283.581081,306.772553 279.472973,308.893723 C279.472973,308.893723 278.243243,314.96 273.108108,316.824468 C267.972973,318.688936 259.391892,317.000106 259.391892,317.000106 C256.683838,318.645424 253.630735,319.639783 250.472973,319.904894 C245.621622,320.188617 239.081081,315.986809 238.054054,315.432872 C236.907816,314.701029 235.576247,314.311956 234.216216,314.311489 C232.432432,314.311489 213.202703,315.905745 207.189189,315.905745 C201.861759,316.090717 196.923352,313.127245 194.581081,308.339787 C192.054054,303.665106 195.594595,296.180213 197.851351,293.221383 C200.108108,290.262553 203.648649,286.101277 204.094595,285.263617 C204.736749,284.231473 204.457538,282.877289 203.459459,282.183191 C202.243243,281.345532 198.337838,279.481064 198.337838,279.481064 C198.337838,279.481064 192.432432,291.316383 190.22973,295.329043 C187.767877,300.214619 184.032982,304.345468 179.418919,307.285957 C173.810811,310.744681 161.932432,315.986809 155.689189,319.810319 C152.131471,321.933124 148.787119,324.394478 145.702703,327.160106 C145.702703,327.160106 145.702703,338.414468 146.108108,339.806064 C146.108108,339.806064 151.743243,340.913936 154,342.872979 C156.827396,345.226698 158.437111,348.73354 158.378378,352.411489 C158.297297,356.802447 157.716216,361.963511 152.243243,364.003617 C152.243243,364.003617 150.716216,369.691596 146.418919,371.366915 C143.611312,372.350124 140.563907,372.416358 137.716216,371.556064 C133.964685,373.319609 129.766287,373.903774 125.675676,373.231383 C119.189641,371.541767 114.563827,365.821007 114.27027,359.126277 C114.175676,352.668191 115.283784,329.335319 115.283784,327.822128 C115.39896,326.045389 115.015153,324.27183 114.175676,322.701596 C113.054054,320.647979 110.418919,315.513936 111.094595,312.230851 C111.77027,308.947766 115.148649,305.124255 118.189189,302.503191 C121.22973,299.882128 125.027027,297.288085 126.878378,292.045957 C128.918697,286.267389 130.146637,280.233576 130.527027,274.11734 C130.716216,268.618511 131.378378,250.676383 132.594595,245.826064 C132.594595,245.826064 109.405405,240.678511 98.9324324,228.721596 C88.4594595,216.764681 86.6891892,207.22617 83.7027027,194.431596 C80.7162162,181.637021 76.9459459,171.841809 64.7162162,165.464787 C59.9062903,167.346829 54.5358375,167.180868 49.8513514,165.005426 C41.4324324,161.357553 36.8513514,151.832553 32.3783784,148.454894 C27.9054054,145.077234 15.6891892,143.172234 13.2432432,143.239787 C13.2432432,143.239787 27.7837838,133.14734 37.7972973,130.161489 C47.8108108,127.175638 58.6486486,126.243404 65.4594595,131.66117 C72.2702703,137.078936 73.2972973,146.414787 73.2972973,146.414787 C73.2972973,146.414787 87.3243243,152.210851 95.4594595,162.195213 C103.594595,172.179574 106,181.528936 107.621622,187.797872 C109.243243,194.066809 114.148649,206.57766 122.054054,212.117021 C128.606532,216.622429 136.175224,219.431069 144.081081,220.290957 C144.081081,220.290957 157.72973,206.037234 162.405405,202.956809 C166.172876,200.676809 170.277792,199.007832 174.567568,198.011915 C176.824324,197.363404 184.594595,194.796383 184.594595,194.796383 C184.594595,194.796383 198.351351,182.961064 200.986486,180.920957 C200.986486,180.920957 208.959459,167.113085 211.202703,163.83 C213.445946,160.546915 219.472973,152.886383 219.472973,152.886383 C219.472973,152.886383 213.959459,146.590426 214.067568,138.457021 C215.810601,138.806758 217.587881,138.956344 219.364865,138.902872 C217.66302,135.491705 217.185905,131.599274 218.013514,127.878191 C219.364865,121.433617 226.310811,110.962872 235.662162,102.924043 C235.508089,98.4556676 236.041332,93.9901385 237.243243,89.683617 C238.594264,85.5163664 240.606409,81.5932901 243.202703,78.0644681 C243.202703,78.0644681 238.932432,72.7953191 238.27027,68.6070213 C242.894939,68.1604323 247.468437,67.2875369 251.932432,65.9994681 C255.614627,64.656854 259.031645,62.676594 262.027027,60.1493617 C262.027027,60.1493617 272.756757,45.2876596 285.837838,40.6670213 C294.347735,37.830093 303.341115,36.732004 312.283784,37.4379787 C315.261996,35.4574419 318.383189,33.7007329 321.621622,32.1823404 C321.621622,32.1823404 316.432432,26.3457447 312.162162,24.5353191 C318.456442,22.7320725 324.997909,21.9430676 331.540541,22.1979787 C331.625465,18.7620069 332.037231,15.3419107 332.77027,11.9839362 C332.77027,11.9839362 348.986486,23.6706383 356.351351,26.9267021 C363.716216,30.182766 377.824324,34.8709574 382.608108,36.3841489 C387.391892,37.8973404 395.445946,40.977766 397.162162,49.6110638 C397.162162,49.6110638 405.013514,52.9211702 408.121622,54.61 C411.045149,56.4133376 413.43379,58.9647216 415.040541,62.0003191 C415.599098,63.7348129 416.299667,65.4203391 417.135135,67.0397872 C417.965628,68.3074943 419.198345,69.2591967 420.635135,69.7419149 C421.986486,70.2282979 434.932432,76.0108511 440.905405,80.5504255 C446.878378,85.09 455.013514,92.7910638 455.013514,92.7910638 C455.013514,92.7910638 446.905405,99.2626596 444.905405,102.248511 C443.39766,107.141695 441.26281,111.819201 438.554054,116.164468 C436.09658,119.721734 432.70044,122.527863 428.743243,124.270851 L428.621622,125.93266 Z" fill="#FFFFFF"></path>
                <path d="M411.22973,187.000745 C418.932432,180.056277 426.621622,165.910638 430.324324,162.681596 C432.686799,160.743713 435.734408,159.846688 438.77027,160.195638 C441.159483,163.138359 444.675161,164.942396 448.459459,165.167553 C452.417896,165.257064 456.362393,164.667572 460.121622,163.424681 C460.121622,163.424681 469.324324,167.140106 472.540541,165.397234 C475.756757,163.654362 477.5,156.966596 477.5,156.966596 C477.5,156.966596 482.716216,155.980319 482.905405,153.494362 C483.094595,151.008404 481.162162,147.049787 481.162162,147.049787 C481.162162,147.049787 484.648649,144.807021 485.135135,143.334362 C485.621622,141.861702 483.905405,139.848617 482.432432,138.605638 C480.959459,137.36266 475.486486,134.376809 472.756757,134.876702 C470.027027,135.376596 461.581081,134.633511 461.581081,134.633511 C461.581081,134.633511 460.337838,131.161277 458.108108,130.404681 C455.873215,129.813923 453.493648,130.481094 451.891892,132.147553 C450.405405,133.647234 445.959459,136.606064 443.783784,136.606064 C441.608108,136.606064 439.797297,134.363298 432.864865,133.13383 C429.023531,132.291812 425.004988,133.005959 421.689189,135.119894 C422.047026,132.229652 422.14201,129.312924 421.972973,126.405532 C421.972973,126.094787 420.5,126.473085 420.445946,126.16234 C420.256757,122.77117 420.445946,117.745213 420.445946,117.745213 C419.689189,119.731277 413.121622,128.68883 407.405405,125.716489 C401.689189,122.744149 403.351351,112.057234 403.351351,112.057234 C412.297297,106.652979 424.972973,107.342021 424.972973,107.342021 C427.418919,112.746277 424.202703,118.258617 424.202703,118.258617 C434.878378,114.786383 437.364865,101.640532 438.621622,98.911383 C439.878378,96.182234 445.554054,92.9531915 445.554054,92.9531915 C441.901275,89.676226 437.997452,86.6902559 433.878378,84.0226596 C427.79447,80.5260656 421.472636,77.4606284 414.959459,74.8489362 C412.986486,74.1058511 410.5,69.8770213 410,68.4043617 C409.5,66.9317021 408.027027,62.4326596 404.297297,60.4465957 C400.567568,58.4605319 389.891892,53.9479787 389.891892,53.9479787 C389.891892,53.9479787 391.378378,51.7187234 388.891892,47.7465957 C386.405405,43.7744681 377.459459,42.0451064 362.824324,37.0867021 C353.861055,33.9863473 345.539754,29.2748463 338.27027,23.1842553 C337.756757,27.4130851 340.972973,31.1285106 340.972973,31.1285106 C336.243243,28.8992553 323.405405,28.426383 323.405405,28.426383 C327.300344,30.0299595 330.783214,32.4914646 333.594595,35.6275532 C328.635135,35.6275532 320.675676,40.3562766 320.675676,40.3562766 C327.135135,40.3562766 329.864865,43.815 329.864865,43.815 C323.905405,46.5171277 310.945946,42.5720213 296.364865,44.8147872 C281.783784,47.0575532 272.297297,58.4740426 272.297297,58.4740426 C278.5,56.217766 282.472973,58.2173404 282.472973,58.2173404 C277.527027,58.4740426 264.608108,66.6479787 259.648649,69.363617 C254.689189,72.0792553 247.486486,71.8495745 247.486486,71.8495745 C249.202703,75.5785106 253.932432,76.5918085 253.932432,76.5918085 C247.486486,81.0503191 243.986486,91.4535106 243.986486,91.4535106 C247.716216,87.2246809 253.175676,87.4678723 254.418919,89.9673404 C255.662162,92.4668085 253.945946,97.0469149 249.013514,100.627234 C244.959459,103.532021 235.121622,111.800532 229.891892,119.244894 C224.662162,126.689255 223.878378,132.566383 223.878378,132.566383 C230.108108,130.012872 232.22973,132.215106 231.756757,135.268511 C230.932432,140.483617 221.743243,144.523298 221.743243,144.523298 C223.972973,148.252234 232.391892,148.508936 232.391892,148.508936 C232.391892,148.508936 222.445946,159.412021 218.486486,165.370213 C214.527027,171.328404 207.824324,183.258298 206.567568,184.98766 C205.310811,186.717021 190.689189,198.403723 189,200.133085 C187.310811,201.862447 172.351351,205.53734 168.635135,207.334255 C164.918919,209.13117 152.256757,220.966489 148.040541,226.424787 C147.783784,226.762553 147.540541,227.086809 147.297297,227.411064 C141.27027,226.978723 127.256757,225.154787 117.756757,217.305106 C105.391892,207.064043 102.5,194.877447 100.364865,186.568404 C98.4361191,178.956576 94.8714382,171.856395 89.9189189,165.762021 C85.0810811,159.574149 70.2027027,152.170319 67.6891892,150.630106 C67.6891892,150.630106 65.8513514,140.172872 60.7297297,136.714149 C55.2297297,132.998723 48,133.755319 44.9324324,134.525426 C43.7274353,134.858241 42.5410633,135.255117 41.3783784,135.714362 C43.9511969,135.984269 46.4964011,136.47241 48.9864865,137.173511 C56,138.983936 56.4594595,143.92883 56.4594595,143.92883 C56.4594595,143.92883 47.4459459,134.147128 29.2162162,141.226702 C30.6621622,141.469894 35.972973,142.577766 38.6756757,146.077021 C41.7162162,150.130213 42.6216216,153.062021 51.3108108,157.858298 C55.5555746,160.44825 60.9328361,160.273115 65,157.412447 C65,157.412447 78.2567568,164.26234 82.5675676,171.895851 C87.4022436,181.064184 90.8496822,190.898904 92.7972973,201.07883 C94.7297297,211.319894 98.7972973,219.237128 107.878378,227.154362 C115.986486,234.220426 133.216216,238.96266 141.283784,240.475851 C141.067568,241.232447 140.824324,241.989043 140.567568,242.799681 C138.581081,249.244255 138.581081,260.917447 137.864865,273.576915 C137.148649,286.236383 134.405405,293.410532 131.418919,298.86883 C128.432432,304.327128 119.256757,309.555745 118.527027,312.771277 C117.797297,315.986809 122.013514,319.526596 122.5,324.430957 C122.986486,329.335319 121.77027,350.236277 121.77027,353.208617 C121.77027,356.180957 121.013514,359.963936 122.756757,362.666064 C124.436435,365.499665 127.706887,366.983465 130.945946,366.381489 C132.975928,366.226918 134.854963,365.251004 136.148649,363.679362 C136.148649,363.679362 141.554054,365.908617 144.081081,364.408936 C146.608108,362.909255 146.310811,357.977872 146.310811,357.977872 C146.310811,357.977872 150.040541,357.977872 151.013514,356.721383 C151.986486,355.464894 152.256757,351.006383 150.527027,348.777128 C148.797297,346.547872 140.108108,345.804787 140.108108,345.804787 C139.635135,344.791489 138.121622,327.930213 139.364865,324.187766 C140.608108,320.445319 150.527027,314.730319 158.283784,310.285319 C166.040541,305.840319 176.391892,302.097872 180.108108,298.125745 C183.148649,294.896702 191.135135,278.859574 194.013514,272.982447 C194.189189,272.61766 203.756757,249.082128 226.648649,238.651915 L226.824324,238.530319 C210.081081,253.392021 208.648649,258.998936 208.648649,258.998936 C208.648649,258.998936 219.797297,248.406596 239.175676,240.205638 C252.067568,234.801383 261.945946,232.369468 268.391892,231.747979 C252.405405,236.827979 238.77027,244.556064 225.027027,252.824574 C216.165948,258.233336 208.231522,265.03022 201.527027,272.955426 C213.918919,277.886809 212.972973,283.169468 211.891892,286.195851 C210.648649,289.681596 202.959459,297.369149 201.716216,300.841383 C200.472973,304.313617 200.959459,308.042553 207.121622,308.542447 C213.283784,309.04234 230.459459,306.799574 235.918919,307.042766 C241.378378,307.285957 244.851351,312.757766 250.067568,312.757766 C253.0317,312.846303 255.870212,311.559519 257.756757,309.272021 C261.486486,310.528511 268.189189,311.258085 270.932432,310.028617 C273.675676,308.799149 273.162162,303.584043 273.162162,303.584043 C277.648649,302.827447 280.364865,300.598191 279.621622,298.179787 C278.623021,294.848056 276.409302,292.012784 273.418919,290.235532 C270.384884,288.418122 266.61949,288.325802 263.5,289.99234 C260.797297,291.221809 257.040541,293.451064 253.067568,292.964681 C249.094595,292.478298 234.148649,289.249255 234.148649,289.249255 C238.121622,278.33266 250.783784,270.334362 256.5,268.415851 C262.216216,266.49734 273.121622,262.944043 277.351351,259.471809 C281.581081,255.999574 284.108108,243.569787 284.283784,241.09734 C284.459459,238.624894 282.297297,230.680638 282.297297,230.680638 C286.783784,229.937553 298.432432,230.180745 307.378378,226.695 C312.648649,224.641383 322.567568,219.318191 329.837838,215.292021 C313.891892,206.104787 282.081081,208.428617 282.081081,208.428617 C315.527027,201.470638 338.662162,210.320106 338.662162,210.320106 C349.581081,213.549149 355.040541,223.965851 355.040541,223.965851 C361.986486,222.966064 370.932432,218.750745 370.932432,218.750745 C390.121622,208.415106 411.378378,186.987234 411.378378,186.987234 M396.864865,73.8761702 C399.081081,73.8761702 403.621622,76.8755319 406.891892,77.0646809 C405.731318,78.611667 404.657592,80.2219135 403.675676,81.8879787 C403.297297,82.887766 404.891892,84.9008511 404.891892,84.9008511 C404.891892,84.9008511 398.486486,80.0910638 396.486486,78.6859574 C394.486486,77.2808511 386.851351,75.6730851 386.851351,75.6730851 C390.15145,74.8801848 393.494953,74.2801965 396.864865,73.8761702 M322.202703,97.3441489 C335.178539,99.6194331 346.681799,107.046228 354.094595,117.934362 C354.094595,117.934362 337.486486,104.57234 319.797297,102.707872 C302.108108,100.843404 285.472973,107.490638 285.472973,107.490638 C295.557471,98.7403471 309.055299,95.0116084 322.202703,97.3441489 M268.756757,142.45617 C259.53435,144.661765 249.85766,143.992273 241.027027,140.53766 C262.391892,139.781064 272.513514,133.78234 293.72973,122.514468 C314.945946,111.246596 337.297297,120.663511 337.297297,120.663511 C324.733866,118.784891 311.897935,120.922181 300.621622,126.770319 C292.783784,130.59383 283.527027,138.929894 268.797297,142.45617 M359.418919,145.266383 C352.324324,137.659894 328.337838,132.944681 305.594595,141.510426 C328.391892,129.175213 349.5,132.742021 360.324324,138.308404 C370.689189,143.618085 369.783784,152.143298 369.581081,153.291702 C369.591454,153.336141 369.591454,153.38237 369.581081,153.426809 C374.090128,152.48825 378.434799,150.885526 382.472973,148.671064 C382.932432,141.564468 386.972973,134.349787 393.567568,134.728085 C400.959459,135.146915 411.135135,140.605213 411.135135,140.605213 C396.986486,152.021702 371.040541,161.49266 361.878378,163.41117 C361.878378,163.41117 368.202703,154.764362 359.391892,145.279894" fill="#0076B6"></path>
                <path d="M485.22973,230.167234 C484.5,226.938191 480.77027,222.236489 476.810811,219.993723 C472.851351,217.750957 468.378378,219.737021 464.905405,219.993723 C461.905166,220.031784 459.129179,218.410204 457.689189,215.778404 C456.959459,214.049043 454.716216,210.806489 451.743243,210.374149 C445.195231,209.014255 438.840657,206.849621 432.824324,203.929574 C427.351351,201.403085 420.662162,195.904255 416.27027,191.851064 C410.92101,197.397037 405.27297,202.646973 399.351351,207.577447 C392.312926,213.126148 384.883783,218.160635 377.121622,222.641809 C391.878378,229.680851 409.324324,230.559043 417.405405,231.423723 C423.996689,232.320615 430.429053,234.13985 436.513514,236.827979 C437.606307,240.472935 440.237284,243.45868 443.716216,245.001915 C449.648649,247.704043 458.351351,246.244894 458.351351,246.244894 C458.351351,246.244894 462.824324,250.703404 466.540541,249.473936 C470.256757,248.244468 470.513514,243.272553 470.513514,243.272553 C470.513514,243.272553 475.22973,245.758511 477.702703,244.029149 C480.175676,242.299787 479.445946,235.341809 479.445946,235.341809 C482.418919,235.341809 485.891892,233.355745 485.135135,230.126702" fill="#0076B6"></path>
            </g>
        </g>
    </g>
</svg>