<?xml version="1.0" encoding="UTF-8" standalone="no"?>
<svg width="500px" height="500px" viewBox="0 0 500 500" version="1.1" xmlns="http://www.w3.org/2000/svg" xmlns:xlink="http://www.w3.org/1999/xlink">
    <!-- Generator: Sketch 39.1 (31720) - http://www.bohemiancoding.com/sketch -->
    <title>GB</title>
    <desc>Created with Sketch.</desc>
    <defs></defs>
    <g id="100x100-NFL" stroke="none" stroke-width="1" fill="none" fill-rule="evenodd">
        <g id="GB">
            <g transform="translate(3.000000, 87.000000)">
                <path d="M246.05873,0 C112.684824,0.0115811146 0.00057905573,74.7618853 0.00057905573,163.241601 C0.00057905573,255.346205 105.78248,324.798149 246.05873,324.798149 C327.925629,324.798149 405.542259,296.02487 453.690743,247.835852 C480.194124,221.3151 494.768957,191.267898 494.740004,163.241601 C494.69947,119.615542 469.041511,78.6415587 422.479639,47.8589561 C375.796167,16.9894951 313.148127,0 246.05873,0" id="Fill-1" stroke="#FFB612" stroke-width="3" fill="#FFB612"></path>
                <path d="M73.9876878,271.429478 C31.1896788,242.882031 7.62211057,204.455892 7.62211057,163.238705 C7.62211057,80.3468778 119.038224,7.6348498 246.059888,7.62326868 C378.906854,7.61747812 487.045511,77.4284369 487.126579,163.238705 C487.149741,189.244098 473.362425,217.368835 448.300893,242.453529 C401.547933,289.241232 325.952207,317.174881 246.059888,317.174881 C179.312134,317.174881 118.198593,300.926577 73.9876878,271.429478" id="Fill-4" fill="#1F3731"></path>
                <path d="M352.799547,120.493391 C333.644384,91.9633148 291.703377,72.1769805 242.315714,72.1769805 C174.53145,72.1769805 119.573271,109.462379 119.573271,155.450985 C119.573271,201.4338 158.364214,241.811357 242.315714,241.765032 C292.728306,241.74187 333.262207,219.969374 352.197329,191.369812 L209.002638,191.618806 L208.562556,154.420266 L457.133809,154.327617 C457.46387,157.315544 457.811304,160.222404 457.811304,163.239285 C457.811304,234.839526 363.0083,292.884072 246.056414,292.884072 C129.116109,292.884072 34.3131054,234.839526 34.3131054,163.239285 C34.3131054,91.6448341 134.750322,31.4056666 246.056414,30.9771653 C338.705331,30.6181508 417.462701,68.9053156 446.183865,120.429694 L352.799547,120.493391 Z" id="Fill-6" fill="#FFFFFF"></path>
            </g>
        </g>
    </g>
</svg>