<?xml version="1.0" encoding="UTF-8" standalone="no"?>
<svg width="500px" height="500px" viewBox="0 0 500 500" version="1.1" xmlns="http://www.w3.org/2000/svg" xmlns:xlink="http://www.w3.org/1999/xlink">
    <!-- Generator: Sketch 39.1 (31720) - http://www.bohemiancoding.com/sketch -->
    <title>HOU</title>
    <desc>Created with Sketch.</desc>
    <defs></defs>
    <g id="100x100-NFL" stroke="none" stroke-width="1" fill="none" fill-rule="evenodd">
        <g id="HOU">
            <g transform="translate(0.000000, 22.000000)">
                <path d="M310.068352,185.242192 C310.068352,185.242192 277.266709,177.014794 216.240227,146.709966 C75.1259773,76.6347627 119.465573,41.8468964 228.237262,22.2507331 C54.1628482,-53.5755743 -83.1215115,78.9362151 76.931641,207.319341 L33.8388679,237.843755 C69.9153586,259.952442 139.255113,308.185797 128.395509,379.231435 L95.2714851,403.557607 L201.042962,452.43456 L288.958001,413.229482 C289.607133,373.876781 360.433214,353.765472 390.690423,273.723622 C557.242537,235.508813 515.332024,94.2265596 375.220696,80.0185518 C475.211907,160.260747 393.516239,173.374524 310.068352,185.242192 Z" id="Fill-1" fill="#FFFFFF"></path>
                <path d="M239.607008,320.532441 L207.486406,284.005376 L170.608046,289.496273 L187.653501,261.423204 L155.540536,224.865591 L198.199994,244.057001 L215.207264,215.976295 L224.50895,255.90176 L267.160771,275.070259 L230.267137,280.591703 L239.607008,320.532441 Z M292.301289,190.499756 C83.2195442,109.740042 69.3739308,43.4979839 199.880101,20.6027004 C36.665292,-23.7521383 -58.5357099,94.5427053 102.953171,207.346652 L59.6216703,238.314088 C105.633706,269.060056 154.395009,314.59097 137.853586,386.239919 L116.019825,401.826735 L199.880101,439.835349 C277.921096,354.363697 318.740072,271.312928 292.301289,190.499756 L292.301289,190.499756 Z" id="Fill-4" fill="#031F2F"></path>
                <path d="M398.4375,90.3523644 C470.193365,146.536687 420.37054,182.422257 332.890396,192.174517 C355.021994,285.466306 287.160924,370.915048 215.313416,437.080737 L281.188905,407.235918 C286.061217,369.318946 352.898949,349.600593 384.576613,265.46539 C533.327224,232.275629 509.04967,125.512433 398.4375,90.3523644" id="Fill-6" fill="#A71930"></path>
            </g>
        </g>
    </g>
</svg>