<?xml version="1.0" encoding="UTF-8" standalone="no"?>
<svg width="500px" height="500px" viewBox="0 0 500 500" version="1.1" xmlns="http://www.w3.org/2000/svg" xmlns:xlink="http://www.w3.org/1999/xlink">
    <!-- Generator: Sketch 39.1 (31720) - http://www.bohemiancoding.com/sketch -->
    <title>IND</title>
    <desc>Created with Sketch.</desc>
    <defs></defs>
    <g id="100x100-NFL" stroke="none" stroke-width="1" fill="none" fill-rule="evenodd">
        <g id="IND">
            <g transform="translate(14.000000, 2.000000)">
                <path d="M235.492973,495.898948 C187.728678,496.112458 151.108238,482.475356 133.579741,473.225544 C99.2459254,455.201152 70.9454947,431.336223 46.5915588,398.214595 C11.5758886,350.732684 4.80554949,312.500587 2.00925481,291.6799 C0.376935012,280.839092 -1.57220635,254.783962 2.08501649,231.408041 C6.21747168,197.680319 13.8900635,180.881889 19.372454,164.441605 C23.6288829,152.753644 37.3899586,124.625399 45.5446702,111.725251 C52.4871949,101.614511 65.1531701,82.9840255 70.3118516,76.4065343 C71.7306612,74.3403067 69.8917187,75.3183211 69.120327,75.3389834 C67.2193977,75.8004409 66.2482707,75.9244145 64.7812491,75.8004409 C63.6930359,75.8004409 61.4959472,75.4354073 60.2837604,75.0703738 C53.4583219,73.617127 43.7195025,66.0616215 44.9385768,52.9066391 C44.6906295,49.9863708 47.8588451,24.9092552 50.2969937,17.1126898 C53.4583219,6.16168353 60.0358131,1.04432653 71.7306612,0.0663121309 C77.5711979,0.0663121309 102.166194,-0.415807641 113.337598,1.31982354 C135.707955,3.54446191 152.09314,10.0530788 161.825072,29.7786649 C169.61475,47.0661025 166.942429,74.0992468 156.232482,94.7959599 C152.57526,101.855571 145.260814,115.010553 138.93127,123.530298 C133.090733,132.050043 130.652585,136.444221 125.542115,145.935093 C120.424758,155.914972 103.378381,193.175943 97.5378439,217.522991 C86.4215394,262.966224 92.6684342,289.124665 114.095214,324.677554 C129.929405,348.294536 148.435917,365.347801 162.796199,373.137479 C186.426955,387.986768 218.694543,392.132998 235.492973,392.132998 C252.291403,392.132998 284.558991,387.986768 308.18286,373.137479 C322.543141,365.347801 341.056541,348.294536 356.876957,324.677554 C378.317512,289.124665 384.557519,262.966224 373.441214,217.522991 C367.600678,193.175943 350.547413,155.914972 345.436943,145.935093 C340.326474,136.444221 337.888325,132.050043 332.040901,123.530298 C325.711357,115.010553 318.410686,101.855571 314.753463,94.7959599 C304.03663,74.0992468 301.364309,47.0661025 309.160874,29.7786649 C318.892806,10.0530788 335.277991,3.54446191 357.648348,1.31982354 C368.812865,-0.415807641 393.414748,0.0663121309 399.255284,0.0663121309 C410.950133,1.04432653 417.520736,6.16168353 420.688952,17.1126898 C423.127101,24.9092552 426.288429,49.9863708 426.047369,52.9066391 C427.259556,66.0616215 417.520736,73.617127 410.695298,75.0703738 C409.489998,75.4354073 407.29291,75.8004409 406.190922,75.8004409 C404.737675,75.9244145 403.759661,75.8004409 401.858731,75.3389834 C401.080452,75.3183211 399.255284,74.3403067 400.660319,76.4065343 C405.825888,82.9840255 418.498751,101.614511 425.434388,111.725251 C433.595987,124.625399 447.350175,152.753644 451.620379,164.441605 C457.095882,180.881889 464.761587,197.680319 468.907817,231.408041 C472.558152,254.783962 470.609011,280.839092 468.969803,291.6799 C466.173509,312.500587 459.410057,350.732684 424.387499,398.214595 C400.033564,431.336223 371.74002,455.201152 337.399318,473.225544 C319.87082,482.475356 283.257267,495.67855 235.492973,495.898948" id="Fill-1" stroke="#FFFFFF" stroke-width="2.5" fill="#FFFFFF"></path>
                <path d="M235.223675,448.965277 C238.398778,448.965277 240.9609,446.403154 240.9609,443.234939 C240.9609,440.073611 238.398778,437.504601 235.223675,437.504601 C232.062346,437.504601 229.493337,440.073611 229.493337,443.234939 C229.493337,446.403154 232.062346,448.965277 235.223675,448.965277 M82.6947536,376.399364 C85.8560818,376.399364 88.4250914,373.837241 88.4250914,370.669026 C88.4250914,367.50081 85.8560818,364.9318 82.6947536,364.9318 C79.5265379,364.9318 76.9575283,367.50081 76.9575283,370.669026 C76.9575283,373.837241 79.5265379,376.399364 82.6947536,376.399364 M48.5951109,243.926625 C51.7633265,243.926625 54.3254487,241.357616 54.3254487,238.196287 C54.3254487,235.021184 51.7633265,232.459062 48.5951109,232.459062 C45.4337827,232.459062 42.864773,235.021184 42.864773,238.196287 C42.864773,241.357616 45.4337827,243.926625 48.5951109,243.926625 M115.809494,88.0779652 C118.970823,88.0779652 121.539832,85.5089556 121.539832,82.3476274 C121.539832,79.1794117 118.970823,76.6104021 115.809494,76.6104021 C112.641279,76.6104021 110.079157,79.1794117 110.079157,82.3476274 C110.079157,85.5089556 112.641279,88.0779652 115.809494,88.0779652 M394.075252,370.669026 C394.075252,367.50081 391.499355,364.9318 388.344914,364.9318 C385.176698,364.9318 382.607689,367.50081 382.607689,370.669026 C382.607689,373.837241 385.176698,376.399364 388.344914,376.399364 C391.499355,376.399364 394.075252,373.837241 394.075252,370.669026 M428.168007,238.196287 C428.168007,235.021184 425.605885,232.459062 422.437669,232.459062 C419.269454,232.459062 416.700444,235.021184 416.700444,238.196287 C416.700444,241.357616 419.269454,243.926625 422.437669,243.926625 C425.605885,243.926625 428.168007,241.357616 428.168007,238.196287 M360.960511,82.3476274 C360.960511,79.1794117 358.384614,76.6104021 355.223286,76.6104021 C352.05507,76.6104021 349.492948,79.1794117 349.492948,82.3476274 C349.492948,85.5089556 352.05507,88.0779652 355.223286,88.0779652 C358.384614,88.0779652 360.960511,85.5089556 360.960511,82.3476274 M128.709642,457.140651 C97.5371551,438.647914 69.2918239,415.265105 42.0176197,370.269555 C29.8406518,348.057608 1.58843312,300.809871 15.5216945,218.505138 C31.5969452,143.253129 63.933407,105.268979 82.4330314,79.2069614 C91.2007238,66.5478737 82.198859,59.2403154 75.1323606,61.9264113 C69.2091748,64.171712 65.1524813,64.3094605 65.1524813,64.3094605 C54.6767074,62.8975383 56.143729,56.0789872 58.085983,38.2956551 L60.5241315,23.687426 C62.7143328,10.7872784 68.5548694,11.0283383 83.900053,11.3244975 C108.253989,11.8066173 112.634391,12.0063527 125.789374,14.4376138 C143.324759,18.3358965 166.211673,35.8643939 148.187281,84.0832585 C136.988327,109.897329 125.300367,118.658134 112.634391,145.450218 C98.9972893,175.155683 65.8825484,241.88106 88.2804555,298.860729 C118.970823,375.331813 178.381753,402.606017 234.879303,403.577144 C291.376853,402.847077 356.642095,369.484389 382.745437,298.860729 C405.143344,241.88106 372.028603,175.155683 358.391501,145.450218 C345.732414,118.658134 334.044453,109.897329 322.838612,84.0832585 C304.821107,35.8643939 327.714909,18.3358965 345.250294,14.4376138 C358.391501,12.0063527 362.778791,11.8066173 387.132727,11.3244975 C402.464136,11.0283383 408.318447,10.7872784 410.501761,23.687426 L412.946797,38.2956551 C414.895939,56.0789872 416.349185,62.8975383 405.880299,64.3094605 C405.880299,64.3094605 401.809831,64.171712 395.893532,61.9264113 C388.840809,59.2403154 379.825169,66.5478737 388.592861,79.2069614 C407.092486,105.268979 439.435835,143.253129 455.504198,218.505138 C469.444347,300.809871 441.185241,348.057608 429.008273,370.269555 C401.740956,415.265105 373.495625,438.647914 342.316251,457.140651 C299.655538,486.859891 219.782067,485.151809 235.127251,484.180682 C251.195614,485.399757 176.439499,487.34201 128.709642,457.140651" id="Fill-4" fill="#002C5F"></path>
            </g>
        </g>
    </g>
</svg>