<?xml version="1.0" encoding="UTF-8" standalone="no"?>
<svg width="500px" height="500px" viewBox="0 0 500 500" version="1.1" xmlns="http://www.w3.org/2000/svg" xmlns:xlink="http://www.w3.org/1999/xlink">
    <!-- Generator: Sketch 39.1 (31720) - http://www.bohemiancoding.com/sketch -->
    <title>KC</title>
    <desc>Created with Sketch.</desc>
    <defs></defs>
    <g id="100x100-NFL" stroke="none" stroke-width="1" fill="none" fill-rule="evenodd">
        <g id="KC">
            <g transform="translate(1.000000, 88.000000)">
                <path d="M495.633006,153.508002 C493.705746,149.678382 491.205786,145.769082 485.493726,141.376722 C481.101366,137.422602 479.492826,135.619842 478.287666,134.668662 C471.704106,129.474522 475.219986,132.482442 469.707126,128.363982 C465.474126,125.196702 463.302846,123.687762 458.975226,120.674862 C450.021186,114.434922 453.850806,118.518522 447.317046,112.497702 C442.247406,104.967942 432.720666,94.181262 423.632166,92.687262 C413.517786,91.013982 409.474026,88.384542 408.483006,86.785962 C403.836666,79.335882 394.394586,72.119862 390.440466,69.978462 C378.139866,63.300282 364.360206,63.763422 353.279706,53.908002 C338.100666,43.121322 327.553026,44.690022 315.237486,43.908162 C305.576286,43.290642 294.630246,36.926202 290.128326,33.988002 C286.079586,31.338642 278.594646,28.101642 274.401486,28.285902 C251.707626,29.276922 251.692686,27.499062 238.072386,19.565922 C233.206926,16.737282 229.800606,14.914602 224.287746,13.330962 C219.526866,11.961462 217.679286,12.648702 212.983146,12.031182 C198.292146,10.098942 198.899706,15.761202 188.376966,10.029222 C184.671846,8.017302 180.892026,6.055182 174.193926,4.481502 C169.328466,3.341082 164.318586,3.316182 158.422266,3.067182 C147.919446,2.614002 144.279066,7.469502 128.856006,4.576122 C111.291546,1.284342 96.137406,-1.633938 88.672386,4.919742 C78.333906,11.921622 75.500286,24.864642 78.991266,37.548702 C81.974286,50.959842 84.200346,55.207782 86.396526,63.728562 C91.077726,78.065982 87.437346,69.370902 83.079846,66.811182 C72.870846,59.659902 62.761446,62.289342 56.860146,65.586102 C44.549586,73.210482 45.769686,65.934702 37.517826,65.212602 C34.236006,64.311222 30.232086,65.456622 30.232086,65.456622 C24.121626,66.537282 21.472266,69.903762 20.067906,71.636802 C17.647626,74.629782 16.233306,77.055042 15.053046,80.944422 C13.862826,84.853722 13.439526,87.821802 14.181546,94.146402 C14.833926,99.719022 16.412586,101.945082 16.990266,106.098402 C18.499206,116.905002 15.262206,119.937822 12.234366,126.068202 C10.431606,129.733482 7.483446,137.457462 6.392826,140.724342 C3.081126,150.689322 2.149866,156.132462 1.846086,159.967062 C1.303266,166.869342 0.929766,171.520662 1.004466,176.480742 C1.059246,179.817342 1.641906,184.777422 2.438706,190.678722 C3.728526,200.245302 4.908786,203.083902 6.985446,211.325802 C9.525246,221.365482 9.674646,225.025782 8.344986,234.049542 C7.090026,242.570322 5.715546,247.077222 9.624846,253.237482 C13.100886,258.710502 17.040066,259.721442 20.043006,261.080982 C20.043006,261.080982 25.809846,263.361822 33.240006,262.281162 C40.406226,261.235362 43.942026,258.605922 49.674006,255.727482 C55.475706,253.750422 62.960646,259.925622 72.532206,256.399782 C81.974286,251.429742 78.069966,260.294142 78.069966,260.294142 C75.704466,266.394642 70.614906,283.495962 68.129886,295.507722 C67.611966,302.400042 68.214546,307.459722 72.616866,312.708642 C75.296106,316.358982 82.681446,320.333022 89.339706,321.647742 C93.303786,322.424622 97.347546,323.037162 104.120346,321.553122 C104.120346,321.254322 106.804566,321.134802 106.804566,320.836002 L114.194886,319.192602 L119.204766,318.375882 C126.276366,317.574102 124.299306,318.097002 132.795186,317.833062 C141.081906,317.574102 149.159466,320.253342 156.913326,320.278242 C160.972026,320.293182 165.334506,320.726442 169.218906,319.934622 C179.881086,317.778282 180.070326,318.430662 193.531266,312.021402 C203.949426,307.056342 207.998166,309.889962 212.300886,309.670842 C222.186186,309.177822 234.989766,306.085242 239.153046,303.819342 C244.207746,301.075362 247.982586,299.426982 251.438706,297.778602 C264.690486,291.468942 270.422466,292.783662 284.301726,290.119362 C296.198946,287.838522 297.369246,284.048742 308.160906,281.160342 C312.438726,280.019922 317.503386,279.511962 322.089966,278.869542 C325.595886,278.386482 332.647566,275.298882 337.074786,271.653522 C344.753946,265.333902 342.811746,266.429502 345.864486,264.522162 C354.858366,258.914682 356.476866,262.350882 369.619086,256.499382 C376.446666,253.461582 386.546106,247.007502 392.935446,241.997622 C400.778946,235.852302 409.070646,236.056482 421.421046,230.269722 C427.556406,227.396262 434.085186,222.983982 442.207566,209.308902 C447.710466,200.046102 457.416486,202.675542 470.404326,194.916702 C476.126346,191.495442 475.623366,191.326122 481.893186,185.419842 C487.535526,180.091242 491.076306,173.766642 493.282446,169.837422 C496.280406,164.498862 498.870006,159.952122 495.633006,153.508002 M481.848366,169.593402 C479.512746,173.024622 477.645246,176.176962 472.446126,181.082262 C466.674306,186.520422 463.442286,188.123982 455.947386,190.379922 C444.672666,193.771302 439.065186,195.340002 432.730626,206.276082 C426.266586,217.441242 418.567506,221.206122 412.706046,223.342542 C402.751026,226.958022 390.649626,229.119342 382.975446,236.863242 C377.711586,242.171922 370.879026,244.801362 364.225746,247.883982 C357.079446,251.200662 349.031766,251.071182 341.925306,255.090042 C337.667406,257.490402 338.269986,257.694582 332.787006,262.769202 C329.594826,265.722342 323.877786,268.590822 320.645766,269.044002 C316.422726,269.631642 312.095106,269.556942 308.150946,270.612702 C298.220826,273.272022 294.744786,277.460202 285.855486,279.636462 C273.211266,282.724062 259.989366,281.972082 248.734566,287.992902 C245.622066,289.656222 244.406946,289.860402 239.760606,292.390242 C235.921026,294.471882 230.861346,298.351302 221.747946,298.784562 C213.057846,299.197902 213.052866,297.544542 203.137686,298.894122 C191.170746,300.517602 186.554286,304.830282 176.619186,308.007522 C173.148126,309.123042 169.642206,309.795342 166.091466,310.198722 C158.999946,311.005482 152.157426,309.626022 145.006146,308.694762 C137.312046,307.683822 135.260286,307.096182 126.679746,308.067282 L121.824246,308.271462 C121.824246,308.535402 116.361186,308.440782 116.361186,308.714682 C112.720806,309.322242 111.107286,309.481602 107.207946,310.487562 C99.513846,312.464622 93.303786,312.917802 87.432366,310.587162 C73.483386,305.029482 80.355786,291.478902 81.785046,285.214062 C83.154546,279.218142 86.023026,271.110702 88.672386,262.370802 C88.692306,262.311042 90.236106,255.334062 90.246066,255.234462 C90.674346,248.591142 89.090706,246.469662 86.526006,244.547382 C84.907506,243.337242 80.296026,243.541422 78.169566,243.720702 C75.500286,243.944802 69.838026,247.176822 66.610986,247.555302 C62.960646,247.983582 57.547386,244.383042 49.121226,245.538402 C44.549586,246.165882 40.306626,249.198702 34.489986,251.773362 C28.753026,254.308182 21.696366,251.429742 18.987246,248.237562 C14.629746,243.108162 19.216326,236.270622 19.445406,228.999822 C19.669506,221.893362 18.688446,216.186282 16.402626,207.008142 C14.818986,200.648682 13.404666,195.798162 12.179586,188.253462 C11.691546,185.215662 11.079006,175.011642 11.153706,174.189942 C11.577006,169.697982 11.447526,164.319582 12.239346,159.528822 C13.788126,150.141522 13.404666,151.899462 16.596846,141.790062 C17.557986,138.772182 20.585826,130.590042 22.906506,127.626942 C26.546886,122.975622 27.961206,116.501622 27.652446,107.672082 C27.522966,104.161182 25.849686,101.138322 24.704286,96.098562 C23.917446,92.632482 24.181386,89.669382 24.783966,86.492142 C25.535946,82.518102 26.317806,78.783102 29.564766,76.980342 C31.357566,75.979362 34.435206,73.823022 37.642326,75.302082 C42.457986,77.538102 43.334466,81.302982 50.266626,79.480302 C57.183846,77.657622 64.982526,70.984422 71.491386,72.269262 C76.361826,73.225422 78.732306,77.861802 83.049966,81.153582 C85.833786,83.275062 90.749046,83.240202 93.712146,81.880662 C99.847506,79.052022 99.937146,70.177662 97.347546,62.896902 C95.126466,56.622102 93.712146,51.567402 90.918366,42.269742 C89.628546,37.981962 88.851666,37.518822 88.383546,30.935262 C88.044906,26.079762 88.044906,23.246142 90.365586,18.340842 C92.088666,14.685522 97.247946,11.413662 99.852486,11.169642 C115.215786,9.735402 129.837066,17.803002 145.773066,14.600862 C153.815766,12.987342 161.674206,12.080982 168.601386,13.365822 C173.944926,14.361822 178.262586,15.965382 182.311326,18.151602 C186.708666,20.527062 189.557226,23.071842 194.347986,22.663482 C204.556986,21.791982 211.897506,20.626662 220.328646,22.449342 C224.790726,23.410482 226.962006,24.207282 229.815546,25.840722 C234.392166,28.475142 238.590306,31.592622 243.246606,33.858522 C259.177626,41.617362 266.986266,35.581602 278.380506,39.092502 C281.682246,40.108422 285.377406,41.866362 288.574566,44.530662 C292.384266,47.692962 304.087266,53.390082 313.001466,53.663982 C329.166546,54.157002 333.210306,52.135122 348.588546,63.056262 C358.792566,72.134802 371.850126,71.148762 383.179626,77.294082 C386.820006,79.266162 393.697386,82.677462 397.945326,89.559822 C399.299886,91.751022 404.967126,98.130402 412.965006,99.913242 C421.241766,101.760822 429.498606,103.110402 434.762466,112.821402 C440.833086,120.102162 441.619926,121.367082 449.209446,125.654862 C453.447426,128.040282 454.607766,130.131882 458.726226,132.736422 C464.547846,136.421622 459.438366,132.641802 465.508986,137.422602 C466.614546,138.299082 469.956126,140.330922 474.004866,143.971302 C479.268726,148.020042 481.748766,152.058822 484.198926,154.235082 C489.781506,159.185202 484.522626,165.654222 481.848366,169.593402" id="Fill-1" stroke="#FFFFFF" stroke-width="2.5" fill="#FFFFFF"></path>
                <path d="M464.909892,173.639652 C453.948912,179.451312 444.875352,177.792972 435.004992,187.867512 C426.768072,196.273752 417.769212,206.522592 411.678672,208.365192 C409.019352,209.171952 401.992572,211.373112 397.186872,214.356132 C392.430972,217.314252 391.091352,217.219632 386.823492,221.019372 C381.763812,225.531252 378.930192,228.768252 369.617592,231.985332 C363.880632,233.962392 357.102852,234.883692 351.087012,236.686452 C346.634892,238.026072 343.074192,239.878632 339.110112,242.124612 C333.064392,245.545872 325.788612,253.568652 315.793752,255.426192 C295.993272,259.111392 301.252152,258.708012 287.133852,265.097352 C283.627932,266.685972 276.391992,268.414032 271.312392,268.414032 C262.821492,268.414032 256.198092,269.813412 248.723112,273.792432 C243.279972,276.690792 237.737232,282.014412 227.050152,283.433712 C213.858132,285.181692 213.121092,283.528332 196.736892,287.034252 C191.766852,288.099972 185.497032,291.725412 180.751092,293.438532 C175.432452,295.360812 162.892812,295.604832 154.028412,294.793092 C145.378152,294.001272 139.023672,293.986332 126.518892,296.252232 C116.832792,298.005192 111.618732,298.204392 102.216492,297.965352 C100.099992,297.905592 98.506392,296.416572 97.131912,294.190512 C95.498472,291.541152 95.304252,289.215492 95.662812,286.292232 C96.419772,280.151892 96.285312,279.853092 97.739472,274.165932 C98.177712,272.437872 100.353972,261.168132 100.737432,259.440072 C103.157712,248.603592 103.909692,237.667512 95.368992,232.737312 C92.699712,231.198492 86.066352,230.202492 81.265632,231.054072 C66.803712,233.623752 69.836532,236.053992 60.593652,232.787112 C59.039892,232.239312 55.110672,231.527172 52.824852,231.621792 C48.193452,231.806052 41.604912,235.048032 35.773332,235.964352 C31.679772,236.611752 30.609072,232.050072 30.713652,228.788172 C30.887952,223.733472 31.415832,218.877972 31.186752,213.225672 C30.594132,198.430092 28.009512,197.633292 26.226672,188.714112 C24.608172,180.621612 25.076292,166.886772 24.687852,167.275212 C25.091232,155.945712 30.225612,143.739732 33.148872,139.516692 C36.206592,135.099432 36.863952,133.291692 39.189612,127.883412 C41.649732,122.166372 41.316072,117.106692 40.066092,110.682492 C40.041192,110.533092 38.552172,105.782172 39.090012,105.782172 C38.661732,102.754332 39.393792,99.437652 40.359912,97.380912 C41.918652,94.049292 43.138752,92.435772 45.628752,91.360092 C47.167572,90.687792 48.791052,89.881032 50.429472,89.766492 C55.807872,89.388012 56.888532,92.829192 66.938172,88.621092 C72.137292,86.434872 77.306532,89.363112 79.861272,90.299352 C86.828292,92.829192 85.618152,92.829192 90.055332,92.978592 C94.268412,93.113052 98.332092,92.047332 102.246372,89.671872 C104.497332,88.297392 106.200492,87.545412 107.530152,85.603212 C108.680532,83.929932 110.194452,79.313472 110.602812,76.928052 C111.105792,74.024712 111.912552,72.202032 111.105792,65.324652 C108.879732,56.828772 108.072972,55.006092 106.549092,49.627692 C105.314052,45.245292 103.820052,41.047152 103.192572,37.028292 C103.177632,36.953592 103.013292,32.147892 103.013292,32.147892 C102.470472,28.129032 105.204492,25.245612 108.680532,25.215732 C121.130532,25.116132 132.803652,28.661892 145.965792,28.577232 C156.822192,28.507512 161.438652,26.286432 174.217332,30.937752 C178.664472,32.551272 181.298892,36.191652 188.265912,38.158752 C201.512712,41.893752 212.045412,32.959632 223.379892,38.293212 C232.802052,42.725412 230.820012,40.051152 239.674452,45.698472 C243.807852,48.332892 251.491992,52.780032 262.507752,54.403512 C270.142092,55.528992 282.238512,52.376652 294.708432,61.420332 C301.720272,66.504912 308.134512,68.556672 317.098512,69.487932 C327.661092,70.578552 328.686972,69.089532 337.013532,75.120312 C343.143912,79.557492 341.455692,78.571452 347.635872,83.172972 C350.434632,85.254612 352.630812,87.376092 356.679552,89.193792 C358.990272,90.234612 367.874592,91.474632 367.600692,91.459692 C375.493992,91.863072 377.715072,91.215672 383.984892,93.441732 C383.850432,93.302292 392.077392,98.700612 390.643152,97.764372 C394.417992,100.229472 398.755572,106.588932 402.395952,111.847812 C406.848072,115.891572 407.251452,118.242132 418.282152,120.204252 C416.150712,119.825772 428.207292,123.984072 430.024992,124.995012 C434.760972,127.629432 435.971112,129.247932 440.179212,134.038692 C444.521772,138.993792 446.254812,140.318472 455.024592,146.179932 C458.425932,148.460772 459.033492,149.272512 465.527412,153.888972 C468.201672,155.791332 471.588072,158.868972 472.793232,161.398812 C475.860912,167.823012 471.578112,170.108832 464.909892,173.639652 M474.003372,143.973792 C469.959612,140.333412 466.618032,138.296592 465.507492,137.425092 C459.436872,132.644292 464.551332,136.419132 458.724732,132.733932 C454.611252,130.134372 453.445932,128.042772 449.212932,125.652372 C441.618432,121.369572 440.831592,120.104652 434.760972,112.818912 C429.502092,103.112892 421.240272,101.758332 412.963512,99.910752 C404.970612,98.132892 399.298392,91.753512 397.948812,89.557332 C393.695892,82.674972 386.818512,79.268652 383.178132,77.291592 C371.848632,71.151252 358.791072,72.132312 348.592032,63.058752 C333.213792,52.137612 329.165052,54.159492 312.999972,53.661492 C304.085772,53.392572 292.382772,47.695452 288.578052,44.528172 C285.375912,41.863872 281.680752,40.110912 278.379012,39.090012 C266.984772,35.584092 259.176132,41.614872 243.245112,33.861012 C238.593792,31.590132 234.390672,28.477632 229.814052,25.843212 C226.965492,24.204792 224.789232,23.412972 220.332132,22.451832 C211.896012,20.624172 204.560472,21.794472 194.346492,22.660992 C189.555732,23.074332 186.712152,20.529552 182.309832,18.149112 C178.261092,15.967872 173.943432,14.359332 168.599892,13.368312 C161.672712,12.083472 153.814272,12.989832 145.771572,14.598372 C129.840552,17.800512 115.214292,9.737892 99.850992,11.172132 C97.251432,11.416152 92.092152,14.683032 90.364092,18.338352 C88.043412,23.248632 88.043412,26.082252 88.387032,30.932772 C88.850172,37.516332 89.632032,37.984452 90.916872,42.267252 C93.710652,51.564912 95.124972,56.624592 97.346052,62.894412 C99.935652,70.180152 99.846012,79.049532 93.710652,81.878172 C90.747552,83.242692 85.832292,83.272572 83.048472,81.156072 C78.730812,77.864292 76.365312,73.227912 71.489892,72.271752 C64.981032,70.986912 57.182352,77.660112 50.265132,79.477812 C43.337952,81.305472 42.456492,77.535612 37.640832,75.304572 C34.438692,73.820532 31.356072,75.981852 29.563272,76.977852 C26.321292,78.785592 25.534452,82.515612 24.782472,86.489652 C24.179892,89.671872 23.915952,92.629992 24.702792,96.101052 C25.848192,101.135832 27.526452,104.163672 27.650952,107.674572 C27.964692,116.499132 26.550372,122.973132 22.905012,127.629432 C20.584332,130.587552 17.556492,138.769692 16.600332,141.787572 C13.403172,151.901952 13.786632,150.139032 12.242832,159.531312 C11.446032,164.322072 11.580492,169.700472 11.157192,174.187452 C11.077512,175.009152 11.690052,185.213172 12.183072,188.255952 C13.403172,195.795672 14.817492,200.651172 16.401132,207.005652 C18.686952,216.188772 19.672992,221.890872 19.443912,228.997332 C19.214832,236.268132 14.628252,243.105672 18.985752,248.235072 C21.694872,251.427252 28.751532,254.305692 34.488492,251.770872 C40.305132,249.201192 44.553072,246.163392 49.124712,245.540892 C57.545892,244.380552 62.959152,247.986072 66.614472,247.557792 C69.836532,247.179312 75.503772,243.942312 78.173052,243.718212 C80.299512,243.538932 84.906012,243.334752 86.529492,244.544892 C89.089212,246.467172 90.677832,248.593632 90.249552,255.236952 C90.239592,255.331572 88.690812,262.313532 88.670892,262.368312 C86.021532,271.108212 83.158032,279.215652 81.783552,285.211572 C80.354292,291.476412 73.481892,305.031972 87.430872,310.584672 C93.302292,312.920292 99.512352,312.467112 107.206452,310.485072 C111.105792,309.479112 112.719312,309.319752 116.364672,308.712192 C116.364672,308.438292 121.822752,308.537892 121.822752,308.268972 L126.678252,308.064792 C135.263772,307.098672 137.315532,307.686312 145.009632,308.692272 C152.155932,309.628512 158.998452,311.007972 166.089972,310.201212 C169.640712,309.797832 173.146632,309.120552 176.617692,308.005032 C186.552792,304.832772 191.169252,300.520092 203.141172,298.891632 C213.056352,297.547032 213.061332,299.200392 221.751432,298.787052 C230.859852,298.353792 235.924512,294.474372 239.759112,292.392732 C244.410432,289.862892 245.625552,289.658712 248.738052,287.995392 C259.992852,281.974572 273.209772,282.721572 285.853992,279.633972 C294.743292,277.462692 298.219332,273.274512 308.149452,270.615192 C312.093612,269.559432 316.426212,269.629152 320.644272,269.041512 C323.881272,268.588332 329.593332,265.719852 332.790492,262.766712 C338.268492,257.697072 337.665912,257.492892 341.928792,255.087552 C349.030272,251.073672 357.082932,251.198172 364.224252,247.881492 C370.877532,244.798872 377.710092,242.174412 382.978932,236.860752 C390.648132,229.121832 402.754512,226.955532 412.709532,223.340052 C418.566012,221.208612 426.265092,217.443732 432.729132,206.278572 C439.068672,195.337512 444.676152,193.773792 455.945892,190.377432 C463.440792,188.121492 466.672812,186.522912 472.449612,181.079772 C477.648732,176.179452 479.516232,173.027112 481.846872,169.595892 C484.521132,165.651732 489.780012,159.187692 484.197432,154.237572 C481.747272,152.061312 479.267232,148.017552 474.003372,143.973792" id="Fill-4" fill="#000000"></path>
                <path d="M348.507372,224.281272 C343.532352,228.165672 337.058352,230.795112 331.191912,233.623752 C323.911152,236.621712 311.769912,240.869652 300.042012,242.079792 C289.315092,243.494112 273.135072,243.698292 260.192052,242.687352 C246.840672,241.273032 229.644732,236.053992 222.363972,232.413612 C213.459732,228.165672 208.808412,224.928672 203.350332,219.306252 C197.683092,213.394992 194.446092,208.340292 191.816652,199.844412 C187.772892,187.299792 190.262892,171.548052 197.075532,160.198632 C201.726852,152.106132 207.752652,147.006612 215.526432,141.543552 L212.613132,138.550572 L177.897552,158.455632 L177.857712,163.555152 L187.165332,163.555152 L187.165332,183.659412 L180.895512,189.525852 L117.898512,189.525852 L117.898512,172.778112 C117.495132,172.618752 125.507952,163.555152 125.507952,163.555152 L128.500932,163.555152 L128.500932,98.899812 L118.710252,98.899812 L118.710252,86.927892 L126.882432,77.381232 L186.677292,77.381232 L186.677292,92.510472 L177.454332,101.818092 L177.454332,126.942192 L234.495252,94.328172 L234.495252,84.099252 L240.969252,77.540592 L301.819872,77.540592 L301.780032,92.550312 L294.334932,99.631872 L279.121032,99.711552 L253.917252,114.766092 L258.364392,119.292912 C285.679692,110.234292 311.769912,108.451452 346.968552,124.023912 L356.883732,117.878592 L373.427292,117.918432 L373.427292,162.016332 L365.578812,169.700472 L350.046192,169.700472 C338.472672,150.686832 318.851472,133.296672 279.205692,141.787572 L299.837832,164.038212 L304.409472,164.038212 L304.409472,182.250072 L296.725332,189.525852 L237.089832,189.525852 L236.766132,172.733292 L241.173432,168.086952 L238.543992,165.248352 C229.843932,171.926532 223.977492,186.288852 244.614612,202.513692 C272.930892,222.702612 343.731552,210.765552 351.096972,184.670352 L374.483052,184.670352 C374.278872,201.662112 361.051992,215.262492 348.507372,224.281272 M465.527412,153.888972 C459.033492,149.277492 458.425932,148.460772 455.024592,146.179932 C446.254812,140.318472 444.521772,138.993792 440.179212,134.038692 C435.971112,129.247932 434.760972,127.629432 430.024992,124.999992 C428.207292,123.984072 416.150712,119.825772 418.282152,120.209232 C407.251452,118.242132 406.848072,115.891572 402.395952,111.847812 C398.755572,106.588932 394.417992,100.229472 390.643152,97.764372 C392.077392,98.700612 383.850432,93.302292 383.984892,93.446712 C377.715072,91.215672 375.493992,91.863072 367.600692,91.459692 C367.874592,91.474632 358.990272,90.234612 356.679552,89.193792 C352.630812,87.376092 350.434632,85.254612 347.635872,83.172972 C341.455692,78.571452 343.143912,79.557492 337.013532,75.120312 C328.686972,69.089532 327.661092,70.578552 317.098512,69.487932 C308.134512,68.556672 301.720272,66.504912 294.708432,61.420332 C282.238512,52.376652 270.142092,55.528992 262.507752,54.403512 C251.491992,52.780032 243.807852,48.332892 239.674452,45.698472 C230.820012,40.051152 232.802052,42.725412 223.379892,38.293212 C212.045412,32.959632 201.512712,41.893752 188.265912,38.158752 C181.298892,36.191652 178.664472,32.556252 174.217332,30.937752 C161.438652,26.286432 156.822192,28.507512 145.965792,28.577232 C132.808632,28.661892 121.130532,25.116132 108.680532,25.215732 C105.204492,25.245612 102.470472,28.129032 103.013292,32.147892 C103.013292,32.147892 103.177632,36.953592 103.192572,37.028292 C103.820052,41.047152 105.314052,45.245292 106.549092,49.627692 C108.072972,55.006092 108.879732,56.828772 111.105792,65.324652 C111.912552,72.202032 111.105792,74.024712 110.602812,76.928052 C110.194452,79.313472 108.680532,83.929932 107.530152,85.603212 C106.200492,87.545412 104.497332,88.297392 102.246372,89.671872 C98.332092,92.047332 94.268412,93.113052 90.055332,92.978592 C85.618152,92.834172 86.828292,92.834172 79.861272,90.299352 C77.306532,89.363112 72.137292,86.434872 66.938172,88.621092 C56.888532,92.834172 55.807872,89.388012 50.429472,89.766492 C48.791052,89.881032 47.167572,90.687792 45.628752,91.360092 C43.138752,92.435772 41.923632,94.049292 40.359912,97.380912 C39.393792,99.437652 38.661732,102.754332 39.090012,105.782172 C38.552172,105.782172 40.041192,110.533092 40.066092,110.682492 C41.316072,117.111672 41.649732,122.166372 39.189612,127.888392 C36.863952,133.296672 36.206592,135.099432 33.148872,139.521672 C30.225612,143.739732 25.091232,155.945712 24.687852,167.275212 C25.076292,166.886772 24.608172,180.621612 26.226672,188.714112 C28.009512,197.633292 30.594132,198.430092 31.186752,213.225672 C31.415832,218.877972 30.887952,223.733472 30.718632,228.788172 C30.609072,232.050072 31.679772,236.611752 35.773332,235.964352 C41.604912,235.048032 48.193452,231.806052 52.824852,231.621792 C55.110672,231.527172 59.039892,232.239312 60.593652,232.787112 C69.836532,236.053992 66.803712,233.623752 81.265632,231.054072 C86.066352,230.202492 92.699712,231.198492 95.368992,232.737312 C103.909692,237.672492 103.157712,248.603592 100.737432,259.445052 C100.353972,261.168132 98.177712,272.437872 97.739472,274.165932 C96.285312,279.853092 96.419772,280.151892 95.662812,286.292232 C95.304252,289.215492 95.498472,291.541152 97.131912,294.190512 C98.506392,296.416572 100.099992,297.905592 102.216492,297.965352 C111.618732,298.204392 116.832792,298.005192 126.518892,296.252232 C139.023672,293.986332 145.378152,294.001272 154.028412,294.793092 C162.892812,295.604832 175.432452,295.360812 180.751092,293.438532 C185.497032,291.725412 191.766852,288.099972 196.736892,287.034252 C213.121092,283.528332 213.858132,285.186672 227.050152,283.433712 C237.737232,282.014412 243.279972,276.690792 248.723112,273.792432 C256.198092,269.818392 262.821492,268.414032 271.312392,268.414032 C276.391992,268.414032 283.627932,266.685972 287.133852,265.097352 C301.252152,258.708012 295.993272,259.111392 315.793752,255.426192 C325.788612,253.568652 333.064392,245.550852 339.110112,242.124612 C343.074192,239.878632 346.634892,238.026072 351.087012,236.686452 C357.102852,234.883692 363.880632,233.962392 369.617592,231.985332 C378.930192,228.768252 381.763812,225.531252 386.823492,221.019372 C391.091352,217.219632 392.430972,217.314252 397.186872,214.356132 C401.992572,211.373112 409.019352,209.171952 411.678672,208.365192 C417.769212,206.522592 426.768072,196.273752 435.004992,187.872492 C444.875352,177.792972 453.948912,179.451312 464.909892,173.639652 C471.578112,170.108832 475.860912,167.823012 472.793232,161.398812 C471.588072,158.868972 468.201672,155.791332 465.527412,153.888972" id="Fill-6" fill="#FFFFFF"></path>
                <path d="M370.192284,188.312226 C368.006064,199.840926 362.747184,204.497226 356.233344,211.982166 C347.533284,220.074666 345.755424,221.085606 337.060344,225.736926 C322.090464,233.221866 306.513024,236.453886 288.714504,236.862246 C263.829444,237.873186 241.782984,232.609326 228.227424,226.952046 C219.930744,223.914246 207.595284,216.225126 199.911144,203.082906 C193.636344,190.334106 196.709004,176.783526 198.935064,170.110326 C201.728844,162.017826 206.175984,153.721146 219.163824,144.861726 L235.508184,162.500886 C227.216484,169.701966 221.145864,182.849166 234.133704,197.819046 C249.671304,217.241046 285.069144,222.699126 321.886284,211.777986 C340.899924,206.115726 349.191624,198.222426 355.222404,188.312226 L370.192284,188.312226 Z M174.219324,155.703186 L174.219324,168.895206 L183.118584,168.895206 L183.118584,180.140046 L128.502924,180.140046 L128.502924,168.895206 L137.805564,168.895206 L137.805564,90.893466 L128.502924,90.893466 L128.502924,81.102786 L183.118584,81.102786 L183.118584,90.893466 L173.810964,90.973146 L173.810964,133.372866 L248.256984,90.893466 L241.698324,90.893466 L241.698324,81.102786 L298.017144,81.023106 L298.017144,90.813786 L285.472524,90.973146 L247.345644,113.467806 L298.664544,168.895206 L300.442404,168.930066 L300.442404,180.224706 L243.804864,180.224706 L243.804864,168.815526 L251.693184,168.895206 L216.534384,131.430666 L174.219324,155.703186 Z M347.777304,127.625946 L357.084924,121.560306 L370.107624,121.560306 L369.948264,160.723026 L355.466424,160.882386 C340.695744,138.671586 307.120584,130.862946 275.766504,138.352866 L261.200004,122.372046 C272.325324,118.925886 303.684384,108.208926 347.777304,127.625946 L347.777304,127.625946 Z M244.611624,202.515186 C223.979484,186.290346 229.840944,171.928026 238.541004,165.249846 L241.175424,168.083466 L236.763144,172.734786 L237.091824,189.527346 L296.722344,189.527346 L304.406484,182.246586 L304.406484,164.039706 L299.834844,164.039706 L279.202704,141.784086 C318.848484,133.293186 338.474664,150.683346 350.043204,169.701966 L365.575824,169.701966 L373.424304,162.017826 L373.424304,117.914946 L356.880744,117.875106 L346.970544,124.025406 C311.771904,108.452946 285.676704,110.230806 258.366384,119.294406 L253.914264,114.762606 L279.123024,99.713046 L294.336924,99.628386 L301.782024,92.546826 L301.816884,77.542086 L240.971244,77.542086 L234.497244,84.095766 L234.497244,94.329666 L177.456324,126.943686 L177.456324,101.819586 L186.674304,92.511966 L186.674304,77.382726 L126.884424,77.382726 L118.712244,86.929386 L118.712244,98.901306 L128.502924,98.901306 L128.502924,163.551666 L125.504964,163.551666 C125.504964,163.551666 117.497124,172.620246 117.900504,172.779606 L117.900504,189.527346 L180.892524,189.527346 L187.162344,183.655926 L187.162344,163.551666 L177.859704,163.551666 L177.899544,158.457126 L212.610144,138.552066 L215.523444,141.540066 C207.754644,147.008106 201.728844,152.102646 197.072544,160.195146 C190.259904,171.549546 187.769904,187.301286 191.818644,199.840926 C194.448084,208.336806 197.680104,213.396486 203.347344,219.307746 C208.810404,224.930166 213.456744,228.167166 222.360984,232.410126 C229.641744,236.055486 246.837684,241.274526 260.189064,242.688846 C273.137064,243.699786 289.317084,243.495606 300.039024,242.081286 C311.771904,240.871146 323.908164,236.618226 331.193904,233.625246 C337.060344,230.791626 343.529364,228.167166 348.509364,224.282766 C361.049004,215.259006 374.275884,201.663606 374.480064,184.671846 L351.093984,184.671846 C343.728564,210.767046 272.932884,222.699126 244.611624,202.515186 L244.611624,202.515186 Z" id="Fill-8" fill="#000000"></path>
                <polygon id="Fill-10" fill="#A71930" points="251.693682 168.893214 243.805362 168.813534 243.805362 180.222714 300.442902 180.222714 300.442902 168.933054 298.665042 168.893214 247.346142 113.465814 285.473022 90.976134 298.017642 90.811794 298.017642 81.021114 241.698822 81.100794 241.698822 90.891474 248.257482 90.891474 173.811462 133.370874 173.811462 90.976134 183.119082 90.891474 183.119082 81.100794 128.503422 81.100794 128.503422 90.891474 137.806062 90.891474 137.806062 168.893214 128.503422 168.893214 128.503422 180.143034 183.119082 180.143034 183.119082 168.893214 174.214842 168.893214 174.214842 155.706174 216.534882 131.433654"></polygon>
                <path d="M321.885786,211.777488 C285.068646,222.698628 249.670806,217.240548 234.133206,197.818548 C221.145366,182.848668 227.215986,169.701468 235.507686,162.500388 L219.163326,144.866208 C206.180466,153.720648 201.728346,162.017328 198.934566,170.109828 C196.708506,176.783028 193.635846,190.333608 199.910646,203.082408 C207.594786,216.229608 219.930246,223.918728 228.226926,226.951548 C241.782486,232.613808 263.828946,237.872688 288.714006,236.861748 C306.512526,236.453388 322.089966,233.221368 337.059846,225.736428 C345.754926,221.085108 347.532786,220.074168 356.232846,211.981668 C362.746686,204.496728 368.010546,199.845408 370.191786,188.311728 L355.221906,188.311728 C349.191126,198.221928 340.899426,206.115228 321.885786,211.777488" id="Fill-12" fill="#A71930"></path>
                <path d="M355.466424,160.883382 L369.948264,160.724022 L370.107624,121.561302 L357.084924,121.561302 L347.777304,127.626942 C303.684384,108.209922 272.325324,118.926882 261.200004,122.373042 L275.766504,138.353862 C307.120584,130.863942 340.695744,138.672582 355.466424,160.883382" id="Fill-14" fill="#A71930"></path>
            </g>
        </g>
    </g>
</svg>