<?xml version="1.0" encoding="UTF-8" standalone="no"?>
<svg width="500px" height="500px" viewBox="0 0 500 500" version="1.1" xmlns="http://www.w3.org/2000/svg" xmlns:xlink="http://www.w3.org/1999/xlink">
    <!-- Generator: Sketch 45.1 (43504) - http://www.bohemiancoding.com/sketch -->
    <title>LAR</title>
    <desc>Created with Sketch.</desc>
    <defs></defs>
    <g id="Page-1" stroke="none" stroke-width="1" fill="none" fill-rule="evenodd">
        <g id="LAR">
            <g id="Page-1" transform="translate(0.000000, 72.000000)">
                <path d="M397.008403,243.87846 L397.008403,243.87426 L397.012605,243.87426 C397.012605,243.87426 397.478992,242.77386 397.995798,240.88806 L397.991597,240.88806 C397.970588,240.88806 397.962185,240.89226 397.962185,240.89226 C396.483193,240.89226 395.12605,240.46806 393.941176,239.77506 C391.579832,238.39326 389.983193,235.85646 389.983193,232.91226 C389.983193,229.97226 391.579832,227.44386 393.941176,226.05786 C395.12605,225.36906 396.483193,224.94486 397.962185,224.94486 C397.970588,224.94486 397.978992,224.94486 397.987395,224.94906 C398.117647,224.94906 398.247899,224.96586 398.378151,224.98266 L398.378151,224.97846 L398.382353,224.97846 C397.907563,222.76506 397.180672,220.45506 396.105042,218.10306 C395.029412,215.75526 393.609244,213.36546 391.752101,210.99666 L391.752101,211.00926 C391.752101,211.00506 391.747899,211.00506 391.747899,211.00086 C391.747899,211.00086 391.836134,212.45826 391.747899,214.42806 C391.680672,216.01986 391.495798,217.94766 391.033613,219.75786 C386.983193,221.90826 384.205882,226.16706 384.205882,231.08946 C384.205882,238.14966 389.941176,243.87846 397.008403,243.87846" id="Fill-1" fill="#FFFFFF"></path>
                <path d="M484.92437,160.9482 C484.495798,162.1662 484.134454,163.4346 483.655462,164.6148 C477.857143,179.0208 468.533613,195.2244 447.542017,205.8294 C447.802521,207.3456 448.037815,208.8954 448.252101,210.4536 C449.033613,216.0354 449.5,221.8356 449.5,227.7618 C449.5,229.4292 449.352941,231.1344 449.285714,232.8186 C449.210084,234.4986 449.214286,236.1618 449.063025,237.8712 L448.563025,242.8818 L447.705882,243.6756 C447.705882,243.6756 446.180672,245.0616 444.218487,246.8424 C442.537815,248.3712 440.563025,250.1604 438.848739,251.7228 C438.109244,252.3948 437.407563,253.0332 436.836134,253.5582 C435.134454,261.8742 433.067227,269.7156 430.836134,276.99 C422.495798,304.2438 411.894958,323.2656 409.739496,326.9994 C409.558824,327.3144 409.436975,327.5202 409.382353,327.6126 L407.365546,330.981 L407.361345,330.981 L406.55042,331.3758 L403.819328,332.6862 C398.5,335.2188 389.260504,337.5204 375.613445,340.9392 L369.726891,342.447 L363.840336,343.9548 L358.94958,345.3072 L300.768908,312.6312 L302.201681,310.0314 C302.201681,310.023 304.668067,305.5122 305.957983,302.4126 C306.878151,300.1572 307.529412,298.9686 307.911765,297.0072 C308.130252,295.8816 308.256303,294.4746 308.289916,292.4796 C308.294118,292.3956 308.298319,292.3284 308.298319,292.2444 L308.298319,292.2402 C308.294118,291.6774 308.180672,291.123 308.121849,290.5602 C307.94958,288.939 307.613445,287.3304 306.852941,285.8352 C306.298319,285.1842 305.777311,284.6046 305.273109,284.067 C302.289916,280.8918 299.991597,279.4008 296.630252,276.486 C295.096639,275.1378 293.705882,273.903 292.436975,272.7648 L292.432773,272.769 C290.386555,276.1836 287.726891,279.573 284.310924,282.6138 C284.138655,282.7692 283.987395,282.9372 283.806723,283.0926 L273.121849,292.2612 L269.592437,287.4648 L264.785714,280.9338 C264.415966,280.4424 198.415966,192.633 50.6302521,180.768 L34.6596639,179.4744 L18.6932773,178.185 L18.6890756,178.185 L43.3403361,157.7184 C46.9495798,154.7658 121.054622,93.8868 219.542017,69.2832 C229.731092,66.738 240.176471,64.5834 250.836134,62.916 C251.382353,62.832 252.277311,62.6682 253.445378,62.4456 L253.445378,62.4414 C254.533613,60.6942 255.760504,59.0394 256.957983,57.3636 C257.592437,56.4774 258.151261,55.5408 258.819328,54.6798 C284.92437,20.7522 324.995798,7.392 361.693277,7.392 C372.92437,7.4004 383.819328,8.6982 393.995798,11.0082 C400.567227,12.495 406.844538,14.3934 412.659664,16.7286 C417.403361,18.6312 421.865546,20.79 425.953782,23.2008 L425.962185,23.2008 L425.957983,23.2008 L425.957983,23.205 C430.155462,25.683 434.05042,28.3374 437.802521,31.0758 C460.012605,47.2962 474.487395,67.767 482.428571,88.8174 C487.609244,102.5514 490.071429,116.5164 490.067227,129.675 C490.067227,140.889 488.235294,151.473 484.92437,160.9482 M490.735294,89.9556 C483.491597,68.7372 466.936975,38.7954 429.710084,16.842 C411.10084,5.8632 386.764706,0.0042 361.735294,0 C355.205882,0 348.62605,0.3948 342.105042,1.2264 C305.453782,5.8254 273.726891,23.1672 252.966387,50.169 C251.584034,51.9666 250.281513,53.8398 249.02521,55.7424 C133.621849,73.9284 42.6596639,148.7346 38.6302521,152.0442 L0,184.0944 L50.0378151,188.1138 C124.663866,194.1282 177.390756,220.206 208.47479,240.975 C242.52521,263.7348 258.857143,285.3228 258.894958,285.3648 L265.247899,294.0252 L271.878151,303.0636 L288.62605,288.6954 C290.42437,287.154 292.10084,285.4572 293.663866,283.6386 L295.037815,284.781 C297.084034,286.4232 298.563025,287.6538 300.466387,289.7622 C300.739496,290.5014 300.890756,291.2994 300.89916,292.2444 C300.840336,295.9236 300.651261,295.911 299.647059,298.3848 L299.147059,299.544 C298.592437,300.8964 297.722689,302.6394 297.008403,304.038 C296.647059,304.731 296.331933,305.34 296.105042,305.781 C295.983193,305.991 295.890756,306.1716 295.827731,306.2892 L295.836134,306.2892 L290.785714,315.4956 L357.991597,353.2494 L359.193277,352.9092 C359.252101,352.905 364.483193,351.4476 365.659664,351.1074 C366.718487,350.8554 377.407563,348.1044 377.457983,348.0876 C391.89916,344.4882 401.10084,342.1572 407.012605,339.3684 L412.537815,336.6804 L415.718487,331.4178 C416.588235,329.9562 434.487395,299.7498 443.558824,257.4348 C446.806723,254.4864 454.798319,247.2204 454.798319,247.2204 L455.651261,246.435 L456.029412,242.4282 L456.403361,238.5558 C456.735294,234.969 456.890756,231.3612 456.890756,227.7618 C456.890756,221.9322 456.44958,215.9052 455.621849,209.8026 C475.978992,197.8368 485.071429,180.8478 490.508403,167.391 C495.180672,155.8788 497.483193,143.0352 497.483193,129.7422 C497.483193,116.6256 495.235294,103.0764 490.735294,89.9556" id="Fill-3" fill="#FFFFFF"></path>
                <path d="M395.268487,235.2399 C394.62563,235.1769 393.92395,234.9711 393.184454,234.5343 C394.251681,237.0753 396.978571,237.6759 398.592017,237.0165 C398.688655,236.8107 398.768487,236.6091 398.839916,236.4033 C399.365126,234.9375 399.239076,233.6775 399.239076,233.6775 C399.239076,233.6775 399.171849,233.7447 399.066807,233.8455 C398.831513,234.0555 398.365126,234.4503 397.713866,234.7695 C397.062605,235.0845 396.230672,235.3281 395.268487,235.2399" id="Fill-5" fill="#FFFFFF"></path>
                <path d="M300.389916,262.41516 C300.843697,262.70916 301.1,262.84776 301.1,262.84776 L301.12521,263.05776 L301.104202,262.84776 C301.104202,262.84776 300.843697,262.70916 300.389916,262.41516" id="Fill-7" fill="#FFFFFF"></path>
                <path d="M464.108403,173.56248 C458.070588,183.60048 450.297479,191.16888 442.305882,195.60408 C440.087395,196.83468 437.860504,197.81748 435.637815,198.56508 C434.717647,198.88428 433.801681,199.14048 432.885714,199.35888 L432.885714,199.36308 C433.423529,201.60168 433.894118,203.91168 434.339496,206.25948 C434.557983,207.41448 434.763866,208.57368 434.957143,209.74548 C434.957143,209.87988 434.978151,209.98068 435.007563,210.11088 C435.482353,213.18108 435.864706,216.34788 436.116807,219.56088 C436.158824,220.16568 436.22605,220.77048 436.251261,221.38368 C436.293277,222.05988 436.318487,222.76968 436.347899,223.46268 C436.385714,224.27748 436.419328,225.09228 436.436134,225.90708 C436.440336,226.52448 436.448739,227.14188 436.448739,227.76348 L436.448739,227.81808 C436.448739,228.75888 436.440336,229.71228 436.394118,230.65308 C436.385714,231.14028 436.377311,231.64428 436.360504,232.13568 L436.360504,232.16928 C436.293277,233.66028 436.20084,235.14708 436.057983,236.63388 L424.898319,246.78108 L424.894118,246.78528 C420.108403,272.77068 411.221849,294.61488 405.015966,307.72728 C402.965546,312.06588 401.188235,315.49308 399.969748,317.74008 C398.839496,319.82748 398.17563,320.93628 398.17563,320.93628 C392.041176,323.87208 369.810084,328.71888 360.314286,331.40268 L317.717647,308.08428 C317.730252,308.05908 320.221849,303.17868 321.057983,296.48808 C321.247059,295.00128 321.347899,293.42208 321.326891,291.78828 C321.268067,287.70168 320.410924,283.26648 318.045378,279.02028 C316.557983,276.34068 308.184034,269.31408 301.12521,263.05608 C300.877311,262.82508 300.637815,262.62348 300.389916,262.41348 C299.822689,261.91368 298.373109,260.53188 296.70084,258.87288 C293.906723,256.11768 290.486555,252.60228 289.444538,251.12388 C285.520168,245.48748 281.587395,237.58308 279.452941,226.83108 C279.452941,226.83108 279.305882,227.36028 279.12521,228.31788 C278.343697,232.48008 277.007563,244.79868 284.931933,257.76828 C283.339496,262.72428 280.515966,268.74288 275.297479,273.22008 C275.276471,273.17388 269.242857,263.17368 255.642017,248.85588 C229.62521,221.48028 175.898319,178.35888 83.5453782,159.19008 C83.6294118,159.11448 148.730252,98.31948 249.310084,76.58448 C248.297479,78.89448 247.347899,81.23388 246.49916,83.60268 C244.310084,86.97108 241.234454,92.40168 238.65042,99.62988 C232.961345,115.52268 229.637815,140.08848 243.310084,170.34948 C267.423529,223.72728 333.444538,225.83148 355.637815,192.43308 C356.318487,191.40828 356.944538,190.38348 357.541176,189.35448 C358.268067,188.11548 358.952941,186.87228 359.566387,185.64168 C360.843697,183.48708 361.97395,181.15608 362.940336,178.68648 C363.763866,176.56548 364.431933,174.47388 364.957143,172.41588 C372.784874,141.57948 347.978151,118.59288 327.301681,120.34008 C354.751261,134.34708 347.268067,160.50048 336.104202,169.04328 C324.20084,178.16148 305.032773,177.11988 293.259664,160.87848 C268.931933,127.38348 289.536975,86.40828 323.591597,72.74568 C338.768067,66.66828 356.608403,66.00888 374.331092,73.86708 C380.238655,76.48368 386.133613,80.04948 391.910924,84.67368 C394.154622,86.46288 396.17563,88.37388 398.07479,90.33948 C414.6,107.47968 418.494958,130.54608 414.142017,146.03988 C414.020168,146.48088 413.860504,146.89668 413.721849,147.32508 C413.583193,147.75348 413.461345,148.18608 413.301681,148.60608 C413.289076,148.70268 413.234454,148.79508 413.209244,148.90008 C412.62521,150.45408 411.919328,151.86528 411.158824,153.20928 C410.646218,154.09548 410.12521,154.97748 409.541176,155.77128 C409.036975,156.45168 408.536975,157.12368 407.986555,157.70748 C407.885714,157.80828 407.789076,157.91328 407.684034,158.01408 C407.642017,158.06868 407.6,158.12328 407.54958,158.16948 L407.427731,158.28708 C407.389916,158.32908 407.352101,158.36268 407.314286,158.40468 L407.310084,158.40468 C406.856303,158.87508 406.415126,159.32448 405.919328,159.77388 C405.919328,159.77388 407.755462,161.74368 410.083193,164.52408 C411.6,166.34688 413.322689,168.50148 414.898319,170.71068 C420.873109,179.09808 421.763866,182.21868 424.364706,183.42408 C424.776471,183.59628 425.22605,183.73908 425.696639,183.81888 L425.709244,183.81888 C426.17563,183.90708 426.671429,183.95328 427.205042,183.95328 C427.894118,183.95328 428.637815,183.87768 429.427731,183.71808 C429.440336,183.71808 429.452941,183.70968 429.461345,183.70548 C431.04958,183.38208 432.814286,182.72688 434.692437,181.67688 C435.612605,181.16028 436.553782,180.56388 437.520168,179.85828 C441.121008,177.23748 446.036975,171.56328 449.398319,166.43088 C450.402521,164.90208 451.284874,163.41528 451.923529,162.07548 C454.003361,157.74528 460.192437,143.93988 460.511765,123.39768 L460.52437,121.73868 L460.52437,121.73028 L460.52437,121.72608 C460.52437,116.37528 460.1,110.57088 459.129412,104.39268 C458.885714,102.84708 458.637815,101.29308 458.318487,99.70128 C456.856303,92.36808 454.347899,85.45068 451.142017,78.97428 C442.881513,62.31288 429.696639,48.73008 415.742857,39.45228 C410.310084,35.84448 404.784874,32.84988 399.381513,30.61968 C371.268067,19.01508 343.196639,20.64468 338.356303,21.02688 C338.108403,21.05208 337.923529,21.06888 337.797479,21.07728 C337.684034,21.08568 337.642017,21.08568 337.629412,21.08568 C337.894118,21.04368 367.129412,15.99528 398.97395,25.77708 C399.289076,25.87368 399.604202,25.95348 399.919328,26.05428 C399.969748,26.06688 400.015966,26.08788 400.066387,26.10468 C411.843697,29.84268 423.919328,35.68488 434.990756,44.53848 C447.532773,54.55968 458.780672,68.45328 466.776471,87.77328 C481.368908,122.99028 476.276471,153.31848 464.108403,173.56248 M422.902521,28.39368 L422.898319,28.38108 C407.234454,19.12428 385.129412,13.39968 361.692437,13.41648 C330.784874,13.41648 297.734454,23.24448 273.431933,47.20128 C269.961345,50.62428 266.667227,54.33288 263.583193,58.34388 C262.17563,60.18348 260.852101,62.11548 259.578992,64.07688 C259.011765,64.95048 258.436134,65.81148 257.898319,66.70188 L257.213445,67.82748 L256.562185,67.96188 L255.910924,68.09208 C255.339496,68.20968 254.894118,68.28948 254.415126,68.38188 C253.331092,68.59608 252.385714,68.76828 251.776471,68.86488 C207.494958,75.74028 166.755462,91.39368 133.448739,107.96688 C82.7512605,133.19628 49.3268908,160.55508 47.2008403,162.34848 L33.8983193,173.37768 L51.1042017,174.76368 C149.503361,182.68488 212.360504,223.72308 244.276471,251.43888 C244.326891,251.47668 244.381513,251.52288 244.427731,251.56488 C246.221849,253.12308 247.881513,254.62248 249.478151,256.08828 C262.755462,268.27668 269.339496,276.96648 269.633613,277.36968 L274.121008,283.47228 L279.881513,278.53308 C283.99916,274.98828 286.856303,270.79668 288.902521,266.64708 L289.784874,264.85788 L290.663025,263.06868 L292.15042,264.40848 L293.633613,265.75248 C295.621008,267.57108 297.885714,269.56188 300.6,271.95588 C304.083193,275.01768 307.255462,276.95808 311.67563,282.20388 L311.873109,282.44328 L312.020168,282.70368 C312.444538,283.49328 312.801681,284.29548 313.095798,285.09768 C313.978151,287.51268 314.310084,289.96548 314.310084,292.24188 L314.310084,292.24608 C314.368908,297.84468 313.196639,300.86028 312.015966,303.57348 C311.847899,303.95988 311.679832,304.34628 311.511765,304.72848 C310.742857,306.57648 309.696639,308.66388 308.873109,310.28928 L359.738655,338.83668 L362.284874,338.14368 L374.142017,335.09868 C386.02437,332.16708 394.654622,329.91168 399.410924,328.03428 C400.087395,327.76548 400.688235,327.50508 401.205042,327.24888 L403.121008,326.34588 L404.221849,324.52728 C404.398319,324.23328 405.789076,321.86868 407.856303,317.85768 C410.133613,313.45608 413.238655,307.02588 416.562185,298.98288 C421.742857,286.45428 427.406723,270.07008 431.133613,251.41788 L431.322689,250.45188 L432.053782,249.78828 C432.621008,249.26748 433.406723,248.54928 434.284874,247.74288 C437.12521,245.15148 441.078992,241.56468 442.810084,239.99808 L443.066387,237.31008 C443.347899,234.10128 443.494958,230.91768 443.494958,227.76348 C443.494958,227.37288 443.469748,226.98648 443.465546,226.59588 C443.381513,219.03588 442.541176,211.62708 441.205042,204.69288 L440.776471,202.40388 L442.885714,201.41268 C455.734454,195.31008 463.906723,187.28388 469.658824,178.66548 C469.721849,178.57728 469.780672,178.48908 469.843697,178.40088 C470.04958,178.09848 470.230252,177.78348 470.427731,177.47688 C473.587395,172.52928 476.007563,167.41368 478.07479,162.35688 C481.671429,153.49908 483.67563,143.15448 483.940336,132.14208 C483.957143,131.31048 484.045378,130.50828 484.045378,129.67248 L484.045378,129.66828 C484.032773,94.92588 466.310084,54.00528 422.902521,28.39368" id="Fill-9" fill="#FFFFFF"></path>
                <path d="M353.969328,286.8558 L353.965126,286.8558 C353.965126,286.8558 349.019748,287.2044 348.658403,288.9264 C351.973529,291.9252 351.616387,300.3 351.654202,306.117 C351.658403,306.9528 351.67521,307.7298 351.704622,308.4354 C352.02395,307.2552 357.477731,299.2794 353.969328,286.8558" id="Fill-11" fill="#FFFFFF"></path>
                <path d="M391.092857,164.20614 L391.101261,164.21454 L391.088655,164.20614 C391.088655,164.20614 407.895378,185.21454 412.189496,212.93034 C413.105462,218.82714 413.483613,225.00534 412.97521,231.37254 L408.534034,235.50534 L406.231513,237.64314 C406.302941,244.03974 406.092857,254.21634 403.340756,266.28714 C401.861765,272.78454 399.676891,279.81114 396.328151,287.14014 C392.744118,280.66374 387.588655,274.99374 382.046639,270.27294 C375.89958,265.03974 369.298739,261.00354 363.811345,258.39114 C360.609664,256.86234 357.769328,255.81234 355.660084,255.30834 C352.172689,257.28234 346.269328,260.57514 340.378571,264.63654 C335.920588,267.71094 331.466807,271.21374 328.059244,274.98114 L328.059244,274.98534 C328.752521,275.93874 329.584454,277.69434 330.281933,279.42894 C330.971008,281.15934 331.529832,282.86874 331.676891,283.70874 C332.143277,286.27914 332.395378,288.65634 332.492017,290.87394 C332.765126,297.23274 331.731513,302.20554 330.57605,306.06954 C330.592857,306.08214 336.496218,309.37914 340.865966,311.74374 C343.487815,313.16334 345.555042,314.25114 345.47521,314.09574 C345.815546,312.89874 346.004622,311.83614 346.223109,310.74414 C347.630672,303.69234 346.57605,298.64394 344.609664,294.37254 C343.244118,291.40734 341.492017,288.78654 339.912185,286.03974 C340.807143,285.48954 341.987815,284.80074 343.286134,284.05314 C347.928992,281.37774 354.441597,277.85394 357.891176,276.40494 C362.361765,282.56634 364.660084,292.74294 359.857563,307.23714 C358.781933,310.48374 357.328151,313.78494 356.143277,316.52334 C355.744118,317.43474 355.37437,318.28314 355.063445,319.04754 L355.067647,319.05174 C355.067647,319.06434 355.164286,319.12734 355.252521,319.18194 C356.160084,319.77834 360.941597,322.31934 360.89958,322.15134 L360.903782,322.15134 C364.857563,321.35334 368.622269,319.55574 371.718908,317.00634 C374.605462,314.62914 376.916387,311.60934 378.218908,308.08554 C379.029832,305.90154 378.681092,304.22154 378.403782,302.52474 C378.02563,302.99934 377.580252,303.61254 377.07605,304.21734 C376.571849,304.82214 376.004622,305.41014 375.395378,305.83434 C373.433193,301.28994 373.407983,297.69894 375.891176,294.98574 C377.172689,293.57874 378.588655,293.05794 380.311345,293.00334 C381.008824,292.97814 381.655882,293.10414 382.265126,293.30994 C383.865966,293.85174 385.109664,295.08234 385.689496,296.49774 C386.210504,297.79134 386.47521,299.09334 386.571849,300.37854 C387.172689,308.32494 380.681092,315.58254 380.681092,315.58254 L380.689496,315.58254 L380.685294,315.58674 C380.685294,315.58674 389.101261,315.19614 391.521429,314.01174 C392.962605,311.10534 395.290336,306.23754 397.958403,300.05514 C404.471008,284.98134 413.063445,261.84774 416.151681,238.51254 L423.886975,231.56574 C423.95,229.04154 423.87437,226.56774 423.685294,224.14434 C420.790336,187.86474 391.092857,164.20614 391.092857,164.20614" id="Fill-13" fill="#FFFFFF"></path>
                <path d="M416.151681,238.51128 C413.063445,261.84648 404.471008,284.98008 397.958403,300.05808 C395.290336,306.23628 392.962605,311.10408 391.521429,314.01468 C389.101261,315.19908 380.685294,315.58548 380.685294,315.58548 L380.689496,315.58128 L380.681092,315.58128 C380.681092,315.58128 387.172689,308.32368 386.571849,300.37728 C386.47521,299.09208 386.210504,297.79428 385.689496,296.49648 C385.109664,295.08108 383.865966,293.85048 382.265126,293.31288 C381.655882,293.10288 381.008824,292.97688 380.311345,293.00208 C378.588655,293.06088 377.172689,293.58168 375.891176,294.98448 C373.407983,297.70188 373.433193,301.28868 375.395378,305.83308 C376.004622,305.40888 376.571849,304.82088 377.07605,304.21608 C377.580252,303.61548 378.02563,302.99808 378.403782,302.52768 C378.681092,304.22028 379.029832,305.90448 378.218908,308.08848 C376.916387,311.60808 374.605462,314.63208 371.718908,317.00928 C368.622269,319.55868 364.857563,321.35208 360.903782,322.15008 L360.89958,322.15008 C360.941597,322.31808 356.160084,319.77708 355.252521,319.18488 C355.164286,319.12608 355.067647,319.06308 355.067647,319.05048 L355.063445,319.04628 C355.37437,318.28608 355.744118,317.43348 356.143277,316.52208 C357.328151,313.78368 358.781933,310.48248 359.857563,307.23588 C364.660084,292.74168 362.361765,282.56928 357.891176,276.40368 C354.441597,277.85268 347.928992,281.38068 343.286134,284.05188 C341.987815,284.79948 340.807143,285.49248 339.912185,286.04268 C341.492017,288.78528 343.244118,291.41028 344.609664,294.37128 C346.57605,298.64268 347.630672,303.69108 346.223109,310.74288 C346.004622,311.83488 345.815546,312.90168 345.471008,314.09868 C345.555042,314.24988 343.487815,313.16208 340.865966,311.74248 C336.496218,309.37788 330.592857,306.08508 330.57605,306.07248 C331.731513,302.20428 332.765126,297.23568 332.492017,290.87688 C332.395378,288.65508 332.143277,286.27788 331.676891,283.70748 C331.529832,282.86748 330.971008,281.15808 330.281933,279.42768 C329.584454,277.69308 328.752521,275.93748 328.059244,274.98408 L328.059244,274.97988 C331.466807,271.21248 335.920588,267.71388 340.378571,264.63948 C346.269328,260.57388 352.172689,257.28108 355.660084,255.30708 C357.769328,255.81108 360.609664,256.86108 363.811345,258.38988 C369.298739,261.00228 375.89958,265.03848 382.046639,270.27588 C387.588655,274.99248 392.744118,280.66668 396.328151,287.14308 C399.676891,279.80988 401.861765,272.78328 403.340756,266.28588 C406.092857,254.21508 406.302941,244.04268 406.231513,237.64188 L408.534034,235.50408 L412.97521,231.37548 C413.483613,225.00828 413.105462,218.82588 412.189496,212.92908 C407.895378,185.21328 391.088655,164.20488 391.088655,164.20488 L391.101261,164.21328 L391.092857,164.20488 C391.092857,164.20488 420.790336,187.86348 423.685294,224.14308 C423.87437,226.56648 423.95,229.04028 423.886975,231.56868 L416.151681,238.51128 Z M351.651681,306.11868 C351.618067,300.29748 351.97521,291.92268 348.655882,288.92388 C349.017227,287.20188 353.966807,286.85748 353.966807,286.85748 L353.971008,286.85748 C357.47521,299.28108 352.021429,307.25688 351.706303,308.43708 C351.676891,307.73148 351.655882,306.95028 351.651681,306.11868 L351.651681,306.11868 Z M399.067647,233.84508 C399.172689,233.74428 399.235714,233.67708 399.235714,233.67708 C399.235714,233.67708 399.365966,234.93708 398.840756,236.40288 C398.769328,236.60868 398.685294,236.81028 398.592857,237.02028 C396.979412,237.67548 394.252521,237.07488 393.185294,234.53388 C393.92479,234.97068 394.626471,235.17648 395.269328,235.23948 C396.227311,235.32768 397.063445,235.08408 397.714706,234.76908 C398.365966,234.44988 398.832353,234.05508 399.067647,233.84508 L399.067647,233.84508 Z M391.034034,219.75828 C391.492017,217.94808 391.676891,216.02028 391.748319,214.42848 C391.836555,212.45868 391.748319,211.00128 391.748319,211.00128 C391.748319,211.00548 391.752521,211.00548 391.752521,211.00968 L391.752521,210.99708 C393.609664,213.36588 395.029832,215.75568 396.105462,218.10348 C397.181092,220.45548 397.907983,222.76548 398.382773,224.97468 L398.378571,224.97468 L398.378571,224.97888 C398.244118,224.96628 398.118067,224.94948 397.987815,224.94948 C397.979412,224.94528 397.966807,224.94528 397.958403,224.94528 C396.483613,224.94528 395.126471,225.36948 393.941597,226.05828 C391.580252,227.44008 389.983613,229.97268 389.983613,232.91268 C389.983613,235.85688 391.580252,238.39368 393.941597,239.77548 C395.126471,240.46428 396.483613,240.89268 397.958403,240.89268 C397.958403,240.89268 397.966807,240.88848 397.992017,240.88848 L397.996218,240.88848 C397.479412,242.77428 397.013025,243.87468 397.013025,243.87468 L397.008824,243.87468 L397.008824,243.87888 C389.941597,243.87888 384.202101,238.15008 384.202101,231.08568 C384.202101,226.16328 386.983613,221.90868 391.034034,219.75828 L391.034034,219.75828 Z M434.992017,44.53848 C423.916387,35.68488 411.844958,29.84268 400.063445,26.10468 C400.017227,26.08788 399.966807,26.06688 399.920588,26.05428 C399.601261,25.95348 399.290336,25.87368 398.971008,25.77708 C367.130672,15.99528 337.891176,21.04368 337.626471,21.08568 C337.639076,21.08568 337.685294,21.08568 337.794538,21.07728 C337.92479,21.06888 338.109664,21.05208 338.353361,21.02688 C343.193697,20.64468 371.265126,19.01508 399.382773,30.61968 C404.781933,32.84988 410.311345,35.84448 415.744118,39.45228 C429.697899,48.73008 442.878571,62.31288 451.139076,78.97428 C454.34916,85.45068 456.857563,92.36808 458.315546,99.70128 C458.639076,101.29308 458.886975,102.84708 459.130672,104.39268 C460.097059,110.57088 460.521429,116.37528 460.521429,121.72608 L460.521429,121.73028 L460.521429,121.73868 L460.513025,123.39768 C460.193697,143.93988 454.004622,157.74528 451.92479,162.07548 C451.286134,163.41528 450.403782,164.90208 449.39958,166.43088 C446.038235,171.56328 441.122269,177.23748 437.517227,179.85828 C436.555042,180.56388 435.609664,181.16028 434.689496,181.67688 C432.815546,182.72688 431.046639,183.38208 429.462605,183.70548 C429.454202,183.70968 429.441597,183.71808 429.428992,183.71808 C428.639076,183.87768 427.895378,183.95328 427.202101,183.95328 C426.668487,183.95328 426.176891,183.90708 425.710504,183.81888 L425.697899,183.81888 C425.227311,183.73908 424.777731,183.59628 424.365966,183.42408 C421.765126,182.21868 420.87437,179.09808 414.895378,170.71068 C413.32395,168.50148 411.601261,166.34688 410.080252,164.52408 C407.756723,161.74368 405.920588,159.77388 405.920588,159.77388 C406.416387,159.32448 406.857563,158.87508 407.311345,158.40468 L407.315546,158.40468 C407.34916,158.36268 407.391176,158.32908 407.42479,158.28708 L407.55084,158.16948 C407.601261,158.12328 407.643277,158.06868 407.685294,158.01408 C407.786134,157.91328 407.882773,157.80828 407.983613,157.70748 C408.534034,157.12368 409.038235,156.45168 409.538235,155.77128 C410.126471,154.97748 410.647479,154.09548 411.155882,153.20928 C411.920588,151.86528 412.622269,150.45408 413.210504,148.90008 C413.235714,148.79508 413.290336,148.70268 413.302941,148.60608 C413.458403,148.19028 413.584454,147.75348 413.718908,147.32508 C413.861765,146.89668 414.021429,146.48088 414.143277,146.03988 C418.496218,130.54608 414.601261,107.47968 398.07605,90.33948 C396.176891,88.37388 394.155882,86.46288 391.912185,84.67368 C386.134874,80.04948 380.239916,76.48368 374.332353,73.86708 C356.609664,66.00888 338.769328,66.66828 323.588655,72.74568 C289.538235,86.40828 268.933193,127.38348 293.260924,160.87848 C305.034034,177.11988 324.202101,178.16568 336.105462,169.04748 C347.269328,160.50048 354.748319,134.34708 327.302941,120.34008 C347.979412,118.59288 372.786134,141.57948 364.954202,172.41588 C364.428992,174.47388 363.765126,176.56548 362.941597,178.68648 C361.97521,181.15608 360.844958,183.48708 359.567647,185.64168 C358.95,186.87228 358.269328,188.11548 357.542437,189.35448 C356.941597,190.38348 356.315546,191.40828 355.639076,192.43308 C333.441597,225.83148 267.42479,223.72728 243.307143,170.34948 C229.634874,140.08848 232.962605,115.52268 238.647479,99.62988 C241.235714,92.40168 244.307143,86.97108 246.496218,83.60268 C247.34916,81.23388 248.298739,78.89448 249.307143,76.58448 C148.731513,98.31948 83.6264706,159.11448 83.542437,159.19008 C175.89958,178.35888 229.622269,221.48028 255.643277,248.86008 C269.244118,263.17368 275.273529,273.17808 275.294538,273.22008 C280.517227,268.74288 283.340756,262.72428 284.933193,257.76828 C277.004622,244.79868 278.344958,232.48008 279.122269,228.31788 C279.302941,227.36028 279.454202,226.83108 279.454202,226.83108 C281.584454,237.58308 285.521429,245.48748 289.445798,251.12388 C290.487815,252.60228 293.907983,256.11768 296.697899,258.87708 C298.37437,260.53188 299.82395,261.91368 300.391176,262.41348 C300.844958,262.71168 301.105462,262.84608 301.105462,262.84608 L301.126471,263.05608 C308.181092,269.31408 316.559244,276.34068 318.042437,279.02028 C320.407983,283.26648 321.269328,287.70168 321.32395,291.78828 C321.34916,293.42208 321.248319,295.00128 321.059244,296.48808 C320.218908,303.17868 317.731513,308.05908 317.718908,308.08428 L360.311345,331.40268 C369.811345,328.71888 392.038235,323.87208 398.176891,320.93628 C398.176891,320.93628 398.840756,319.82748 399.966807,317.74008 C401.189496,315.49308 402.962605,312.06588 405.017227,307.72728 C411.223109,294.61488 420.105462,272.77068 424.895378,246.78528 L424.89958,246.78108 L436.055042,236.63388 C436.202101,235.14708 436.294538,233.66028 436.361765,232.16928 L436.361765,232.13568 C436.378571,231.64428 436.386975,231.14028 436.395378,230.65308 C436.441597,229.71228 436.45,228.75888 436.45,227.81808 L436.45,227.76348 C436.45,227.14188 436.441597,226.52448 436.433193,225.90708 C436.416387,225.09228 436.386975,224.27748 436.34916,223.46268 C436.315546,222.76968 436.294538,222.05988 436.248319,221.38368 C436.223109,220.77048 436.155882,220.16568 436.118067,219.56088 C435.861765,216.34788 435.483613,213.18108 435.008824,210.11088 C434.979412,209.98068 434.954202,209.87988 434.954202,209.74548 C434.765126,208.57368 434.559244,207.41448 434.340756,206.25948 C433.895378,203.91168 433.420588,201.60168 432.886975,199.36308 L432.886975,199.35888 C433.802941,199.14048 434.718908,198.88428 435.639076,198.56928 C437.861765,197.81748 440.088655,196.83468 442.307143,195.60408 C450.298739,191.16888 458.067647,183.60048 464.109664,173.56248 C476.277731,153.31848 481.370168,122.99028 466.777731,87.77328 C458.781933,68.45328 447.529832,54.55968 434.992017,44.53848 L434.992017,44.53848 Z" id="Fill-15" fill="#002A5C"></path>
                <path d="M300.389916,262.41516 C300.637815,262.62096 300.877311,262.82676 301.12521,263.05776 L301.1,262.84776 C301.1,262.84776 300.843697,262.70916 300.389916,262.41516" id="Fill-17" fill="#002A5C"></path>
                <path d="M484.044538,129.67332 C484.044538,130.50912 483.960504,131.31132 483.939496,132.14292 C483.67479,143.15532 481.670588,153.49992 478.07395,162.35772 C476.006723,167.41032 473.590756,172.52592 470.426891,177.47772 C470.229412,177.78432 470.048739,178.09932 469.847059,178.40172 C469.784034,178.48992 469.72521,178.57812 469.662185,178.66632 C463.905882,187.28052 455.733613,195.31092 442.884874,201.41352 L440.779832,202.40052 L441.204202,204.69372 C442.540336,211.62792 443.380672,219.03672 443.464706,226.59672 C443.468908,226.98732 443.498319,227.37372 443.498319,227.76432 C443.498319,230.91432 443.347059,234.09792 443.065546,237.31092 L442.809244,239.99892 C441.078151,241.56552 437.128571,245.15232 434.284034,247.74372 C433.405882,248.55012 432.620168,249.26832 432.052941,249.78912 L431.321849,250.45272 L431.132773,251.41452 C427.405882,270.07092 421.742017,286.45512 416.561345,298.98372 C413.242017,307.02672 410.132773,313.45272 407.855462,317.85852 C405.788235,321.86952 404.397479,324.23412 404.22521,324.52812 L403.120168,326.34672 L401.204202,327.24972 C400.687395,327.50592 400.086555,327.76632 399.410084,328.03092 C394.657983,329.91252 386.023529,332.16792 374.145378,335.09952 L362.284034,338.14032 L359.737815,338.83752 L308.872269,310.29012 C309.695798,308.66472 310.742017,306.57732 311.510924,304.72932 C311.678992,304.34292 311.847059,303.96072 312.015126,303.57432 C313.195798,300.86112 314.372269,297.84552 314.309244,292.24692 L314.309244,292.24272 C314.309244,289.96632 313.977311,287.51352 313.09916,285.09852 C312.80084,284.29212 312.447899,283.49412 312.019328,282.70452 L311.872269,282.44412 L311.67479,282.20052 C307.258824,276.95892 304.082353,275.01432 300.603361,271.95672 C297.884874,269.56272 295.620168,267.57192 293.632773,265.75332 L292.14958,264.40932 L290.666387,263.06532 L289.784034,264.85872 L288.901681,266.64792 C286.855462,270.79752 283.998319,274.98912 279.880672,278.53392 L274.120168,283.46892 L269.632773,277.36632 C269.338655,276.96732 262.754622,268.27752 249.481513,256.08912 C247.880672,254.62332 246.221008,253.12392 244.426891,251.56572 C244.380672,251.52372 244.32605,251.47752 244.279832,251.43972 C212.359664,223.71972 149.506723,182.68572 51.1033613,174.76452 L33.897479,173.37852 L47.2,162.34932 C49.3260504,160.55592 82.7504202,133.19712 133.447899,107.96772 C166.754622,91.39452 207.494118,75.73692 251.77563,68.86152 C252.389076,68.76912 253.330252,68.59692 254.414286,68.38272 C254.893277,68.29032 255.338655,68.20632 255.910084,68.09292 L256.561345,67.96272 L257.216807,67.82832 L257.897479,66.70272 C258.435294,65.81232 259.010924,64.95132 259.578151,64.07772 C260.851261,62.11212 262.17479,60.18432 263.582353,58.34472 C266.666387,54.33372 269.960504,50.62512 273.431092,47.20212 C297.733613,23.24532 330.784034,13.41732 361.691597,13.41732 C385.128571,13.40052 407.237815,19.12512 422.901681,28.38192 L422.901681,28.39452 C466.309244,54.00192 484.031933,94.92672 484.044538,129.66912 L484.044538,129.67332 Z M437.80084,31.07832 C434.052941,28.33992 430.153782,25.68132 425.956303,23.20332 L425.960504,23.19912 L425.952101,23.19912 C421.863866,20.79252 417.401681,18.63372 412.657983,16.72692 C406.842857,14.39592 400.565546,12.49752 393.994118,11.00652 C383.821849,8.69652 372.922689,7.39872 361.691597,7.39452 C324.994118,7.39452 284.926891,20.75052 258.817647,54.67812 C258.153782,55.54332 257.594958,56.47992 256.960504,57.36192 C255.763025,59.04192 254.531933,60.69672 253.443697,62.44392 C252.27563,62.67072 251.384874,62.83032 250.834454,62.91852 C240.178992,64.58172 229.729412,66.74052 219.540336,69.28572 C121.052941,93.88932 46.9478992,154.76832 43.3428571,157.72092 L18.687395,178.18752 L18.6915966,178.18752 L34.6579832,179.47692 L50.6327731,180.76632 C198.414286,192.63132 264.414286,280.44072 264.788235,280.93212 L269.590756,287.46312 L273.120168,292.26372 L283.805042,283.09092 C283.985714,282.93552 284.136975,282.77172 284.313445,282.61632 C287.72521,279.57132 290.389076,276.18192 292.431092,272.77152 L292.435294,272.76732 C293.704202,273.90132 295.094958,275.14032 296.628571,276.48852 C299.989916,279.40332 302.288235,280.89012 305.27563,284.06952 C305.77563,284.60712 306.296639,285.18252 306.851261,285.83352 C307.611765,287.33292 307.947899,288.93732 308.120168,290.55852 C308.183193,291.12132 308.292437,291.67572 308.296639,292.24272 L308.296639,292.24692 C308.296639,292.32672 308.292437,292.39392 308.288235,292.47792 C308.258824,294.47292 308.128571,295.88412 307.914286,297.00972 C307.531933,298.96692 306.876471,300.15552 305.956303,302.41092 C304.666387,305.51052 302.2,310.02552 302.2,310.03392 L300.767227,312.62952 L358.952101,345.30552 L363.838655,343.95312 L369.72521,342.44952 L375.615966,340.93752 C389.258824,337.52292 398.502521,335.21712 403.817647,332.68872 L406.548739,331.37412 L407.359664,330.98352 L407.363866,330.98352 L409.380672,327.61512 C409.439496,327.52272 409.557143,327.31692 409.737815,326.99772 C411.897479,323.26392 422.494118,304.24212 430.838655,276.98832 C433.065546,269.71392 435.136975,261.87252 436.834454,253.55652 C437.410084,253.03152 438.107563,252.39312 438.847059,251.72532 C440.561345,250.16292 442.536134,248.36952 444.216807,246.84072 C446.178992,245.06412 447.708403,243.67392 447.708403,243.67392 L448.561345,242.88432 L449.065546,237.87372 C449.212605,236.16012 449.208403,234.50112 449.284034,232.81692 C449.355462,231.13692 449.498319,229.42752 449.498319,227.76432 C449.498319,221.83812 449.031933,216.03372 448.254622,210.45612 C448.036134,208.89792 447.805042,207.34812 447.540336,205.82772 C468.531933,195.22692 477.855462,179.02332 483.657983,164.61732 C484.132773,163.43712 484.494118,162.16872 484.922689,160.94652 C488.233613,151.47132 490.065546,140.88732 490.065546,129.67332 C490.069748,116.51472 487.607563,102.55392 482.431092,88.81992 C474.485714,67.76952 460.010924,47.29872 437.80084,31.07832 L437.80084,31.07832 Z" id="Fill-19" fill="#002A5C"></path>
            </g>
        </g>
    </g>
</svg>