<?xml version="1.0" encoding="UTF-8" standalone="no"?>
<svg width="500px" height="500px" viewBox="0 0 500 500" version="1.1" xmlns="http://www.w3.org/2000/svg" xmlns:xlink="http://www.w3.org/1999/xlink">
    <!-- Generator: Sketch 39.1 (31720) - http://www.bohemiancoding.com/sketch -->
    <title>SD</title>
    <desc>Created with Sketch.</desc>
    <defs></defs>
    <g id="100x100-NFL" stroke="none" stroke-width="1" fill="none" fill-rule="evenodd">
        <g id="SD">
            <g transform="translate(4.000000, 107.000000)">
                <path d="M242.742424,0 C238.142424,0 233.378788,0.103030303 228.572727,0.303030303 L218.972727,0.703030303 L224.99697,8.18787879 L231.760606,16.5939394 C229.621212,16.5333333 227.445455,16.5090909 225.245455,16.5090909 C206.233333,16.5090909 168.221212,18.8181818 127.342424,34.2848485 C108.881818,41.2727273 92.0090909,50.1575758 77.1969697,60.7030303 C60.5060606,72.5878788 46.2636364,86.6909091 34.8818182,102.624242 L29.6333333,109.963636 L38.6454545,110.284848 C41.0151515,110.375758 43.0757576,110.412121 45.1181818,110.412121 C46.130303,110.412121 47.0636364,110.4 47.9121212,110.387879 C39.1787879,121.587879 26.9181818,140.066667 16.9484848,162.963636 C9.79090909,179.418182 4.82727273,195.830303 2.20909091,211.751515 C-0.942424242,230.848485 -0.718181818,249.30303 2.86969697,266.6 L5.54848485,279.521212 L11.869697,267.939394 C35.7969697,224.121212 63.269697,190.836364 95.869697,166.206061 C123.9,145.024242 150.815152,133.812121 174.566667,123.921212 C176.233333,123.224242 177.887879,122.533333 179.518182,121.848485 L184.421212,119.8 L181.924242,115.10303 C180.190909,111.836364 176.893939,107.539394 173.851515,103.872727 C179.039394,103.654545 184.221212,103.545455 189.348485,103.545455 C260.354545,103.545455 330.112121,124.236364 396.681818,165.042424 L407.275758,171.545455 L403.875758,159.587879 C402.542424,154.878788 401.275758,150.721212 400.045455,146.957576 C436.263636,181.4 466.463636,230.49697 481.657576,267.460606 L489.463636,286.424242 L490.978788,265.981818 C493.057576,238.139394 491.227273,210.169697 485.693939,185.084848 C479.069697,154.957576 467.257576,128.836364 450.609091,107.448485 C441.269697,93.8606061 430.736364,81.630303 418.415152,70.0606061 C399.584848,52.369697 377.342424,37.1393939 352.330303,24.7939394 L352.160606,24.7090909 L351.984848,24.6424242 C350.257576,23.9454545 348.075758,22.9454545 345.566667,21.7878788 C337.657576,18.1454545 325.693939,12.6363636 308.887879,8.1030303 C288.942424,2.72727273 266.687879,0 242.742424,0" id="Fill-1" stroke="#FFFFFF" stroke-width="7" fill="#FFFFFF"></path>
                <path d="M228.775152,5.14606061 C233.593333,4.94606061 238.253939,4.84909091 242.744848,4.84909091 C306.120606,4.84909091 337.066061,23.8793939 350.187273,29.1460606 C406.66,57.0127273 434.641818,92.7521212 446.690303,110.303636 C476.702424,148.788485 486.950909,198.594545 486.975152,243.406667 C486.975152,250.976364 486.678182,258.406667 486.144848,265.612727 C467.975152,221.430909 430.55697,163.915758 388.15697,130.146061 C388.866061,131.600606 389.532727,133.061212 390.187273,134.552121 C390.969091,136.333939 391.714545,138.152121 392.441818,140.030909 C394.799394,146.14 396.920606,152.849091 399.211515,160.915758 C337.447879,123.055152 266.799394,98.6975758 189.350909,98.6975758 C180.866061,98.6975758 172.314545,98.9884848 163.672121,99.5884848 C163.672121,99.5884848 165.011515,101.04303 166.896364,103.200606 C167.175152,103.509697 167.46,103.84303 167.750909,104.182424 C171.120606,108.091515 175.66,113.64303 177.641818,117.382424 C129.878182,137.376364 64.2539394,161.879394 7.61151515,265.612727 C5.68424242,256.309697 4.83575758,247.024848 4.84181818,237.873333 C4.91454545,181.394545 37.9387879,130.073333 54.1448485,110.352121 C54.4539394,109.976364 54.7569697,109.612727 55.0539394,109.261212 C56.2357576,107.861212 57.3084848,106.64303 58.26,105.618788 C55.86,105.521818 53.9993939,105.497576 52.3509091,105.497576 C51.0781818,105.497576 49.9266667,105.515758 48.7569697,105.527879 C47.6115152,105.546061 46.4478788,105.564242 45.1206061,105.564242 C43.3933333,105.564242 41.3993939,105.533939 38.8236364,105.44303 C85.66,39.9036364 170.466061,21.3521212 225.247879,21.3521212 C228.902424,21.3521212 232.423636,21.4369697 235.787273,21.5884848 C236.35697,21.6187879 236.938788,21.6490909 237.496364,21.6793939 C239.150909,21.770303 240.769091,21.8793939 242.338788,22.0066667 L228.775152,5.14606061 Z" id="Fill-4" fill="#002244"></path>
                <path d="M251.570303,13.6715152 L246.012727,13.7866667 C246.012727,13.7866667 253.806667,24.9321212 257.285455,29.92 C230.746061,27.7442424 128.727879,24.4412121 60.2733333,92.6412121 L55.4187879,97.4957576 C55.4187879,97.4957576 73.0248485,98.0593939 75.0551515,98.1139394 C73.3642424,100.198788 71.6612121,102.301818 71.6612121,102.301818 C51.0915152,127.229091 22.9339394,161.374545 13.2490909,227.350303 L11.3884848,240.12 L18.6551515,229.447273 C55.6369697,175.107879 103.576364,136.871515 161.182424,115.847273 L164.855152,114.495758 L162.570303,111.326061 C156.552121,102.968485 150.697576,97.6109091 145.333939,93.0230303 C246.188485,82.8169697 319.146061,110.162424 377.24303,138.610909 L384.309697,142.089697 L381.285455,134.82303 C375.667273,121.253333 370.546061,112.107879 365.212727,103.586667 C408.812727,129.459394 439.449091,167.471515 470.958182,216.186667 L477.44303,226.180606 L476.418788,214.307879 C464.994545,82.4472727 336.230909,11.9745455 251.570303,13.6715152" id="Fill-6" fill="#0073CF"></path>
                <path d="M265.833939,31.8151515 C265.833939,31.8151515 260.84,24.6393939 257.415758,19.7424242 C298.361212,20.5363636 346.930909,38.3909091 385.730909,67.3181818 C418.876364,92.0212121 459.185455,135.166667 469.027879,202.566667 C436.870303,154.3 404.633939,116.833333 357.391515,92.1787879 L347.246061,86.8757576 L353.597576,96.5 C360.258182,106.615152 366.179394,115.881818 372.555152,129.845455 C316.427879,103.081818 239.979394,75.7484848 137.688485,87.7484848 L130.906667,88.5484848 L139.021818,95.4151515 C144.052121,99.669697 149.682424,104.548485 155.391515,111.80303 C102.046061,132.130303 57.0157576,167.154545 21.2460606,215.875758 C32.1915152,159.524242 57.4460606,128.857576 76.2521212,106.075758 L87.2521212,92.530303 L81.1793939,92.3848485 C81.1793939,92.3848485 70.0945455,92.0212121 69.7066667,92.0090909 C146.597576,21.1969697 261.785455,36.2757576 262.955152,36.4393939 L269.797576,37.4878788 L265.833939,31.8151515 Z" id="Fill-8" fill="#FFB612"></path>
            </g>
        </g>
    </g>
</svg>