<?xml version="1.0" encoding="UTF-8" standalone="no"?>
<svg width="500px" height="500px" viewBox="0 0 500 500" version="1.1" xmlns="http://www.w3.org/2000/svg" xmlns:xlink="http://www.w3.org/1999/xlink">
    <!-- Generator: Sketch 39.1 (31720) - http://www.bohemiancoding.com/sketch -->
    <title>MIA</title>
    <desc>Created with Sketch.</desc>
    <defs></defs>
    <g id="100x100-NFL" stroke="none" stroke-width="1" fill="none" fill-rule="evenodd">
        <g id="MIA">
            <g transform="translate(2.000000, 54.000000)">
                <path d="M495.354489,92.9658201 C493.095487,85.0859576 485.058581,80.2247312 474.114604,80.2247312 C472.951349,80.2247312 471.767487,80.2844218 470.597836,80.4009605 C462.212025,81.2330751 447.300759,86.2833215 442.874421,87.8303014 C428.975051,84.3177971 415.946879,82.6088 403.085699,82.6080894 C396.43873,82.6080894 389.828713,83.0785077 383.233618,83.9994476 L380.523383,84.3618544 C380.523383,84.3618544 379.464587,80.9196997 382.233091,72.8813731 C383.668507,68.7129834 385.636163,64.8792871 385.636163,64.8792871 C385.636163,64.8792871 355.368793,80.6120092 351.588392,75.5901868 C347.808701,70.5683645 364.734524,30.6446281 364.734524,30.6446281 C364.734524,30.6446281 335.555796,63.0658315 329.823372,61.6275736 C327.576449,61.0640665 327.361848,49.3213731 327.250283,36.6847427 C327.098925,19.5734533 327.694409,-7.10601721e-05 327.694409,-7.10601721e-05 C327.694409,-7.10601721e-05 303.667544,59.7352413 297.80508,59.4239977 C292.720724,59.1546797 285.324782,27.2692699 285.324782,27.2692699 C285.324782,27.2692699 280.685263,54.745396 272.346352,58.1065421 C264.00673,61.4669777 242.555796,10.0819461 242.555796,10.0819461 C242.555796,10.0819461 241.564507,61.5131668 235.598295,62.667184 C229.631372,63.8212011 210.636988,44.5994246 210.636988,44.5994246 C210.636988,44.5994246 219.540828,70.2180378 216.525744,73.5926854 C214.72579,75.6058201 196.455509,64.3093845 177.446913,50.6750693 C166.465985,42.7980493 157.28359,36.1965593 157.28359,36.1965593 C157.28359,36.1965593 167.996621,53.990737 176.514604,72.5900264 C182.378489,85.3943587 185.936472,97.6827943 184.402994,100.07539 C180.641779,105.942118 152.428759,97.5804676 152.428759,97.5804676 C152.428759,97.5804676 168.464908,113.02966 167.430272,117.008319 C166.928587,118.939023 150.981263,117.544823 134.77457,115.329167 C117.583693,112.978496 100.091521,109.736731 100.091521,109.736731 C100.091521,109.736731 157.34328,143.022737 155.545458,149.01382 C154.123544,153.753534 118.493263,149.871516 118.493263,149.871516 C118.493263,149.871516 149.472656,164.025281 149.346168,168.702462 C149.221103,173.379642 88.7076814,188.690978 88.7076814,188.690978 C88.7076814,188.690978 143.51355,200.155115 144.560977,206.267711 C145.609114,212.379597 122.946604,231.990783 122.946604,231.990783 C122.946604,231.990783 149.330535,234.374852 150.640885,237.829797 C151.951234,241.284032 144.229126,254.931138 137.52673,257.09492 C129.243956,259.768915 121.703051,261.470095 112.519945,261.470095 C111.198226,261.470095 109.907773,261.432433 108.644323,261.364215 C109.098398,260.777258 109.547498,260.170405 109.93904,259.593396 C112.197332,256.285545 113.879326,252.750301 114.796002,249.378496 C115.284896,247.454897 115.527211,245.610175 115.535739,243.823723 C115.469653,241.639333 114.810214,239.909018 113.61214,238.73084 C111.36806,236.774554 109.275338,237.007631 107.774547,237.674886 L102.569389,240.227367 C102.181401,240.397912 101.744381,240.562771 101.214982,240.721946 C100.218719,241.021109 98.1174693,241.377121 93.7636126,241.377121 C89.6357272,241.377121 84.7226269,241.070141 79.9715438,240.773109 C79.9715438,240.773109 77.0538132,240.610382 76.4910166,240.610382 C70.8225467,240.610382 67.0400138,242.414599 64.7604034,244.065327 L63.5204034,243.412284 C51.9283576,237.255631 38.4382946,234.764972 30.0134006,233.210175 C29.3582258,233.088662 28.7336069,232.978519 28.1445181,232.862691 C18.8391885,231.037866 13.7470166,225.51578 13.3327358,225.068101 C12.5439679,224.214668 11.517859,223.110393 10.1783748,222.337258 C10.1783748,222.337258 7.75664413,220.826519 4.16739484,221.931505 C1.82596218,222.754382 0.837515186,224.579917 0.837515186,224.579917 C-1.16993467,227.914061 0.745847564,232.807975 3.26990487,238.32864 C6.14215702,244.60041 15.146902,260.262072 36.6973203,270.260949 C43.7528848,273.538244 53.0354751,275.870439 64.2857215,277.192158 C72.7546728,278.187711 79.9061685,278.312777 82.7549708,278.317751 C85.498604,279.653683 93.9433948,283.557018 106.499017,287.481671 C120.283269,291.789339 141.823739,296.911356 166.503647,297.027184 C166.503647,297.027184 175.262524,297.138748 179.990868,296.836743 C180.466971,298.807952 177.045423,305.857121 172.934593,314.119998 C168.064839,323.910668 161.813676,335.492766 161.813676,335.492766 C161.813676,335.492766 173.105137,325.513786 183.628438,318.115711 C194.220667,310.669316 206.085584,304.68676 208.89104,308.134599 C214.191418,314.648685 208.535739,341.53288 208.535739,341.53288 C208.535739,341.53288 229.933378,322.598187 234.895509,325.162748 C237.167303,326.336662 237.394696,340.485453 237.403934,355.389614 C237.414593,373.050909 236.959807,391.807952 236.959807,391.807952 C236.959807,391.807952 266.434146,332.168571 272.565928,333.872594 C278.696999,335.575906 285.409343,362.768502 285.409343,362.768502 C285.409343,362.768502 296.607005,329.639539 303.449389,330.44394 C306.185916,330.107826 312.062593,340.852834 317.286936,351.836605 C323.011544,363.874198 327.916828,375.641763 327.916828,375.641763 C327.916828,375.641763 328.036209,363.339826 328.893905,350.770703 C329.669171,339.414577 331.112403,328.328479 333.608747,327.713809 C338.866489,326.419803 354.120266,346.862393 354.120266,346.862393 C354.120266,346.862393 348.726088,318.367975 352.952037,315.954061 C357.177985,313.540147 407.948346,357.432594 407.948346,357.432594 C407.948346,357.432594 374.630363,295.69978 378.682925,290.985648 C382.735487,286.271516 418.319578,295.888089 418.319578,295.888089 C418.319578,295.888089 413.018489,289.626978 408.481297,282.552938 C403.738742,275.156995 399.789217,266.891986 401.644598,264.904433 C403.330146,263.098794 421.882535,264.978336 441.051017,268.696204 C463.150019,272.982554 477.527624,276.039562 477.527624,276.039562 C477.527624,276.039562 464.510111,268.994657 445.314627,257.445247 C428.692942,247.44566 414.072312,236.189018 414.69622,234.363482 C416.039968,230.42888 455.736312,226.652032 455.736312,226.652032 C455.736312,226.652032 449.074421,222.733064 441.915819,218.355757 C434.143968,213.603963 425.846272,207.687493 425.846272,205.520869 C425.846272,203.627826 435.79967,198.935723 448.928747,194.898084 C464.666444,190.058175 479.224541,186.814279 479.224541,186.814279 C479.224541,186.814279 425.109378,182.468949 421.729756,174.753946 C419.422432,169.484124 423.661171,162.613316 426.767922,158.174187 C429.875383,153.735768 434.322329,149.708078 434.322329,149.708078 C449.107819,136.055998 467.924552,123.486874 473.936243,119.790324 C474.361893,119.528823 474.766936,119.271585 475.180507,119.012926 C475.180507,119.012926 489.062111,108.764628 490.488999,107.567264 C491.732552,106.52339 494.908232,103.1928 495.621676,98.9547713 C495.621676,98.9547713 495.870386,97.7858315 495.788667,95.9176596 C495.707658,94.0658315 495.354489,92.9658201 495.354489,92.9658201 Z" id="Path" stroke="#FFFFFF" stroke-width="2.99396378" fill="#FFFFFF"></path>
                <path d="M428.542223,99.0880092 C424.799484,99.9918946 415.587244,100.274003 411.656905,100.275425 C407.727278,100.276135 402.173215,99.6920206 393.639599,103.418416 C387.520607,106.089568 383.403381,111.443241 381.561501,114.262198 C382.144905,113.440032 382.694911,112.782726 383.15396,112.435241 C383.15396,112.435241 389.372436,105.262428 402.076573,106.196158 C401.655186,106.843516 401.295622,107.752376 401.702086,108.64347 C401.708481,108.656972 401.716298,108.669763 401.722693,108.683264 C401.779542,108.801935 401.847759,108.920605 401.934453,109.038565 L401.933742,109.038565 C401.95506,109.06841 401.971404,109.098966 401.995564,109.128101 C401.995564,109.128101 406.546258,107.664261 409.770968,106.692869 C416.756183,104.956158 421.089433,103.777981 425.802143,101.846565 C432.243748,99.2066797 434.30094,98.0370292 434.08847,97.5381868 C433.876711,97.0379232 432.284963,98.1848344 428.542223,99.0880092" id="Fill-1" fill="#005778"></path>
                <path d="M383.154173,112.435383 C382.694414,112.782868 382.145119,113.440174 381.561715,114.26234 C379.272156,117.489183 376.453909,123.297641 376.453909,123.297641 C380.690517,117.022317 394.03917,111.726203 401.933245,109.038707 C401.848683,108.921458 401.778334,108.802787 401.722196,108.683406 C401.716511,108.669905 401.707984,108.657114 401.702299,108.643613 C401.295835,107.752518 401.655399,106.843658 402.076786,106.1963 C389.371938,105.26257 383.154173,112.435383 383.154173,112.435383" id="Fill-3" fill="#FFFFFF"></path>
                <path d="M395.896399,260.581274 C393.196112,266.060014 400.216857,282.993653 406.633591,288.031819 C401.936513,286.624828 377.399436,279.646719 373.462703,288.721103 C369.135138,298.705057 393.117946,335.328759 395.839551,342.172564 C384.782588,331.200873 354.496743,306.606948 350.204708,309.420931 C345.912674,312.234203 346.97147,325.942421 348.087115,332.913423 C343.930095,327.846833 336.788548,319.724656 330.620525,322.154913 C324.452502,324.585171 325.212846,348.11959 324.814909,358.146891 C319.727001,346.350902 311.420066,322.602593 303.731356,323.469527 C296.041935,324.336461 287.41594,340.495544 285.77445,346.670673 C284.601958,340.488438 279.570897,326.894627 271.960353,326.894627 C264.349809,326.894627 246.655115,362.872392 241.304995,374.56179 C241.283677,365.51583 243.451012,321.380358 238.65445,319.191704 C233.857889,317.003051 217.670382,327.065171 214.195539,331.641446 C215.481728,325.842936 216.576055,306.244541 212.262703,303.878237 C207.942244,301.504828 195.634622,300.758696 173.378577,321.337721 C177.073705,313.442936 183.156456,304.851762 184.634508,296.523509 C193.851012,296.047406 202.975138,295.002111 212.17743,293.204999 C232.259035,307.736805 256.945339,316.313767 283.628433,316.313767 C351.0219,316.313767 405.65225,261.682707 405.65225,194.28924 C405.65225,189.009469 405.311872,183.807865 404.665224,178.71285 C409.184651,174.456346 413.519321,170.334856 417.554829,166.490501 C416.631757,168.700472 416.120124,171.365229 416.205396,174.648209 C416.468319,184.937721 443.122989,187.133481 457.285281,188.27755 C441.467287,190.423567 413.82417,201.87136 419.076227,208.018065 C424.327574,214.157664 439.641041,222.599613 441.815482,223.665515 C434.517602,223.665515 410.527688,226.145515 407.84872,232.945974 C405.162645,239.746432 442.561614,262.542535 456.254909,267.900472 C439.221786,263.103911 398.596685,255.102535 395.896399,260.581274" id="Fill-5" fill="#F6821F"></path>
                <path d="M375.246668,85.204557 C367.266611,86.7678808 359.030737,89.0631244 350.524834,92.232408 C331.310164,79.6192275 308.328594,72.2716057 283.628078,72.2716057 C216.241717,72.2716057 161.610657,126.902666 161.610657,194.289027 C161.610657,210.512064 164.77994,225.98968 170.528708,240.144866 C163.58684,245.288912 156.934897,249.367766 150.120227,252.516442 C155.101545,246.582207 159.429109,235.17705 153.801144,232.135674 C149.957499,230.053611 132.07876,229.229313 132.07876,229.229313 C132.07876,229.229313 152.210107,215.699457 151.741109,205.915182 C151.272112,196.136591 119.166416,191.126849 106.47578,188.312866 C117.674152,185.953669 153.943264,177.761142 155.500193,170.462551 C157.063516,163.171778 144.166095,157.991491 138.744204,155.447537 C144.819849,155.525703 160.217877,158.105187 162.292834,150.587021 C164.666244,141.967422 126.748536,119.519514 118.10833,116.407079 C120.040456,116.861864 156.153946,125.2896 169.356926,122.432981 C179.184548,120.301176 167.729648,107.076878 165.839448,105.513554 C168.738703,106.927652 185.295012,110.33854 190.034726,102.479285 C194.774439,94.6200298 178.693522,63.3180241 169.690909,50.05109 C177.685178,58.0240413 214.195184,83.9965341 219.639104,79.5765914 C225.088708,75.1566487 220.924582,60.8806602 218.00472,56.1693708 C223.888502,61.6765341 229.679195,69.0383679 237.155436,68.8820355 C240.899597,68.8038693 245.610886,56.4251874 246.385442,28.4487977 C251.452032,44.1246716 263.547184,65.4285112 272.429705,64.135216 C281.318622,62.8490269 284.353602,49.653153 285.582233,44.0322934 C286.60621,50.065302 291.274152,65.5706315 297.201281,66.1391129 C304.477132,67.2760756 318.398531,34.8939553 323.465121,20.2626659 C324.232571,27.4894854 318.931482,64.6042132 326.775814,67.6882246 C334.613751,70.7793421 347.575837,55.1532103 354.929854,46.3985971 C350.467986,54.8689696 341.748193,75.3556172 346.943402,80.2587691 C352.1379,85.1619209 370.094806,80.0242705 377.094233,74.2541845 C375.132972,78.5462189 374.713717,81.9784252 375.246668,85.204557" id="Fill-7" fill="#F6821F"></path>
                <path d="M425.805554,101.847134 C421.087159,103.77997 416.759594,104.959569 409.767273,106.693437 C406.548248,107.666962 401.993291,109.130801 401.993291,109.130801 C401.971972,109.102377 401.95776,109.066847 401.936442,109.038423 C394.048763,111.724497 380.710769,117.01848 376.461371,123.285987 C376.631915,122.937793 379.339308,117.387993 381.563491,114.261346 C383.40395,111.440257 387.518334,106.089426 393.636614,103.417563 C402.170941,99.6940103 407.727846,100.276704 411.657474,100.276704 C415.587101,100.276704 424.7965,99.992463 428.541371,99.0899989 C432.286242,98.1875347 433.87799,97.0363599 434.09117,97.5408871 C434.304351,98.0383083 432.243606,99.2036951 425.805554,101.847134 M471.021142,84.6434659 C461.719365,85.5672481 443.073176,92.2824344 443.073176,92.2824344 C409.021142,83.442549 368.616328,82.4477066 319.044752,112.61275 C309.792717,118.247821 301.336557,124.074755 293.512832,130.015386 C285.696213,135.956016 278.51203,142.003237 271.811056,148.071775 C268.911801,150.68679 265.195354,154.04083 262.011858,157.259856 C245.923835,162.624899 238.782288,157.60805 216.675468,160.514411 C199.180454,162.816761 192.387101,168.785815 188.53564,173.475787 C188.038219,174.82593 188.087961,176.012635 188.997531,176.737449 C191.0867,178.414469 194.312832,177.575959 200.438219,177.121174 C206.5565,176.673495 215.829852,176.822721 221.948133,180.645758 C225.891972,183.097334 227.682689,189.023752 228.336442,192.299626 C223.753061,197.160142 219.254952,201.871432 214.714207,206.354618 C186.78756,233.983523 167.992144,250.455271 146.958334,258.684039 C101.323491,276.548566 75.6139209,255.563787 65.317302,249.374446 L65.310196,249.389368 C52.8178178,241.373781 36.2465857,238.723237 27.3569582,237.053323 C18.4673307,235.383409 13.6068149,231.084268 11.7095083,229.471202 C9.81220172,227.858136 8.35546819,225.143638 6.19523897,225.754755 C5.64096963,225.911088 5.15776046,226.081632 4.80956562,226.408509 C5.15776046,226.088738 5.64096963,225.918194 6.19523897,225.761861 C6.52922178,229.620429 19.4763851,261.809976 60.5989066,267.658939 C72.352259,269.328142 76.0900241,268.803007 78.2857834,268.639569 C71.3716287,262.563924 65.6726029,254.086446 65.1893937,253.589025 C66.7598235,254.95338 68.3302533,256.253781 69.9006831,257.497334 C82.1727748,270.60083 96.1218865,276.008509 107.839709,277.962664 C108.607159,278.204268 120.168649,278.701689 120.168649,278.701689 C133.655869,278.417449 151.762001,274.451581 168.567732,269.577563 C217.904809,255.258939 265.500912,212.502033 265.500912,212.502033 C265.500912,212.502033 262.857474,224.027283 261.827101,228.106847 C261.15203,231.332979 258.728878,242.134125 254.173921,253.439798 C254.173921,253.446904 252.809566,256.850687 250.826987,261.021919 C247.899308,267.189942 243.784924,274.956108 243.784924,278.204268 C243.784924,278.35989 243.79203,278.502721 243.813348,278.630629 C243.813348,278.630629 243.848878,278.98593 243.990998,279.440715 C247.700339,277.471638 252.745611,274.06146 258.480167,269.222262 C267.462173,261.73252 278.846013,250.334469 292.020568,234.083007 C321.624236,197.565185 326.328419,172.566217 347.141944,153.117048 C355.953405,144.874068 379.119021,132.140085 390.978964,128.004383 C391.113978,127.933323 391.206356,127.890687 391.241887,127.876474 C391.248993,127.876474 391.248993,127.869368 391.256099,127.876474 L391.263205,127.869368 C411.302173,116.428681 430.921887,107.581689 434.105382,106.2955 C445.830311,101.577105 487.066528,87.8838097 491.408305,94.6913742 L491.415411,94.6913742 C489.59627,86.8463312 480.19501,83.7267897 471.021142,84.6434659" id="Fill-9" fill="#008E97"></path>
                <path d="M261.827244,228.106634 C261.152172,231.332766 258.72902,242.133912 254.173352,253.439585 C238.05051,261.99523 212.276986,272.959814 188.962143,278.425052 C143.050166,289.189958 113.645467,279.852651 108.607301,278.204055 L107.889593,277.976662 C109.012344,278.218978 120.168791,278.701476 120.168791,278.701476 C122.577731,278.751929 153.921662,279.980559 188.336814,267.068926 C216.469536,256.793625 244.133261,240.016319 261.827244,228.106634" id="Fill-11" fill="#FFFFFF"></path>
                <path d="M265.500983,212.50182 C265.500983,212.50182 262.857545,224.02778 261.827172,228.106634 C244.13319,240.016319 216.469465,256.793625 188.336743,267.068926 C153.922301,279.980559 122.57766,278.751218 120.16872,278.701476 C133.65594,278.417236 151.762783,274.452078 168.567803,269.57735 C217.90488,255.258726 265.500983,212.50182 265.500983,212.50182" id="Fill-13" fill="#005778"></path>
                <path d="M382.544193,192.341978 C379.040926,203.143124 373.661671,217.909428 367.074393,230.402517 C359.243562,245.246276 348.925625,255.500259 343.489522,259.436993 C342.586347,258.889829 342.245969,257.738654 342.217545,256.55195 C342.174909,254.434356 346.822244,243.519514 348.648491,220.54576 C354.518061,216.132924 359.790726,211.933268 364.452273,208.060488 C370.378691,203.129623 376.48276,197.792293 382.544193,192.341978" id="Fill-15" fill="#008E97"></path>
                <path d="M111.271986,243.803684 C111.26488,245.260417 111.065912,246.746285 110.682187,248.259867 C109.978691,250.845747 108.614336,253.973105 106.41147,257.199237 C105.075539,259.166893 102.872674,261.653999 102.84425,261.682423 C102.481843,261.704452 100.783505,261.774801 99.3551954,261.632681 C97.9197799,261.491271 96.3919862,261.234744 95.7595507,261.113942 L95.7595507,261.107546 C95.3687198,260.574595 114.284938,247.75534 109.161499,241.515546 C109.44574,241.473621 111.186714,241.082079 111.271986,243.803684" id="Fill-17" fill="#005778"></path>
                <path d="M488.985224,102.891505 C488.978118,102.891505 488.978118,102.898611 488.978118,102.898611 C488.978118,102.898611 488.217774,104.021362 485.67382,106.245545 C483.136972,108.469728 478.816513,111.781132 471.70339,116.158439 C464.895826,120.343883 445.92276,133.17735 431.355425,146.643253 C430.815367,147.141385 391.867287,183.900101 390.893763,184.803276 C390.787172,185.143654 385.734794,203.960387 373.668777,228.433511 C365.212617,245.58033 352.59233,256.296204 348.115539,258.74778 C347.831299,258.897006 345.230496,260.545602 343.489522,259.437064 C348.925625,255.50033 359.243562,245.246347 367.074393,230.402588 C373.661671,217.909499 379.040926,203.143195 382.544193,192.342049 C376.48276,197.792364 370.378691,203.129694 364.452273,208.060559 C359.790726,211.933339 354.518061,216.132995 348.648491,220.545832 C348.648491,220.56715 336.028204,229.82629 328.893763,234.57382 C328.893763,234.57382 328.886657,234.57382 328.886657,234.580215 C324.893075,237.23076 306.595081,248.635917 295.495482,254.690244 C286.072903,259.835001 266.339493,269.18723 266.282645,269.215654 L266.275539,269.215654 C256.000238,277.892101 247.949121,281.94182 245.795998,281.401763 C244.474279,281.074886 244.019493,279.519379 243.990359,279.440502 C247.70041,277.472135 252.745683,274.061247 258.480238,269.222049 C267.462244,261.732307 278.846084,250.334256 292.02064,234.082794 C321.623597,197.564972 326.328491,172.566003 347.142015,153.116834 C355.953476,144.873854 379.119092,132.139872 390.979035,128.00417 C391.114049,127.933109 391.206428,127.890473 391.241958,127.876261 C377.669465,135.622531 363.912215,144.554084 354.937316,153.116834 C337.548892,169.368296 331.601155,188.348468 314.37617,214.278324 L313.942703,214.953396 C371.977545,170.938726 416.823619,119.967264 463.190382,103.680273 C464.668433,103.161534 466.068319,102.678324 467.411356,102.223539 C467.468204,102.202221 467.525052,102.188009 467.574794,102.166691 C483.357258,96.8300722 489.738462,95.9986682 490.200353,98.9689834 C490.406428,100.262279 489.368949,102.188009 488.985224,102.891505" id="Fill-19" fill="#005778"></path>
                <path d="M95.7594797,261.107262 L95.7594797,261.114368 C84.0558693,258.86176 70.3554682,250.895915 66.1060699,248.479869 C67.5628034,247.058666 71.1513421,244.5005 77.9518006,244.919755 C87.2891072,245.494632 97.6070441,246.255686 102.439136,244.806058 C106.58905,243.562505 107.377818,241.750471 109.154322,241.515972 L109.161428,241.515972 C114.284866,247.755056 95.3686487,260.574311 95.7594797,261.107262" id="Fill-21" fill="#008E97"></path>
                <path d="M216.676605,160.51164 C238.779872,157.607411 245.924972,162.622127 262.013705,157.256374 C265.193648,154.03948 268.908674,150.689703 271.807218,148.072557 C267.254393,149.534265 263.736204,150.404752 260.419115,150.992419 C252.884605,152.480419 247.418657,152.09101 231.791814,154.143938 C207.238393,157.374334 195.75578,165.06944 192.536754,168.043308 C191.565362,168.940798 190.821362,169.718196 189.800227,171.139399 C189.097442,172.116477 188.604284,173.273336 188.527539,173.482964 C192.383264,168.79015 199.172353,162.8147 216.676605,160.51164" id="Fill-23" fill="#005778"></path>
                <path d="M250.826774,261.021919 C247.899095,267.189942 243.785421,274.956108 243.785421,278.204268 C243.785421,278.35989 243.792527,278.502721 243.813135,278.630629 C206.378636,293.254102 175.851186,292.565529 175.73749,292.571924 C124.261501,295.009999 83.7572034,274.054354 83.7572034,274.054354 C83.7572034,274.054354 83.7572034,274.047248 83.7500974,274.047248 C83.6435072,274.047248 83.3599771,274.054354 82.9257994,274.054354 C78.0944183,274.054354 54.1890659,273.684131 38.4918739,266.394068 C21.3237364,258.428222 11.4463725,245.94295 7.14794269,236.555191 C3.95023496,229.563581 3.79319198,227.332291 4.81006304,226.408509 C4.89462464,226.330343 4.99410888,226.259283 5.09359312,226.195328 C5.09359312,226.195328 5.10069914,226.195328 5.10069914,226.188222 C5.40625788,226.003466 5.78287679,225.875558 6.19502579,225.761861 C6.5297192,229.620429 19.4761719,261.809976 60.5986934,267.658939 C72.3520458,269.328142 76.0905215,268.803007 78.2862808,268.639569 C71.3714155,262.563924 65.6723897,254.086446 65.1891805,253.589025 C66.7596103,254.95338 68.3300401,256.253781 69.9004699,257.497334 C82.1725616,270.60083 96.122384,276.008509 107.839496,277.962664 C107.853708,277.96977 107.86792,277.96977 107.889948,277.976165 L107.896344,277.976165 L107.946086,277.991088 L108.606946,278.204268 C113.645112,279.852864 143.049811,289.190171 188.961788,278.424555 C212.27663,272.960028 238.050865,261.995443 254.173708,253.439798 C254.173708,253.446904 252.809352,256.850687 250.826774,261.021919" id="Fill-25" fill="#005778"></path>
                <path d="M491.408518,94.691161 C487.066742,87.8835966 445.830524,101.576892 434.105595,106.295287 C430.9221,107.581476 411.302386,116.428468 391.2421,127.876261 C377.668896,135.622531 363.912358,144.554084 354.937458,153.116834 C337.548323,169.368296 331.600587,188.348468 314.376312,214.278324 L313.942845,214.953396 C371.977687,170.938726 416.823762,119.967264 463.190524,103.680273 C464.668575,103.161534 466.068461,102.678324 467.410787,102.223539 C467.468346,102.202221 467.525194,102.188009 467.574936,102.166691 C483.357401,96.8300722 489.737893,95.9986682 490.200495,98.9689834 C490.40657,100.262279 489.369091,102.188009 488.97826,102.898611 C488.97826,102.898611 488.217916,104.021362 485.673962,106.245545 C483.136403,108.469728 478.816656,111.781132 471.702822,116.158439 C464.895257,120.343883 445.922902,133.17735 431.355567,146.643253 C430.814799,147.140674 391.867429,183.900101 390.893905,184.802565 C390.786604,185.143654 385.734936,203.960387 373.668919,228.433511 C365.212759,245.58033 352.591762,256.296204 348.115681,258.74778 C347.831441,258.897006 345.230638,260.545602 343.489664,259.437064 C342.586489,258.8899 342.246111,257.738726 342.217687,256.552021 C342.175051,254.434428 346.822386,243.519585 348.648633,220.545832 C348.648633,220.56715 336.028346,229.82629 328.886799,234.580215 C324.893217,237.23076 306.595223,248.635917 295.495624,254.690244 C286.073045,259.835001 266.338925,269.186519 266.275681,269.215654 C256.000381,277.89139 247.949263,281.94182 245.795429,281.401763 C244.474421,281.074886 244.018925,279.519379 243.990501,279.440502 C243.849091,278.986428 243.81285,278.631127 243.81285,278.631127 C206.379062,293.254599 175.851613,292.565316 175.737206,292.572422 C124.261928,295.009786 83.7576298,274.054141 83.7505238,274.047035 C83.6439335,274.047035 83.3596928,274.054141 82.9262258,274.054141 C78.0941341,274.054141 54.1894923,273.684628 38.4923003,266.393854 C21.3241628,258.428009 11.4467989,245.943448 7.14765845,236.555688 C3.94995072,229.563367 3.79361834,227.332078 4.8097788,226.408296 C5.15797364,226.081419 5.64118281,225.910874 6.19545215,225.754542 C8.35568138,225.143425 9.8124149,227.857923 11.7097215,229.470989 C13.6070281,231.084055 18.4675438,235.383195 27.3571713,237.053109 C36.2467989,238.723023 52.8180309,241.373568 65.3175152,249.374943 C75.6141341,255.564284 101.323704,276.548353 146.959257,258.683826 C167.992358,250.455058 186.787062,233.98331 214.714421,206.355115 C219.255166,201.871218 223.753274,197.159929 228.336656,192.299413 C227.682902,189.023539 225.892186,183.097121 221.948346,180.645545 C215.830065,176.822508 206.556713,176.673281 200.438432,177.12096 C194.312335,177.575746 191.086913,178.414256 188.997744,176.737236 C188.249481,176.136777 188.117309,175.189545 188.306329,174.299872 C188.498902,173.389591 188.91034,172.536158 189.401366,171.750233 C189.529985,171.544158 189.658604,171.335952 189.800724,171.139115 C190.821859,169.717912 191.565859,168.940513 192.537252,168.043734 C195.755567,165.069155 207.238891,157.37476 231.790891,154.143654 C247.419154,152.090726 252.884392,152.480135 260.418902,150.991425 C263.735991,150.404468 267.254891,149.534691 271.811269,148.071562 C278.511532,142.003023 285.696426,135.955803 293.513045,130.015172 C301.33677,124.074542 309.792931,118.247608 319.044965,112.612536 C368.616541,82.4474934 409.021355,83.4423358 443.072679,92.2822212 C443.072679,92.2822212 461.719578,85.567035 471.021355,84.6432527 C480.195223,83.7265765 489.596484,86.8461181 491.408518,94.691161 M457.284713,188.277407 C441.467429,190.423425 413.824312,201.871218 419.076369,208.017923 C424.327716,214.157522 439.640472,222.59947 441.815624,223.665373 C434.517034,223.665373 410.52783,226.145373 407.848862,232.945832 C405.162787,239.74629 442.561756,262.542393 456.255051,267.90033 C439.221928,263.103768 398.596828,255.102393 395.896541,260.581132 C393.196254,266.059872 400.216999,282.993511 406.633733,288.031677 C401.936656,286.625396 377.399578,279.646577 373.462134,288.72096 C369.13528,298.705625 393.118088,335.329327 395.839693,342.172422 C384.78273,331.200731 354.496885,306.606806 350.20485,309.420789 C345.912816,312.234771 346.971613,325.942279 348.087257,332.913281 C343.930237,327.846691 336.78869,319.724513 330.619956,322.155482 C324.452644,324.585029 325.212988,348.120158 324.815051,358.146748 C319.726432,346.35076 311.420209,322.60245 303.731498,323.469385 C296.042077,324.336319 287.416083,340.495402 285.774593,346.671241 C284.6021,340.488296 279.57104,326.894485 271.960495,326.894485 C264.349951,326.894485 246.655257,362.87225 241.305137,374.562359 C241.283819,365.515688 243.451154,321.380215 238.654593,319.191562 C233.858031,317.003619 217.670524,327.065029 214.195681,331.641304 C215.48187,325.842794 216.576197,306.244399 212.262845,303.878095 C207.942386,301.504685 195.634054,300.758554 173.378719,321.337579 C177.073137,313.442794 183.156598,304.851619 184.63465,296.523367 C193.851154,296.047264 202.97528,295.00268 212.177572,293.204857 C232.259177,307.736662 256.945481,316.313625 283.628575,316.313625 C351.021332,316.313625 405.652392,261.682565 405.652392,194.289098 C405.652392,189.009327 405.312014,183.807723 404.665366,178.712708 C409.184793,174.456204 413.519464,170.334714 417.554971,166.490359 C416.631189,168.70033 416.120266,171.365087 416.205538,174.648066 C416.468461,184.937579 443.123131,187.133339 457.284713,188.277407 M77.9520138,244.91947 C87.2893203,245.495058 97.6072573,246.255402 102.439349,244.805774 C106.589263,243.562221 107.378031,241.750187 109.154535,241.515688 L109.161641,241.515688 C109.445882,241.473052 111.186856,241.082221 111.272128,243.803826 C111.265022,245.260559 111.066054,246.745717 110.682329,248.259299 C109.978833,250.845889 108.614478,253.972536 106.411613,257.198668 C105.075681,259.167035 102.872816,261.654141 102.844392,261.682565 C102.481985,261.703883 100.783647,261.774943 99.3553375,261.632823 C97.9199221,261.490703 96.3921284,261.234886 95.7596928,261.114084 C84.0560825,258.861476 70.3556814,250.895631 66.1062831,248.479585 C67.5630166,247.058382 71.1515553,244.500215 77.9520138,244.91947 M153.800931,232.135746 C149.957286,230.053683 132.078547,229.229385 132.078547,229.229385 C132.078547,229.229385 152.209893,215.699528 151.740896,205.914542 C151.271899,196.136662 119.166913,191.12692 106.475567,188.312938 C117.67465,185.95374 153.943762,177.760502 155.499979,170.462622 C157.063303,163.171849 144.165882,157.991562 138.743991,155.447608 C144.819636,155.525774 160.218375,158.105258 162.293332,150.587092 C164.666031,141.967493 126.749034,119.519585 118.108117,116.40715 C120.040954,116.861935 156.153733,125.289671 169.356713,122.433052 C179.184335,120.301247 167.729435,107.076949 165.839234,105.513625 C168.738489,106.927723 185.295509,110.338611 190.035223,102.479356 C194.774936,94.6201009 178.694019,63.3180951 169.690696,50.051161 C177.684965,58.0241123 214.195681,83.9966052 219.638891,79.5766625 C225.089206,75.1567198 220.924369,60.8807312 218.004507,56.1694418 C223.888289,61.6766052 229.679693,69.038439 237.155223,68.8821066 C240.900094,68.8039404 245.611383,56.4252585 246.385229,28.4488688 C251.451819,44.1247427 263.546971,65.4285822 272.429492,64.1352871 C281.31912,62.849098 284.353389,49.6532241 285.58273,44.0323645 C286.605997,50.0653731 291.273939,65.5707026 297.201068,66.139184 C304.476919,67.2761467 318.398317,34.8940264 323.464908,20.262737 C324.232358,27.4895564 318.931269,64.6042842 326.775601,67.6882957 C334.614249,70.7794132 347.575624,55.1532814 354.929641,46.3986682 C350.467773,54.8690407 341.74869,75.3556883 346.943189,80.2588401 C352.137687,85.161992 370.094593,80.0243415 377.094019,74.2542556 C375.132759,78.54629 374.713504,81.9784963 375.246455,85.2046281 C367.266398,86.7679519 359.030524,89.0631954 350.524621,92.2324791 C331.309951,79.6192986 308.328381,72.2716768 283.628575,72.2716768 C216.241504,72.2716768 161.611154,126.902737 161.611154,194.289098 C161.611154,210.512135 164.780438,225.989041 170.528495,240.144227 C163.586627,245.288983 156.935395,249.367837 150.120724,252.516513 C155.101332,246.582279 159.428896,235.177121 153.800931,232.135746 M495.788667,95.9176596 C495.707658,94.0658315 495.354489,92.9658201 495.354489,92.9658201 L495.348094,92.9565822 C493.095487,85.0859576 485.058581,80.2247312 474.114604,80.2247312 C472.951349,80.2247312 471.767487,80.2844218 470.597836,80.4009605 C462.212025,81.2330751 447.300759,86.2833215 442.874421,87.8303014 C428.975051,84.3177971 415.946879,82.6088 403.085699,82.6080894 C396.43873,82.6080894 389.828713,83.0785077 383.233618,83.9994476 L383.243567,83.995184 L380.523383,84.3618544 C380.523383,84.3618544 379.464587,80.9196997 382.233091,72.8813731 C383.668507,68.7129834 385.636163,64.8792871 385.636163,64.8792871 C385.636163,64.8792871 355.368793,80.6120092 351.588392,75.5901868 C347.808701,70.5683645 364.734524,30.6446281 364.734524,30.6446281 C364.734524,30.6446281 335.555796,63.0658315 329.823372,61.6275736 C327.576449,61.0640665 327.361848,49.3213731 327.250283,36.6847427 C327.098925,19.5734533 327.694409,-7.10601721e-05 327.694409,-7.10601721e-05 C327.694409,-7.10601721e-05 303.667544,59.7352413 297.80508,59.4239977 C292.720724,59.1546797 285.324782,27.2692699 285.324782,27.2692699 C285.324782,27.2692699 280.685263,54.745396 272.346352,58.1065421 C264.00673,61.4669777 242.555796,10.0819461 242.555796,10.0819461 C242.555796,10.0819461 241.564507,61.5131668 235.598295,62.667184 C229.631372,63.8212011 210.636988,44.5994246 210.636988,44.5994246 C210.636988,44.5994246 219.540828,70.2180378 216.525744,73.5926854 C214.72579,75.6058201 196.455509,64.3093845 177.446913,50.6750693 C166.465985,42.7980493 157.28359,36.1965593 157.28359,36.1965593 C157.28359,36.1965593 167.996621,53.990737 176.514604,72.5900264 C182.378489,85.3943587 185.936472,97.6827943 184.402994,100.07539 C180.641779,105.942118 152.428759,97.5804676 152.428759,97.5804676 C152.428759,97.5804676 168.464908,113.02966 167.430272,117.008319 C166.928587,118.939023 150.981263,117.544823 134.77457,115.329167 C117.583693,112.978496 100.091521,109.736731 100.091521,109.736731 C100.091521,109.736731 157.34328,143.022737 155.545458,149.01382 C154.123544,153.753534 118.493263,149.871516 118.493263,149.871516 C118.493263,149.871516 149.472656,164.025281 149.346168,168.702462 C149.221103,173.379642 88.7076814,188.690978 88.7076814,188.690978 C88.7076814,188.690978 143.51355,200.155115 144.560977,206.267711 C145.609114,212.379597 122.946604,231.990783 122.946604,231.990783 C122.946604,231.990783 149.330535,234.374852 150.640885,237.829797 C151.951234,241.284032 144.229126,254.931138 137.52673,257.09492 C129.243956,259.768915 121.703051,261.470095 112.519945,261.470095 C111.198226,261.470095 109.907773,261.432433 108.644323,261.364215 C109.098398,260.777258 109.547498,260.170405 109.93904,259.593396 C112.197332,256.285545 113.879326,252.750301 114.796002,249.378496 L114.805951,249.342966 L114.815189,249.307436 C115.284896,247.454897 115.527211,245.610175 115.535739,243.823723 L115.535739,243.746978 L115.533607,243.669522 C115.469653,241.639333 114.810214,239.909018 113.61214,238.73084 C111.36806,236.774554 109.275338,237.007631 107.774547,237.674886 L102.569389,240.227367 C102.181401,240.397912 101.744381,240.562771 101.214982,240.721946 C100.218719,241.021109 98.1174693,241.377121 93.7636126,241.377121 C89.6357272,241.377121 84.7226269,241.070141 79.9715438,240.773109 C79.9715438,240.773109 77.0538132,240.610382 76.4910166,240.610382 C70.8225467,240.610382 67.0400138,242.414599 64.7604034,244.065327 L63.5204034,243.412284 C51.9283576,237.255631 38.4382946,234.764972 30.0134006,233.210175 C29.3582258,233.088662 28.7336069,232.978519 28.1445181,232.862691 C18.8391885,231.037866 13.7470166,225.51578 13.3327358,225.068101 C12.5439679,224.214668 11.517859,223.110393 10.1783748,222.337258 C10.1783748,222.337258 7.75664413,220.826519 4.16739484,221.931505 C1.82596218,222.754382 0.837515186,224.579917 0.837515186,224.579917 C-1.16993467,227.914061 0.745847564,232.807975 3.26990487,238.32864 C6.14215702,244.60041 15.146902,260.262072 36.6973203,270.260949 C43.7528848,273.538244 53.0354751,275.870439 64.2857215,277.192158 C72.7546728,278.187711 79.9061685,278.312777 82.7549708,278.317751 C85.498604,279.653683 93.9433948,283.557018 106.499017,287.481671 C120.283269,291.789339 141.823739,296.911356 166.503647,297.027184 C166.503647,297.027184 175.262524,297.138748 179.990868,296.836743 C180.466971,298.807952 177.045423,305.857121 172.934593,314.119998 C168.064839,323.910668 161.813676,335.492766 161.813676,335.492766 C161.813676,335.492766 173.105137,325.513786 183.628438,318.115711 C194.220667,310.669316 206.085584,304.68676 208.89104,308.134599 C214.191418,314.648685 208.535739,341.53288 208.535739,341.53288 C208.535739,341.53288 229.933378,322.598187 234.895509,325.162748 C237.167303,326.336662 237.394696,340.485453 237.403934,355.389614 C237.414593,373.050909 236.959807,391.807952 236.959807,391.807952 C236.959807,391.807952 266.434146,332.168571 272.565928,333.872594 C278.696999,335.575906 285.409343,362.768502 285.409343,362.768502 C285.409343,362.768502 296.607005,329.639539 303.449389,330.44394 C306.185916,330.107826 312.062593,340.852834 317.286936,351.836605 C323.011544,363.874198 327.916828,375.641763 327.916828,375.641763 C327.916828,375.641763 328.036209,363.339826 328.893905,350.770703 C329.669171,339.414577 331.112403,328.328479 333.608747,327.713809 C338.866489,326.419803 354.120266,346.862393 354.120266,346.862393 C354.120266,346.862393 348.726088,318.367975 352.952037,315.954061 C357.177985,313.540147 407.948346,357.432594 407.948346,357.432594 C407.948346,357.432594 374.630363,295.69978 378.682925,290.985648 C382.735487,286.271516 418.319578,295.888089 418.319578,295.888089 C418.319578,295.888089 413.018489,289.626978 408.481297,282.552938 C403.738742,275.156995 399.789217,266.891986 401.644598,264.904433 C403.330146,263.098794 421.882535,264.978336 441.051017,268.696204 C463.150019,272.982554 477.527624,276.039562 477.527624,276.039562 C477.527624,276.039562 464.510111,268.994657 445.314627,257.445247 C428.692942,247.44566 414.072312,236.189018 414.69622,234.363482 C416.039968,230.42888 455.736312,226.652032 455.736312,226.652032 C455.736312,226.652032 449.074421,222.733064 441.915819,218.355757 C434.143968,213.603963 425.846272,207.687493 425.846272,205.520869 C425.846272,203.627826 435.79967,198.935723 448.928747,194.898084 C464.666444,190.058175 479.224541,186.814279 479.224541,186.814279 C479.224541,186.814279 425.109378,182.468949 421.729756,174.753946 C419.422432,169.484124 423.661171,162.613316 426.767922,158.174187 C429.875383,153.735768 434.322329,149.708078 434.322329,149.708078 C449.107819,136.055998 467.924552,123.486874 473.936243,119.790324 C474.361893,119.528823 474.766936,119.271585 475.180507,119.012926 C475.180507,119.012926 489.062111,108.764628 490.488999,107.567264 C491.732552,106.52339 494.908232,103.1928 495.621676,98.9547713 C495.621676,98.9547713 495.870386,97.7858315 495.788667,95.9176596" id="Fill-27" fill="#FFFFFF"></path>
            </g>
        </g>
    </g>
</svg>