<?xml version="1.0" encoding="UTF-8" standalone="no"?>
<svg width="500px" height="500px" viewBox="0 0 500 500" version="1.1" xmlns="http://www.w3.org/2000/svg" xmlns:xlink="http://www.w3.org/1999/xlink">
    <!-- Generator: Sketch 45.1 (43504) - http://www.bohemiancoding.com/sketch -->
    <title>MIN</title>
    <desc>Created with Sketch.</desc>
    <defs>
        <polygon id="path-1" points="0 499.896194 405.38066 499.896194 405.38066 0.98615917 0 0.98615917"></polygon>
    </defs>
    <g id="Page-1" stroke="none" stroke-width="1" fill="none" fill-rule="evenodd">
        <g id="MIN">
            <g id="vik-mark-1-web" transform="translate(47.000000, 0.000000)">
                <path d="M205.204204,345.294118 C208.468864,332.468858 217.313753,322.067474 219.402443,320.415225 C219.402443,320.415225 205.671821,338.716263 209.637906,367.49654 C209.637906,367.49654 213.42214,343.916955 231.215834,320.775087 C249.009528,297.638408 266.101796,286.811419 280.2602,269.529412 C288.130021,259.918685 292.593166,250.697232 295.248191,242.413495 C297.420013,236.219723 298.391617,230.16609 298.831523,225.707612 C294.998796,226.046713 291.347919,226.515571 287.681455,226.877163 C287.655477,227.015571 287.624302,227.157439 287.598323,227.261246 C283.902417,239.602076 276.76,248.477509 265.407298,253.66609 C250.587302,268.768166 228.463821,279.273356 216.12566,287.16955 C194.348562,301.114187 190.768694,328.617647 190.768694,328.617647 C193.163932,286.410035 219.069915,280.960208 247.378064,260.211073 C247.970379,259.782007 249.392281,258.968858 249.965545,258.532872 L249.089196,258.901384 C245.550894,258.901384 238.321881,258.238754 234.991409,257.453287 C231.896477,259.579585 228.879481,261.449827 226.096294,262.967128 C211.281494,271.039792 201.002579,284.219723 201.002579,284.219723 C205.006766,270.858131 214.378157,265.226644 228.425719,255.344291 C223.174553,253.185121 217.303362,249.525952 213.245485,245.531142 C204.970396,249.801038 186.677911,260.894464 174.497353,272.392734 C164.758796,281.593426 146.689728,294.638408 125.331753,304.698962 C142.117472,293.605536 170.422157,268.683391 180.354689,259.231834 C180.354689,259.231834 143.135838,280.709343 132.477634,287.918685 C132.477634,287.918685 146.327757,272.645329 163.458128,263.224913 C163.458128,263.224913 125.577685,278.728374 103.783268,293.593426 C92.5085021,301.285467 75.2378468,316.961938 65.2568213,327.628028 C69.3562638,326.740484 84.9192511,323.602076 89.0671872,323.176471 C117.079179,320.299308 147.694238,322.475779 174.526796,290.211073 C174.966702,289.690311 175.417,289.15917 175.801485,288.693772 C173.465132,296.67128 172.462353,307.852941 172.916115,320.318339 C173.891183,347.259516 194.836962,357.897924 202.944055,363.550173 C202.741421,360.237024 202.237434,356.934256 205.204204,345.294118" id="Fill-1" fill="#F7C23D"></path>
                <path d="M142.683809,321.103806 L142.139987,321.157439 C142.139987,321.157439 150.084281,325.311419 156.669021,325.311419 C163.253762,325.311419 168.655604,323.181661 168.655604,323.181661 C168.655604,323.181661 167.564498,307.745675 169.027966,302.692042 C169.027966,302.692042 156.52354,317.641869 142.683809,321.103806" id="Fill-2" fill="#F7C23D"></path>
                <path d="M207.96834,205.49654 C207.96834,205.512111 207.982196,205.453287 207.982196,205.453287 C207.982196,205.453287 221.456494,209.397924 229.587834,215.66263 C229.587834,215.66263 220.753336,213.871972 211.736987,212.743945 C218.219545,222.387543 229.217204,228.738754 241.72163,228.738754 C251.190009,228.738754 259.787234,225.074394 266.233421,219.122837 C264.683357,220.204152 263.240672,221.029412 262.097609,221.581315 C259.011336,223.072664 255.970094,223.586505 253.680502,223.747405 C248.519396,225.389273 243.342702,224.678201 242.009128,224.441176 C242.116506,224.416955 242.222153,224.377163 242.332996,224.361592 C257.863077,221.685121 272.341885,209.82872 270.712153,191.738754 C270.007264,184.019031 267.648396,175.764706 262.774787,170.558824 C268.859004,175.735294 273.001745,183.143599 273.774179,191.66263 C274.160396,195.870242 273.677191,199.953287 272.496026,203.759516 C274.468677,199.512111 275.618668,194.818339 275.684481,189.844291 C276.829277,195.153979 276.413617,199.707612 275.156247,203.596886 C276.697651,199.757785 277.586123,195.586505 277.648472,191.212803 C277.759315,191.721453 277.804345,192.205882 277.889209,192.702422 C277.889209,192.66955 277.892672,192.640138 277.892672,192.607266 C277.892672,189.99308 277.615566,187.451557 277.080404,184.99827 L277.071745,184.636678 C275.007302,171.134948 265.112872,158.295848 252.49414,152.633218 C248.71337,150.67301 237.216919,146.441176 224.78177,145.320069 C219.144387,144.681661 213.101736,144.749135 205.713387,145.529412 C202.414089,145.877163 199.203119,146.288927 196.054498,146.693772 C179.176987,148.854671 163.238174,150.896194 146.159762,141.32872 C124.997494,130.67474 109.337519,106.884083 106.362089,80.7733564 L106.034757,77.9290657 C105.608706,74.3321799 105.451102,70.517301 105.243272,66.8391003 C104.940187,63.5847751 104.34614,61.8131488 104.275132,62.2231834 C104.233566,62.4619377 104.308038,62.7629758 104.308038,63.0051903 C104.328821,65.7871972 103.646447,68.5536332 103.222128,71.2802768 C102.719872,74.5224913 102.046157,80.6747405 102.00286,80.4636678 C101.947438,80.2076125 101.869502,79.9480969 101.838328,79.7093426 C101.692847,78.8079585 101.665136,77.9134948 101.654745,77.0034602 C101.63223,75.1816609 101.599323,73.3581315 101.5058,71.5346021 C101.275455,66.9688581 100.501289,53.6349481 100.139319,51.9394464 C100.045796,51.5069204 99.8622128,49.9844291 99.410183,49.716263 C99.4552128,51.2854671 99.3859362,52.8615917 99.3149277,54.4290657 C99.1400043,58.5086505 98.2203574,63.3633218 97.8150894,67.4273356 C97.4132851,71.5103806 96.7170553,75.5294118 96.1074213,79.5847751 C95.9411574,80.7041522 95.6917617,82.9359862 95.6571234,82.5726644 C95.6536596,82.4982699 95.6467319,82.416955 95.6398043,82.3269896 C95.4198511,79.8373702 94.7928979,71.8287197 94.8413915,62.7301038 L94.8171447,60.8581315 C94.7617234,61.2128028 94.7028383,61.5692042 94.6422213,61.9256055 C93.1510426,70.6816609 91.3827574,82.8546713 91.2112979,95.9982699 C91.207834,96.3737024 91.2424723,97.4705882 91.2355447,98.0553633 C91.1524128,102.140138 91.3152128,119.134948 98.6308213,137.885813 C109.751447,166.406574 131.315519,185.323529 162.7186,194.112457 C178.272928,198.525952 195.784319,201.816609 207.96834,205.49654" id="Fill-3" fill="#FFFFFE"></path>
                <path d="M232.682766,389.859862 C228.924511,387.010381 218.072332,378.930796 211.423511,375.242215 C203.278315,370.730104 194.384932,365.757785 190.917638,362.695502 C190.917638,362.695502 190.84663,376.982699 197.852226,387.892734 C203.073949,396.025952 217.320681,403.444637 226.603745,409.00519 C227.407353,405.984429 229.561855,398.228374 232.682766,389.859862" id="Fill-4" fill="#F7C23D"></path>
                <path d="M215.301268,371.915225 C222.043613,376.103806 230.192272,381.185121 234.688323,384.747405 C235.777698,382.129758 236.948472,379.531142 238.188523,377.084775 C245.393289,362.891003 252.464698,357.83218 255.265204,343.043253 C258.065711,328.245675 251.02894,316.894464 245.661736,311.33737 C245.661736,311.33737 229.534145,328.953287 223.212655,343.309689 C217.577004,356.119377 215.604353,366.434256 215.301268,371.915225" id="Fill-5" fill="#F7C23D"></path>
                <path d="M184.161438,204.99308 C182.907532,204.678201 181.650162,204.359862 180.375472,204.041522 C177.829557,203.401384 175.247272,202.799308 172.671915,202.202422 C169.815987,201.539792 166.963523,200.885813 164.156089,200.202422 C164.003681,200.906574 163.861664,201.607266 163.733502,202.302768 C163.32477,204.806228 162.981851,207.359862 162.696085,209.903114 C169.114562,208.238754 176.700349,206.458478 184.00903,205.16955 C184.182221,205.141869 184.348485,205.112457 184.519945,205.084775 C184.398711,205.051903 184.279209,205.022491 184.161438,204.99308" id="Fill-6" fill="#F7C23D"></path>
                <path d="M202.47817,111.711073 C178.659145,97.0155709 172.734264,83.0622837 169.130149,63.0726644 C168.555153,59.8529412 167.786183,56.7958478 166.918494,53.8892734 C167.588745,61.4619377 166.989502,68.550173 166.989502,68.550173 C166.069855,61.2318339 161.494136,48.4186851 161.494136,48.4186851 C163.328234,56.6557093 163.780264,69.9238754 163.780264,69.9238754 C163.238174,65.2525952 161.206638,57.9584775 159.66177,52.8633218 C160.219447,56.5519031 160.666281,60.017301 161.019591,62.8512111 C162.237128,72.7076125 159.886919,90.3235294 166.876928,108.788927 C171.400689,120.735294 181.229306,129.49308 187.117817,133.911765 C191.998353,127.041522 198.247102,118.207612 202.47817,111.711073" id="Fill-7" fill="#FFFFFE"></path>
                <path d="M347.89494,242.987889 C349.152311,244.489619 351.396872,247.733564 351.52157,248.859862 C351.537157,249 351.523302,249.304498 351.497323,249.717993 L351.497323,249.719723 C351.497323,249.719723 351.4852,249.8391 351.471345,250.015571 C351.471345,250.036332 351.466149,250.048443 351.466149,250.064014 C351.308545,251.790657 350.477226,259.82872 348.622345,262.069204 C348.348702,262.515571 348.040421,262.946367 347.652472,263.33564 C345.523949,265.32526 341.800332,267.216263 334.768757,272.088235 C327.016706,277.463668 320.890923,288.453287 320.890923,288.453287 C320.890923,288.453287 323.093919,278.069204 327.886128,272.134948 C333.824864,264.783737 341.56306,259.925606 346.337949,257.387543 L348.483791,247.809689 C346.840204,246.712803 344.772298,245.589965 342.771936,245.231834 C338.620536,244.50173 331.625332,244.596886 327.342306,243.200692 C327.363089,243.16782 327.394264,243.114187 327.394264,243.114187 C332.520732,242.489619 335.52214,240.991349 343.14603,239.738754 C350.771651,238.491349 356.64977,240.740484 356.64977,240.740484 C351.52157,240.991349 347.89494,242.987889 347.89494,242.987889 Z M372.697694,238.863322 C365.411528,241.742215 348.407587,236.589965 337.784021,235.82872 C327.156991,235.070934 319.718417,240.072664 319.718417,240.072664 C316.833047,232.794118 320.173911,222.942907 320.173911,222.942907 C317.95706,222.982699 309.966004,223.956747 307.714515,224.086505 C307.681609,224.214533 306.867609,224.344291 305.624094,224.479239 C305.627557,224.723183 305.627557,224.967128 305.634485,225.211073 C305.634485,225.211073 302.279766,250.948097 290.071498,267.743945 C293.268613,269.515571 301.33414,271.925606 304.181409,274.520761 C309.458553,279.33045 309.747783,286.275087 309.49146,289.020761 C309.245528,291.775087 308.84026,296.685121 306.3082,306.415225 C306.3082,306.415225 305.688174,292.425606 304.436,288.301038 C303.187289,284.181661 298.495532,280.377163 293.990821,279.00519 C291.947162,278.380623 288.20103,277.377163 284.034043,276.451557 C275.987566,285.652249 267.875277,292.010381 260.251387,298.780277 C261.060191,300.031142 262.199791,301.088235 263.807009,301.50692 C268.389655,302.700692 274.181179,299.970588 274.181179,299.970588 C274.181179,299.970588 270.504323,316.987889 280.284447,331.49827 C287.57754,342.318339 301.666668,339.546713 301.666668,339.546713 C301.666668,339.546713 304.690591,318.16263 318.048851,301.032872 C330.361034,285.237024 345.369809,277.058824 355.849626,273.975779 C355.4738,272.036332 354.834723,268.024221 355.575983,266.074394 C356.575298,263.453287 359.45374,261.077855 362.955672,261.077855 C366.459336,261.077855 370.453132,262.951557 370.453132,262.951557 C368.580932,262.576125 363.705591,262.33045 361.202974,264.944637 C359.282281,266.963668 360.165557,271.039792 360.676472,272.821799 C370.318043,271.051903 379.19757,272.254325 380.894847,272.67474 C382.715089,273.129758 384.382923,272.82526 384.994289,270.551903 C385.603923,268.280277 385.603923,265.550173 384.382923,264.643599 C383.168851,263.728374 381.1962,263.423875 379.220085,261.910035 C377.245702,260.394464 375.583064,256.756055 375.732009,251.449827 C375.884417,246.141869 372.697694,238.863322 372.697694,238.863322 L372.697694,238.863322 Z" id="Fill-8" fill="#E2BA94"></path>
                <path d="M327.567455,223.228374 C323.819591,225.723183 324.694209,233.221453 324.694209,233.221453 C324.694209,233.221453 327.695617,230.100346 335.070111,228.224913 C342.446336,226.352941 352.203945,227.728374 352.203945,227.728374 C346.575221,228.847751 343.450847,230.723183 343.450847,230.723183 C353.953179,232.096886 355.827111,235.470588 369.831374,234.470588 C383.835638,233.470588 385.586604,220.233564 385.586604,220.233564 C385.586604,220.233564 382.330604,221.731834 375.086004,223.354671 C367.832745,224.977509 353.204991,222.730104 348.823247,222.230104 C344.44843,221.731834 331.322247,220.733564 327.567455,223.228374" id="Fill-9" fill="#F7C23D"></path>
                <path d="M188.517204,142.00692 C190.754838,141.747405 193.025379,141.460208 195.342681,141.16263 C198.532868,140.756055 201.783672,140.33737 205.128,139.984429 C212.930277,139.15917 219.360877,139.091696 225.346374,139.775087 C237.185745,140.8391 248.529787,144.603806 253.917774,147.110727 C268.914426,153.444637 280.729549,168.697232 282.81997,184.652249 L282.795723,184.657439 C282.880587,185.098616 282.967183,185.541522 283.03646,185.987889 C283.062438,186.153979 283.084953,186.321799 283.1092,186.484429 C283.194064,187.051903 283.272,187.621107 283.330885,188.198962 C283.330885,188.204152 283.332617,188.207612 283.332617,188.216263 C287.049306,187.776817 306.611285,185.567474 322.924191,185.679931 C337.472277,185.776817 350.378506,187.297578 356.587421,188.306228 C350.210511,174.103806 340.347255,157.442907 325.438932,143.33391 C291.741064,111.444637 250.093706,96.2041522 215.330711,94.6107266 C215.330711,94.6107266 214.800745,100.8391 211.037294,108.802768 C209.700255,111.628028 207.964877,114.67128 205.68914,117.735294 C202.419285,122.128028 195.869183,131.16263 189.845583,140.261246 C189.644681,140.569204 188.517204,142.00692 188.517204,142.00692" id="Fill-10" fill="#F7C23D"></path>
                <path d="M232.5598,438.095156 C232.5598,438.095156 236.094638,431.889273 240.019157,424.939446 C237.552911,422.842561 234.231098,420.33564 230.138583,417.801038 C226.414966,415.491349 220.039787,412.32526 214.476877,409.122837 C214.440506,412.152249 214.824991,419.811419 219.149583,426.046713 C224.665732,433.99827 232.5598,438.095156 232.5598,438.095156" id="Fill-11" fill="#F7C23D"></path>
                <path d="M209.786851,240.750865 C209.225711,239.987889 208.674962,239.216263 208.157119,238.415225 L207.015787,237.427336 C203.160545,238.204152 151.454226,244.989619 88.9113149,286.979239 C68.1958809,300.889273 42.7852255,325.572664 30.2426979,339.349481 C35.6168298,337.00173 47.1946809,332.152249 56.3599745,329.32526 C65.7192426,319.724913 81.0847915,304.16782 95.1652596,294.314879 C127.791072,271.489619 183.59337,247.885813 209.786851,240.750865" id="Fill-12" fill="#F7C23D"></path>
                <path d="M361.616902,308.33218 C377.747957,297.719723 391.698532,294.178201 391.698532,294.178201 C391.698532,294.178201 391.152979,285.467128 382.323677,277.193772 C382.323677,277.193772 368.953294,273.441176 352.203945,281.062284 C335.447668,288.679931 319.481145,303.880623 312.601979,319.619377 C305.72974,335.358131 305.187651,352.00519 304.436,364.249135 C303.691277,376.491349 305.733204,394.785467 300.923677,411.259516 C300.923677,411.259516 308.824672,399.589965 311.692723,366.621107 C314.290596,336.724913 321.694532,316.157439 335.447668,306.538062 C335.447668,306.538062 324.444813,321.778547 320.693485,346.759516 C316.942157,371.743945 317.692077,381.487889 313.067864,402.219723 L311.919604,406.108997 C311.919604,406.108997 322.929387,391.387543 328.894102,353.017301 C334.115826,319.472318 343.949638,304.418685 357.453379,296.548443 C357.453379,296.548443 339.379115,316.17301 335.238106,344.268166 C335.238106,344.268166 345.485847,318.951557 361.616902,308.33218" id="Fill-13" fill="#F7C23D"></path>
                <path d="M271.992038,332.574394 C266.950434,325.178201 263.476213,310.371972 263.476213,310.371972 C263.476213,310.371972 257.177238,310.226644 253.457085,305.16782 C252.830132,305.802768 252.206643,306.427336 251.583153,307.089965 C251.583153,307.089965 257.258638,314.963668 260.727664,329.768166 C263.367102,341.039792 256.311281,359.371972 256.311281,359.371972 C256.311281,359.371972 259.967353,368.572664 261.586694,379.771626 C261.804915,379.638408 262.043919,379.49308 262.256945,379.368512 C262.256945,379.368512 281.922838,368.956747 292.489251,364.548443 C294.158817,363.847751 296.257898,363.088235 298.618498,362.302768 C298.836719,357.897924 299.276626,351.82872 300.170294,346.197232 C298.137026,346.249135 296.268289,346.276817 294.693979,346.276817 C283.815821,346.276817 277.042302,339.979239 271.992038,332.574394" id="Fill-14" fill="#E2BA94"></path>
                <path d="M379.93883,346.041522 C374.575089,345.887543 353.532323,345.216263 340.447706,345.216263 C340.395749,345.216263 340.338596,345.217993 340.28837,345.217993 C338.980774,347.269896 337.92777,349.458478 336.795098,352.517301 C340.444243,351.801038 343.965226,351.17128 347.191783,350.690311 C365.011455,348.010381 379.668651,347.538062 382.032715,347.223183 C384.398511,346.908304 388.655557,347.064014 390.229868,345.804498 C390.229868,345.804498 385.299106,346.200692 379.93883,346.041522" id="Fill-15" fill="#E2BA94"></path>
                <path d="M220.808757,445.804498 C221.82366,449.219723 224.367843,450.979239 226.875655,452.290657 C228.493264,447.16609 230.587149,441.491349 230.587149,441.491349 C226.759617,439.544983 223.058515,436.283737 223.058515,436.283737 C221.645272,438.115917 219.153047,440.235294 220.808757,445.804498" id="Fill-16" fill="#F7C23D"></path>
                <path d="M386.215289,324.399654 C382.46223,322.899654 376.085319,323.276817 376.085319,323.276817 C376.085319,323.276817 380.964123,311.408304 380.461868,304.916955 C380.461868,304.916955 352.167574,317.103806 344.053553,339.534602 C344.053553,339.534602 361.028051,339.975779 370.531068,341.096886 C380.035817,342.223183 386.215289,342.262976 388.338617,342.389273 C390.463677,342.508651 394.840226,342.761246 393.465085,335.015571 C392.089945,327.269896 389.963153,325.899654 386.215289,324.399654" id="Fill-17" fill="#E2BA94"></path>
                <path d="M218.610957,478.020761 C216.381983,480.780277 215.367081,486.344291 216.782055,488.00173 C218.191834,489.66263 220.157557,489.463668 221.382021,488.074394 C222.606485,486.692042 222.970187,484.50519 221.265983,482.202422 C219.890843,480.33737 218.610957,478.020761 218.610957,478.020761" id="Fill-18" fill="#F7C23D"></path>
                <path d="M251.752881,367.155709 C250.556128,369.072664 248.654485,372.032872 247.539132,373.536332 C244.014685,378.297578 235.315277,397.216263 231.605515,412.041522 C232.715672,412.731834 233.721915,413.378893 234.570553,413.967128 C238.650945,416.820069 241.068698,419.105536 242.440374,420.631488 C244.217319,417.475779 247.701932,414.268166 249.090928,411.752595 C254.194881,402.491349 258.109009,391.555363 256.839515,381.596886 C255.970094,374.757785 252.897677,369.313149 251.752881,367.155709" id="Fill-19" fill="#F7C23D"></path>
                <path d="M224.447511,469.368512 C221.482472,467.366782 219.57217,465.134948 219.57217,465.134948 C215.621672,471.923875 217.535438,473.5 222.982311,477.534602 C226.711123,480.288927 225.997574,483.889273 225.997574,483.889273 C225.997574,483.889273 231.111919,481.299308 230.770732,478.017301 C230.545583,475.842561 227.410817,471.368512 224.447511,469.368512" id="Fill-20" fill="#F7C23D"></path>
                <path d="M237.73303,436.904844 C234.577481,442.581315 231.7458,450.041522 230.327362,454.027682 C230.626983,454.198962 230.916213,454.373702 231.177732,454.551903 C234.14277,456.548443 237.935664,461.863322 237.935664,461.863322 C237.935664,461.863322 246.060077,452.823529 249.359374,442.581315 C252.662136,432.34083 248.709906,420.081315 248.709906,420.081315 C248.709906,420.081315 242.256791,428.769896 237.73303,436.904844" id="Fill-21" fill="#F7C23D"></path>
                <path d="M227.177009,456.979239 C223.124328,455.043253 220.990609,452.342561 220.990609,452.342561 C220.990609,452.342561 218.565928,455.610727 219.457864,459.482699 C220.353264,463.358131 223.962574,465.031142 227.79357,466.977509 C231.626298,468.923875 233.072447,472.811419 233.072447,472.811419 C235.795017,470.899654 237.142447,467.977509 235.637413,464.797578 C234.128915,461.614187 231.233153,458.913495 227.177009,456.979239" id="Fill-22" fill="#F7C23D"></path>
                <path d="M359.410443,193.878893 C354.928247,193.044983 340.65034,190.891003 322.924191,190.771626 C306.815651,190.66263 287.390494,192.67474 283.559498,193.100346 C283.559498,193.121107 283.556034,193.143599 283.556034,193.16782 C283.533519,217.105536 262.908145,234.192042 243.699477,234.477509 C214.689902,234.910035 204.010915,211.553633 203.78923,210.17474 C201.721323,209.572664 199.513132,208.970588 197.22354,208.358131 C193.37003,208.82872 189.249804,209.418685 184.925213,210.181661 C176.932426,211.588235 168.674655,213.557093 161.954826,215.304498 C161.634421,218.849481 161.121774,224.551903 161.100991,225.038062 C160.144974,245.193772 161.4162,243.787197 161.4162,243.787197 C167.266609,241.50173 188.846268,235.972318 188.846268,235.972318 C195.166026,234.50346 202.670413,232.925606 211.456417,231.304498 C217.634157,243.742215 230.462451,252.294118 245.301498,252.294118 C263.831255,252.294118 279.229711,238.965398 282.454536,221.391003 C322.953634,216.99827 342.096489,216.873702 367.107072,220.197232 C364.483221,206.273356 359.410443,193.878893 359.410443,193.878893" id="Fill-23" fill="#432B6C"></path>
                <g id="Group-27">
                    <mask id="mask-2" fill="white">
                        <use xlink:href="#path-1"></use>
                    </mask>
                    <g id="Clip-25"></g>
                    <path d="M356.644574,240.743945 C356.644574,240.743945 350.773383,238.49481 343.152957,239.740484 C335.515213,240.986159 332.519,242.491349 327.392532,243.114187 C327.392532,243.114187 327.359626,243.16609 327.340574,243.200692 C331.618404,244.602076 338.617072,244.49827 342.771936,245.224913 C344.779226,245.588235 346.843668,246.712803 348.487255,247.802768 L346.339681,257.387543 C341.559596,259.930796 333.817936,264.776817 327.893055,272.129758 C327.442757,272.681661 327.009779,273.288927 326.61317,273.927336 C326.42266,274.186851 326.249468,274.463668 326.093596,274.757785 C325.866715,275.121107 325.660617,275.484429 325.470106,275.847751 C325.227638,276.280277 325.000757,276.730104 324.77734,277.197232 C324.552191,277.647059 324.344362,278.096886 324.153851,278.546713 C323.305213,280.448097 322.629766,282.352941 322.127511,283.963668 C322.058234,284.152249 322.006277,284.34083 321.954319,284.515571 C321.573298,285.776817 321.297923,286.816609 321.123,287.525952 C321.088362,287.629758 321.071043,287.716263 321.053723,287.801038 C321.036404,287.871972 321.019085,287.939446 321.001766,288.010381 C320.965396,288.148789 320.948077,288.269896 320.932489,288.3391 C320.91517,288.371972 320.91517,288.408304 320.91517,288.427336 C321.019085,288.252595 321.555979,287.283737 322.458306,285.882353 C322.664404,285.570934 322.872234,285.242215 323.11297,284.878893 C324.844885,282.283737 327.479128,278.685121 330.613894,275.605536 C331.046872,275.17301 331.495438,274.740484 331.947468,274.342561 C332.865383,273.527682 333.798885,272.768166 334.770489,272.093426 C341.802064,267.214533 345.525681,265.32872 347.654204,263.34083 C348.036957,262.941176 348.348702,262.508651 348.625809,262.076125 C350.478957,259.82526 351.310277,251.782007 351.467881,250.069204 L351.467881,250.017301 C351.483468,249.844291 351.500787,249.723183 351.500787,249.723183 C351.518106,249.429066 351.518106,249.186851 351.518106,249.031142 L351.518106,248.858131 C351.396872,247.733564 349.145383,244.480969 347.898404,242.99308 C347.898404,242.99308 351.518106,240.986159 356.644574,240.743945 Z M356.644574,240.743945 C356.644574,240.743945 350.773383,238.49481 343.152957,239.740484 C335.515213,240.986159 332.519,242.491349 327.392532,243.114187 C327.392532,243.114187 327.359626,243.16609 327.340574,243.200692 C331.618404,244.602076 338.617072,244.49827 342.771936,245.224913 C344.779226,245.588235 346.843668,246.712803 348.487255,247.802768 L346.339681,257.387543 C341.559596,259.930796 333.817936,264.776817 327.893055,272.129758 C327.442757,272.681661 327.009779,273.288927 326.61317,273.927336 C326.42266,274.186851 326.249468,274.463668 326.093596,274.757785 C325.866715,275.121107 325.660617,275.484429 325.470106,275.847751 C325.227638,276.280277 325.000757,276.730104 324.77734,277.197232 C324.552191,277.647059 324.344362,278.096886 324.153851,278.546713 C323.305213,280.448097 322.629766,282.352941 322.127511,283.963668 C322.058234,284.152249 322.006277,284.34083 321.954319,284.515571 C321.573298,285.776817 321.297923,286.816609 321.123,287.525952 C321.088362,287.629758 321.071043,287.716263 321.053723,287.801038 C321.036404,287.871972 321.019085,287.939446 321.001766,288.010381 C320.965396,288.148789 320.948077,288.269896 320.932489,288.3391 C320.91517,288.371972 320.91517,288.408304 320.91517,288.427336 C321.019085,288.252595 321.555979,287.283737 322.458306,285.882353 C322.664404,285.570934 322.872234,285.242215 323.11297,284.878893 C324.844885,282.283737 327.479128,278.685121 330.613894,275.605536 C331.046872,275.17301 331.495438,274.740484 331.947468,274.342561 C332.865383,273.527682 333.798885,272.768166 334.770489,272.093426 C341.802064,267.214533 345.525681,265.32872 347.654204,263.34083 C348.036957,262.941176 348.348702,262.508651 348.625809,262.076125 C350.478957,259.82526 351.310277,251.782007 351.467881,250.069204 L351.467881,250.017301 C351.483468,249.844291 351.500787,249.723183 351.500787,249.723183 C351.518106,249.429066 351.518106,249.186851 351.518106,249.031142 L351.518106,248.858131 C351.396872,247.733564 349.145383,244.480969 347.898404,242.99308 C347.898404,242.99308 351.518106,240.986159 356.644574,240.743945 Z M356.644574,240.743945 C356.644574,240.743945 350.773383,238.49481 343.152957,239.740484 C335.515213,240.986159 332.519,242.491349 327.392532,243.114187 C327.392532,243.114187 327.359626,243.16609 327.340574,243.200692 C331.618404,244.602076 338.617072,244.49827 342.771936,245.224913 C344.779226,245.588235 346.843668,246.712803 348.487255,247.802768 L346.339681,257.387543 C341.559596,259.930796 333.817936,264.776817 327.893055,272.129758 C327.442757,272.681661 327.009779,273.288927 326.61317,273.927336 C326.42266,274.186851 326.249468,274.463668 326.093596,274.757785 C325.866715,275.121107 325.660617,275.484429 325.470106,275.847751 C325.227638,276.280277 325.000757,276.730104 324.77734,277.197232 C324.552191,277.647059 324.344362,278.096886 324.153851,278.546713 C323.305213,280.448097 322.629766,282.352941 322.127511,283.963668 C322.058234,284.152249 322.006277,284.34083 321.954319,284.515571 C321.573298,285.776817 321.297923,286.816609 321.123,287.525952 C321.088362,287.629758 321.071043,287.716263 321.053723,287.801038 C321.036404,287.871972 321.019085,287.939446 321.001766,288.010381 C320.965396,288.148789 320.948077,288.269896 320.932489,288.3391 C320.91517,288.371972 320.91517,288.408304 320.91517,288.427336 C321.019085,288.252595 321.555979,287.283737 322.458306,285.882353 C322.664404,285.570934 322.872234,285.242215 323.11297,284.878893 C324.844885,282.283737 327.479128,278.685121 330.613894,275.605536 C331.046872,275.17301 331.495438,274.740484 331.947468,274.342561 C332.865383,273.527682 333.798885,272.768166 334.770489,272.093426 C341.802064,267.214533 345.525681,265.32872 347.654204,263.34083 C348.036957,262.941176 348.348702,262.508651 348.625809,262.076125 C350.478957,259.82526 351.310277,251.782007 351.467881,250.069204 L351.467881,250.017301 C351.483468,249.844291 351.500787,249.723183 351.500787,249.723183 C351.518106,249.429066 351.518106,249.186851 351.518106,249.031142 L351.518106,248.858131 C351.396872,247.733564 349.145383,244.480969 347.898404,242.99308 C347.898404,242.99308 351.518106,240.986159 356.644574,240.743945 Z M356.644574,240.743945 C356.644574,240.743945 350.773383,238.49481 343.152957,239.740484 C335.515213,240.986159 332.519,242.491349 327.392532,243.114187 C327.392532,243.114187 327.359626,243.16609 327.340574,243.200692 C331.618404,244.602076 338.617072,244.49827 342.771936,245.224913 C344.779226,245.588235 346.843668,246.712803 348.487255,247.802768 L346.339681,257.387543 C341.559596,259.930796 333.817936,264.776817 327.893055,272.129758 C327.442757,272.681661 327.009779,273.288927 326.61317,273.927336 C326.42266,274.186851 326.249468,274.463668 326.093596,274.757785 C325.866715,275.121107 325.660617,275.484429 325.470106,275.847751 C325.227638,276.280277 325.000757,276.730104 324.77734,277.197232 C324.552191,277.647059 324.344362,278.096886 324.153851,278.546713 C323.305213,280.448097 322.629766,282.352941 322.127511,283.963668 C322.058234,284.152249 322.006277,284.34083 321.954319,284.515571 C321.573298,285.776817 321.297923,286.816609 321.123,287.525952 C321.088362,287.629758 321.071043,287.716263 321.053723,287.801038 C321.036404,287.871972 321.019085,287.939446 321.001766,288.010381 C320.965396,288.148789 320.948077,288.269896 320.932489,288.3391 C320.91517,288.371972 320.91517,288.408304 320.91517,288.427336 C321.019085,288.252595 321.555979,287.283737 322.458306,285.882353 C322.664404,285.570934 322.872234,285.242215 323.11297,284.878893 C324.844885,282.283737 327.479128,278.685121 330.613894,275.605536 C331.046872,275.17301 331.495438,274.740484 331.947468,274.342561 C332.865383,273.527682 333.798885,272.768166 334.770489,272.093426 C341.802064,267.214533 345.525681,265.32872 347.654204,263.34083 C348.036957,262.941176 348.348702,262.508651 348.625809,262.076125 C350.478957,259.82526 351.310277,251.782007 351.467881,250.069204 L351.467881,250.017301 C351.483468,249.844291 351.500787,249.723183 351.500787,249.723183 C351.518106,249.429066 351.518106,249.186851 351.518106,249.031142 L351.518106,248.858131 C351.396872,247.733564 349.145383,244.480969 347.898404,242.99308 C347.898404,242.99308 351.518106,240.986159 356.644574,240.743945 Z M343.152957,239.740484 C335.515213,240.986159 332.519,242.491349 327.392532,243.114187 C327.392532,243.114187 327.359626,243.16609 327.340574,243.200692 C331.618404,244.602076 338.617072,244.49827 342.771936,245.224913 C344.779226,245.588235 346.843668,246.712803 348.487255,247.802768 L346.339681,257.387543 C341.559596,259.930796 333.817936,264.776817 327.893055,272.129758 C327.442757,272.681661 327.009779,273.288927 326.61317,273.927336 C326.42266,274.186851 326.249468,274.463668 326.093596,274.757785 C325.866715,275.121107 325.660617,275.484429 325.470106,275.847751 C325.227638,276.280277 325.000757,276.730104 324.77734,277.197232 C324.552191,277.647059 324.344362,278.096886 324.153851,278.546713 C323.305213,280.448097 322.629766,282.352941 322.127511,283.963668 C322.058234,284.152249 322.006277,284.34083 321.954319,284.515571 C321.573298,285.776817 321.297923,286.816609 321.123,287.525952 C321.088362,287.629758 321.071043,287.716263 321.053723,287.801038 C321.036404,287.871972 321.019085,287.939446 321.001766,288.010381 C320.965396,288.148789 320.948077,288.269896 320.932489,288.3391 C320.91517,288.371972 320.91517,288.408304 320.91517,288.427336 C321.019085,288.252595 321.555979,287.283737 322.458306,285.882353 C322.664404,285.570934 322.872234,285.242215 323.11297,284.878893 C324.844885,282.283737 327.479128,278.685121 330.613894,275.605536 C331.046872,275.17301 331.495438,274.740484 331.947468,274.342561 C332.865383,273.527682 333.798885,272.768166 334.770489,272.093426 C341.802064,267.214533 345.525681,265.32872 347.654204,263.34083 C348.036957,262.941176 348.348702,262.508651 348.625809,262.076125 C350.478957,259.82526 351.310277,251.782007 351.467881,250.069204 L351.467881,250.017301 C351.483468,249.844291 351.500787,249.723183 351.500787,249.723183 C351.518106,249.429066 351.518106,249.186851 351.518106,249.031142 L351.518106,248.858131 C351.396872,247.733564 349.145383,244.480969 347.898404,242.99308 C347.898404,242.99308 351.518106,240.986159 356.644574,240.743945 C356.644574,240.743945 350.773383,238.49481 343.152957,239.740484 Z M388.338617,342.387543 C386.208362,342.266436 380.044477,342.231834 370.534532,341.089965 C361.026319,339.980969 344.051821,339.532872 344.051821,339.532872 C352.158915,317.112457 380.458404,304.913495 380.458404,304.913495 C380.96066,311.401384 376.092247,323.268166 376.092247,323.268166 C376.092247,323.268166 382.467426,322.906574 386.208362,324.394464 C389.966617,325.899654 392.096872,327.266436 393.466817,335.017301 C394.833298,342.768166 390.468872,342.508651 388.338617,342.387543 Z M382.034447,347.214533 C379.661723,347.544983 365.009723,348.010381 347.188319,350.692042 C343.966957,351.176471 340.449438,351.799308 336.79683,352.508651 C337.922574,349.463668 338.979043,347.266436 340.293566,345.226644 C340.329936,345.226644 340.399213,345.207612 340.449438,345.207612 C353.527128,345.207612 374.569894,345.882353 379.93883,346.036332 C385.290447,346.192042 390.224672,345.795848 390.224672,345.795848 C388.64863,347.057093 384.40717,346.901384 382.034447,347.214533 Z M328.897566,353.012111 C322.924191,391.384083 311.926532,406.107266 311.926532,406.107266 L313.071328,402.214533 C317.69554,381.487889 316.949085,371.747405 320.690021,346.762976 C324.448277,321.782007 335.447668,306.538062 335.447668,306.538062 C321.694532,316.15917 314.281936,336.731834 311.684064,366.626298 C308.913,398.546713 301.413809,410.519031 300.947923,411.228374 C305.726277,394.773356 303.682617,376.487889 304.44466,364.257785 C305.189383,352.008651 305.726277,335.363322 312.601979,319.619377 C319.477681,303.875433 335.447668,288.685121 352.210872,281.055363 C368.958489,273.442907 382.328872,277.197232 382.328872,277.197232 C391.144319,285.467128 391.698532,294.16955 391.698532,294.16955 C391.698532,294.16955 377.756617,297.716263 361.61517,308.3391 C345.489311,318.942907 335.236374,344.273356 335.236374,344.273356 C339.377383,316.176471 357.458574,296.539792 357.458574,296.539792 C343.949638,304.411765 334.112362,319.463668 328.897566,353.012111 Z M298.625426,362.301038 C296.252702,363.079585 294.157085,363.84083 292.494447,364.551903 C281.929766,368.960208 262.255213,379.377163 262.255213,379.377163 C262.047383,379.49654 261.804915,379.634948 261.579766,379.773356 C259.969085,368.564014 256.314745,359.377163 256.314745,359.377163 C256.314745,359.377163 263.361906,341.038062 260.731128,329.775087 C257.267298,314.965398 251.588349,307.093426 251.588349,307.093426 C252.210106,306.418685 252.831864,305.795848 253.457085,305.17301 C257.180702,310.224913 263.467553,310.380623 263.467553,310.380623 C263.467553,310.380623 266.948702,325.17301 271.988574,332.577855 C277.045766,339.980969 283.817553,346.280277 294.692247,346.280277 C296.268289,346.280277 298.140489,346.247405 300.165098,346.192042 C299.283553,351.83391 298.833255,357.889273 298.625426,362.301038 Z M249.090928,411.747405 C247.707128,414.273356 244.20866,417.474048 242.440374,420.622837 C241.073894,419.100346 238.649213,416.816609 234.579213,413.961938 C233.730574,413.371972 232.708745,412.733564 231.600319,412.041522 C235.323936,397.214533 244.018149,378.304498 247.533936,373.529412 C248.657949,372.024221 250.564787,369.065744 251.759809,367.16263 C252.902872,369.309689 255.968362,374.757785 256.834319,381.591696 C258.115936,391.557093 254.201809,402.491349 249.090928,411.747405 Z M249.352447,442.577855 C246.060077,452.820069 237.939128,461.870242 237.939128,461.870242 C237.939128,461.870242 234.146234,456.557093 231.182928,454.550173 C230.924872,454.378893 230.630447,454.204152 230.336021,454.029412 C231.738872,450.034602 234.579213,442.577855 237.73303,436.903114 C242.251596,428.771626 248.711638,420.086505 248.711638,420.086505 C248.711638,420.086505 252.660404,432.33564 249.352447,442.577855 Z M233.070715,472.802768 C233.070715,472.802768 231.634957,468.929066 227.790106,466.972318 C223.960843,465.036332 220.35846,463.356401 219.459596,459.480969 C218.559,455.605536 220.983681,452.33564 220.983681,452.33564 C220.983681,452.33564 223.131255,455.051903 227.183936,456.974048 C231.238349,458.910035 234.130647,461.608997 235.635681,464.792388 C237.142447,467.975779 235.791553,470.897924 233.070715,472.802768 Z M226.006234,483.892734 C226.006234,483.892734 226.714587,480.294118 222.975383,477.543253 C217.53717,473.49308 215.614745,471.920415 219.58083,465.136678 C219.58083,465.136678 221.485936,467.370242 224.447511,469.361592 C227.409085,471.366782 230.543851,475.849481 230.769,478.012111 C231.115383,481.297578 226.006234,483.892734 226.006234,483.892734 Z M221.380289,488.079585 C220.152362,489.463668 218.193566,489.67128 216.775128,488.010381 C215.372277,486.349481 216.378519,480.778547 218.610957,478.027682 C218.610957,478.027682 219.892574,480.346021 221.260787,482.198962 C222.975383,484.5 222.611681,486.695502 221.380289,488.079585 Z M230.578489,441.486159 C230.578489,441.486159 228.501923,447.16436 226.872191,452.283737 C224.360915,450.986159 221.832319,449.221453 220.810489,445.811419 C219.147851,440.243945 221.641809,438.114187 223.061979,436.280277 C223.061979,436.280277 226.750957,439.550173 230.578489,441.486159 Z M214.471681,409.117647 C220.031128,412.318339 226.420162,415.484429 230.145511,417.802768 C234.23283,420.32872 237.558106,422.83737 240.017426,424.930796 C236.101566,431.887543 232.552872,438.096886 232.552872,438.096886 C232.552872,438.096886 224.67266,433.99481 219.147851,426.038062 C214.818064,419.809689 214.435311,412.145329 214.471681,409.117647 Z M197.845298,387.889273 C190.848362,376.989619 190.917638,362.698962 190.917638,362.698962 C194.381468,365.761246 203.283511,370.726644 211.421779,375.242215 C218.074064,378.927336 228.915851,387.00692 232.674106,389.861592 C229.55666,398.233564 227.409085,405.986159 226.595085,408.99654 C217.327609,403.442907 203.075681,396.020761 197.845298,387.889273 Z M255.258277,343.044983 C252.469894,357.83737 245.388094,362.889273 238.181596,377.076125 C236.950204,379.532872 235.774234,382.128028 234.683128,384.742215 C230.197468,381.176471 222.040149,376.107266 215.301268,371.920415 C215.595694,366.435986 217.571809,356.124567 223.217851,343.302768 C229.53934,328.961938 245.663468,311.33218 245.663468,311.33218 C251.032404,316.885813 258.063979,328.252595 255.258277,343.044983 Z M172.923043,320.311419 C172.455426,307.854671 173.459936,296.678201 175.798021,288.685121 C175.417,289.153979 174.966702,289.688581 174.533723,290.207612 C147.689043,322.474048 117.086106,320.295848 89.0637234,323.183391 C84.9244468,323.600346 69.3545319,326.747405 65.2498936,327.629758 C75.2430426,316.955017 92.510234,301.280277 103.785,293.598616 C124.897043,279.205882 161.094064,264.186851 163.345553,263.269896 C146.268872,272.717993 132.48283,287.923875 132.48283,287.923875 C142.805043,280.935986 178.06683,260.570934 180.249043,259.309689 C170.238574,268.84083 142.060319,293.633218 125.330021,304.705882 C146.684532,294.636678 164.765723,281.589965 174.499085,272.387543 C186.674447,260.899654 204.963468,249.809689 213.242021,245.536332 C217.294702,249.532872 223.183213,253.183391 228.430915,255.346021 C214.385085,265.224913 205.015426,270.865052 200.997383,284.221453 C200.997383,284.221453 211.284957,271.038062 226.09283,262.958478 C228.879481,261.453287 231.894745,259.586505 234.996604,257.456747 C238.320149,258.233564 245.559553,258.910035 249.090928,258.910035 L249.956885,258.527682 C249.387085,258.960208 247.966915,259.775087 247.378064,260.207612 C219.114945,280.935986 193.238404,286.384083 190.779085,328.442907 C191.142787,326.072664 195.36866,300.449827 216.134319,287.16263 C228.465553,279.273356 250.583838,268.769896 265.407298,253.66782 C276.75134,248.477509 283.904149,239.602076 287.593128,227.266436 C287.626034,227.16263 287.662404,227.00692 287.679723,226.885813 C291.351383,226.522491 295.005723,226.055363 298.833255,225.709343 C298.400277,230.17301 297.413085,236.228374 295.248191,242.404844 C292.598362,250.692042 288.130021,259.913495 280.265396,269.534602 C266.100064,286.816609 249.006064,297.629758 231.219298,320.778547 C213.415213,343.910035 209.639638,367.491349 209.639638,367.491349 C205.775736,339.49827 218.662915,321.418685 219.373,320.449827 C217.225426,322.16436 208.444617,332.544983 205.204204,345.294118 C202.244362,356.937716 202.744885,360.242215 202.937128,363.548443 C194.831766,357.889273 173.892915,347.266436 172.923043,320.311419 Z M168.662532,323.183391 C168.662532,323.183391 163.258957,325.311419 156.677681,325.311419 C150.079085,325.311419 142.146915,321.1609 142.146915,321.1609 L142.683809,321.105536 C156.521809,317.645329 169.026234,302.700692 169.026234,302.700692 C167.571426,307.752595 168.662532,323.183391 168.662532,323.183391 Z M56.3651702,329.323529 C47.2033404,332.145329 35.6168298,337.008651 30.2478936,339.342561 C42.7869574,325.569204 68.1941489,300.882353 88.9078511,286.972318 C151.447298,244.982699 203.162277,238.200692 207.024447,237.422145 L208.151923,238.408304 C208.668034,239.221453 209.223979,239.982699 209.778191,240.743945 C183.591638,247.889273 127.78934,271.487889 95.1600638,294.307958 C81.0795957,304.16955 65.7175106,319.723183 56.3651702,329.323529 Z M98.6238936,137.889273 C91.3152128,119.134948 91.1593404,102.145329 91.228617,98.0622837 C91.2459362,97.4740484 91.2112979,96.366782 91.2112979,96.0034602 C91.3844894,82.8546713 93.1510426,70.6747405 94.6404894,61.9204152 C94.709766,61.5743945 94.7617234,61.2110727 94.8136809,60.8650519 L94.8483191,62.733564 C94.7963617,71.83391 95.4198511,79.8442907 95.645,82.3356401 C95.645,82.4221453 95.6623191,82.4913495 95.6623191,82.5778547 C95.6969574,82.9411765 95.9394255,80.7093426 96.112617,79.5847751 C96.7187872,75.5363322 97.4115532,71.5051903 97.8098936,67.4221453 C98.2255532,63.3564014 99.1434681,58.5121107 99.3166596,54.4290657 C99.3859362,52.8546713 99.4552128,51.2802768 99.4032553,49.7231834 C99.8708723,49.982699 100.044064,51.5051903 100.147979,51.9377163 C100.494362,53.633218 101.273723,66.9723183 101.498872,71.5397924 C101.602787,73.3564014 101.637426,75.1730104 101.654745,77.0069204 C101.672064,77.9065744 101.689383,78.8062284 101.845255,79.7058824 C101.862574,79.9480969 101.94917,80.2076125 102.001128,80.467128 C102.070404,80.467128 102.711213,74.4636678 103.213468,71.2802768 C103.646447,68.5467128 104.321894,65.7785467 104.304574,63.0103806 C104.304574,62.7681661 104.235298,62.4567474 104.269936,62.2318339 C104.339213,61.816609 104.945383,63.5813149 105.239809,66.83391 C105.447638,70.5190311 105.603511,74.3252595 106.036489,77.9238754 L106.365553,80.7785467 C109.344447,106.885813 125.000957,130.67474 146.164957,141.33218 C163.241638,150.899654 179.175255,148.858131 196.061426,146.695502 C199.196191,146.297578 202.417553,145.882353 205.708191,145.536332 C213.103468,144.757785 219.147851,144.688581 224.776574,145.311419 C237.211723,146.435986 248.711638,150.67474 252.487213,152.629758 C265.11114,158.287197 275.002106,171.141869 277.078672,184.636678 L277.078672,185 C277.617298,187.456747 277.894404,190 277.894404,192.612457 L277.894404,192.698962 C277.806077,192.197232 277.755851,191.730104 277.650204,191.211073 C277.58266,195.588235 276.701115,199.757785 275.157979,203.598616 C276.404957,199.705882 276.820617,195.155709 275.677553,189.844291 C275.625596,194.82699 274.465213,199.515571 272.49083,203.754325 C273.670264,199.948097 274.153468,195.865052 273.770715,191.6609 C272.993085,183.148789 268.852077,175.743945 262.774787,170.553633 C267.641468,175.761246 270.01246,184.013841 270.706957,191.747405 C272.334957,209.82699 257.856149,221.678201 242.338191,224.359862 C242.216957,224.377163 242.113043,224.411765 242.007396,224.446367 C243.342702,224.67128 248.521128,225.397924 253.682234,223.754325 C255.968362,223.581315 259.016532,223.079585 262.09934,221.574394 C263.242404,221.038062 264.678162,220.207612 266.238617,219.117647 C259.795894,225.069204 251.188277,228.737024 241.71297,228.737024 C229.210277,228.737024 218.212617,222.387543 211.735255,212.750865 C220.758532,213.875433 229.589566,215.657439 229.589566,215.657439 C221.451298,209.394464 207.977,205.449827 207.977,205.449827 L207.977,205.50173 C195.784319,201.816609 178.27466,198.529412 162.722064,194.117647 C131.322447,185.32872 109.760106,166.401384 98.6238936,137.889273 Z M166.87866,108.788927 C159.881723,90.3287197 162.237128,72.716263 161.024787,62.8546713 C160.661085,60.017301 160.210787,56.5570934 159.656574,52.8546713 C161.215298,57.9584775 163.241638,65.2595156 163.778532,69.9307958 C163.778532,69.9307958 163.328234,56.6955017 161.509723,48.4602076 C161.769511,49.2214533 166.099298,61.4532872 166.982574,68.5467128 C166.982574,68.5467128 167.588745,61.4532872 166.913298,53.8927336 C167.779255,56.799308 168.558617,59.8615917 169.130149,63.0795848 C172.732532,83.0622837 178.655681,97.0242215 202.48683,111.712803 C198.243638,118.200692 191.991426,127.041522 187.124745,133.910035 C181.236234,129.49827 171.398957,120.743945 166.87866,108.788927 Z M211.042489,108.806228 C214.800745,100.847751 215.337638,94.6020761 215.337638,94.6020761 C250.095438,96.2110727 291.749723,111.435986 325.433736,143.3391 C340.348987,157.439446 350.21917,174.100346 356.592617,188.304498 C350.375043,187.301038 337.472277,185.778547 322.924191,185.67474 C306.609553,185.570934 287.056234,187.768166 283.332617,188.217993 C283.332617,188.200692 283.332617,188.200692 283.332617,188.200692 C283.26334,187.629758 283.195796,187.058824 283.107468,186.487889 C283.090149,186.314879 283.057243,186.15917 283.038191,185.986159 C282.968915,185.536332 282.882319,185.103806 282.795723,184.653979 L282.813043,184.653979 C280.734745,168.702422 268.907498,153.442907 253.924702,147.110727 C248.538447,144.602076 237.194404,140.83045 225.348106,139.775087 C219.353949,139.083045 212.930277,139.152249 205.13666,139.982699 C201.776745,140.32872 198.538064,140.761246 195.35134,141.15917 C193.030574,141.453287 190.761766,141.747405 188.510277,142.00692 C188.510277,142.00692 189.65334,140.570934 189.843851,140.259516 C195.870915,131.15917 202.417553,122.128028 205.692604,117.733564 C207.957949,114.67128 209.708915,111.626298 211.042489,108.806228 Z M162.704745,209.896194 C162.981851,207.352941 163.328234,204.809689 163.726574,202.301038 C163.865128,201.608997 164.003681,200.899654 164.159553,200.207612 C166.965255,200.882353 169.822915,201.539792 172.680574,202.197232 C175.243809,202.802768 177.824362,203.408304 180.370277,204.048443 C181.651894,204.359862 182.916191,204.67128 184.16317,205 C184.284404,205.017301 184.405638,205.051903 184.526872,205.086505 C184.353681,205.121107 184.180489,205.138408 184.007298,205.17301 C176.698617,206.453287 169.11283,208.235294 162.704745,209.896194 Z M367.10534,220.190311 C342.096489,216.868512 322.95883,216.989619 282.44934,221.384083 C279.227979,238.961938 263.831255,252.301038 245.299766,252.301038 C230.455523,252.301038 217.641085,243.737024 211.458149,231.297578 C202.67734,232.923875 195.16083,234.49827 188.83934,235.968858 C188.83934,235.968858 167.259681,241.50519 161.423128,243.788927 C161.423128,243.788927 160.141511,245.190311 161.094064,225.034602 C161.128702,224.550173 161.630957,218.84083 161.960021,215.311419 C168.679851,213.564014 176.941085,211.591696 184.925213,210.17301 C189.255,209.411765 193.376957,208.823529 197.221809,208.356401 C199.507936,208.961938 201.724787,209.567474 203.785766,210.17301 C204.010915,211.557093 214.69683,234.913495 243.706404,234.480969 C262.91334,234.186851 283.540447,217.110727 283.557766,193.16609 L283.557766,193.096886 C287.38703,192.681661 306.815651,190.657439 322.924191,190.778547 C340.659,190.899654 354.931711,193.044983 359.415638,193.875433 C359.415638,193.875433 364.490149,206.280277 367.10534,220.190311 Z M375.087736,223.356401 C382.328872,221.730104 385.584872,220.242215 385.584872,220.242215 C385.584872,220.242215 383.835638,233.477509 369.824447,234.463668 C355.830574,235.467128 353.960106,232.093426 343.447383,230.726644 C343.447383,230.726644 346.582149,228.84083 352.210872,227.733564 C352.210872,227.733564 342.442872,226.349481 335.064915,228.217993 C327.704277,230.103806 324.690745,233.217993 324.690745,233.217993 C324.690745,233.217993 323.824787,225.726644 327.565723,223.235294 C331.323979,220.726644 344.451894,221.730104 348.814587,222.231834 C353.199796,222.733564 367.832745,224.982699 375.087736,223.356401 Z M379.228745,261.904844 C381.203128,263.423875 383.177511,263.737024 384.389851,264.638408 C385.602191,265.553633 385.602191,268.287197 384.996021,270.555363 C384.389851,272.820069 382.709894,273.131488 380.891383,272.681661 C379.194106,272.249135 370.32497,271.055363 360.679936,272.820069 C360.160362,271.038062 359.277085,266.972318 361.199511,264.948097 C363.693468,262.352941 368.492604,262.577855 370.395979,262.941176 C369.945681,262.733564 366.239383,261.072664 362.947013,261.072664 C359.450277,261.072664 356.575298,263.460208 355.570787,266.074394 C354.826064,268.027682 355.466872,272.041522 355.847894,273.979239 C345.369809,277.058824 330.354106,285.242215 318.040191,301.038062 C304.687128,318.16609 301.675328,339.548443 301.675328,339.548443 C301.675328,339.548443 287.575809,342.318339 280.284447,331.50519 C270.50086,316.989619 274.186374,299.967128 274.186374,299.967128 C274.186374,299.967128 268.386191,302.700692 263.812204,301.50519 C262.203255,301.089965 261.05846,300.034602 260.247923,298.771626 C267.883936,292.00692 275.989298,285.657439 284.042702,276.455017 C288.197566,277.370242 291.938502,278.373702 293.983894,279.013841 C298.486872,280.380623 303.180362,284.185121 304.44466,288.304498 C305.691638,292.422145 306.315128,306.418685 306.315128,306.418685 C308.841991,296.678201 309.242064,291.782007 309.484532,289.013841 C309.744319,286.280277 309.449894,279.32526 304.184872,274.515571 C301.325481,271.920415 293.273809,269.515571 290.068034,267.749135 C302.279766,250.951557 305.639681,225.207612 305.639681,225.207612 C305.622362,224.965398 305.622362,224.723183 305.622362,224.480969 C306.871072,224.342561 307.681609,224.221453 307.717979,224.083045 C309.969468,223.961938 317.953596,222.975779 320.170447,222.941176 C320.170447,222.941176 316.829583,232.785467 319.720149,240.069204 C319.720149,240.069204 327.150064,235.069204 337.784021,235.83045 C348.40066,236.591696 365.406332,241.747405 372.699426,238.858131 C372.699426,238.858131 375.886149,246.141869 375.730277,251.453287 C375.591723,256.747405 377.25263,260.396194 379.228745,261.904844 Z M397.879736,330.17301 C397.188702,325.934256 392.928191,322.145329 390.797936,321.676471 C388.667681,321.211073 383.229468,319.792388 383.229468,319.792388 C387.247511,308.461938 387.247511,301.366782 387.247511,301.366782 C390.797936,299.479239 397.879736,296.645329 397.879736,296.645329 C395.526064,284.117647 387.005043,274.429066 387.005043,274.429066 C387.715128,271.83391 389.376034,267.352941 389.376034,265.692042 C389.376034,264.031142 386.294957,261.211073 382.987,259.083045 C379.679043,256.955017 379.211426,253.183391 379.211426,248.685121 C379.211426,244.204152 377.323638,238.529412 376.613553,238.287197 C375.903468,238.062284 385.046247,235.17301 387.888319,227.128028 C390.72866,219.100346 390.797936,212.577855 390.797936,212.577855 C387.022362,218.079585 372.231809,220.346021 372.231809,220.346021 C371.054106,207.820069 360.993413,167.422145 320.326319,130.813149 C279.660957,94.2041522 210.367043,87.5778547 210.367043,87.5778547 C210.470957,89.6193772 210.21117,92.0415225 209.605,94.7058824 C209.033468,98.1487889 208.028957,102.214533 206.279723,105.50173 C206.175809,105.692042 206.037255,105.934256 205.898702,106.15917 C196.338532,100.986159 186.293426,94.0311419 181.686532,85.899654 C172.76717,70.1557093 173.875596,56.6089965 169.147468,45.5017301 C161.405809,27.3183391 150.234957,17.4394464 146.909681,14.550173 C145.004574,12.8892734 144.363766,12.3356401 143.376574,13.1314879 C142.406702,13.9100346 143.047511,15.0346021 143.844191,16.2110727 C144.588915,17.3183391 151.551213,30.7266436 154.149085,48.9273356 C156.746957,67.1107266 153.300447,95.8131488 161.821468,114.238754 C167.121128,125.709343 175.884617,134.792388 181.755809,140.017301 C181.963638,140.190311 182.171468,140.380623 182.361979,140.553633 L184.267085,142.439446 C172.109043,143.581315 160.799638,143.148789 148.780149,136.401384 C129.451979,126.678201 114.626787,104.065744 111.907681,80.1384083 L111.578617,77.266436 C110.816574,70.7093426 111.128319,64.1522491 110.833894,57.5778547 C110.574106,51.6089965 109.915979,45.6574394 108.87683,39.7750865 C108.426532,37.1799308 107.889638,34.6193772 107.266149,32.0588235 C107.24883,32.0242215 107.24883,32.0069204 107.24883,31.9723183 C106.989043,30.4152249 106.538745,28.8754325 106.088447,27.3529412 C105.794021,26.349481 105.464957,25.3460208 105.135894,24.3252595 C104.373851,22.0934256 103.38666,19.9480969 102.122362,17.9065744 C100.598277,15.449827 98.9183191,13.0622837 96.9612553,10.9342561 C95.8008723,9.67128028 94.5538936,8.47750865 93.1510426,7.49134948 C93.1510426,7.49134948 91.8521064,6.67820069 90.9688298,7.14532872 C90.9688298,7.14532872 89.8084468,7.95847751 91.0381064,10.4844291 C91.0381064,10.4844291 91.3498511,10.9861592 91.7135532,11.8512111 C91.921383,12.3356401 92.1465319,12.9411765 92.3543617,13.633218 C92.5448723,14.2560554 92.7007447,14.9307958 92.8219787,15.6574394 C93.7918511,20.8477509 94.484617,32.0242215 90.3799787,53.3564014 L90.3453404,53.4256055 C89.9816383,56.5224913 89.5832979,59.6193772 89.0464043,62.6989619 C87.3491277,72.6816609 85.7038085,84.0138408 85.4267021,95.7785467 C85.4267021,96.2975779 85.4959787,97.8200692 85.4786596,98.1314879 C85.3574255,108.598616 87.3664468,177.214533 158.392277,198.823529 C158.063213,200.294118 157.751468,201.712803 157.526319,203.079585 C152.728915,233.3391 154.495468,246.089965 154.495468,246.089965 C154.495468,246.089965 154.512787,246.211073 154.530106,246.401384 C139.99934,251.868512 123.563468,259.238754 106.244319,269.134948 C86.8641915,279.740484 65.8387447,294.16955 45.2635957,313.858131 C41.4014255,317.577855 37.7817234,321.228374 34.3525319,324.861592 C33.5212128,325.726644 32.6898936,326.608997 31.8585745,327.49308 C31.8239362,327.560554 31.7546596,327.612457 31.7027021,327.66436 C20.8435957,339.342561 12.6516383,350.103806 6.71117021,358.858131 C38.8035532,335.711073 88.9424894,328.771626 104.269936,327.870242 C120.342106,326.937716 136.622106,324.188581 136.622106,324.188581 C136.622106,324.188581 142.978234,327.577855 150.564021,329.238754 C159.171638,331.141869 168.177596,328.408304 168.177596,328.408304 C171.416277,345.051903 183.124021,355.743945 186.189511,358.147059 C185.39283,363.148789 186.20683,379.653979 191.835553,388.823529 C197.897255,398.702422 207.907723,405.363322 207.907723,405.363322 C207.907723,405.363322 207.214957,414.307958 209.570362,420.709343 C211.925766,427.110727 217.398617,432.941176 217.398617,432.941176 C217.398617,432.941176 214.90466,437.128028 214.575596,442.387543 C214.246532,447.647059 217.398617,450.569204 217.398617,450.569204 C217.398617,450.569204 214.540957,454.238754 214.056021,457.093426 C213.586672,459.965398 215.354957,464.271626 215.354957,464.271626 C215.354957,464.271626 213.623043,467.422145 213.120787,469.844291 C212.601213,472.283737 214.056021,475.278547 214.056021,475.278547 C212.895638,477.543253 209.45086,488.183391 214.523638,492.456747 C219.58083,496.730104 225.885,488.754325 225.885,488.754325 C227.824745,488.183391 231.477353,485.778547 233.209268,483.079585 C235.341255,479.775087 235.341255,476.695502 235.341255,476.695502 C235.341255,476.695502 238.060362,474.929066 240.414034,470.432526 C242.357243,466.782007 242.078404,464.377163 242.078404,464.377163 C242.078404,464.377163 253.076064,452.83737 255.362191,438.425606 C257.317523,426.141869 254.425226,414.807958 254.425226,414.807958 C254.425226,414.807958 262.688191,402.249135 262.30717,387.889273 C267.935894,383.960208 281.514106,375.155709 298.417596,368.583045 C298.902532,378.269896 300.426617,386.6609 297.395766,402.231834 C293.602872,421.608997 276.335681,435.780277 276.335681,435.780277 C300.459523,433.185121 316.550745,411.920415 322.924191,396.558824 C328.137255,384.031142 332.882702,366.314879 335.082234,358.287197 C358.617226,353.719723 380.112021,352.508651 387.247511,351.437716 C396.703766,350.017301 399.076489,347.906574 399.301638,344.361592 C399.544106,340.813149 398.591553,334.429066 397.879736,330.17301 Z M356.644574,240.743945 C356.644574,240.743945 350.773383,238.49481 343.152957,239.740484 C335.515213,240.986159 332.519,242.491349 327.392532,243.114187 C327.392532,243.114187 327.359626,243.16609 327.340574,243.200692 C331.618404,244.602076 338.617072,244.49827 342.771936,245.224913 C344.779226,245.588235 346.843668,246.712803 348.487255,247.802768 L346.339681,257.387543 C341.559596,259.930796 333.817936,264.776817 327.893055,272.129758 C327.442757,272.681661 327.009779,273.288927 326.61317,273.927336 C326.42266,274.186851 326.249468,274.463668 326.093596,274.757785 C325.866715,275.121107 325.660617,275.484429 325.470106,275.847751 C325.227638,276.280277 325.000757,276.730104 324.77734,277.197232 C324.552191,277.647059 324.344362,278.096886 324.153851,278.546713 C323.305213,280.448097 322.629766,282.352941 322.127511,283.963668 C322.058234,284.152249 322.006277,284.34083 321.954319,284.515571 C321.573298,285.776817 321.297923,286.816609 321.123,287.525952 C321.088362,287.629758 321.071043,287.716263 321.053723,287.801038 C321.036404,287.871972 321.019085,287.939446 321.001766,288.010381 C320.965396,288.148789 320.948077,288.269896 320.932489,288.3391 C320.91517,288.371972 320.91517,288.408304 320.91517,288.427336 C321.019085,288.252595 321.555979,287.283737 322.458306,285.882353 C322.664404,285.570934 322.872234,285.242215 323.11297,284.878893 C324.844885,282.283737 327.479128,278.685121 330.613894,275.605536 C331.046872,275.17301 331.495438,274.740484 331.947468,274.342561 C332.865383,273.527682 333.798885,272.768166 334.770489,272.093426 C341.802064,267.214533 345.525681,265.32872 347.654204,263.34083 C348.036957,262.941176 348.348702,262.508651 348.625809,262.076125 C350.478957,259.82526 351.310277,251.782007 351.467881,250.069204 L351.467881,250.017301 C351.483468,249.844291 351.500787,249.723183 351.500787,249.723183 C351.518106,249.429066 351.518106,249.186851 351.518106,249.031142 L351.518106,248.858131 C351.396872,247.733564 349.145383,244.480969 347.898404,242.99308 C347.898404,242.99308 351.518106,240.986159 356.644574,240.743945 Z M356.644574,240.743945 C356.644574,240.743945 350.773383,238.49481 343.152957,239.740484 C335.515213,240.986159 332.519,242.491349 327.392532,243.114187 C327.392532,243.114187 327.359626,243.16609 327.340574,243.200692 C331.618404,244.602076 338.617072,244.49827 342.771936,245.224913 C344.779226,245.588235 346.843668,246.712803 348.487255,247.802768 L346.339681,257.387543 C341.559596,259.930796 333.817936,264.776817 327.893055,272.129758 C327.442757,272.681661 327.009779,273.288927 326.61317,273.927336 C326.42266,274.186851 326.249468,274.463668 326.093596,274.757785 C325.866715,275.121107 325.660617,275.484429 325.470106,275.847751 C325.227638,276.280277 325.000757,276.730104 324.77734,277.197232 C324.552191,277.647059 324.344362,278.096886 324.153851,278.546713 C323.305213,280.448097 322.629766,282.352941 322.127511,283.963668 C322.058234,284.152249 322.006277,284.34083 321.954319,284.515571 C321.573298,285.776817 321.297923,286.816609 321.123,287.525952 C321.088362,287.629758 321.071043,287.716263 321.053723,287.801038 C321.036404,287.871972 321.019085,287.939446 321.001766,288.010381 C320.965396,288.148789 320.948077,288.269896 320.932489,288.3391 C320.91517,288.371972 320.91517,288.408304 320.91517,288.427336 C321.019085,288.252595 321.555979,287.283737 322.458306,285.882353 C322.664404,285.570934 322.872234,285.242215 323.11297,284.878893 C324.844885,282.283737 327.479128,278.685121 330.613894,275.605536 C331.046872,275.17301 331.495438,274.740484 331.947468,274.342561 C332.865383,273.527682 333.798885,272.768166 334.770489,272.093426 C341.802064,267.214533 345.525681,265.32872 347.654204,263.34083 C348.036957,262.941176 348.348702,262.508651 348.625809,262.076125 C350.478957,259.82526 351.310277,251.782007 351.467881,250.069204 L351.467881,250.017301 C351.483468,249.844291 351.500787,249.723183 351.500787,249.723183 C351.518106,249.429066 351.518106,249.186851 351.518106,249.031142 L351.518106,248.858131 C351.396872,247.733564 349.145383,244.480969 347.898404,242.99308 C347.898404,242.99308 351.518106,240.986159 356.644574,240.743945 Z M356.644574,240.743945 C356.644574,240.743945 350.773383,238.49481 343.152957,239.740484 C335.515213,240.986159 332.519,242.491349 327.392532,243.114187 C327.392532,243.114187 327.359626,243.16609 327.340574,243.200692 C331.618404,244.602076 338.617072,244.49827 342.771936,245.224913 C344.779226,245.588235 346.843668,246.712803 348.487255,247.802768 L346.339681,257.387543 C341.559596,259.930796 333.817936,264.776817 327.893055,272.129758 C327.442757,272.681661 327.009779,273.288927 326.61317,273.927336 C326.42266,274.186851 326.249468,274.463668 326.093596,274.757785 C325.866715,275.121107 325.660617,275.484429 325.470106,275.847751 C325.227638,276.280277 325.000757,276.730104 324.77734,277.197232 C324.552191,277.647059 324.344362,278.096886 324.153851,278.546713 C323.305213,280.448097 322.629766,282.352941 322.127511,283.963668 C322.058234,284.152249 322.006277,284.34083 321.954319,284.515571 C321.573298,285.776817 321.297923,286.816609 321.123,287.525952 C321.088362,287.629758 321.071043,287.716263 321.053723,287.801038 C321.036404,287.871972 321.019085,287.939446 321.001766,288.010381 C320.965396,288.148789 320.948077,288.269896 320.932489,288.3391 C320.91517,288.371972 320.91517,288.408304 320.91517,288.427336 C321.019085,288.252595 321.555979,287.283737 322.458306,285.882353 C322.664404,285.570934 322.872234,285.242215 323.11297,284.878893 C324.844885,282.283737 327.479128,278.685121 330.613894,275.605536 C331.046872,275.17301 331.495438,274.740484 331.947468,274.342561 C332.865383,273.527682 333.798885,272.768166 334.770489,272.093426 C341.802064,267.214533 345.525681,265.32872 347.654204,263.34083 C348.036957,262.941176 348.348702,262.508651 348.625809,262.076125 C350.478957,259.82526 351.310277,251.782007 351.467881,250.069204 L351.467881,250.017301 C351.483468,249.844291 351.500787,249.723183 351.500787,249.723183 C351.518106,249.429066 351.518106,249.186851 351.518106,249.031142 L351.518106,248.858131 C351.396872,247.733564 349.145383,244.480969 347.898404,242.99308 C347.898404,242.99308 351.518106,240.986159 356.644574,240.743945 Z M356.644574,240.743945 C356.644574,240.743945 350.773383,238.49481 343.152957,239.740484 C335.515213,240.986159 332.519,242.491349 327.392532,243.114187 C327.392532,243.114187 327.359626,243.16609 327.340574,243.200692 C331.618404,244.602076 338.617072,244.49827 342.771936,245.224913 C344.779226,245.588235 346.843668,246.712803 348.487255,247.802768 L346.339681,257.387543 C341.559596,259.930796 333.817936,264.776817 327.893055,272.129758 C327.442757,272.681661 327.009779,273.288927 326.61317,273.927336 C326.42266,274.186851 326.249468,274.463668 326.093596,274.757785 C325.866715,275.121107 325.660617,275.484429 325.470106,275.847751 C325.227638,276.280277 325.000757,276.730104 324.77734,277.197232 C324.552191,277.647059 324.344362,278.096886 324.153851,278.546713 C323.305213,280.448097 322.629766,282.352941 322.127511,283.963668 C322.058234,284.152249 322.006277,284.34083 321.954319,284.515571 C321.573298,285.776817 321.297923,286.816609 321.123,287.525952 C321.088362,287.629758 321.071043,287.716263 321.053723,287.801038 C321.036404,287.871972 321.019085,287.939446 321.001766,288.010381 C320.965396,288.148789 320.948077,288.269896 320.932489,288.3391 C320.91517,288.371972 320.91517,288.408304 320.91517,288.427336 C321.019085,288.252595 321.555979,287.283737 322.458306,285.882353 C322.664404,285.570934 322.872234,285.242215 323.11297,284.878893 C324.844885,282.283737 327.479128,278.685121 330.613894,275.605536 C331.046872,275.17301 331.495438,274.740484 331.947468,274.342561 C332.865383,273.527682 333.798885,272.768166 334.770489,272.093426 C341.802064,267.214533 345.525681,265.32872 347.654204,263.34083 C348.036957,262.941176 348.348702,262.508651 348.625809,262.076125 C350.478957,259.82526 351.310277,251.782007 351.467881,250.069204 L351.467881,250.017301 C351.483468,249.844291 351.500787,249.723183 351.500787,249.723183 C351.518106,249.429066 351.518106,249.186851 351.518106,249.031142 L351.518106,248.858131 C351.396872,247.733564 349.145383,244.480969 347.898404,242.99308 C347.898404,242.99308 351.518106,240.986159 356.644574,240.743945 Z M356.644574,240.743945 C356.644574,240.743945 350.773383,238.49481 343.152957,239.740484 C335.515213,240.986159 332.519,242.491349 327.392532,243.114187 C327.392532,243.114187 327.359626,243.16609 327.340574,243.200692 C331.618404,244.602076 338.617072,244.49827 342.771936,245.224913 C344.779226,245.588235 346.843668,246.712803 348.487255,247.802768 L346.339681,257.387543 C341.559596,259.930796 333.817936,264.776817 327.893055,272.129758 C327.442757,272.681661 327.009779,273.288927 326.61317,273.927336 C326.42266,274.186851 326.249468,274.463668 326.093596,274.757785 C325.866715,275.121107 325.660617,275.484429 325.470106,275.847751 C325.227638,276.280277 325.000757,276.730104 324.77734,277.197232 C324.552191,277.647059 324.344362,278.096886 324.153851,278.546713 C323.305213,280.448097 322.629766,282.352941 322.127511,283.963668 C322.058234,284.152249 322.006277,284.34083 321.954319,284.515571 C321.573298,285.776817 321.297923,286.816609 321.123,287.525952 C321.088362,287.629758 321.071043,287.716263 321.053723,287.801038 C321.036404,287.871972 321.019085,287.939446 321.001766,288.010381 C320.965396,288.148789 320.948077,288.269896 320.932489,288.3391 C320.91517,288.371972 320.91517,288.408304 320.91517,288.427336 C321.019085,288.252595 321.555979,287.283737 322.458306,285.882353 C322.664404,285.570934 322.872234,285.242215 323.11297,284.878893 C324.844885,282.283737 327.479128,278.685121 330.613894,275.605536 C331.046872,275.17301 331.495438,274.740484 331.947468,274.342561 C332.865383,273.527682 333.798885,272.768166 334.770489,272.093426 C341.802064,267.214533 345.525681,265.32872 347.654204,263.34083 C348.036957,262.941176 348.348702,262.508651 348.625809,262.076125 C350.478957,259.82526 351.310277,251.782007 351.467881,250.069204 L351.467881,250.017301 C351.483468,249.844291 351.500787,249.723183 351.500787,249.723183 C351.518106,249.429066 351.518106,249.186851 351.518106,249.031142 L351.518106,248.858131 C351.396872,247.733564 349.145383,244.480969 347.898404,242.99308 C347.898404,242.99308 351.518106,240.986159 356.644574,240.743945 Z M356.644574,240.743945 C356.644574,240.743945 350.773383,238.49481 343.152957,239.740484 C335.515213,240.986159 332.519,242.491349 327.392532,243.114187 C327.392532,243.114187 327.359626,243.16609 327.340574,243.200692 C331.618404,244.602076 338.617072,244.49827 342.771936,245.224913 C344.779226,245.588235 346.843668,246.712803 348.487255,247.802768 L346.339681,257.387543 C341.559596,259.930796 333.817936,264.776817 327.893055,272.129758 C327.442757,272.681661 327.009779,273.288927 326.61317,273.927336 C326.42266,274.186851 326.249468,274.463668 326.093596,274.757785 C325.866715,275.121107 325.660617,275.484429 325.470106,275.847751 C325.227638,276.280277 325.000757,276.730104 324.77734,277.197232 C324.552191,277.647059 324.344362,278.096886 324.153851,278.546713 C323.305213,280.448097 322.629766,282.352941 322.127511,283.963668 C322.058234,284.152249 322.006277,284.34083 321.954319,284.515571 C321.573298,285.776817 321.297923,286.816609 321.123,287.525952 C321.088362,287.629758 321.071043,287.716263 321.053723,287.801038 C321.036404,287.871972 321.019085,287.939446 321.001766,288.010381 C320.965396,288.148789 320.948077,288.269896 320.932489,288.3391 C320.91517,288.371972 320.91517,288.408304 320.91517,288.427336 C321.019085,288.252595 321.555979,287.283737 322.458306,285.882353 C322.664404,285.570934 322.872234,285.242215 323.11297,284.878893 C324.844885,282.283737 327.479128,278.685121 330.613894,275.605536 C331.046872,275.17301 331.495438,274.740484 331.947468,274.342561 C332.865383,273.527682 333.798885,272.768166 334.770489,272.093426 C341.802064,267.214533 345.525681,265.32872 347.654204,263.34083 C348.036957,262.941176 348.348702,262.508651 348.625809,262.076125 C350.478957,259.82526 351.310277,251.782007 351.467881,250.069204 L351.467881,250.017301 C351.483468,249.844291 351.500787,249.723183 351.500787,249.723183 C351.518106,249.429066 351.518106,249.186851 351.518106,249.031142 L351.518106,248.858131 C351.396872,247.733564 349.145383,244.480969 347.898404,242.99308 C347.898404,242.99308 351.518106,240.986159 356.644574,240.743945 L356.644574,240.743945 Z" id="Fill-24" fill="#0A0B09" mask="url(#mask-2)"></path>
                    <path d="M399.301638,344.361592 C399.076489,347.906574 396.703766,350.017301 387.247511,351.437716 C380.112021,352.508651 358.617226,353.719723 335.082234,358.287197 C332.882702,366.314879 328.137255,384.031142 322.924191,396.558824 C316.550745,411.920415 300.459523,433.185121 276.335681,435.780277 C276.335681,435.780277 293.602872,421.608997 297.395766,402.231834 C300.426617,386.6609 298.902532,378.269896 298.417596,368.583045 C281.514106,375.155709 267.935894,383.960208 262.30717,387.889273 C262.688191,402.249135 254.425226,414.807958 254.425226,414.807958 C254.425226,414.807958 257.317523,426.141869 255.362191,438.425606 C253.076064,452.83737 242.078404,464.377163 242.078404,464.377163 C242.078404,464.377163 242.357243,466.782007 240.414034,470.432526 C238.060362,474.929066 235.341255,476.695502 235.341255,476.695502 C235.341255,476.695502 235.341255,479.775087 233.209268,483.079585 C231.477353,485.778547 227.824745,488.183391 225.885,488.754325 C225.885,488.754325 219.58083,496.730104 214.523638,492.456747 C209.45086,488.183391 212.895638,477.543253 214.056021,475.278547 C214.056021,475.278547 212.601213,472.283737 213.120787,469.844291 C213.623043,467.422145 215.354957,464.271626 215.354957,464.271626 C215.354957,464.271626 213.586672,459.965398 214.056021,457.093426 C214.540957,454.238754 217.398617,450.569204 217.398617,450.569204 C217.398617,450.569204 214.246532,447.647059 214.575596,442.387543 C214.90466,437.128028 217.398617,432.941176 217.398617,432.941176 C217.398617,432.941176 211.925766,427.110727 209.570362,420.709343 C207.214957,414.307958 207.907723,405.363322 207.907723,405.363322 C207.907723,405.363322 197.897255,398.702422 191.835553,388.823529 C186.20683,379.653979 185.39283,363.148789 186.189511,358.147059 C183.124021,355.743945 171.416277,345.051903 168.177596,328.408304 C168.177596,328.408304 159.171638,331.141869 150.564021,329.238754 C142.978234,327.577855 136.622106,324.188581 136.622106,324.188581 C136.622106,324.188581 120.342106,326.937716 104.269936,327.870242 C88.9424894,328.771626 38.8035532,335.711073 6.71117021,358.858131 C12.6516383,350.103806 20.8435957,339.342561 31.7027021,327.66436 C31.7546596,327.612457 31.8239362,327.560554 31.8585745,327.49308 C32.6898936,326.608997 33.5212128,325.726644 34.3525319,324.861592 C37.7817234,321.228374 41.4014255,317.577855 45.2635957,313.858131 C65.8387447,294.16955 86.8641915,279.740484 106.244319,269.134948 C123.563468,259.238754 139.99934,251.868512 154.530106,246.401384 C154.512787,246.211073 154.495468,246.089965 154.495468,246.089965 C154.495468,246.089965 152.728915,233.3391 157.526319,203.079585 C157.751468,201.712803 158.063213,200.294118 158.392277,198.823529 C87.3664468,177.214533 85.3574255,108.598616 85.4786596,98.1314879 C85.4959787,97.8200692 85.4267021,96.2975779 85.4267021,95.7785467 C85.7038085,84.0138408 87.3491277,72.6816609 89.0464043,62.6989619 C89.5832979,59.6193772 89.9816383,56.5224913 90.3453404,53.4256055 L90.3799787,53.3564014 C94.484617,32.0242215 93.7918511,20.8477509 92.8219787,15.6574394 C92.7007447,14.9307958 92.5448723,14.2560554 92.3543617,13.633218 C92.1465319,12.9411765 91.921383,12.3356401 91.7135532,11.8512111 C91.3498511,10.9861592 91.0381064,10.4844291 91.0381064,10.4844291 C89.8084468,7.95847751 90.9688298,7.14532872 90.9688298,7.14532872 C91.8521064,6.67820069 93.1510426,7.49134948 93.1510426,7.49134948 C94.5538936,8.47750865 95.8008723,9.67128028 96.9612553,10.9342561 C98.9183191,13.0622837 100.598277,15.449827 102.122362,17.9065744 C103.38666,19.9480969 104.373851,22.0934256 105.135894,24.3252595 C105.464957,25.3460208 105.794021,26.349481 106.088447,27.3529412 C106.538745,28.8754325 106.989043,30.4152249 107.24883,31.9723183 C107.24883,32.0069204 107.24883,32.0242215 107.266149,32.0588235 C107.889638,34.6193772 108.426532,37.1799308 108.87683,39.7750865 C109.915979,45.6574394 110.574106,51.6089965 110.833894,57.5778547 C111.128319,64.1522491 110.816574,70.7093426 111.578617,77.266436 L111.907681,80.1384083 C114.626787,104.065744 129.451979,126.678201 148.780149,136.401384 C160.799638,143.148789 172.109043,143.581315 184.267085,142.439446 L182.361979,140.553633 C182.171468,140.380623 181.963638,140.190311 181.755809,140.017301 C175.884617,134.792388 167.121128,125.709343 161.821468,114.238754 C153.300447,95.8131488 156.746957,67.1107266 154.149085,48.9273356 C151.551213,30.7266436 144.588915,17.3183391 143.844191,16.2110727 C143.047511,15.0346021 142.406702,13.9100346 143.376574,13.1314879 C144.363766,12.3356401 145.004574,12.8892734 146.909681,14.550173 C150.234957,17.4394464 161.405809,27.3183391 169.147468,45.5017301 C173.875596,56.6089965 172.76717,70.1557093 181.686532,85.899654 C186.293426,94.0311419 196.338532,100.986159 205.898702,106.15917 C206.037255,105.934256 206.175809,105.692042 206.279723,105.50173 C208.028957,102.214533 209.033468,98.1487889 209.605,94.7058824 C210.21117,92.0415225 210.470957,89.6193772 210.367043,87.5778547 C210.367043,87.5778547 279.660957,94.2041522 320.326319,130.813149 C360.993413,167.422145 371.054106,207.820069 372.231809,220.346021 C372.231809,220.346021 387.022362,218.079585 390.797936,212.577855 C390.797936,212.577855 390.72866,219.100346 387.888319,227.128028 C385.046247,235.17301 375.903468,238.062284 376.613553,238.287197 C377.323638,238.529412 379.211426,244.204152 379.211426,248.685121 C379.211426,253.183391 379.679043,256.955017 382.987,259.083045 C386.294957,261.211073 389.376034,264.031142 389.376034,265.692042 C389.376034,267.352941 387.715128,271.83391 387.005043,274.429066 C387.005043,274.429066 395.526064,284.117647 397.879736,296.645329 C397.879736,296.645329 390.797936,299.479239 387.247511,301.366782 C387.247511,301.366782 387.247511,308.461938 383.229468,319.792388 C383.229468,319.792388 388.667681,321.211073 390.797936,321.676471 C392.928191,322.145329 397.188702,325.934256 397.879736,330.17301 C398.591553,334.429066 399.544106,340.813149 399.301638,344.361592 Z M403.839255,329.342561 C402.748149,322.750865 396.773043,316.989619 392.11246,315.951557 C391.785128,315.882353 391.352149,315.795848 390.884532,315.676471 C392.096872,311.314879 392.683991,307.83564 392.978417,305.397924 C395.664617,304.16955 398.801115,302.889273 400.150277,302.351211 L404.739851,300.50173 L403.821936,295.657439 C401.932417,285.657439 396.686447,277.387543 393.688502,273.304498 C394.765753,269.896194 395.40483,267.681661 395.40483,265.797578 C395.40483,261.955017 392.322021,258.027682 386.260319,254.134948 C385.775383,253.82526 385.22117,252.941176 385.22117,248.771626 C385.22117,248.702422 385.151894,244.792388 384.130064,240.813149 C387.420702,238.581315 391.540928,234.913495 393.569,229.204152 C395.59534,223.460208 396.357383,218.373702 396.651809,215.415225 C396.807681,213.806228 396.5808,209.948097 396.5808,209.948097 L395.959043,202.508651 C395.959043,202.508651 392.218106,205.484429 390.14154,207.076125 C389.585596,207.491349 389.169936,207.802768 388.943055,207.941176 C388.64863,208.16609 388.321298,208.373702 388.009553,208.564014 C386.483736,209.480969 384.788191,210.207612 384.060787,210.588235 C382.431055,211.470588 379.956149,212.404844 377.235311,213.16609 C373.322915,192.941176 358.98266,157.560554 324.309723,126.349481 C282.605213,88.8062284 213.725226,81.8512111 210.81734,81.5570934 L204.357298,80.9515571 C204.357298,80.9515571 204.218745,90.6228374 203.610843,93.3737024 L203.543298,93.6851211 C203.318149,95.017301 203.058362,96.2802768 202.744885,97.4567474 C194.901043,92.5605536 189.428191,87.5951557 186.778362,82.9065744 C181.877043,74.2560554 180.283681,66.3148789 178.759596,58.650519 C177.685809,53.2179931 176.64666,48.0622837 174.533723,43.0795848 C168.956957,30 160.938191,18.8408304 150.702574,9.93079585 C148.849426,8.33910035 146.961638,6.67820069 144.052021,6.67820069 C142.891638,6.67820069 141.159723,6.97231834 139.410489,8.37370242 C138.163511,9.39446367 134.422574,13.16609 138.596489,19.3425606 C138.665766,19.4463668 145.472191,31.8858131 148.018106,49.7058824 C148.866745,55.5709343 149.039936,62.8027682 149.230447,70.449827 C149.611468,85.9342561 150.061766,103.460208 156.192745,116.747405 C158.894532,122.577855 162.375681,127.820069 166.012702,132.370242 C166.376404,132.820069 167.761936,134.273356 168.004404,134.567474 C168.627894,135.294118 169.268702,136.020761 169.892191,136.712803 C163.189681,136.141869 157.439723,134.377163 151.724404,131.176471 L151.481936,131.038062 C133.885681,122.179931 120.376745,101.453287 117.882787,79.4463668 L117.553723,76.5743945 C117.086106,72.6816609 117.051468,68.7370242 116.999511,64.567474 C116.982191,62.1972318 116.947553,59.7577855 116.843638,57.3010381 C116.566532,51.1418685 115.891085,44.8961938 114.799979,38.7370242 C114.349681,36.1418685 113.795468,33.5294118 113.189298,30.9688581 L113.13734,30.7785467 C112.808277,28.8927336 112.288702,27.1107266 111.855723,25.6747405 C111.543979,24.5847751 111.197596,23.5121107 110.833894,22.4394464 C109.933298,19.7404844 108.738277,17.1626298 107.24883,14.7577855 C105.274447,11.5570934 103.403979,9.04844291 101.377638,6.85121107 C99.7842766,5.12110727 98.2255532,3.71972318 96.6321915,2.59515571 L96.3897234,2.43944637 C95.7142766,1.98961938 93.8784468,0.98615917 91.5923191,0.98615917 C90.3799787,0.98615917 89.2195957,1.26297578 88.1631277,1.816609 L87.4876809,2.23183391 C84.8378511,4.10034602 83.2444894,8.20069204 85.6345319,13.1141869 L85.8596809,13.5294118 C85.9116383,13.615917 86.0328723,13.8581315 86.1887447,14.2041522 C86.3272979,14.532872 86.4658511,14.9307958 86.6044043,15.3633218 C86.7256383,15.7439446 86.812234,16.1764706 86.9161489,16.7647059 C87.7128298,21.0380623 88.4575532,31.2283737 84.5780638,51.6782007 L84.370234,52.733564 C83.9372553,56.366782 83.556234,59.1176471 83.1232553,61.6782007 C81.460617,71.4705882 79.711383,83.1487889 79.4169574,95.6401384 C79.4169574,96.0207612 79.4342766,96.816609 79.4515957,97.4740484 L79.4689149,98.0622837 C79.3823191,106.33218 80.646617,178.010381 151.464617,202.871972 L151.516574,202.889273 L151.291426,202.975779 C148.070064,223.581315 147.844915,236.280277 148.052745,242.474048 C132.69066,248.49481 117.571043,255.726644 103.144191,263.979239 C80.5600213,276.33218 59.6038511,291.712803 40.8472128,309.67128 C37.0543191,313.320069 33.4172979,316.974048 29.7456383,320.847751 C28.8796809,321.747405 28.0310426,322.647059 27.2863191,323.461938 L27.0438511,323.719723 C17.7607872,333.704152 9.37831915,344.117647 2.12159574,354.67128 C1.89644681,355 1.23831915,356.055363 0.978531915,356.678201 C0.147212766,358.579585 -0.73606383,362.231834 0.995851064,364.152249 C2.035,365.311419 4.07865957,366.297578 7.94082979,364.653979 C8.13134043,364.602076 8.87606383,364.307958 9.15317021,364.152249 C9.89789362,363.737024 11.0063191,363.044983 11.3700213,362.766436 C34.8201489,344.844291 88.6827021,334.946367 104.408489,334.031142 C117.588362,333.252595 130.664319,331.33045 135.513681,330.570934 C138.146191,331.818339 143.289979,333.980969 149.091894,335.259516 C151.551213,335.795848 154.201043,336.072664 156.989426,336.072664 C159.414106,336.072664 161.682915,335.866782 163.62266,335.588235 C167.640702,348.269896 175.642149,356.972318 179.798745,360.865052 C179.538957,368.512111 180.837894,382.856401 186.570532,392.16263 C191.246702,399.792388 197.931894,405.622837 201.655511,408.531142 C201.655511,412.179931 201.967255,418.046713 203.803085,423.010381 C205.431085,427.456747 208.18483,431.487889 210.228489,434.133218 C209.431809,436.262976 208.635128,439.084775 208.444617,442.249135 C208.219468,445.811419 209.050787,448.685121 210.089936,450.83045 C209.18934,452.456747 208.340702,454.411765 208.011638,456.366782 C207.56134,459.048443 208.115553,461.972318 208.739043,464.115917 C208.115553,465.484429 207.457426,467.231834 207.091991,468.892734 C206.608787,471.280277 207.007128,473.66782 207.507651,475.449827 C205.656234,480.83045 203.628162,491.539792 210.505596,497.33737 C212.583894,499.083045 215.079583,500 217.710362,500 C222.992702,500 227.286119,496.245675 229.34883,494.065744 C232.414319,492.629758 236.084247,489.82699 238.166009,486.607266 C239.740319,484.16782 240.502362,481.816609 240.883383,480.036332 C242.268915,478.650519 244.033736,476.539792 245.627098,473.512111 C246.979723,470.953287 247.585894,468.754325 247.845681,467.093426 C250.841894,463.512111 257.475128,454.723183 260.348374,443.771626 L261.025553,440.743945 C261.09483,440.382353 261.164106,440 261.214332,439.602076 C262.790374,429.66955 261.510489,420.397924 260.696489,416.072664 C263.034574,411.885813 267.624149,402.352941 268.178362,391.297578 C273.252872,387.923875 282.102957,382.474048 292.910106,377.577855 C293.325766,384.186851 293.448732,390.986159 291.437979,401.297578 C288.96134,413.892734 279.764872,424.307958 275.14066,428.875433 C273.531711,430.449827 269.563894,434.948097 269.563894,434.948097 C269.563894,434.948097 268.04154,436.228374 268.335966,438.84083 C268.351553,438.99654 268.474519,439.446367 268.594021,439.775087 C268.645979,439.894464 268.923085,440.294118 269.044319,440.397924 C271.243851,442.525952 277.288234,441.747405 277.288234,441.747405 C303.318915,438.961938 320.948077,417.110727 328.449,399.065744 C333.12517,387.820069 337.351043,372.820069 339.860587,363.66782 C354.947298,360.934256 368.906532,359.567474 378.380106,358.634948 C382.605979,358.217993 385.948574,357.889273 388.148106,357.543253 C393.915383,356.695502 404.653255,355.086505 405.328702,344.913495 C405.553851,341.678201 405.068915,336.731834 403.839255,329.342561 L403.839255,329.342561 Z" id="Fill-26" fill="#FFFFFE" mask="url(#mask-2)"></path>
                </g>
            </g>
        </g>
    </g>
</svg>