<?xml version="1.0" encoding="UTF-8" standalone="no"?>
<svg width="500px" height="500px" viewBox="0 0 500 500" version="1.1" xmlns="http://www.w3.org/2000/svg" xmlns:xlink="http://www.w3.org/1999/xlink">
    <!-- Generator: Sketch 39.1 (31720) - http://www.bohemiancoding.com/sketch -->
    <title>NE</title>
    <desc>Created with Sketch.</desc>
    <defs></defs>
    <g id="100x100-NFL" stroke="none" stroke-width="1" fill="none" fill-rule="evenodd">
        <g id="NE">
            <g transform="translate(0.000000, 130.000000)">
                <path d="M493.185088,29.2188596 C430.321053,44.0653509 427.575439,7.65745614 333.027193,0.982017544 C205.772807,-8.00482456 98.8342105,47.4381579 13.3736842,54.547807 C-5.19210526,56.0872807 -2.78421053,71.5434211 10.5578947,74.1618421 C42.7684211,81.679386 76.0052632,80.7232456 106.42193,76.6486842 C105.404386,79.0960526 104.37807,82.8723684 107.777193,85.7714912 C119.825439,96.0127193 168.259649,96.8899123 189.522807,95.6662281 C196.742105,95.2539474 212.154386,93.797807 212.154386,93.797807 C207.759649,94.2100877 200.891228,107.604825 215.413158,111.376754 C305.158772,136.503947 347.382456,177.078509 395.85614,240.982018 C415.553509,238.464474 434.097368,214.767105 426.19386,196.675 L430.123684,186.960088 L444.632456,180.245175 L440.474561,147.832895 L462.588596,137.416228 C462.588596,137.416228 497.040351,44.8372807 499.057895,38.1004386 C501.075439,31.3548246 496.9,28.3416667 493.185088,29.2188596" id="Fill-1" fill="#FFFFFF"></path>
                <path d="M244.161842,41.9614035 C181.942544,45.6368421 107.280263,80.8035088 12.2188596,65.1280702 C96.4732456,53.7552632 160.705702,25.8868421 239.052193,14.7903509 L244.161842,41.9614035 Z" id="Fill-4" fill="#C60C30"></path>
                <path d="M254.544737,77.9359649 C279.768421,75.2254386 302.014035,76.0850877 326.259649,90.8701754 C275.689474,85.3833333 250.926316,99.5105263 219.404386,102.650877 C330.768421,131.874561 371.540351,194.32193 399.154386,228.927193 C418.457018,220.725439 419.496491,203.949123 414.584211,197.966667 L419.553509,187.308772 L419.781579,180.471053 L433.088596,174.247368 L428.87807,141.089474 L453.794737,130.887719 L486.807895,40.5192982 C430.873684,52.1245614 412.750877,15.9535088 333.17193,11.0192982 C300.755263,9.00614035 271.562281,10.4973684 244.154386,14.0894737 L248.619298,41.7561404 C266.939474,41.1245614 284.180702,43.4535088 300.540351,50.8964912 C282.553509,49.7824561 266.369298,51.2736842 250.579825,54.2035088 L254.544737,77.9359649 Z" id="Fill-6" fill="#002244"></path>
                <path d="M250.869298,78.3214912 C216.448246,82.3785088 176.522807,92.0013158 118.917544,81.1460526 C168.566667,79.7951754 205.733333,63.1767544 246.641228,55.0100877 L250.869298,78.3214912 Z" id="Fill-8" fill="#C60C30"></path>
                <path d="M340.456579,154.189035 C370.557456,175.267982 386.017982,198.623246 401.706579,219.066228 C409.684649,215.750439 412.184649,206.491667 409.561842,203.219737 L401.965351,193.86886 L410.605702,194.377632 L414.570614,187.487281 L403.829386,186.851316 L391.728509,189.035526 L404.000439,180.632018 L413.342544,181.180263 L413.689035,175.860088 L404.140789,171.289912 L407.421491,167.702193 L425.079386,168.80307 L420.004825,129.487281 C413.026754,128.636404 407.158333,132.294298 404.623246,142.386404 L373.329386,140.544298 C377.732895,130.561842 384.592544,126.070614 397.610088,127.728509 C390.307456,117.500439 354.719737,116.55307 349.693421,132.601316 L377.320614,155.241667 L380.895175,175.934649 L369.544298,159.460965 C359.338158,150.627632 348.61886,144.430263 340.456579,154.189035" id="Fill-10" fill="#A5ACAF"></path>
                <polygon id="Fill-12" fill="#FFFFFF" points="433.053947 52.797807 435.277632 72.5434211 457.501316 80.8855263 436.650439 86.1135965 438.711842 112.732018 420.68114 90.2364035 393.716228 96.5872807 410.378509 77.1881579 396.637281 58.9820175 419.650439 66.8811404"></polygon>
            </g>
        </g>
    </g>
</svg>