<?xml version="1.0" encoding="UTF-8" standalone="no"?>
<svg width="500px" height="500px" viewBox="0 0 500 500" version="1.1" xmlns="http://www.w3.org/2000/svg" xmlns:xlink="http://www.w3.org/1999/xlink">
    <!-- Generator: Sketch 39.1 (31720) - http://www.bohemiancoding.com/sketch -->
    <title>NFL_alt</title>
    <desc>Created with Sketch.</desc>
    <defs></defs>
    <g id="NFL" stroke="none" stroke-width="1" fill="none" fill-rule="evenodd">
        <g id="NFL_alt">
            <g id="NFC" transform="translate(0.000000, 61.000000)">
                <path d="M281.474059,2.09016736 L281.474059,85.5776151 L201.463598,2.09016736 L-0.000836820084,2.09016736 L-0.000836820084,103.171757 L35.3527197,110.606904 L35.3527197,274.52113 L1.36527197,282.958368 L1.36527197,378.611088 L232.392469,378.611088 L232.392469,295.918619 L314.18954,378.661297 L468.877824,378.661297 L468.877824,110.115272 L499.310879,102.926987 L499.310879,2.09016736 L281.474059,2.09016736 Z M324.610042,95.740795 L299.951046,88.2679916 L299.951046,20.5692469 L480.835983,20.5692469 L480.835983,88.3035565 L450.400837,95.489749 L450.400837,360.161297 L321.902929,360.161297 L184.877824,221.713598 L184.877824,289.04205 L213.913389,297.558787 L213.913389,360.132008 L19.8422594,360.132008 L19.8422594,297.410251 L53.8297071,288.968828 L53.8297071,95.6069038 L18.4761506,88.1738494 L18.4761506,20.5692469 L193.576569,20.5692469 L324.610042,157.29728 L324.610042,95.740795 Z" id="Fill-1" fill="#FFFFFF"></path>
                <path d="M311.453138,231.764017 L320.513808,260.366527 L296.059833,241.849791 L271.620502,259.404184 L281.080753,231.441841 L258.061925,212.925105 L286.674895,212.925105 L296.059833,186.163598 L305.411297,212.925105 L335.162343,212.925105 L311.453138,231.764017 Z M368.735565,255.527615 L378.101674,282.362343 L407.900837,282.362343 L384.160251,301.094561 L393.220921,329.766109 L368.735565,311.199163 L344.30251,328.776569 L353.835983,300.835146 L330.783682,282.362343 L359.382008,282.362343 L368.735565,255.527615 Z M223.306695,172.418828 L198.833891,189.996234 L208.304603,162.058996 L185.331799,143.561088 L213.913389,143.561088 L223.306695,116.755649 L232.587029,143.561088 L262.417573,143.561088 L238.691632,162.29749 L247.68954,190.962762 L223.306695,172.418828 Z M165.938494,92.9062762 L175.007531,121.567364 L150.543096,103.050628 L126.103766,120.657322 L135.589121,92.6280335 L112.578661,74.1635983 L141.168619,74.1635983 L150.543096,47.4083682 L159.865272,74.1635983 L189.71046,74.1635983 L165.938494,92.9062762 Z M299.951046,88.2682008 L324.610042,95.7410042 L324.610042,157.295397 L193.578661,20.567364 L18.4761506,20.567364 L18.4761506,88.1740586 L53.8297071,95.607113 L53.8297071,288.97113 L19.8422594,297.41046 L19.8422594,360.132218 L213.913389,360.132218 L213.913389,297.558996 L184.877824,289.042259 L184.877824,221.713808 L321.902929,360.159414 L450.400837,360.159414 L450.400837,95.4899582 L480.835983,88.3037657 L480.835983,20.567364 L299.951046,20.567364 L299.951046,88.2682008 Z" id="Fill-2" fill="#003B66"></path>
                <polygon id="Fill-3" fill="#FFFFFF" points="159.865272 74.1625523 150.543096 47.4073222 141.168619 74.1625523 112.578661 74.1625523 135.589121 92.6269874 126.103766 120.656276 150.543096 103.049582 175.007531 121.566318 165.938494 92.9052301 189.71046 74.1625523"></polygon>
                <polygon id="Fill-4" fill="#FFFFFF" points="262.416527 143.561715 232.588075 143.561715 223.305649 116.756276 213.914435 143.561715 185.332845 143.561715 208.305649 162.057531 198.834937 189.996862 223.305649 172.419456 247.690586 190.961297 238.690586 162.298117"></polygon>
                <polygon id="Fill-5" fill="#FFFFFF" points="296.058996 186.163808 286.676151 212.925314 258.06318 212.925314 281.082008 231.44205 271.619665 259.404393 296.058996 241.85 320.512971 260.366736 311.452301 231.764226 335.161506 212.925314 305.412552 212.925314"></polygon>
                <polygon id="Fill-6" fill="#FFFFFF" points="353.835565 300.83431 344.302092 328.775732 368.735146 311.198326 393.220502 329.765272 384.159833 301.093724 407.90251 282.361506 378.103347 282.361506 368.735146 255.52887 359.38159 282.361506 330.783264 282.361506"></polygon>
            </g>
        </g>
    </g>
</svg>