<?xml version="1.0" encoding="UTF-8" standalone="no"?>
<svg width="500px" height="500px" viewBox="0 0 500 500" version="1.1" xmlns="http://www.w3.org/2000/svg" xmlns:xlink="http://www.w3.org/1999/xlink">
    <!-- Generator: Sketch 45.1 (43504) - http://www.bohemiancoding.com/sketch -->
    <title>NO</title>
    <desc>Created with Sketch.</desc>
    <defs></defs>
    <g id="Page-1" stroke="none" stroke-width="1" fill="none" fill-rule="evenodd">
        <g id="NO">
            <g id="sai-mark-1-web" transform="translate(45.000000, 0.000000)">
                <path d="M365.661429,199.130631 C329.00022,177.833333 292.915714,182.761261 265.549341,194.95045 C264.341868,185.954955 261.994505,176.081081 258.074725,164.527027 C252.271648,147.342342 245.90989,130.918919 240.305055,116.423423 C232.934066,97.3873874 227.324725,81.0765766 224.247473,70.1666667 L204.301648,1.81981982 L183.594396,70.2117117 C180.431538,81.0765766 174.970879,97.472973 167.64044,116.527027 C162.067143,131.031532 155.75044,147.472973 149.983407,164.657658 C146.108681,176.22973 143.765824,186.112613 142.585385,195.121622 C115.187473,182.986486 79.0849451,178.130631 42.4732967,199.509009 C12.5432967,217.009009 -3.48274725,247.414414 0.63978022,278.873874 C4.40186813,307.495495 23.9782418,329.981982 51.7140659,337.603604 L72.3717582,343.274775 L77.4269231,322.468468 C78.1523077,319.644144 85.6043956,293.594595 109.069011,294.067568 C125.347363,294.405405 138.859341,308.788288 145.617582,318.09009 C143.432418,324.666667 142.27,332.54955 143.382857,341.040541 L134.191648,328.788288 L117.570879,341.175676 C102.603626,352.31982 80.8691209,379.864865 94.3,412.373874 C100.157143,426.54955 112.75,436.207207 129.753736,439.594595 C140.152418,441.662162 151.965824,441.18018 162.914176,438.774775 C167.221429,452.599099 175.074505,469.324324 189.356923,484.261261 L204.423297,500 L219.44011,484.225225 C233.695495,469.252252 241.499011,452.5 245.792747,438.671171 C256.745604,441.036036 268.55,441.495495 278.948681,439.400901 C295.943407,435.986486 308.509231,426.292793 314.339341,412.103604 C327.698132,379.558559 305.882527,352.063063 290.901758,340.954955 L274.249451,328.617117 L265.08978,340.882883 C266.189121,332.391892 264.99967,324.518018 262.800989,317.927928 C269.541209,308.621622 283.017143,294.202703 299.290989,293.833333 C322.76011,293.306306 330.261758,319.337838 331.045714,322.310811 L336.141429,343.108108 C336.10989,342.95045 356.74956,337.234234 356.74956,337.234234 C384.480879,329.558559 403.98967,307.013514 407.684176,278.373874 C411.734615,246.923423 395.631978,216.54955 365.661429,199.130631" id="Fill-1" fill="#0A0B09"></path>
                <path d="M197.426264,73.1351351 C194.898681,85.036036 188.383736,101.972973 180.837033,121.599099 C175.308791,135.968468 169.050659,152.252252 163.387253,169.144144 C157.953626,185.373874 155.736923,197.468468 155.736923,208.747748 C155.736923,212.355856 156.151429,215.882883 156.574945,219.427928 C135.682967,205.085586 94.5162637,185.477477 49.619011,211.711712 C24.6810989,226.292793 11.2862637,251.310811 14.6563736,277.027027 C17.657033,299.900901 33.2910989,317.900901 55.4626374,323.990991 L62.0406593,325.792793 L63.6761538,319.153153 C64.0861538,317.527027 73.9621978,279.238739 109.352857,279.95045 C137.836593,280.522523 156.453297,308.207207 161.481429,316.716216 C159.089011,321.13964 157.102088,327.238739 157.102088,334.238739 C157.102088,341.743243 159.656703,350.279279 166.176154,358.837838 C163.576484,362.36036 159.318791,366.68018 154.349231,367.09009 C147.262088,367.671171 140.089341,360.211712 135.322527,353.842342 L131.344176,348.536036 L126.023187,352.504505 C115.137912,360.617117 97.2150549,382.436937 107.356923,406.981982 C111.416374,416.792793 120.111978,423.274775 132.506593,425.738739 C145.32022,428.279279 161.494945,425.968468 172.983956,420.734234 C175.20967,433.693694 181.512857,455.626126 199.575385,474.495495 L204.396264,479.536036 L209.203626,474.486486 C227.221099,455.563063 233.474725,433.612613 235.668901,420.644144 C247.175934,425.851351 263.373187,428.130631 276.186813,425.545045 C288.558901,423.054054 297.236484,416.545045 301.264396,406.734234 C311.334176,382.171171 293.384286,360.387387 282.480989,352.301802 L277.155495,348.351351 L273.186154,353.675676 C268.428352,360.045045 261.269121,367.531532 254.177473,366.959459 C249.212418,366.554054 244.945714,362.252252 242.337033,358.743243 C248.811429,350.198198 251.348022,341.693694 251.348022,334.207207 C251.348022,327.166667 249.343077,321.045045 246.928132,316.608108 C251.938242,308.094595 270.500879,280.346847 298.971099,279.711712 C334.357253,278.918919 344.332418,317.189189 344.737912,318.81982 L346.391429,325.432432 L352.969451,323.630631 C375.118462,317.490991 390.711978,299.463964 393.658571,276.581081 C396.974615,250.855856 383.525714,225.86036 358.556264,211.342342 C313.568901,185.189189 272.42022,204.936937 251.577802,219.333333 C251.965275,215.882883 252.366264,212.459459 252.366264,208.941441 C252.366264,197.540541 250.163077,185.247748 244.684396,169.036036 C238.984945,152.175676 232.690769,135.918919 227.135495,121.572072 C219.539231,101.959459 212.988242,85.0225225 210.433626,73.1216216 L203.891648,42.6081081 L197.426264,73.1351351" id="Fill-3" fill="#FFFFFE"></path>
                <path d="M204.423297,469.896396 C229.901868,443.13964 230.208242,409.391892 230.208242,409.391892 C241.480989,420.626126 285.287912,428.13964 295.10989,404.211712 C305.882527,377.941441 278.520659,357.644144 278.520659,357.644144 C252.001319,393.184685 234.209121,358.400901 234.209121,358.400901 C254.402747,336.581081 239.250769,316.90991 239.250769,316.90991 C240.570879,312.959459 262.967692,273.869369 298.826923,273.067568 C340.155824,272.135135 351.198791,317.225225 351.198791,317.225225 C394.537143,305.216216 402.908352,244.810811 355.217692,217.094595 C294.69989,181.914414 241.972088,235.509009 241.972088,235.509009 C246.878571,215.45045 248.275275,200.459459 238.381209,171.166667 C224.968352,131.45045 208.527802,95.963964 203.932198,74.518018 C199.377143,95.9684685 183.008681,131.513514 169.694945,171.256757 C159.877473,200.576577 161.319231,215.567568 166.252747,235.608108 C166.252747,235.608108 113.403297,182.144144 52.9710989,217.459459 C5.33901099,245.292793 13.8543956,305.666667 57.2197802,317.576577 C57.2197802,317.576577 68.1546154,272.463964 109.488022,273.306306 C145.356264,274.018018 167.834176,313.054054 169.163297,316.995495 C169.163297,316.995495 154.056374,336.711712 174.304066,358.477477 C174.304066,358.477477 156.583956,393.31982 129.997033,357.837838 C129.997033,357.837838 102.662198,378.193694 113.506923,404.436937 C123.391978,428.342342 167.171868,420.725225 178.417582,409.463964 C178.417582,409.463964 178.805055,443.211712 204.333187,469.905405" id="Fill-4" fill="#0A0B09"></path>
                <path d="M312.83,215.207207 C263.58044,215.256757 223.197692,271.175676 223.197692,271.175676 C224.95033,262.027027 246.004505,220.86036 226.950769,171.657658 C207.897033,122.459459 204.008791,102.63964 204.008791,102.63964 L203.918681,103.202703 L203.918681,102.653153 C203.918681,102.653153 200.066484,122.477477 181.12989,171.72973 C162.188791,220.977477 183.346593,262.099099 185.112747,271.22973 C185.112747,271.22973 144.599341,215.414414 95.3497802,215.477477 C46.1092308,215.531532 5.10923077,271.563063 50.6147253,304.653153 C50.6147253,304.653153 63.932967,263.310811 109.83044,263.225225 C143.585604,263.153153 177.403846,299.355856 178.836593,317.297297 C178.836593,317.297297 163.382747,339.112613 184.869451,357.369369 C184.869451,357.369369 161.657143,406.189189 129.474396,371.022523 C129.474396,371.022523 104.725714,401.977477 137.088681,409.472973 C162.765495,415.40991 188.054835,389.369369 188.054835,389.369369 C188.054835,389.369369 185.297473,430.504505 204.315165,452.986486 L204.315165,452.783784 L204.40978,452.977477 C223.377912,430.454955 220.521429,389.315315 220.521429,389.315315 C220.521429,389.315315 245.873846,415.301802 271.550659,409.297297 C303.891099,401.72973 279.065824,370.828829 279.065824,370.828829 C246.973187,406.067568 223.657253,357.310811 223.657253,357.310811 C245.085385,339 229.577473,317.225225 229.577473,317.225225 C230.965165,299.297297 264.688791,263.004505 298.457473,262.995495 C344.363956,262.995495 357.776813,304.292793 357.776813,304.292793 C403.205714,271.099099 362.070549,215.144144 312.83,215.207207" id="Fill-5" fill="#CBB686"></path>
            </g>
        </g>
    </g>
</svg>