<?xml version="1.0" encoding="UTF-8" standalone="no"?>
<svg width="500px" height="500px" viewBox="0 0 500 500" version="1.1" xmlns="http://www.w3.org/2000/svg" xmlns:xlink="http://www.w3.org/1999/xlink">
    <!-- Generator: Sketch 39.1 (31720) - http://www.bohemiancoding.com/sketch -->
    <title>NYG_alt</title>
    <desc>Created with Sketch.</desc>
    <defs></defs>
    <g id="NFL" stroke="none" stroke-width="1" fill="none" fill-rule="evenodd">
        <g id="NYG_alt" fill="#FFFFFF">
            <g id="NYG" transform="translate(3.000000, 58.000000)">
                <path d="M285.593478,118.400725 L285.593478,167.567391 C285.644203,154.183333 285.622464,135.545652 285.593478,118.400725" id="Fill-1"></path>
                <path d="M492.965942,300.697101 L492.77029,3.26231884 L410.255797,3.26231884 L410.255797,176.392754 C410.255797,178.486957 410.219565,180.581159 410.118116,182.602899 C410.081884,183.407246 410.023913,184.218841 409.958696,185.008696 C409.168841,191.298551 405.35,196.675362 399.922464,199.791304 C396.77029,201.610145 393.08913,202.668116 389.147101,202.668116 C377.784783,202.668116 368.168841,193.994203 368.212319,183.233333 L368.313768,3.26231884 L254.342754,3.26231884 L254.342754,70.6898551 L275.364493,70.6898551 C281.00942,70.6898551 285.596377,75.284058 285.596377,80.9362319 L285.596377,118.4 C285.618116,135.544928 285.647101,154.189855 285.596377,167.566667 L285.596377,212.791304 C286.92971,234.494203 299.842754,254.349275 316.234058,263.66087 C332.726812,276.689855 372.77029,282.682609 394.386232,275.066667 C394.386232,275.066667 404.364493,271.921739 409.987681,268.153623 L409.987681,273.595652 L409.987681,284.9 C409.987681,288.885507 409.683333,291.385507 408.58913,294.47971 C405.85,300.414493 399.828261,303.523188 390.27029,303.747826 L37.734058,303.733333 L37.734058,382.117391 L419.828261,382.117391 C431.458696,381.515942 442.393478,380.218841 451.61087,377.631884 C464.19058,373.769565 492.987681,360.291304 492.987681,317.631884 C492.987681,317.008696 492.980435,301.327536 492.965942,300.697101" id="Fill-3"></path>
                <path d="M267.804348,207.580435 L250.297101,207.580435 C244.637681,207.580435 240.050725,203.000725 240.050725,197.341304 L240.050725,195.928261 C240.050725,195.783333 240.043478,195.652899 240.043478,195.500725 C240.043478,193.102174 240.050725,190.667391 240.050725,188.21087 L240.050725,139.036957 C240.043478,133.080435 240.043478,129.406522 240.043478,129.406522 L240.050725,113.921014 L240.050725,55.4862319 C239.934783,53.7688406 239.637681,51.1818841 238.971014,48.0731884 C237.797101,42.7398551 235.478261,35.8630435 230.818841,29.065942 C221.094203,14.8992754 208.768116,7.17463768 192.130435,2.84855072 C165.847826,-3.78913043 137.536232,1.44275362 118.311594,16.1456522 L118.311594,3.26884058 L0.0217391304,3.26884058 L0,70.8992754 L27.5217391,70.8992754 C33.1884058,70.8992754 37.7681159,75.4862319 37.7681159,81.1384058 L37.7681159,272.942754 L118.347826,272.942754 L118.347826,93.7181159 L118.355072,91.834058 L118.362319,91.834058 C118.376812,81.0949275 127.463768,72.3992754 138.681159,72.3992754 C149.746377,72.3992754 158.746377,80.8775362 158.978261,91.4210145 L158.978261,237.616667 C158.978261,241.884783 159.782609,245.964493 161.195652,249.732609 C166.115942,262.986232 178.84058,272.435507 193.804348,272.435507 L269.391304,272.435507 L269.391304,207.587681 L267.804348,207.580435 Z" id="Fill-5"></path>
            </g>
        </g>
    </g>
</svg>