<?xml version="1.0" encoding="UTF-8" standalone="no"?>
<svg width="500px" height="500px" viewBox="0 0 500 500" version="1.1" xmlns="http://www.w3.org/2000/svg" xmlns:xlink="http://www.w3.org/1999/xlink">
    <!-- Generator: Sketch 39.1 (31720) - http://www.bohemiancoding.com/sketch -->
    <title>NYJ_alt</title>
    <desc>Created with Sketch.</desc>
    <defs></defs>
    <g id="NFL" stroke="none" stroke-width="1" fill="none" fill-rule="evenodd">
        <g id="NYJ_alt">
            <g id="NYJ" transform="translate(3.000000, 105.000000)">
                <g id="Group-3" transform="translate(0.000000, 0.085671)" stroke="#FFFFFF" stroke-width="4" fill="#FFFFFF">
                    <path d="M460.35095,74.940328 C438.540699,53.1345864 407.84763,34.6114295 371.572363,21.3683643 C333.272535,7.39032477 290.197628,0 247.009995,0 C186.796207,0 124.828402,15.9484922 76.9964525,43.7512637 C28.0642961,72.1943196 0,109.033217 0,144.826017 C0,167.655311 11.4574834,191.17449 33.1324627,212.853979 C55.2358013,234.957317 86.4338837,253.895306 123.353944,267.620839 C162.131731,282.031747 204.895514,289.656542 247.009995,289.656542 C290.197628,289.656542 333.272535,282.261708 371.572363,268.283669 C407.84763,255.045113 438.540699,236.521956 460.35095,214.711705 C482.382144,192.68502 494.019989,168.516539 494.019989,144.826017 C494.019989,121.135494 482.382144,96.9670129 460.35095,74.940328" id="Fill-1"></path>
                </g>
                <g id="Group" transform="translate(9.000000, 11.000000)">
                    <path d="M474.878165,133.994291 C474.878165,69.7235733 369.511135,0.843708268 237.582918,0.843708268 C111.284018,0.843708268 0.292264955,70.1417512 0.292264955,133.994291 C0.292264955,197.851427 111.284018,267.154065 237.582918,267.154065 C369.511135,267.154065 474.878165,198.2742 474.878165,133.994291" id="Fill-4" fill="#2A433A"></path>
                    <path d="M329.368359,64.7247397 L329.368359,78.7176137 L351.499617,78.7176137 L351.646669,78.7176137 L351.793721,78.7038277 C352.99311,78.6211112 354.955329,78.9381911 355.378102,79.6596627 C355.782494,80.3259901 355.640038,82.7431499 352.579527,87.5453021 C352.538169,87.6142325 331.114596,123.288019 323.150836,136.545636 L291.778307,86.3551036 C289.186523,82.361735 289.489817,80.7717401 289.797706,80.1927246 C290.362936,79.1311962 291.236054,78.8370931 293.046626,78.7130184 L293.115557,78.7130184 C293.138534,78.7176137 293.202869,78.7176137 293.202869,78.7176137 L309.26825,78.7176137 L309.26825,64.7247397 L188.433235,64.715549 L188.433235,78.644088 L203.703619,78.644088 C206.823869,78.644088 208.960712,79.2644617 210.242818,80.5465674 C212.384256,82.6834102 212.820815,87.20065 212.820815,93.3170754 L212.820815,144.638066 L151.624394,64.7523119 L91.2689231,64.7523119 L91.2689231,79.3977272 L111.088715,79.3977272 C113.202581,79.3885364 114.668501,79.7883328 115.458903,80.5833303 C116.979967,82.0997994 116.979967,85.978284 116.979967,89.7280985 L116.993754,170.307753 C116.993754,183.648085 115.564596,187.315183 110.33048,187.347351 L91.1034901,187.347351 L91.1034901,200.25572 L155.815363,200.25572 L155.815363,187.200299 L137.548803,187.200299 C134.46072,187.232467 132.264138,187.085415 131.482927,186.313395 C129.782643,184.617706 129.640187,177.164031 129.640187,170.307753 L129.640187,99.3875472 L213.01382,200.38439 L226.078431,200.38439 C226.078431,200.38439 226.165743,87.9588846 226.069241,85.9690933 C225.922189,82.9085829 226.76314,79.4161086 232.213238,78.7176137 L245.199728,78.7176137 C251.21046,78.6946369 255.144089,85.9690933 259.192602,92.8253718 C259.192602,92.8253718 290.408889,145.910981 294.563095,152.937288 L294.563095,178.547235 C294.563095,187.237062 290.707588,187.237062 289.057853,187.237062 L274.421628,187.237062 L274.421628,200.292483 L351.228491,200.292483 L351.228491,187.112987 L337.21264,187.112987 C331.780924,186.818884 329.88304,185.256462 330.099022,177.182412 L330.099022,150.745301 L367.569595,87.8761681 C372.950762,79.5539694 373.511396,78.6900416 380.863974,78.7911395 L393.583933,78.7911395 L393.583933,64.7247397 L329.368359,64.7247397 Z" id="Fill-6" fill="#FFFFFF"></path>
                    <path d="M332.860833,68.2167545 L332.860833,75.2200845 L351.499617,75.2200845 C351.499617,75.2200845 365.308677,74.0758397 355.520558,89.4243452 L323.210576,143.226831 L288.814299,88.2019792 C279.885513,74.0344814 293.202869,75.2200845 293.202869,75.2200845 L305.780371,75.2200845 L305.780371,68.2167545 L191.925709,68.2075637 L191.925709,75.1511541 L203.703619,75.1511541 C215.017398,75.1511541 216.313289,82.4348012 216.313289,93.3166159 L216.313289,154.945001 L149.901133,68.2443266 L94.7613974,68.2443266 L94.7613974,75.9001979 L111.088715,75.9001979 C121.497207,75.8864119 120.366748,84.0891311 120.486228,92.0758684 L120.486228,170.307293 C120.486228,181.189108 120.026692,190.770435 110.353457,190.839366 L94.5959644,190.839366 L94.5959644,196.762786 L152.322888,196.762786 L152.322888,190.696909 L137.548803,190.696909 C127.664182,190.770435 126.143117,189.263157 126.143117,170.307293 L126.143117,88.8177575 L214.66815,196.891456 L221.905844,196.891456 L221.905844,92.5445953 C221.905844,81.6673759 222.10804,75.6382624 232.213238,75.2200845 L246.592123,75.2200845 C254.266375,75.7807186 258.342461,84.6589559 263.755796,93.9599664 L298.05557,151.985589 L298.05557,178.546775 C298.05557,186.800043 294.81584,190.729077 289.057853,190.729077 L277.918698,190.729077 L277.918698,196.799549 L347.736017,196.799549 L347.736017,190.605002 L337.102352,190.605002 C328.573362,190.163848 326.376779,185.779873 326.606547,177.090046 L326.606547,149.789006 L361.912705,90.1366261 C369.807535,78.294381 370.24869,75.1465588 380.914523,75.2982057 L390.091459,75.2982057 L390.091459,68.2167545 L332.860833,68.2167545 Z" id="Fill-8" fill="#2A433A"></path>
                    <path d="M291.314635,198.529243 C291.314635,182.734987 267.455521,165.810273 237.585675,165.810273 C208.984148,165.810273 183.852119,182.836085 183.852119,198.529243 C183.852119,214.2224 208.984148,231.248212 237.585675,231.248212 C267.455521,231.248212 291.314635,214.323498 291.314635,198.529243" id="Fill-10" fill="#2A433A"></path>
                    <path d="M287.719684,196.76876 C285.964256,183.253803 264.36606,169.426362 237.584296,169.426362 C211.955968,169.426362 189.314625,183.327329 187.458099,196.76876 L287.719684,196.76876 Z" id="Fill-12" fill="#FFFFFF"></path>
                    <path d="M187.454423,200.26583 C189.283376,213.711856 211.938506,227.631204 237.585215,227.631204 C264.38536,227.631204 285.992747,213.789977 287.725198,200.26583 L187.454423,200.26583 Z" id="Fill-14" fill="#FFFFFF"></path>
                    <path d="M219.452381,210.205136 C212.665032,210.205136 207.15979,204.975615 207.15979,198.528324 C207.15979,192.081032 212.665032,186.851511 219.452381,186.851511 L255.714374,186.851511 C262.506317,186.851511 268.006964,192.081032 268.006964,198.528324 C268.006964,204.975615 262.506317,210.205136 255.714374,210.205136 L219.452381,210.205136 Z" id="Fill-16" fill="#2A433A"></path>
                    <path d="M257.598931,193.325456 C257.525405,192.976208 257.438094,192.636152 257.346186,192.296095 L253.922642,192.2915 C254.037526,192.659129 254.147815,193.022162 254.239722,193.398982 C254.524635,194.492678 254.708449,195.623136 254.804952,196.781167 L248.67474,196.781167 C248.578238,195.710448 248.4174,194.644325 248.173846,193.674703 L244.865186,193.716062 C245.177671,194.699469 245.379866,195.733425 245.499346,196.781167 L239.300204,196.781167 L239.300204,193.872304 L235.867469,193.872304 L235.867469,196.781167 L229.663732,196.781167 C229.787807,195.733425 229.994598,194.699469 230.297892,193.716062 L226.989232,193.674703 C226.745678,194.644325 226.58484,195.710448 226.492933,196.781167 L220.358126,196.781167 C220.459224,195.623136 220.647634,194.492678 220.923356,193.398982 C221.024453,193.022162 221.125551,192.659129 221.240435,192.2915 L217.816892,192.296095 C217.724984,192.636152 217.642268,192.976208 217.564147,193.325456 C217.182732,195.030335 216.980536,196.80874 216.980536,198.628502 C216.980536,200.751559 217.256258,202.814876 217.770938,204.777095 L221.199077,204.818454 C220.748732,203.36632 220.454629,201.845255 220.335149,200.273642 L226.469956,200.273642 C226.557268,201.376528 226.731892,202.451843 226.989232,203.490394 L230.251938,203.449036 C229.944049,202.433461 229.741853,201.367338 229.63616,200.273642 L235.867469,200.273642 L235.867469,203.30658 L239.300204,203.30658 L239.300204,200.273642 L245.526918,200.273642 C245.421225,201.367338 245.219029,202.433461 244.91114,203.449036 L248.173846,203.490394 C248.431186,202.451843 248.60581,201.376528 248.693122,200.273642 L254.832524,200.273642 C254.708449,201.845255 254.414346,203.36632 253.964001,204.818454 L257.39214,204.777095 C257.90682,202.814876 258.182542,200.751559 258.182542,198.628502 C258.182542,196.80874 257.980346,195.030335 257.598931,193.325456" id="Fill-18" fill="#FFFFFF"></path>
                    <path d="M393.957076,110.780366 C390.386481,104.066544 380.993563,100.229417 366.798493,99.6917601 C356.357833,99.3517034 348.1689,99.893956 341.684846,101.548286 L170.797158,101.626407 C175.773934,92.3299919 179.53294,85.2990897 179.53294,85.2990897 L137.402671,85.2990897 L108.451897,139.767903 C106.103667,143.209828 105.781992,143.402833 103.374023,143.150088 C102.684719,143.081158 102.220587,142.98006 101.908103,142.892748 C102.335471,141.399256 104.058732,138.499583 104.683701,137.451841 C104.665319,137.479413 114.756732,120.876374 114.756732,120.876374 L75.4709912,120.876374 L74.2945788,122.498536 C63.4954806,137.359934 60.3017048,149.344635 64.8005631,158.107988 C69.1247978,166.52669 79.7354862,170.745231 96.3431206,170.639538 C113.088616,170.543035 123.634969,169.748038 132.026098,164.279558 L217.274639,164.279558 L239.24506,123.24758 L258.187137,123.24758 L236.327005,164.201437 L279.840478,164.201437 L293.516272,138.545537 L311.929883,138.545537 L310.983239,140.875385 C307.619435,149.137844 309.425412,154.615514 311.534682,157.754146 C315.652126,163.893548 324.511982,167.018393 337.861505,167.045965 C360.33282,167.004607 374.679537,164.936695 381.554197,154.477653 C387.234063,145.84297 388.07961,137.971117 383.943785,132.309632 C382.808731,130.719637 380.998158,129.327243 378.861316,128.127854 L391.259599,128.127854 L392.413035,126.271328 C396.764842,119.258807 395.652764,113.974142 393.957076,110.780366" id="Fill-20" fill="#2A433A"></path>
                    <path d="M383.925403,132.282519 C383.934594,132.29171 383.939189,132.300901 383.943785,132.310092 C383.952975,132.323878 383.966762,132.342259 383.975952,132.35145 L383.925403,132.282519 Z" id="Fill-22" fill="#2A433A"></path>
                    <path d="M107.765809,124.808624 L77.47319,124.808624 C57.1203364,152.821945 67.1060557,166.888344 96.3187652,166.713721 C122.925905,166.548288 132.263678,164.843409 143.36607,144.573272 L172.969386,89.23134 L139.767903,89.23134 L111.818918,141.806864 C109.204157,145.653182 107.724451,147.560256 102.963657,147.063957 C95.4364559,146.273555 97.4859869,141.862009 101.304732,135.44229 L107.765809,124.808624 Z" id="Fill-24" fill="#FFFFFF"></path>
                    <polygon id="Fill-26" fill="#FFFFFF" points="242.881828 160.270106 277.480301 160.270106 299.266907 119.65171 315.212809 119.65171 322.854895 105.479617 252.830785 105.479617 245.372514 119.316249 264.74196 119.316249"></polygon>
                    <path d="M314.621386,142.358767 C309.332126,155.349853 317.332649,163.074654 337.864722,163.111417 C360.087887,163.074654 372.545911,161.029719 378.267135,152.32151 C382.159406,146.39809 384.383561,139.551002 380.757821,134.610989 C378.257945,131.049584 369.310777,127.956906 360.832336,126.311767 C355.428191,125.259429 353.539498,123.963538 353.916318,120.778952 C354.26097,117.883875 357.859137,117.217548 360.556614,118.00795 C362.748601,118.6513 363.69065,121.367159 363.336808,124.197901 L389.070829,124.197901 C396.037396,112.980625 387.972538,104.433254 366.645468,103.619875 C340.245119,102.755947 330.195065,107.617839 324.864446,121.054674 C322.217518,127.285983 322.658673,132.08354 326.523371,134.610989 C331.3485,137.772597 344.688833,139.78077 348.659225,141.251285 C351.076385,142.147381 351.411846,145.106793 350.042428,146.848435 C348.461624,148.852012 344.688833,149.812443 342.29465,147.960512 C340.635725,146.673811 340.906851,145.093007 340.360003,142.358767 L314.621386,142.358767 Z" id="Fill-28" fill="#FFFFFF"></path>
                    <polygon id="Fill-30" fill="#FFFFFF" points="148.71553 160.348227 214.920895 160.348227 222.333212 146.511595 186.107982 146.511595 189.600456 139.866703 221.80015 139.866703 229.36871 125.758945 199.080686 125.758945 202.122815 119.39437 234.873952 119.39437 242.244911 105.557738 178.047719 105.557738"></polygon>
                </g>
            </g>
        </g>
    </g>
</svg>