<?xml version="1.0" encoding="UTF-8" standalone="no"?>
<svg width="500px" height="500px" viewBox="0 0 500 500" version="1.1" xmlns="http://www.w3.org/2000/svg" xmlns:xlink="http://www.w3.org/1999/xlink">
    <!-- Generator: Sketch 39.1 (31720) - http://www.bohemiancoding.com/sketch -->
    <title>OAK</title>
    <desc>Created with Sketch.</desc>
    <defs>
        <polygon id="path-1" points="0 499.491911 470.174542 499.491911 470.174542 0.0011144746 0 0.0011144746"></polygon>
    </defs>
    <g id="100x100-NFL" stroke="none" stroke-width="1" fill="none" fill-rule="evenodd">
        <g id="OAK">
            <g transform="translate(15.000000, 0.000000)">
                <path d="M235.586556,0 C171.755023,57.8523762 88.4090407,56.1193683 2.81739178,45.359116 C-15.6494523,255.047511 56.172863,462.011016 234.226897,499.490797 C413.986077,463.454261 484.972536,256.886394 467.642456,47.1032688 C387.963095,55.1386306 305.3861,58.3984688 235.586556,0" id="Fill-3" fill="#FFFFFF"></path>
                <path d="M242.13298,324.674869 C242.355874,324.803033 242.105118,325.031501 242.216565,325.103941 C242.328013,325.193099 242.511901,325.176382 242.656783,325.064935 C242.445032,325.031501 242.640065,324.875474 242.578769,324.791889 C242.46175,324.591283 242.272289,324.736165 242.13298,324.674869 L242.13298,324.674869 Z" id="Fill-1" fill="#000000"></path>
                <path d="M235.298464,20.441693 C182.087875,63.7167416 98.1679375,74.4547043 18.0260693,62.7415763 C6.07332931,253.957555 68.4449,440.804793 233.676904,483.918243 C399.137374,441.701945 463.247525,255.679418 452.336819,64.4021434 C370.57339,73.6077036 288.269442,64.0009326 235.298464,20.441693" id="Fill-6" fill="#000000"></path>
                <path d="M298.907102,350.039196 C296.967916,355.923622 293.942117,361.746752 292.175675,364.371339 C292.175675,364.371339 294.655381,368.8571 295.519099,373.253702 C308.363419,383.144664 322.539535,392.428237 358.615078,383.635033 C352.18456,381.667985 311.901875,361.596298 301.537262,351.811211 L298.907102,350.039196 Z" id="Fill-8" fill="#FFFFFF"></path>
                <path d="M166.029967,355.568105 C166.029967,355.568105 172.053703,365.124724 174.171204,366.333929 C174.171204,366.333929 176.76793,368.640892 175.798337,376.748694 C161.29345,387.598104 125.864303,391.994707 107.887828,384.93451 C107.887828,384.93451 151.246462,367.844042 163.232636,357.050356 L166.029967,355.568105 Z" id="Fill-10" fill="#FFFFFF"></path>
                <path d="M278.347832,352.139423 C277.511976,353.042148 276.787567,353.989451 275.873698,354.836452 C275.544928,355.142932 275.271882,355.689025 274.853954,356.001078 C273.845354,356.764493 272.948202,357.472184 271.861589,358.168731 C270.752687,358.876422 269.96141,360.804463 270.908714,361.651464 C271.72228,362.381445 273.288117,363.16715 274.296716,361.629175 C274.848381,360.810036 276.024152,360.637292 276.681692,360.052193 C278.548437,358.386054 279.896951,356.168249 280.381748,353.599385 C280.554491,352.696661 279.796649,352.267588 279.18926,351.63791 C279.345286,352.356746 278.381266,352.139423 278.31997,352.685516 C278.331114,352.496055 278.342259,352.323312 278.347832,352.139423" id="Fill-12" fill="#FFFFFF"></path>
                <path d="M186.398662,354.751752 C187.435124,357.627096 189.847961,358.853018 190.57237,360.0065 C191.714706,361.845383 192.249654,363.784568 193.358556,365.539866 C191.469522,366.615334 190.020705,369.663422 188.165105,368.738408 C187.228946,368.281473 186.950327,366.275419 186.387518,364.871181 C184.966562,361.316007 186.9559,358.368222 186.398662,354.751752 C186.493393,354.751752 186.309504,354.740607 186.398662,354.751752" id="Fill-14" fill="#FFFFFF"></path>
                <path d="M220.953504,151.281011 C199.226822,151.281011 176.770159,156.714074 170.016443,177.493453 C170.016443,177.493453 158.576361,219.325257 159.317487,225.889512 C153.238028,227.73954 140.96209,233.629538 144.645429,267.008053 C144.645429,267.008053 157.812946,326.989075 163.725234,338.71892 L167.52002,338.925098 C167.52002,338.925098 170.974891,335.303056 170.345213,347.233506 C170.345213,347.233506 168.350303,354.198972 174.65823,358.344818 C174.65823,358.344818 177.110074,348.286685 178.742779,363.449112 C179.060404,378.149032 183.685474,393.629084 205.183689,408.897386 C205.183689,408.897386 215.319835,402.360992 216.43431,401.876196 C216.43431,401.876196 201.50035,396.197948 193.793758,387.63321 C193.793758,387.63321 195.961412,398.08141 187.340951,386.206683 C187.340951,386.206683 183.200677,382.177857 180.826847,354.856513 C181.027452,351.061727 180.509221,350.487772 177.455561,346.520243 C165.597551,322.352861 156.180241,266.601269 178.453016,245.9612 C201.918278,244.467804 257.931771,243.219592 278.94519,247.047813 C287.543361,249.126308 291.76722,251.890205 293.711978,266.684855 C297.89683,285.391311 295.116216,322.787506 285.386853,352.733438 C285.386853,352.733438 283.954753,359.186246 280.527744,362.273341 C277.730413,363.75002 267.566404,370.838078 262.657144,381.459021 C260.829405,385.170222 256.834014,388.764402 250.152739,391.678753 C243.41574,395.674145 218.601963,401.987643 228.370333,412.837053 C228.370333,412.837053 225.550712,414.113127 220.585728,415.483931 C220.585728,415.483931 221.900808,421.535528 224.670277,420.593797 C224.670277,420.593797 229.668696,418.682473 231.463,415.511792 C246.057045,417.367393 264.724494,413.990535 276.142286,403.715079 C280.655908,400.68928 289.031185,396.727323 290.011923,388.87585 C290.011923,388.87585 294.837598,379.88204 286.924828,364.786481 C289.922765,359.498299 294.804163,349.417876 294.118762,341.767008 C294.408525,341.343508 319.662519,312.406175 322.721752,272.602715 C322.721752,272.602715 319.183295,249.159742 320.186322,271.516102 C320.186322,271.516102 319.874269,275.422336 317.650893,286.72868 C317.650893,286.72868 312.92552,304.069905 315.477667,287.453089 C315.477667,287.453089 316.419398,261.034469 313.304442,237.468903 C313.304442,237.468903 312.518737,228.697988 317.288688,241.45315 C317.929511,243.804691 316.56428,238.561088 316.56428,238.561088 C316.56428,238.561088 318.860098,254.665246 319.461914,243.269744 C316.56428,229.873759 315.834299,226.608348 311.850052,225.159531 C309.375919,205.461193 302.07611,186.40925 302.07611,186.40925 L300.265089,188.582475 C306.951936,207.183056 311.309532,268.991817 309.682399,286.72868 C309.682399,286.72868 305.397244,321.689749 301.713906,319.327062 C301.713906,319.327062 307.648483,260.337922 304.984889,238.438496 C303.731105,210.632355 299.730141,203.895356 298.13087,192.928926 C298.13087,192.928926 289.320948,169.981894 298.454068,182.425003 L299.546253,181.706167 C291.744931,161.72921 279.987224,152.005419 244.49678,151.281011 L249.344745,238.081864 L217.42062,238.187739 L220.953504,151.281011 Z" id="Fill-16" fill="#A5ACAF"></path>
                <path d="M180.5538,264.592429 C180.392201,264.581284 187.669721,263.383224 187.563845,263.383224 C195.420891,263.416658 213.92117,263.299638 217.922133,264.87662 C219.972767,265.679042 223.57252,263.79558 225.355679,263.087888 C232.025809,260.446583 232.861665,259.872629 239.888428,255.687777 C241.041909,255.002375 249.316883,250.020674 247.812342,249.853502 C228.609945,247.752718 189.447308,247.99233 181.712854,250.299292 C181.712854,250.299292 178.453016,250.845385 177.533574,251.870701 C173.878097,255.949678 174.652657,256.278448 172.106083,261.91769 C173.761078,258.245496 171.236793,266.559477 171.013898,267.300602 C170.356358,269.445966 174.022979,269.334518 174.764105,268.314774 C176.112619,266.448029 176.374521,264.308238 180.5538,264.592429" id="Fill-18" fill="#FFFFFF"></path>
                <path d="M287.707746,324.027359 C286.832884,328.156487 286.309081,332.441642 284.882553,336.392455 C283.561901,340.036787 282.92665,342.538782 278.368449,346.383719 C277.426718,338.44866 275.186624,334.520137 275.615697,331.550063 C272.556464,332.74255 272.96882,337.295179 272.645622,341.457742 C272.127392,348.088866 273.921696,352.95912 273.503768,351.019934 C273.704373,351.944948 271.196805,353.772686 270.294081,355.210358 C267.452171,359.701691 264.314925,363.892115 260.45327,367.530875 C259.879316,368.071395 259.734434,369.174725 259.132618,369.431054 C257.003971,370.344923 256.452306,371.726872 255.204095,373.175689 C254.184351,374.362604 251.487322,375.298763 250.088656,376.062178 C249.208222,376.552547 246.533482,377.271383 245.809074,377.421837 C244.193086,377.750607 242.727552,377.694883 240.286852,377.561146 C237.929739,377.444126 234.714479,374.54092 232.17905,373.927959 C224.795656,372.12251 223.06822,378.803785 211.589132,376.335224 C206.852615,375.31548 205.899739,372.150372 202.940809,368.801376 C202.366854,368.149408 199.541661,364.722399 199.101444,364.243175 C200.293932,365.524821 191.227681,356.993518 189.4891,350.418117 C187.549915,343.062585 188.547369,342.471914 189.416659,336.269862 C189.745429,333.940611 189.305212,328.095191 187.148704,327.71627 C185.137077,329.78362 186.591466,331.199003 185.98965,334.180223 C185.415696,337.089001 188.096007,337.206021 186.034229,343.703408 C185.443558,345.564581 184.434958,345.107646 183.849859,343.865007 C181.704495,339.239937 182.813398,329.231955 177.954288,325.32015 C176.834241,324.42857 176.767373,321.720397 177.709104,321.012705 C179.191355,319.892658 180.668034,321.664673 182.596075,321.218883 C182.930417,321.14087 182.72424,318.800473 182.462338,318.499565 C180.868639,316.627248 177.335755,317.396235 177.369189,317.139906 C177.837268,313.361837 177.764828,309.968262 176.483182,308.112662 C174.711167,305.577232 172.114441,305.142587 171.055691,302.662881 C168.821169,297.419278 169.590156,294.421341 169.389551,293.050538 C169.116505,291.20051 168.670715,288.197001 169.20009,286.252243 C168.665143,286.369262 168.87132,281.894647 168.899182,281.604884 C169.227952,278.328328 169.813051,278.512217 170.314565,275.41955 C170.409295,273.524943 175.095661,272.410468 175.14024,276.768064 C173.992331,282.51318 175.697477,287.032375 175.853504,292.833215 C175.870221,293.529762 177.012557,294.198446 177.781545,294.421341 C190.425259,298.048956 199.887148,296.655863 212.458422,296.405106 C215.824135,296.338238 217.846906,292.136668 218.565743,288.837824 C219.75823,283.410332 219.763803,281.560305 219.802809,275.581148 C220.43806,273.981877 221.903594,274.422095 223.057075,275.74832 C225.213583,278.228026 223.541872,279.153039 224.076819,282.334864 C224.489175,284.803426 221.30735,288.436613 221.30735,288.436613 C221.663982,288.458902 220.231882,296.817462 220.594086,296.834179 C221.240482,296.873185 220.10929,304.340165 219.936546,304.145132 C219.45175,308.20182 222.249081,306.713996 221.825581,309.684071 C221.75314,311.04373 221.056593,312.927192 221.0956,313.177949 C221.496811,315.919556 215.378345,315.328885 216.35351,315.379036 C214.999424,315.306595 213.946245,314.710351 213.996397,313.623739 C214.079982,312.074619 213.656482,310.915565 213.673199,309.528045 C210.686407,309.366446 211.917902,311.773711 211.756303,314.860805 C211.683862,316.226037 212.581014,317.368373 214.871259,317.747295 C217.295241,318.148506 217.551571,318.432697 218.682762,317.680426 C219.273434,317.279215 221.195903,316.855715 221.496811,315.919556 C222.62243,320.338448 223.954227,320.945837 227.219638,320.851106 C228.612731,320.806527 231.816845,321.358192 233.070629,318.15965 C233.388255,317.357229 235.56148,317.474248 235.867961,316.682971 C241.523919,317.791874 238.063476,320.098836 244.917494,317.892176 C246.984845,317.234636 248.673274,314.258989 246.890114,311.901875 C246.678364,311.617684 245.569462,311.639974 245.547172,311.796 C244.794902,317.691571 242.482367,315.952991 240.264563,315.819254 C232.992616,315.395753 236.915567,312.381099 230.741377,315.863833 C230.011397,316.276188 227.849316,319.251835 224.973971,316.922583 C221.078883,313.450995 225.291597,310.954572 225.765248,307.170931 C226.188749,303.727204 226.02715,292.911228 225.859979,289.76841 C225.481057,282.351582 227.375664,286.859631 228.629448,283.661089 C227.570697,283.922991 228.139079,274.583694 228.044349,274.10447 C227.403526,270.805625 223.51401,272.08727 222.50541,270.827914 C222.50541,270.827914 222.054048,268.225616 222.64472,268.108596 C227.041322,267.256023 232.608122,264.832041 236.614659,262.859421 C245.864798,258.312364 251.074966,255.481599 255.549582,252.706557 C256.881379,251.881846 257.421899,250.126549 258.135163,250.115404 C266.571736,250.020674 274.7074,248.315527 282.207814,252.47809 C287.445845,255.386869 288.716346,258.256641 290.08715,263.221625 C289.479761,263.316355 290.588663,268.520952 290.60538,268.966742 C290.700111,272.232152 290.53294,278.194591 290.571946,279.838441 C290.828275,290.615411 291.441236,294.304322 289.97013,301.570696 C289.958985,301.631992 288.838938,304.228718 288.476734,304.206428 C287.590727,305.527081 286.058324,307.471839 284.247303,308.998669 C283.673348,309.477893 283.918533,311.066019 284.325316,310.792973 C285.450935,310.029558 287.64645,309.606058 289.318162,308.876077 C289.262438,313.490002 288.788787,318.911921 287.707746,324.027359" id="Fill-20" fill="#FFFFFF"></path>
                <path d="M273.015071,272.39598 C273.210104,272.401552 270.139726,270.066728 267.503994,268.56776 C266.289216,267.876785 261.246219,271.309367 260.009152,271.437532 C254.810128,271.983624 251.823336,272.245526 246.340121,272.384835 C244.997179,272.418269 243.052421,272.440559 242.249999,271.186775 C241.748486,270.417788 241.826499,268.924392 242.406026,268.183266 C244.066593,266.060192 247.315286,269.682234 249.310196,264.299322 C249.299051,264.321612 255.506675,264.042993 257.406854,263.953835 C263.898668,263.658499 273.466433,263.70865 272.61386,264.48321 C273.393992,263.775519 274.647776,267.291686 275.951711,268.194411 C278.397983,269.88284 277.701436,267.642746 278.793621,271.064183 C278.041351,270.350919 279.473451,273.125961 278.721181,272.418269 C278.698891,272.774901 278.258674,274.385317 278.063641,274.563633 C277.868607,274.736377 275.472487,273.878231 275.110283,273.867086 C275.294171,273.867086 272.831182,272.384835 273.015071,272.39598" id="Fill-22" fill="#000000"></path>
                <path d="M241.779134,276.73853 C245.568347,274.531871 238.937224,273.863186 240.107422,280.382862 C240.007119,279.775473 241.344489,280.187829 241.455936,279.892493 C241.634252,279.446703 241.717838,277.813998 241.779134,276.73853" id="Fill-24" fill="#000000"></path>
                <path d="M238.008309,291.496403 C238.866455,295.893005 238.086322,295.307906 237.595953,299.359021 C237.161308,303.031215 240.292982,303.883788 240.292982,299.771377 C240.292982,284.269035 239.250948,288.570907 238.008309,291.496403" id="Fill-26" fill="#000000"></path>
                <path d="M281.183055,313.698966 C280.820851,314.545966 280.252469,314.60169 279.544777,315.064197 C279.009829,315.420829 278.413586,316.189816 278.686632,316.774916 C278.825941,317.075824 279.466764,317.365587 279.901409,317.354442 C280.363916,317.343298 280.798561,316.791633 280.954588,316.379277 C281.26664,315.571283 281.138476,314.60169 281.183055,313.698966" id="Fill-28" fill="#000000"></path>
                <path d="M242.171429,308.039664 C242.700804,308.073098 243.157739,307.666315 243.185601,307.136939 C243.213463,306.601991 242.801107,306.156202 242.277304,306.122767 C241.742356,306.089333 241.290994,306.507261 241.263132,307.036637 C241.23527,307.56044 241.642053,308.017374 242.171429,308.039664" id="Fill-30" fill="#000000"></path>
                <path d="M276.448767,282.240134 C275.050101,282.942253 273.824179,282.791799 272.48681,283.538497 C274.57645,282.373871 261.19161,281.638318 266.245752,282.106397 C262.645999,281.766482 259.709358,280.991923 255.964724,281.014212 C255.975869,280.830324 255.257032,281.571449 255.268177,281.387561 C253.407005,281.822206 252.437412,280.384534 251.044318,279.481809 C250.069153,278.857704 249.199863,279.515244 248.302711,279.387079 C248.492172,279.03602 247.985086,278.807552 248.118823,278.59023 C248.34729,278.216881 248.98254,278.021848 249.222152,277.988413 C250.832568,277.782236 252.710458,277.927117 254.254005,277.39217 C259.670352,275.508708 263.899783,278.088716 269.455439,277.915973 C271.205164,277.860249 273.606857,277.509189 275.245134,278.662671 C275.579477,278.902283 275.573904,279.470665 275.819089,279.654553 C276.54907,280.200646 277.853005,279.866303 278.276505,280.317665 C279.145795,281.242679 277.41836,281.755338 276.448767,282.240134" id="Fill-32" fill="#000000"></path>
                <path d="M271.127151,290.10331 C270.781664,290.025296 270.642354,289.568362 270.341446,289.568362 C267.181911,289.568362 264.356717,288.754795 261.442366,287.506584 C260.444912,287.077511 259.480891,287.863216 258.44443,287.99138 C257.073626,288.175269 255.630381,287.612459 254.443466,288.035959 C253.579748,288.34244 252.827478,289.640803 253.563031,290.047586 C254.677506,290.671692 256.494099,290.571389 257.959633,289.585079 C259.659207,288.442742 261.810143,288.821664 263.810625,289.289743 C264.34,289.406763 264.874948,289.77454 265.432185,289.757822 C267.371371,289.679809 269.215827,290.231474 271.127151,290.10331" id="Fill-34" fill="#000000"></path>
                <path d="M251.008655,284.966139 C251.075524,284.531494 250.256385,284.648514 250.501569,284.130283 C249.180917,283.745789 247.960567,284.932705 246.701211,284.408902 C245.987947,284.130283 245.553302,283.378013 244.851183,283.010236 C244.795459,284.041125 244.410966,285.467652 245.308118,285.857719 C247.102422,286.643423 249.058325,284.369895 250.969649,285.512231 C250.980793,285.333916 250.975221,285.150027 251.008655,284.966139" id="Fill-36" fill="#000000"></path>
                <path d="M143.544328,205.200963 L131.781049,216.824933 C131.781049,216.824933 142.084366,232.873367 143.416163,233.486328 C145.52252,229.513226 149.083267,223.996577 153.719481,223.690097 L154.577626,217.749947 L143.544328,205.200963 Z" id="Fill-38" fill="#FFFFFF"></path>
                <path d="M100.010164,158.858881 L106.262366,158.914604 C114.492761,168.042151 134.84864,194.689239 134.84864,194.689239 L131.733683,202.139501 C139.696604,195.480516 144.277095,191.100631 147.22488,186.904634 C152.992286,180.680293 158.174593,185.578409 153.605247,189.685248 C150.579449,195.51395 136.091279,207.260512 126.685113,215.47419 C99.8485652,239.624854 49.1065369,201.058461 91.5903084,163.851727 L100.010164,158.858881 Z" id="Fill-40" fill="#FFFFFF"></path>
                <path d="M91.9185212,173.116354 C96.5714526,167.382382 100.756305,170.592069 97.0451043,173.929921 C94.2422007,176.459778 99.5080932,182.138026 102.940675,180.767222 C105.665565,179.686182 108.919831,184.032633 108.122982,185.665338 C106.011052,189.983927 110.056595,194.497549 113.177124,192.998581 C114.898987,192.179442 118.504313,195.038069 117.289535,197.573499 C115.439508,201.412864 119.239866,205.753743 123.497159,203.613951 C128.049788,201.306989 125.469779,207.520185 125.469779,207.520185 C102.416872,226.978911 68.7374496,189.855762 91.9185212,173.116354" id="Fill-42" fill="#000000"></path>
                <path d="M94.3347021,164.670308 C98.4136792,164.887631 101.89084,161.755957 102.108162,157.671408 C102.325485,153.598003 99.188239,150.11527 95.1148343,149.90352 C91.030285,149.686197 87.5531242,152.823443 87.3358017,156.896848 C87.1240515,160.975825 90.2557251,164.452986 94.3347021,164.670308" id="Fill-44" fill="#FFFFFF"></path>
                <path d="M96.7999199,152.704195 C101.296825,155.117032 97.412881,161.709149 94.4595233,161.012603 C91.2776983,160.260332 93.7128253,159.608365 93.7128253,159.608365 C96.6829001,160.04301 99.385501,155.284203 95.6575835,153.729511 C94.2422007,153.13884 96.7999199,152.704195 96.7999199,152.704195" id="Fill-46" fill="#000000"></path>
                <path d="M363.778439,159.097935 L357.531809,159.348692 C349.59675,168.738141 330.082299,195.992617 330.082299,195.992617 L333.425723,203.348149 C325.256624,196.951065 320.536825,192.710489 317.460875,188.609223 C311.50958,182.563198 306.4833,187.622913 311.175238,191.58487 C314.384925,197.318842 329.229726,208.608469 338.892221,216.521239 C366.464323,239.81933 416.075159,197.307697 372.449051,161.449477 L363.778439,159.097935 Z" id="Fill-48" fill="#FFFFFF"></path>
                <path d="M373.203551,170.068823 C369.336324,166.051142 366.221367,168.335815 367.30798,171.690384 C368.539474,175.446163 363.869826,182.573228 361.535002,181.096549 C358.453479,179.135074 355.349668,184.306236 356.508721,186.145119 C358.442335,189.226642 354.725562,195.294956 351.688618,193.639961 C350.011334,192.726092 346.57318,196.08066 347.721089,198.331899 C349.637985,202.098823 345.525574,205.536977 341.702926,204.561812 C336.760231,203.296883 339.858471,208.529342 339.858471,208.529342 C363.507622,227.26366 396.89728,186.067106 373.203551,170.068823" id="Fill-50" fill="#000000"></path>
                <path d="M369.731962,162.352201 C365.66413,162.692116 361.986364,162.045721 361.646449,157.983461 C361.306534,153.915628 364.427063,147.958762 368.494895,147.613275 C372.562728,147.27336 376.134619,150.299158 376.480106,154.366991 C376.820021,158.434823 373.799794,162.006714 369.731962,162.352201" id="Fill-52" fill="#FFFFFF"></path>
                <path d="M366.891166,150.464658 C361.101471,153.813654 365.258461,159.837389 369.493465,158.695053 C372.647428,157.848052 370.190011,157.27967 370.190011,157.27967 C366.044166,158.009651 363.029512,153.752358 368.066937,151.462113 C369.465603,150.82129 366.891166,150.464658 366.891166,150.464658" id="Fill-54" fill="#000000"></path>
                <path d="M322.790849,207.192529 C324.373403,208.095254 333.980174,216.760294 336.354005,218.236973 C334.95534,224.14926 325.560319,242.421071 323.492968,245.580607 C323.247784,234.69219 321.720954,222.371673 315.736225,222.332667 L314.610606,217.913775 L322.790849,207.192529 Z" id="Fill-56" fill="#FFFFFF"></path>
                <path d="M284.154244,380.436491 C284.633468,377.137646 281.752551,374.056124 279.724208,376.658422 C278.615305,378.073805 278.520575,380.687247 277.188778,382.030189 C273.589025,385.668949 271.321069,386.354351 269.220285,388.600017 C266.941184,391.012855 266.239065,392.595408 268.395573,395.827385 C268.573889,396.100431 268.924949,399.393704 271.293207,401.171291 C274.190841,403.344516 278.331114,401.059843 282.705427,395.587773 C283.680592,394.367423 283.502277,392.634415 283.725171,391.252467 C284.293554,387.719582 283.630441,384.047388 284.154244,380.436491" id="Fill-58" fill="#000000"></path>
                <path d="M265.521901,400.995761 C265.23771,410.01186 252.075765,413.622758 246.793155,410.619249 C245.907148,410.117735 243.115389,407.61574 243.683771,405.882732 C244.252153,404.194303 246.202484,403.10769 247.629011,402.561598 C249.239427,401.943064 250.638092,402.489157 252.187212,401.118353 C254.34372,399.207029 255.831544,398.861542 258.344684,396.470994 C259.782356,395.094618 262.562971,395.317513 263.889195,396.359546 C265.226565,397.412725 266.045704,398.276443 265.404881,400.811872 C265.611059,400.449668 265.404881,400.811872 265.521901,400.995761" id="Fill-60" fill="#000000"></path>
                <path d="M280.258041,387.500031 C274.646661,391.233521 267.853939,394.465497 274.278885,397.909223 C275.749991,398.7005 279.867975,395.780577 280.887719,392.387002 C280.831995,392.582035 280.531087,387.316142 280.258041,387.500031" id="Fill-62" fill="#FFFFFF"></path>
                <path d="M261.059544,405.066379 C260.067662,405.874373 256.479054,407.702112 256.974995,407.429065 C254.601164,408.75529 251.842839,409.496416 249.106804,409.050626 C246.666105,408.593691 247.674704,406.492907 248.20408,406.420466 C255.085961,405.512169 256.406613,401.61708 260.79207,399.900789 C262.068144,400.212842 262.324473,402.146456 262.146157,402.709265 C262.023565,403.127193 261.728229,404.24724 261.059544,405.066379" id="Fill-64" fill="#FFFFFF"></path>
                <path d="M209.400861,323.450618 C207.673425,325.640561 209.42315,325.980476 205.249443,330.026019 C204.051383,331.190644 201.878157,332.0265 200.808262,333.531041 C200.629946,333.781798 200.652235,334.768108 200.613229,335.498089 C203.265678,336.367379 208.10807,334.266594 213.206791,334.205298 C216.277169,334.160719 219.28625,335.174891 222.395634,335.804569 C227.867705,336.924616 232.927419,335.726556 239.508392,335.369924 C247.404444,334.935279 248.92013,336.813169 251.416553,336.53455 C256.297952,335.977313 259.273599,333.558903 257.167242,334.171864 C257.685473,334.02141 253.104982,334.617654 253.456041,333.921107 C252.101955,333.681495 251.266099,334.422621 250.11819,334.550785 C247.443451,334.862838 244.785429,334.706812 241.926802,333.737219 C237.808818,332.35527 233.245045,334.400331 228.932028,334.405904 C221.910838,334.422621 214.131805,331.853757 205.377607,332.756481 C204.530607,332.845639 212.532534,326.364969 211.930718,327.11724 C214.25997,324.247468 214.744766,320.296655 215.212846,321.578301 C215.073536,321.188235 212.900311,319.009437 209.400861,323.450618" id="Fill-66" fill="#000000"></path>
                <path d="M218.825972,345.968578 C224.838563,345.467064 236.105901,348.515152 241.371793,346.609401 C241.338359,347.155493 245.796258,345.216307 245.679238,347.38396 C245.523211,350.36518 238.251265,349.780081 236.334368,349.345436 C231.090765,348.15852 229.22402,349.813515 218.369038,349.484745 C217.906531,349.4736 212.891395,350.281594 211.464868,346.403223 C211.080374,345.377906 214.245482,345.182873 218.825972,345.968578" id="Fill-68" fill="#000000"></path>
                <path d="M254.453496,327.189123 C253.890687,328.587789 255.322786,329.479369 256.080629,328.738243 C256.671301,328.164289 256.565426,326.587307 255.306069,326.135945 C255.445379,326.843636 254.62624,326.760051 254.453496,327.189123" id="Fill-70" fill="#000000"></path>
                <path d="M252.09694,324.310436 C251.545275,323.964948 250.97132,323.441145 250.486524,323.318553 C248.619779,322.872763 247.120811,321.841874 245.198342,321.535394 C244.72469,321.457381 244.51294,320.632669 245.293072,320.248176 C246.491132,319.663076 247.789495,320.270465 249.009845,320.677248 C250.614688,321.206624 250.859873,323.14581 252.174953,323.948231 C252.559447,324.182271 253.60148,324.32158 253.311717,324.867673 C253.021954,325.419338 251.946486,325.179726 251.823893,324.299291 C251.918624,324.299291 252.007782,324.310436 252.09694,324.310436" id="Fill-72" fill="#000000"></path>
                <path d="M257.712777,332.298989 C258.136278,332.298989 258.481765,331.842055 258.481765,331.273673 C258.481765,330.710863 258.136278,330.253929 257.712777,330.253929 C257.289277,330.253929 256.94379,330.710863 256.94379,331.273673 C256.94379,331.842055 257.289277,332.298989 257.712777,332.298989" id="Fill-74" fill="#FFFFFF"></path>
                <path d="M377.072449,109.820327 C381.313025,112.706816 384.756751,114.367383 388.077886,114.367383 C390.351414,114.367383 391.582908,113.509238 391.582908,112.093855 C391.582908,110.065511 389.365104,109.820327 385.743061,109.017905 C378.237075,107.424206 374.425572,103.30065 374.425572,96.9091384 C374.425572,87.6868612 381.619505,80.9220004 392.80883,80.9220004 C397.851828,80.9220004 402.582773,82.2147909 407.62577,84.9229642 L402.827957,96.4187696 C399.752007,94.1396691 396.559037,92.9750431 393.79514,92.9750431 C391.582908,92.9750431 390.351414,93.7718925 390.351414,95.064683 C390.351414,97.215619 393.299199,97.5220995 398.531657,98.6922978 C404.365932,99.979516 408.3056,104.348256 408.3056,110.494584 C408.3056,119.900749 400.805186,127.033387 389.303808,127.033387 C383.525257,127.033387 377.68541,125.37282 372.029452,122.112981 L377.072449,109.820327 Z" id="Fill-76" fill="#FFFFFF"></path>
                <path d="M79.7289553,101.8262 L82.1863718,101.8262 C85.2010256,101.8262 86.8615927,100.293798 86.8615927,97.5856245 C86.8615927,94.8774513 85.2623217,93.2224565 82.1863718,93.2224565 L79.7289553,93.2224565 L79.7289553,101.8262 Z M64.2377584,81.9105393 L84.0921234,81.9105393 C95.8386856,81.9105393 101.862421,87.3213135 101.862421,96.7274791 C101.862421,102.996399 98.4799904,107.359567 93.3756967,107.9781 L105.122259,125.865417 L87.4132577,125.865417 L79.7289553,111.354958 L79.7289553,125.865417 L64.2377584,125.865417 L64.2377584,81.9105393 Z" id="Fill-78" fill="#FFFFFF"></path>
                <path d="M144.186822,109.52109 L142.838308,104.539389 C142.219775,102.198992 141.294761,99.1286146 141.055149,94.8880388 L140.748668,94.8880388 C140.497912,99.1286146 139.57847,102.198992 138.965509,104.539389 L137.60585,109.52109 L144.186822,109.52109 Z M132.32324,81.5422055 L149.904077,81.5422055 L165.272682,125.502656 L148.304806,125.502656 L146.889423,119.96929 L134.970118,119.96929 L133.616031,125.502656 L116.648155,125.502656 L132.32324,81.5422055 Z" id="Fill-80" fill="#FFFFFF"></path>
                <mask id="mask-2" fill="white">
                    <use xlink:href="#path-1"></use>
                </mask>
                <g id="Clip-83"></g>
                <polygon id="Fill-82" fill="#FFFFFF" mask="url(#mask-2)" points="179.40812 125.864303 195.456555 125.864303 195.456555 81.9094249 179.40812 81.9094249"></polygon>
                <path d="M237.790429,103.91584 C237.790429,98.1372895 234.591887,95.4346886 228.194803,95.4346886 L227.520546,95.4346886 L227.520546,112.46386 C234.530591,112.341268 237.790429,109.878279 237.790429,103.91584 L237.790429,103.91584 Z M213.974107,81.9105393 L226.762703,81.9105393 C234.380137,81.9105393 240.097392,82.6460926 244.159652,84.6744363 C251.715789,88.4915118 255.961938,95.5572808 255.961938,103.91584 C255.961938,111.17107 252.702099,117.506858 246.862253,121.496677 C241.144998,125.436345 234.380137,125.865417 225.592505,125.865417 L213.974107,125.865417 L213.974107,81.9105393 Z" id="Fill-84" fill="#FFFFFF" mask="url(#mask-2)"></path>
                <polygon id="Fill-85" fill="#FFFFFF" mask="url(#mask-2)" points="270.925431 81.9094249 300.308553 81.9094249 300.308553 93.8398754 286.416628 93.8398754 286.416628 98.0748789 299.021335 98.0748789 299.021335 109.3255 286.416628 109.3255 286.416628 113.939425 300.681902 113.939425 300.681902 125.864303 270.925431 125.864303"></polygon>
                <path d="M333.957328,101.8262 L336.414744,101.8262 C339.429398,101.8262 341.089965,100.293798 341.089965,97.5856245 C341.089965,94.8774513 339.490694,93.2224565 336.414744,93.2224565 L333.957328,93.2224565 L333.957328,101.8262 Z M318.466131,81.9105393 L338.320496,81.9105393 C350.067058,81.9105393 356.090793,87.3213135 356.090793,96.7274791 C356.090793,102.996399 352.708363,107.359567 347.604069,107.9781 L359.350631,125.865417 L341.647202,125.865417 L333.957328,111.354958 L333.957328,125.865417 L318.466131,125.865417 L318.466131,81.9105393 Z" id="Fill-86" fill="#FFFFFF" mask="url(#mask-2)"></path>
            </g>
        </g>
    </g>
</svg>