<?xml version="1.0" encoding="UTF-8" standalone="no"?>
<svg width="500px" height="500px" viewBox="0 0 500 500" version="1.1" xmlns="http://www.w3.org/2000/svg" xmlns:xlink="http://www.w3.org/1999/xlink">
    <!-- Generator: Sketch 39.1 (31720) - http://www.bohemiancoding.com/sketch -->
    <title>PHI</title>
    <desc>Created with Sketch.</desc>
    <defs></defs>
    <g id="100x100-NFL" stroke="none" stroke-width="1" fill="none" fill-rule="evenodd">
        <g id="PHI">
            <g transform="translate(2.000000, 79.000000)">
                <path d="M265.363721,50.5327923 C304.906665,34.0952546 391.134338,5.88200683 391.134338,5.88200683 L363.502725,32.9130886 C438.917484,10.5814299 496.223011,0.000417725229 496.223011,0.000417725229 C496.223011,0.000417725229 479.613137,38.6526507 454.809002,77.3591881 C459.603605,76.8412072 490.92723,73.1902776 490.92723,73.1902776 C490.92723,73.1902776 462.719262,119.925518 430.146869,153.610983 L448.381395,158.147493 C448.381395,158.147493 419.977132,199.088867 382.484842,232.506987 C328.574795,280.562243 300.834593,273.176839 300.834593,273.176839 C260.819707,302.167058 228.740139,287.475617 228.740139,287.475617 C228.740139,287.475617 242.601887,252.4952 228.284902,248.781611 C215.375393,245.427268 195.745921,255.51954 193.294325,259.56731 C190.746671,268.393871 180.013109,290.809074 168.928722,304.376831 C147.674599,330.384483 124.106703,341.015622 124.106703,341.015622 C124.106703,341.015622 105.542235,325.171256 105.425294,298.198656 C105.425294,298.198656 92.6703139,311.712108 71.913192,316.1233 C57.3832066,319.214476 37.5574405,316.70394 17.2430258,299.740067 C3.59845498,288.352843 0.992329412,250.089095 0.992329412,250.089095 C0.992329412,250.089095 13.8099566,225.593613 38.5305611,204.135003 C33.0635445,199.439757 29.7098284,193.533105 28.6531782,189.886352 C94.3617896,161.196896 94.4077309,133.819102 146.647184,100.5263 C198.113987,67.7305923 230.456674,52.6506656 289.499618,25.2227437 L265.363721,50.5327923 Z" id="Fill-1" stroke="#FFFFFF" stroke-width="2.5" fill="#FFFFFF"></path>
                <path d="M257.489853,48.4544557 L236.849735,70.0967999 C277.616265,52.0427155 363.714206,22.7309361 363.714206,22.7309361 L338.726382,47.1762165 C427.004441,19.8402775 482.998382,10.5834864 482.998382,10.5834864 C482.998382,10.5834864 464.701265,51.3660006 440.352441,86.0121311 C452.138441,84.884273 476.733676,82.0228552 476.733676,82.0228552 C476.733676,82.0228552 452.138441,123.235626 415.798971,158.136569 C419.837618,158.733916 436.3305,162.493443 436.3305,162.493443 C436.3305,162.493443 414.412382,195.021707 376.318794,228.389598 C327.692147,270.972508 306.120676,265.930565 306.120676,265.930565 C306.120676,265.930565 306.588441,264.268018 306.538324,261.682299 C306.504912,260.253679 306.200029,258.954553 306.1875,258.854299 C268.753794,294.085245 237.568088,282.200962 237.568088,282.200962 C237.568088,282.200962 251.417265,248.670158 230.175735,241.90301 C213.724618,236.664735 188.523794,250.136374 186.519088,257.346311 C184.330618,265.191191 173.881088,286.96303 163.519265,299.724536 C145.543735,321.859796 125.651206,331.960392 125.651206,331.960392 C125.651206,331.960392 107.562912,318.041787 113.835971,277.305223 C115.205853,268.428562 113.447559,264.961442 112.474441,263.465986 C109.504971,258.921135 86.3631471,263.883711 80.7207353,276.795598 C76.7363824,285.910363 99.7320294,293.62157 99.7320294,293.62157 C99.7320294,293.62157 89.1196176,305.330408 70.5677353,309.123354 C58.9028529,311.504387 40.8396176,310.748305 21.8742647,294.323349 C10.6520882,284.60706 8.32997059,251.727907 8.32997059,251.727907 C8.32997059,251.727907 22.1875,226.330213 49.1883824,204.395461 C43.8633824,200.907456 39.8163824,194.996644 38.7931471,192.674091 C93.1958529,169.235529 100.655029,136.093209 162.074206,99.0576901 C190.703912,81.7972836 220.853853,64.8125757 257.489853,48.4544557" id="Fill-4" fill="#004953"></path>
                <path d="M402.061306,162.808826 C404.237247,163.259969 413.179071,164.876566 418.157424,166.940128 C399.467718,197.258626 343.607424,256.792825 312.388306,259.240695 C312.037482,254.01913 310.011894,249.566179 307.564482,246.495898 C295.849482,267.912671 260.078012,281.058484 245.226482,277.620605 C263.260482,211.544829 186.751718,236.721128 180.883776,254.858758 C165.652188,301.961454 126.982247,324.117601 126.982247,324.117601 C126.982247,324.117601 114.628247,310.036083 119.928188,278.322384 C123.833188,254.942303 109.044306,255.669145 109.044306,255.669145 C103.151306,255.397623 80.7737765,258.100305 73.7113647,273.714874 C68.0230118,286.296758 87.9489529,295.123292 87.9489529,295.123292 C87.9489529,295.123292 59.1772471,318.09818 25.8907765,289.621851 C17.7257765,282.641663 14.6894824,253.146084 14.6894824,253.146084 C30.6978941,226.608 51.7932471,209.727724 60.5387765,203.453491 C51.2670118,199.894472 48.3852471,195.082277 48.3852471,195.082277 C93.0776588,174.5845 110.602129,140.51483 148.653953,115.200682 C190.581541,87.2966362 222.673541,73.5952487 222.673541,73.5952487 L210.565953,88.8422196 C210.565953,88.8422196 220.706424,84.5062317 225.125129,82.3382377 C265.056365,62.73857 332.706835,41.380279 332.706835,41.380279 L311.607306,61.8195745 C311.607306,61.8195745 346.585247,49.8392149 390.651188,40.4236882 C414.118776,35.4068082 463.150541,25.0848178 463.150541,25.0848178 C463.150541,25.0848178 451.631835,58.9539794 427.161894,93.3411203 C441.942424,92.2968072 457.871482,91.4279387 457.871482,91.4279387 C457.871482,91.4279387 440.743776,125.894447 402.061306,162.808826" id="Fill-6" fill="#000000"></path>
                <path d="M220.317594,116.904165 C219.808065,117.083787 219.3403,117.263409 218.834947,117.443031 C219.273476,117.280118 219.724535,117.125559 220.167241,116.971001 C220.217359,116.945938 220.2633,116.920874 220.317594,116.904165" id="Fill-8" fill="#000000"></path>
                <path d="M218.596471,117.532424 C218.68,117.499006 218.755176,117.473942 218.838706,117.444701 C218.759353,117.473942 218.68,117.499006 218.596471,117.532424" id="Fill-10" fill="#000000"></path>
                <path d="M271.263435,196.671722 C271.263435,196.671722 249.888259,186.287073 216.179965,197.29831 C216.179965,197.29831 262.672435,169.732622 321.523082,181.453992 C283.341788,168.629827 248.961082,174.724438 228.667612,181.554246 C216.756318,186.145046 209.685553,189.950523 209.685553,189.950523 C209.685553,189.950523 212.667553,187.769997 218.243141,184.461613 C232.025494,174.315067 250.949082,163.337248 269.663847,155.626041 C282.661024,150.27498 308.550965,143.353273 319.075671,142.751749 C319.075671,142.751749 291.999612,138.165126 267.295788,144.389232 C267.295788,144.389232 306.408435,129.129729 344.355847,128.285924 C357.064847,128.001871 386.145612,129.543277 386.145612,129.543277 C344.201318,117.086711 300.732612,114.634664 271.0212,119.196223 C254.139906,123.38183 240.825318,127.550728 240.825318,127.550728 C240.825318,127.550728 243.155788,126.372743 247.616259,124.47627 C258.320553,118.114315 302.252847,94.504485 383.919553,81.7638655 C383.919553,81.7638655 373.478376,80.5232216 360.710906,80.5232216 C347.659435,80.5190444 321.986671,84.9302228 321.986671,84.9302228 C340.580318,76.4336916 375.625082,68.2003273 418.955965,64.023075 C418.955965,64.023075 352.7422,56.1656635 272.587376,81.291836 C271.898259,81.5842437 271.526553,81.7471565 271.526553,81.7471565 C271.526553,81.7471565 279.983906,75.6233047 289.531318,69.2864129 C296.568671,64.6162449 306.746729,57.3311169 306.746729,57.3311169 C306.746729,57.3311169 265.637729,67.1727233 209.957024,93.6189076 C194.261847,101.071126 185.967376,105.507368 185.967376,105.507368 C188.3772,102.72114 199.545082,92.9213064 202.251435,89.437478 C160.929435,109.705506 145.844024,123.114486 121.290553,149.147122 C99.3891412,172.376822 100.383141,176.420403 67.1426118,194.395119 C67.1426118,194.395119 91.6250824,204.445588 116.433318,188.292154 C120.722553,185.501749 124.773729,181.579309 128.616082,177.477247 C137.386671,167.301461 134.4882,156.85833 146.1322,149.355985 C144.474141,153.228298 141.734376,158.136569 141.492141,163.203576 C147.088612,155.496546 158.147906,145.345823 170.451788,138.002213 C201.750259,119.334073 222.519847,116.121766 222.519847,116.121766 C221.722141,116.397464 220.945318,116.685695 220.168494,116.969748 C177.388906,134.756488 170.410024,157.99872 170.192847,160.442413 C169.725082,165.684864 185.654141,153.938431 198.6722,152.355252 C184.977553,157.19251 173.216612,168.842867 167.524082,182.297797 C165.114259,187.995569 164.375024,194.487019 157.613318,199.558203 C155.708847,201.29594 153.202965,203.012791 149.870141,204.520779 C140.8782,208.585245 134.663612,206.530037 132.554494,205.122303 C131.289024,204.282675 130.5122,202.858232 130.5122,202.858232 C134.868259,204.086345 140.790494,203.021145 146.194847,199.60833 C150.187553,197.089447 153.152847,193.760177 154.748259,190.38078 C154.748259,190.38078 154.756612,190.38078 154.756612,190.384957 C155.629494,188.584561 157.254141,185.071492 154.8652,180.5893 C153.649847,178.308521 151.123082,177.076231 148.249671,176.625088 C148.429259,176.144704 149.924435,172.33505 154.618788,166.704114 C148.245494,171.290737 144.114965,176.80471 141.968259,179.298529 C144.983671,179.636887 147.589788,181.048798 149.0432,183.471604 C151.924965,188.26709 149.239494,195.147025 143.054141,198.835538 C136.860435,202.528229 129.5182,201.63012 126.636435,196.842989 C126.273082,196.237287 126.005788,195.593991 125.813671,194.933985 C125.483729,195.121961 125.162141,195.318292 124.823847,195.489559 C122.890141,196.4921 118.980965,198.150469 118.980965,198.150469 C120.831141,198.580726 123.307788,198.768702 124.848906,198.476295 C125.358435,205.255975 129.597553,216.154426 153.466082,209.992979 C146.645906,216.705824 130.224024,216.258858 120.275671,211.045647 C121.628847,212.060719 123.190847,213.134273 125.0452,214.291372 C154.973788,232.888499 189.438024,215.381635 197.857788,210.531845 C199.912612,209.220188 201.988318,208.029671 204.089082,206.993712 C204.089082,206.993712 195.364435,214.684034 189.458906,226.622621 C199.946024,213.209464 230.4092,191.704969 271.263435,196.671722" id="Fill-12" fill="#FFFFFF"></path>
                <path d="M161.834894,167.169877 C162.979247,171.593588 170.651424,167.023674 170.651424,167.023674 C170.651424,167.023674 160.281247,175.808435 156.125659,185.290798 C156.1006,185.812954 156.125659,187.713604 154.759953,190.387046 C155.770659,190.620972 156.823129,190.771353 157.708541,190.675276 C160.389835,190.382868 163.538894,188.490573 163.538894,188.490573 C163.538894,188.490573 163.601541,194.117332 157.612482,199.560292 C164.374188,194.48493 165.113424,187.99348 167.523247,182.295708 C173.219953,168.840778 184.976718,157.190422 198.671365,152.353163 C185.653306,153.940519 169.728424,165.686953 170.192012,160.444501 C170.409188,158.000809 177.392247,134.7544 220.167659,116.967659 C219.724953,117.126395 218.676659,117.49817 218.597306,117.531588 C179.396953,132.160326 158.786071,155.406735 161.834894,167.169877" id="Fill-14" fill="#A5ACAF"></path>
                <path d="M145.516588,185.118695 C147.550529,188.510624 145.529118,193.448136 140.997647,196.159173 C136.466176,198.857678 131.145353,198.302103 129.107235,194.910174 C128.794,194.388018 128.606059,193.824089 128.480765,193.243451 C127.620412,193.857507 126.730824,194.421436 125.812,194.935238 C126.004118,195.595244 126.275588,196.238541 126.634765,196.844242 C129.516529,201.631373 136.862941,202.529483 143.052471,198.832614 C149.242,195.144101 151.923294,188.268343 149.045706,183.46868 C147.588118,181.045874 144.982,179.63814 141.966588,179.295605 C141.273294,180.160297 140.496471,181.146128 139.648647,182.194618 C142.154529,182.223859 144.368059,183.201336 145.516588,185.118695" id="Fill-16" fill="#004953"></path>
                <path d="M140.997229,196.157502 C145.5287,193.450642 147.550112,188.51313 145.516171,185.117024 C144.367641,183.199665 142.154112,182.222188 139.648229,182.192948 C137.902465,184.344232 135.830935,186.758684 133.454524,189.06035 C133.337582,190.977709 133.776112,193.413047 136.135818,195.196734 C136.135818,195.196734 133.446171,195.413951 131.696229,194.127357 C130.702229,193.392161 130.276229,192.523292 130.100818,192.022022 C129.574582,192.443925 129.031641,192.853295 128.480347,193.245957 C128.605641,193.822418 128.793582,194.386347 129.106818,194.908504 C131.144935,198.30461 136.465759,198.856007 140.997229,196.157502" id="Fill-18" fill="#000000"></path>
                <path d="M131.698318,194.126104 C133.448259,195.416875 136.133729,195.195481 136.133729,195.195481 C133.774024,193.411794 133.339671,190.976456 133.456612,189.059097 C132.395788,190.086701 131.276494,191.089242 130.098729,192.020769 C130.274141,192.522039 130.704318,193.390908 131.698318,194.126104" id="Fill-20" fill="#FFFFFF"></path>
                <path d="M386.146865,129.542024 C386.146865,129.542024 357.0661,128.000618 344.3571,128.284671 C306.409688,129.128476 267.297041,144.392156 267.297041,144.392156 C292.000865,138.163873 319.076924,142.750496 319.076924,142.750496 C308.548041,143.356197 282.6581,150.273727 269.6651,155.624787 C250.946159,163.335995 232.026747,174.317991 218.240218,184.46036 C240.308688,171.373029 303.064335,140.611743 382.705453,157.583919 C382.705453,157.583919 387.909335,153.577934 401.766865,138.368558 C416.468041,122.248542 419.592041,112.302504 419.592041,112.302504 C419.592041,112.302504 351.983335,105.042439 303.030924,112.574025 C292.476982,114.194799 281.112806,116.701151 271.022453,119.19497 C300.729688,114.637588 344.202571,117.089635 386.146865,129.542024" id="Fill-22" fill="#A5ACAF"></path>
                <path d="M230.118518,209.831737 C285.385753,196.121995 323.796753,212.743282 328.407576,230.208374 C328.407576,230.208374 328.595518,230.116474 328.950518,229.928498 C331.189106,228.712918 339.775929,225.049467 352.702106,212.329734 C366.275635,198.962527 374.783106,188.243697 378.145165,181.029583 C321.612459,152.686926 259.224341,169.746824 228.665106,181.551739 C248.962753,174.726109 283.339282,168.631498 321.524753,181.455662 C262.674106,169.730115 216.181635,197.29998 216.181635,197.29998 C249.885753,186.284566 271.265106,196.673393 271.265106,196.673393 C230.406694,191.702462 199.943518,213.211134 189.460576,226.624292 C188.650341,228.261774 187.890224,229.974448 187.217812,231.762312 C196.673341,222.848056 206.788753,215.621409 230.118518,209.831737" id="Fill-24" fill="#A5ACAF"></path>
                <path d="M418.955129,64.0214041 C375.624247,68.1986564 340.579482,76.436198 321.990012,84.9327291 C321.990012,84.9327291 347.662776,80.5215507 360.714247,80.5215507 C373.477541,80.5215507 383.918718,81.7621946 383.918718,81.7621946 C302.252012,94.5069914 258.319718,118.116821 247.615424,124.474599 C258.465894,119.875445 281.962718,111.007138 315.600012,104.340243 C347.337012,98.0534786 384.206894,96.4911862 399.050071,95.0124389 C420.2206,74.5606117 428.531776,48.7451925 428.531776,48.7451925 C428.531776,48.7451925 391.670247,51.7193961 349.830365,59.4849081 C306.319894,67.5637141 278.199718,78.9133086 272.590718,81.2901651 C352.741365,56.1639926 418.955129,64.0214041 418.955129,64.0214041" id="Fill-26" fill="#A5ACAF"></path>
                <path d="M199.011329,231.99039 C199.011329,231.99039 212.939859,221.505487 236.578682,225.306786 C271.548271,230.929368 270.550094,252.964374 270.550094,252.964374 C270.550094,252.964374 286.287035,246.193048 294.251565,232.349634 C294.251565,232.349634 284.374212,222.925752 266.5198,219.76775 C219.968859,211.54274 199.011329,231.99039 199.011329,231.99039" id="Fill-28" fill="#A5ACAF"></path>
                <path d="M88.9462941,223.064855 C85.4881765,224.092459 78.0164706,225.153481 81.5622941,219.835839 C81.5622941,219.835839 86.0603529,217.408855 92.0702941,214.292625 C94.6555294,216.410492 97.341,217.893417 104.37,218.561777 C104.37,218.561777 91.7487059,222.233582 88.9462941,223.064855 M103.455353,206.560531 C94.4759412,209.309163 83.0867059,208.528017 76.8011176,206.819521 C69.5507647,211.819692 43.4645294,222.985487 26.8672353,251.085863 C27.7234118,260.609999 28.7090588,272.799221 32.6224118,279.482824 C48.5807059,304.692542 76.4586471,295.377269 76.4586471,295.377269 C76.4586471,295.377269 34.1050588,276.579634 79.378,249.172682 C93.8327647,240.425515 133.818294,233.858875 157.665941,241.52831 C159.695706,242.280215 162.214118,244.063902 162.042882,244.5234 C159.570412,256.662495 149.559412,290.669506 132.962118,300.331491 C123.786412,286.930865 148.001588,256.157048 123.301941,254.987417 C123.301941,254.987417 129.445529,264.511552 126.797647,277.310653 C125.632412,282.929058 121.806765,297.929571 128.643647,313.456417 C128.643647,313.456417 166.190118,290.995332 177.332941,239.155631 C178.778,234.046851 179.755294,229.723395 181.968824,225.800955 C133.730588,244.815808 103.455353,206.560531 103.455353,206.560531" id="Fill-30" fill="#A5ACAF"></path>
                <path d="M81.5643824,219.834168 C78.0143824,225.15181 85.4860882,224.094965 88.9483824,223.063184 C91.7466176,222.231911 104.372088,218.560106 104.372088,218.560106 C97.3389118,217.891746 94.6576176,216.412998 92.0723824,214.295131 C86.0582647,217.411362 81.5643824,219.834168 81.5643824,219.834168" id="Fill-32" fill="#000000"></path>
            </g>
        </g>
    </g>
</svg>