<?xml version="1.0" encoding="UTF-8" standalone="no"?>
<svg width="500px" height="500px" viewBox="0 0 500 500" version="1.1" xmlns="http://www.w3.org/2000/svg" xmlns:xlink="http://www.w3.org/1999/xlink">
    <!-- Generator: Sketch 39.1 (31720) - http://www.bohemiancoding.com/sketch -->
    <title>PIT</title>
    <desc>Created with Sketch.</desc>
    <defs></defs>
    <g id="100x100-NFL" stroke="none" stroke-width="1" fill="none" fill-rule="evenodd">
        <g id="PIT">
            <g transform="translate(6.000000, 6.000000)">
                <path d="M0,243.994511 C0,378.541389 109.456149,488 244,488 C378.538363,488 488,378.541389 488,243.994511 C488,109.453122 378.538363,0 244,0 C109.456149,0 0,109.453122 0,243.994511" id="Fill-1" stroke="#000000" stroke-width="10.1700841" fill="#FFFFFF"></path>
                <path d="M244.271583,485.191362 C377.326964,485.191362 485.188592,377.318653 485.188592,244.263272 C485.188592,111.213431 377.326964,3.35180342 244.271583,3.35180342 C111.216201,3.35180342 3.35457379,111.213431 3.35457379,244.263272 C3.35457379,377.318653 111.216201,485.191362 244.271583,485.191362" id="Fill-4" fill="#A5ACAF"></path>
                <path d="M244.271583,445.8327 C355.26927,445.8327 445.245382,355.851048 445.245382,244.864442 C445.245382,133.866755 355.26927,43.8851025 244.271583,43.8851025 C133.273895,43.8851025 43.2922431,133.866755 43.2922431,244.864442 C43.2922431,355.851048 133.273895,445.8327 244.271583,445.8327" id="Fill-6" fill="#FFFFFF"></path>
                <path d="M245.316013,245.13206 C247.637584,162.813254 325.396359,143.487145 344.933016,145.260183 C296.772885,142.639412 249.244399,122.293807 245.570887,46.1307653 C239.76973,116.958072 211.351263,137.093129 145.859691,145.498435 C192.640177,147.869872 239.991359,166.381492 245.316013,245.13206" id="Fill-8" fill="#FFB612"></path>
                <path d="M345.208945,347.019105 C347.530515,264.700299 423.920727,244.387938 443.462925,246.160976 C395.142113,244.376857 348.599879,221.410481 344.931907,145.258521 C339.13075,216.085827 310.806477,236.725092 245.314905,245.130398 C292.09539,247.501835 339.878751,268.268537 345.208945,347.019105" id="Fill-10" fill="#C60C30"></path>
                <path d="M246.522786,444.999373 C248.838817,362.669485 325.666747,345.243851 345.208945,347.016889 C297.054355,344.401658 248.988417,321.296764 245.314905,245.133722 C239.513747,315.961029 211.937474,337.237479 146.451443,345.631703 C193.226388,348.014222 241.192592,366.248805 246.522786,444.999373" id="Fill-12" fill="#002776"></path>
                <path d="M189.321273,227.535771 L189.321273,257.671868 L197.316563,257.671868 L197.316563,240.207448 C197.410756,238.390085 196.956415,236.018647 203.71058,236.495151 L203.71058,227.319682 L201.760239,227.319682 C199.089601,227.912542 198.380386,229.159209 197.200208,231.236987 L197.166963,227.447119 L189.321273,227.535771 Z" id="Fill-14" fill="#000000"></path>
                <path d="M224.673424,237.362277 C224.612476,234.636232 224.113809,231.810454 222.595645,230.275668 C219.875141,227.52746 214.783199,226.10903 210.694131,228.098156 C209.464087,228.696557 208.566486,228.563579 206.510871,231.106779 C205.5357,232.30912 205.258663,234.093239 205.164471,235.639107 C204.970545,238.908144 206.050989,243.218842 210.500205,244.343612 C212.982458,244.969716 215.819318,245.29662 217.138014,247.296828 C217.863852,248.388354 217.653303,248.842695 217.33194,249.679347 C216.860977,250.870607 214.223584,250.848444 213.165302,250.432888 C212.118102,250.033955 211.458754,248.809451 211.597272,247.751169 L204.826485,247.795495 C204.959463,250.410725 204.976085,251.995377 205.97896,253.929096 C206.937508,255.801867 208.887849,257.16489 210.671968,257.707882 C214.301154,258.81049 218.307111,258.616564 221.265867,256.788119 C221.80886,256.450134 223.338105,255.064948 223.953127,253.951259 C224.978165,252.08957 225.582105,249.712592 224.667883,246.582072 C224.230164,245.080531 224.191379,244.903227 223.919883,244.376857 C222.301986,241.301745 220.235289,240.708886 218.091022,239.983048 C218.163052,239.983048 216.090814,239.506545 216.168385,239.506545 C212.384058,239.085448 212.151347,236.941181 212.655554,235.489506 C213.065569,234.287165 214.029658,233.888232 215.265244,233.888232 C216.323525,233.899313 217.359644,234.636232 217.548029,235.411936 C217.681007,235.96601 217.664385,236.603196 217.664385,237.329033 L224.673424,237.362277 Z" id="Fill-16" fill="#000000"></path>
                <path d="M94.7962117,227.709196 C94.9125673,223.891625 94.0869967,221.736276 93.2725076,220.295683 C90.1530698,214.788186 83.0720013,213.336511 77.276385,215.879712 C75.0988734,216.83272 73.5917915,218.566972 72.527969,220.456365 C71.4586058,222.373462 70.8657464,223.902707 70.7327686,226.085759 C70.4557315,230.706738 72.7662209,235.57705 77.1157035,238.292014 C80.1631117,240.198029 82.3960308,240.447363 84.9890981,242.935156 C86.3576614,244.242771 86.2523873,247.644787 85.8035872,248.42049 C84.5458387,250.65341 81.2768009,249.827839 80.4733933,248.985646 C79.6644449,248.143453 79.3098374,245.090504 79.4705189,243.877082 L70.8435834,243.932489 C70.5111389,247.727898 70.7715538,250.066091 71.9240281,252.642536 C73.0931247,255.274388 74.7331844,256.2551 76.8608294,257.274596 C81.4818083,259.46873 87.7151432,259.285886 92.2142259,255.086003 C93.3168335,254.060966 93.715767,252.858625 93.715767,252.858625 C94.7629672,250.315424 95.9320638,247.439779 95.1175747,242.796637 C94.7352635,240.619126 93.7933374,238.846088 93.3112928,238.164577 C91.7100183,235.903954 90.5298402,234.873376 86.2413058,232.784516 C86.3410392,232.784516 84.8893647,232.169494 84.9946388,232.169494 C80.4623118,230.717819 78.6615706,227.947448 80.0689191,225.005314 C80.844623,223.359714 83.7812163,222.711447 85.07775,223.891625 C85.9531872,224.689492 86.152654,226.412663 86.2246836,227.731359 L89.2499288,227.709196 L94.7962117,227.709196 Z" id="Fill-18" fill="#000000"></path>
                <path d="M99.2005476,227.55738 L96.0035394,227.657113 L96.0367839,234.610745 L99.0509476,234.516552 L99.1118957,250.512675 C99.1451402,259.006632 106.425675,257.693477 110.276491,257.79321 L110.282032,248.756259 C107.018535,248.811667 107.312194,248.1634 107.312194,246.539963 L107.312194,234.666152 L110.42055,234.72156 L110.392847,227.590624 L107.312194,227.657113 L107.28449,220.337793 L99.2005476,224.775927 L99.2005476,227.55738 Z" id="Fill-20" fill="#000000"></path>
                <polygon id="Fill-22" fill="#000000" points="156.282381 215.458615 156.282381 257.933945 164.421731 257.933945 164.421731 215.480778"></polygon>
                <path d="M173.776166,238.703691 L179.787872,238.725854 C181.034539,233.456608 172.767751,232.775097 173.776166,238.703691 L173.776166,238.703691 Z M173.482507,249.14799 C173.499129,251.851872 179.40556,252.405946 179.54962,248.992849 L179.54962,248.139575 L186.19851,248.10633 L186.209592,251.657946 C186.27054,254.018302 185.295369,256.583666 181.306035,257.95777 C177.067367,259.276467 174.424433,258.48414 171.953262,257.95777 C168.695306,256.76651 167.116194,254.178984 166.966594,250.533175 L166.966594,235.822505 C166.822535,233.063215 168.357321,230.664074 171.022418,228.907659 C175.560285,226.929614 178.048079,227.461525 181.455635,228.641703 C184.713591,230.414741 186.176347,232.608875 186.215133,235.672905 L186.215133,245.003515 L173.460344,245.003515 L173.482507,249.14799 Z" id="Fill-24" fill="#000000"></path>
                <path d="M141.394407,238.703691 L147.406112,238.725854 C148.652779,233.456608 140.385992,232.775097 141.394407,238.703691 L141.394407,238.703691 Z M141.100748,249.14799 C141.11737,251.851872 147.023801,252.405946 147.173401,248.992849 L147.173401,248.139575 L153.816751,248.10633 L153.833373,251.657946 C153.888781,254.018302 152.91361,256.583666 148.924276,257.95777 C144.691149,259.276467 142.048215,258.48414 139.571503,257.95777 C136.313547,256.76651 134.739976,254.178984 134.584835,250.533175 L134.584835,235.822505 C134.440776,233.063215 135.981102,230.664074 138.640658,228.907659 C143.184067,226.929614 145.67186,227.461525 149.073876,228.641703 C152.331832,230.414741 153.794588,232.608875 153.833373,235.672905 L153.833373,245.003515 L141.111829,245.003515 L141.100748,249.14799 Z" id="Fill-26" fill="#000000"></path>
                <path d="M119.342253,238.703691 L125.353959,238.725854 C126.600626,233.456608 118.333838,232.775097 119.342253,238.703691 L119.342253,238.703691 Z M119.048594,249.14799 C119.065216,251.851872 124.971647,252.405946 125.121247,248.992849 L125.121247,248.139575 L131.764597,248.10633 L131.78122,251.657946 C131.836627,254.018302 130.861456,256.583666 126.872122,257.95777 C122.638995,259.276467 119.99052,258.48414 117.519349,257.95777 C114.261393,256.76651 112.682281,254.178984 112.532681,250.533175 L112.532681,235.822505 C112.388622,233.063215 113.923408,230.664074 116.588505,228.907659 C121.126372,226.929614 123.619706,227.461525 127.021722,228.641703 C130.279678,230.414741 131.742434,232.608875 131.78122,235.672905 L131.78122,245.003515 L119.059676,245.003515 L119.048594,249.14799 Z" id="Fill-28" fill="#000000"></path>
            </g>
        </g>
    </g>
</svg>