<?xml version="1.0" encoding="UTF-8" standalone="no"?>
<svg width="500px" height="500px" viewBox="0 0 500 500" version="1.1" xmlns="http://www.w3.org/2000/svg" xmlns:xlink="http://www.w3.org/1999/xlink">
    <!-- Generator: Sketch 49 (51002) - http://www.bohemiancoding.com/sketch -->
    <title>SEA</title>
    <desc>Created with Sketch.</desc>
    <defs>
        <polygon id="path-1" points="0 4.45892432 498.4275 4.45892432 498.4275 224.756757 0 224.756757"></polygon>
    </defs>
    <g id="SEA" stroke="none" stroke-width="1" fill="none" fill-rule="evenodd">
        <g id="Page-1" transform="translate(0.000000, 135.000000)">
            <g id="Group-3" transform="translate(0.000000, 1.785568)">
                <mask id="mask-2" fill="white">
                    <use xlink:href="#path-1"></use>
                </mask>
                <g id="Clip-2"></g>
                <path d="M417.72125,185.107168 C395.0025,180.56833 365.18375,179.363384 352.59,179.363384 L52.8525,179.432059 C34.2025,179.432059 14.92125,179.432059 5.02125,164.204789 C-5.01625,148.752762 0.44,133.550465 17.37125,103.133384 C18.6275,100.879573 69.97125,4.45892432 69.97125,4.45892432 C69.97125,4.45892432 75.215,10.970627 80.5025,15.1161405 C85.72125,19.1992216 91.08375,21.3781135 105.39,21.3781135 C130.79625,21.3781135 294.6775,21.0222486 296.3525,21.0160054 C329.615,21.0160054 363.22125,24.4497892 384.99,48.3052216 C396.29625,49.5101676 432.78375,54.3299514 462.8525,68.6894108 C480.44625,77.086573 492.0525,89.6354919 496.44625,104.956411 C497.77125,109.595141 498.4275,114.458627 498.4275,119.509411 C498.4275,134.056168 492.9775,150.163735 482.29,166.908114 C459.70875,202.288573 438.88375,214.650195 437.94625,215.318222 C425.115,224.339708 412.69,224.758005 412.69,224.758005 C412.69,224.758005 423.88375,212.040519 427.65875,199.323032 C431.44,186.611789 417.72125,185.107168 417.72125,185.107168" id="Fill-1" fill="#FFFFFF" mask="url(#mask-2)"></path>
            </g>
            <path d="M459.14625,78.2303351 C424.87125,61.8605514 380.84,58.3206324 380.84,58.3206324 C361.6275,34.8710108 329.165,31.3935243 296.3525,31.3935243 C296.3525,31.3935243 131.1025,31.7556324 105.39,31.7556324 C75.47125,31.7556324 72.465,19.8997135 72.465,19.8997135 L32.3525,94.9247676 L136.52125,94.9247676 C169.3025,94.9247676 170.94625,91.6470649 192.69,75.6706054 C215.78375,58.7014703 234.22125,52.5643622 256.04625,52.5643622 C277.8525,52.5643622 292.29625,57.4715514 316.5775,68.2224162 C340.85875,78.9607946 353.765,84.1801459 368.215,78.0430378 C368.215,78.0430378 356.84,93.395173 322.42125,78.9607946 C288.0025,64.5326595 278.79,61.4609838 257.88375,61.4609838 C237.25875,61.4609838 213.64,71.3502811 184.07125,100.830876 L219.315,129.15647 C219.315,129.15647 211.15875,141.736605 205.79,149.765416 C200.44,157.80047 200.94,163.163416 203.79625,167.084173 C206.65875,171.017416 210.25875,172.796741 223.3025,172.796741 C236.34625,172.796741 340.89625,172.559497 352.59,172.559497 C362.75875,172.559497 394.57125,173.502227 419.4025,178.459362 C452.3775,185.052227 431.10875,212.828416 431.10875,212.828416 C431.10875,212.828416 453.18375,198.306632 475.04625,164.07493 C499.42125,125.885011 493.415,94.6001189 459.14625,78.2303351" id="Fill-4" fill="#002A5C"></path>
            <path d="M398.586875,84.3818027 C382.999375,80.6545865 396.324375,71.6393432 396.324375,71.6393432 C373.886875,76.1656946 365.543125,94.4459108 363.618125,99.559127 C363.255625,100.252127 362.886875,100.963857 362.511875,101.713046 C350.099375,126.661046 338.918125,125.324992 317.724375,125.324992 L281.430625,125.324992 C252.030625,125.324992 238.336875,139.877992 224.243125,164.669911 L240.849375,164.669911 C256.024375,142.094343 267.480625,136.013424 297.493125,134.321505 C366.080625,134.358965 420.755625,154.012695 449.649375,169.033938 C490.749375,100.102289 429.755625,88.6958838 398.586875,84.3818027" id="Fill-6" fill="#FFFFFF"></path>
            <path d="M270.931875,164.400827 C278.600625,152.819611 294.200625,148.886368 319.344375,150.328557 C381.400625,153.918422 417.075625,165.992854 444.800625,176.306692 C410.613125,156.32207 349.700625,141.912665 307.363125,142.050016 C286.669375,142.112449 268.600625,145.721043 257.981875,164.400827 L270.931875,164.400827 Z" id="Fill-8" fill="#FFFFFF"></path>
            <path d="M337.53375,96.0179595 C329.44625,107.287014 318.79625,111.139095 288.58375,109.072581 C253.43375,106.687662 262.5025,91.8974189 266.59625,84.6115541 C266.59625,84.6115541 266.50875,84.6115541 266.4775,84.5990676 C267.59625,82.5387973 269.515,79.0425811 271.4525,75.5213919 C244.52125,73.8606892 224.8525,94.5632838 224.8525,94.5632838 C244.9275,114.404311 258.32125,116.477068 276.48375,116.477068 L310.44,116.477068 C342.00875,116.477068 349.64,102.286176 352.53375,95.9742568 C347.08375,96.6547703 342.1775,96.5985811 337.53375,96.0179595" id="Fill-10" fill="#FFFFFF"></path>
            <path d="M322.204375,92.6615919 C321.566875,92.3993757 320.898125,92.1309162 320.235625,91.8562135 C317.135625,95.1151865 311.798125,97.0068892 306.623125,96.3388622 C299.816875,95.4710514 295.891875,90.5264027 297.823125,85.3132946 C298.104375,84.5453757 298.504375,83.8274027 298.991875,83.1406459 C295.504375,81.7733757 291.991875,80.4622946 288.579375,79.2760784 C281.585625,90.5763486 277.485625,98.0682405 301.754375,100.109781 C316.879375,101.402132 320.979375,98.8111865 324.154375,93.3920514 C323.504375,93.1423216 322.873125,92.9300514 322.204375,92.6615919" id="Fill-12" fill="#77C25F"></path>
            <path d="M200.29,135.608238 C187.765,157.322238 182.79625,162.310589 191.59625,172.611941 L52.8525,172.611941 C32.39,172.611941 19.09,171.844022 12.24625,161.299184 C5.59,151.066508 6.95875,141.308319 24.89625,109.093184 L142.8525,109.093184 C163.165,109.093184 168.38375,110.248184 179.40875,118.795184 C190.4275,127.348427 200.29,135.608238 200.29,135.608238" id="Fill-14" fill="#B2B5B8"></path>
        </g>
    </g>
</svg>