<?xml version="1.0" encoding="UTF-8" standalone="no"?>
<svg width="500px" height="500px" viewBox="0 0 500 500" version="1.1" xmlns="http://www.w3.org/2000/svg" xmlns:xlink="http://www.w3.org/1999/xlink">
    <!-- Generator: Sketch 39.1 (31720) - http://www.bohemiancoding.com/sketch -->
    <title>SF</title>
    <desc>Created with Sketch.</desc>
    <defs></defs>
    <g id="100x100-NFL" stroke="none" stroke-width="1" fill="none" fill-rule="evenodd">
        <g id="SF">
            <g transform="translate(2.000000, 103.000000)">
                <path d="M249.057891,295.014806 C333.520546,295.014806 416.738227,266.375937 461.068227,222.04149 C483.575595,199.529676 495.473998,173.531932 495.473998,146.845005 C495.473998,120.353717 483.731217,94.613861 461.5262,72.4043977 C417.543014,28.4212123 334.14748,0.000213424272 249.057891,0.000213424272 C189.476948,0.000213424272 128.682155,14.0239666 82.2490369,38.4788311 C29.2131053,66.4107327 0.000658058172,104.898243 0.000658058172,146.845005 C0.000658058172,173.149547 11.7879027,198.836047 34.0818465,221.129991 C56.3668976,243.415042 88.7451381,262.160807 127.726192,275.344202 C165.769069,288.216354 207.72917,295.014806 249.057891,295.014806" id="Fill-1" stroke="#FFFFFF" stroke-width="3" fill="#FFFFFF"></path>
                <path d="M85.9283824,45.4640297 C35.6091639,71.9642101 7.89513295,107.970663 7.89513295,146.845005 C7.89513295,171.010858 18.8820366,194.763201 39.6686714,215.554282 C61.0955791,236.976743 92.4200373,255.068896 130.253936,267.869906 C167.496471,280.461938 208.580644,287.122554 249.060114,287.122554 C331.53081,287.122554 412.560892,259.381845 455.485848,216.456889 C476.481461,195.465722 487.579523,171.393243 487.579523,146.845005 C487.579523,122.492407 476.641529,98.6822612 455.943821,77.9845531 C413.370125,35.4064109 332.157743,7.89691149 249.060114,7.89691149 C190.7197,7.89691149 131.263255,21.5871893 85.9283824,45.4640297" id="Fill-4" fill="#000000"></path>
                <path d="M248.914274,273.13037 C321.718629,273.13037 390.712471,249.369134 428.955433,211.126173 C448.248098,191.829062 458.447999,169.806344 458.447999,147.42792 C458.447999,125.053942 448.248098,103.031225 428.955433,83.7385604 C390.708025,45.4911524 321.718629,21.7343631 248.914274,21.7343631 C195.45594,21.7343631 142.237709,34.9310972 102.905394,57.9453479 C61.9368264,81.9200078 39.3761023,113.697993 39.3761023,147.42792 C39.3761023,169.806344 49.576004,191.829062 68.8731153,211.126173 C107.111631,249.369134 176.105473,273.13037 248.914274,273.13037" id="Fill-6" fill="#B3995D"></path>
                <path d="M249.292213,268.66669 C356.008795,268.66669 442.525659,213.376465 442.525659,146.756968 C442.525659,80.1374705 356.008795,26.132237 249.292213,26.132237 C142.571184,26.132237 56.0587663,80.1374705 56.0587663,146.756968 C56.0587663,213.376465 142.571184,268.66669 249.292213,268.66669" id="Fill-8" fill="#B8083E"></path>
                <path d="M400.433057,131.6034 L399.903943,131.6034 L399.903943,127.201524 L396.031182,127.201524 L323.23572,127.201524 C321.590574,118.580073 316.62846,110.576663 309.545442,104.329556 C302.569136,96.3128071 292.440376,90.2835714 280.902126,87.9937069 L276.126758,87.0066196 C265.064267,84.6811843 256.322764,82.8404 221.161115,83.0226999 C221.161115,83.0182535 214.393787,82.7870439 207.830991,81.9200078 C206.16806,81.4976056 204.709661,80.9951693 203.46024,80.4527159 C203.944891,77.5270248 209.298283,73.4941954 215.336411,72.7160861 C215.963345,72.6004812 254.015114,65.5974973 293.187361,90.9683076 L294.14777,91.5863488 L319.892073,91.5863488 L319.892073,52.1917852 L315.485751,52.1917852 L315.485751,47.7899096 L280.159587,47.7899096 C280.159587,47.7899096 275.96669,50.99572 274.20594,52.3385144 C264.032716,49.7907622 214.22038,38.8883389 171.197604,57.7230309 C153.11879,65.1928805 141.900676,79.2922214 142.701017,93.6138793 C143.105634,100.834734 146.56044,107.13075 152.536319,112.01283 C156.929302,117.499612 163.838913,121.776991 172.838303,124.373653 C185.577064,128.041882 196.359436,129.553637 206.817226,130.153893 L206.817226,131.412207 L206.817226,148.112656 L211.214655,148.112656 L211.214655,152.514532 L224.655938,152.514532 C230.218308,152.514532 231.645583,155.595845 231.987951,156.743 C214.847314,155.622523 188.773982,150.744889 169.583583,132.986211 L168.863276,132.208102 L168.729886,132.208102 C167.667211,131.194337 166.626767,130.145001 165.608556,129.051201 L164.4614,127.806226 L145.142057,127.806226 L145.142057,183.883454 L149.543933,183.883454 L149.543933,188.276437 L165.301758,188.276437 C167.613855,188.440951 174.928082,187.627271 179.98357,172.860979 C188.182619,175.719975 208.377891,181.798121 233.241818,182.473964 L233.241818,217.35994 C232.379229,229.076043 206.572677,232.739827 197.586626,233.095534 L193.869486,233.242263 L193.869486,250.587431 L198.266916,250.587431 L198.266916,254.980414 L311.568526,254.980414 L311.568526,238.386677 L308.678406,237.621907 C308.158184,237.488517 307.66464,237.35068 307.162204,237.212844 L307.162204,233.41567 L303.631811,233.113319 C297.260207,232.548634 292.355895,231.445942 288.558722,230.089809 C281.43124,226.096996 280.212943,222.855615 280.061768,222.335393 L280.061768,203.736357 L313.262581,203.736357 C316.770743,204.265472 319.776468,205.799459 322.328666,207.800311 C327.108481,213.687264 329.287187,220.419021 329.322758,220.53018 L330.167562,223.255786 L333.022112,223.264678 L333.111039,223.264678 C333.506763,224.265105 333.711294,224.896485 333.724633,224.932055 L334.569438,227.662107 L337.423987,227.666554 L352.412596,227.666554 L352.412596,160.19336 L348.539835,160.19336 L348.010721,160.19336 L348.010721,155.787038 L344.137959,155.787038 L330.247596,155.787038 L329.607323,158.872797 C324.956453,181.295684 299.025404,180.966655 275.975582,177.605223 C280.493063,176.378033 285.032775,174.884064 289.559148,173.087743 C301.906631,168.183431 311.168356,161.513922 316.94415,153.697258 L366.707576,153.697258 C370.17572,153.808417 373.123643,154.675453 375.6047,156.302813 C380.824702,163.950516 380.304481,175.226432 380.295588,175.355376 L380.073271,179.437115 L384.163903,179.437115 L384.706356,179.437115 C384.70191,179.619415 384.697464,179.739466 384.697464,179.748358 L384.475147,183.830098 L388.561332,183.83899 L404.305819,183.83899 L404.305819,131.6034 L400.433057,131.6034 Z" id="Fill-10" fill="#000000"></path>
                <path d="M321.058792,145.419954 L362.303033,145.419954 C385.85529,146.175831 384.161235,175.561686 384.161235,175.561686 L396.028514,175.561686 L396.028514,131.071618 L324.851519,131.071618 C324.851519,131.071618 324.682558,141.035863 321.058792,145.419954" id="Fill-12" fill="#FFFFFF"></path>
                <path d="M237.116803,183.413476 L237.116803,217.579145 C235.898506,235.484552 197.740025,236.969629 197.740025,236.969629 L197.740025,246.711558 L303.291666,246.711558 L303.291666,236.969629 C271.927191,234.252916 271.784908,218.263881 271.784908,218.263881 L271.784908,195.458608 L309.285331,195.458608 C326.425968,197.908541 333.019889,219.393251 333.019889,219.393251 L344.135736,219.393251 L344.135736,159.661133 L333.397827,159.661133 C325.936871,195.640908 270.793374,179.451788 266.716081,180.358841 C266.716081,180.358841 253.132516,183.751397 237.116803,183.413476" id="Fill-14" fill="#FFFFFF"></path>
                <path d="M270.047723,124.644879 C284.38272,128.842223 285.707729,139.780217 277.32638,150.01569 C266.588472,160.148896 250.190373,160.566852 250.190373,160.566852 C250.190373,160.566852 194.989075,166.529393 162.766456,131.678988 L149.013929,131.678988 L149.013929,180.010692 L161.072401,180.010692 C161.072401,180.010692 168.417753,181.140063 173.130872,163.425848 C173.130872,163.425848 229.817248,186.497901 283.733555,165.088779 C335.95136,144.346607 316.076225,98.9139154 280.149805,91.7908804 C266.330584,89.0519355 260.834909,86.6864832 221.178011,86.8954611 C221.178011,86.8954611 214.014959,86.6686978 207.0431,85.726074 C185.189343,80.2615233 197.625754,66.131058 210.440103,64.4725735 C210.440103,64.4725735 249.816881,56.7092657 290.887714,83.3161582 L311.620993,83.3161582 L311.620993,51.6582246 L281.470368,51.6582246 L275.063194,56.5580901 C275.063194,56.5580901 219.168266,40.9514402 172.752933,61.2712095 C141.557419,74.1611462 135.443703,106.428228 169.511552,116.245745 C199.52434,124.898321 218.652491,121.274554 249.056557,122.435049 C257.553511,122.759631 264.943326,123.093107 270.047723,124.644879" id="Fill-16" fill="#FFFFFF"></path>
                <path d="M225.010756,144.243008 L210.689098,144.243008 L210.689098,131.410873 C221.78716,131.410873 244.427918,131.508693 260.452524,131.410873 C276.566056,131.410873 278.718084,140.7304 271.928525,147.035309 C265.52135,152.975617 252.115638,157.204086 236.233315,154.318412 C236.233315,154.318412 234.921645,144.243008 225.010756,144.243008" id="Fill-18" fill="#FFFFFF"></path>
            </g>
        </g>
    </g>
</svg>