<?xml version="1.0" encoding="UTF-8" standalone="no"?>
<svg width="500px" height="500px" viewBox="0 0 500 500" version="1.1" xmlns="http://www.w3.org/2000/svg" xmlns:xlink="http://www.w3.org/1999/xlink">
    <!-- Generator: Sketch 39.1 (31720) - http://www.bohemiancoding.com/sketch -->
    <title>TEN</title>
    <desc>Created with Sketch.</desc>
    <defs></defs>
    <g id="100x100-NFL" stroke="none" stroke-width="1" fill="none" fill-rule="evenodd">
        <g id="TEN">
            <g transform="translate(5.000000, 75.000000)">
                <path d="M159.149364,203.686685 C159.632404,209.47321 161.689061,220.986503 168.347051,233.834382 C176.573677,249.700018 193.808758,270.8542 229.354556,282.835594 C234.991687,291.689675 241.634737,299.966099 249.149253,307.455715 C276.169636,334.396422 312.06402,349.206341 350.219232,349.146584 C388.379424,349.091806 424.22899,334.182291 451.169697,307.156927 C478.110404,280.141523 492.925303,244.247139 492.865545,206.086947 C492.805788,167.926756 477.896273,132.07719 450.880869,105.136483 C429.472717,83.7880889 402.616667,70.0538061 373.071525,65.2881394 C333.073788,29.0700687 286.378222,42.0474222 284.371364,42.6300586 C283.704071,42.8192909 282.703131,43.1081192 281.458182,43.4865838 C267.086485,48.2671899 259.656626,42.7844323 254.841162,39.0147253 C249.507798,34.8316949 243.686414,30.5839273 238.069202,27.4267354 C218.991596,16.6952707 191.876596,16.3118263 169.039242,25.5194727 C153.995273,30.6436848 146.41104,24.0155737 141.924242,20.9181394 C112.130111,0.361533333 75.4987172,-4.54356768 36.6363737,4.01172525 C10.4675354,9.77833131 0,15.1017354 0,15.1017354 C0,15.1017354 17.9272727,17.7011899 36.6562929,25.5294323 C52.0339091,31.9533717 64.2593131,40.1999172 73.5167576,55.0098364 C73.5167576,55.0098364 79.3431212,63.5651293 75.5584747,66.0898869 C71.3206667,68.9134323 66.9085657,62.0014727 66.9085657,62.0014727 C66.7641515,66.9762909 66.7641515,71.9262101 67.0928182,75.6859576 C69.2440909,115.190695 77.301404,138.919432 96.3541111,157.050877 C105.023939,165.297422 119.649606,173.319877 142.247929,182.198857 C152.556111,186.322129 158.133485,191.605695 159.149364,203.686685" id="Fill-1" stroke="#FFFFFF" stroke-width="5" fill="#FFFFFF"></path>
                <path d="M444.4395,111.589803 C423.713581,90.9236414 397.405308,77.8865303 368.925843,73.8827727 C331.801449,38.3618737 286.913551,51.3790657 286.913551,51.3790657 C296.424965,52.7933283 302.744328,58.4653182 300.304227,64.7498232 C298.690773,68.9029747 291.778813,69.1220859 288.621621,69.1569444 C278.597288,69.2665 269.937419,63.1114697 263.02546,57.4942576 C255.834631,51.6479747 244.107207,41.2750556 233.604813,35.3690152 C214.044167,24.3686414 182.985167,25.7380859 160.501379,40.0898636 C173.941854,41.0011667 190.116237,44.8704697 199.767086,52.8580657 C205.150247,57.3199646 212.017389,66.2885808 206.400177,70.4765909 C201.465197,74.1616414 189.334409,72.2593586 183.174399,68.6888434 C173.369177,63.0168535 164.544975,54.4217222 159.251449,48.1870152 C123.675773,6.26707576 73.2652778,3.92657071 31.698904,14.1949141 C58.9782374,21.8538434 77.1843788,37.3957929 88.4287626,64.1871061 C99.6781263,90.9784192 108.417672,102.382157 126.9475,109.642702 C138.550429,114.184278 141.687702,115.025864 140.776399,120.169995 C139.441813,127.699449 125.702551,124.084116 115.215096,119.990722 C102.446894,115.005944 85.6201566,101.236803 75.5958232,75.4115707 C77.4184293,108.826015 83.7975505,132.519894 102.631146,150.447167 C110.628702,158.056298 125.329066,165.929359 148.325773,174.77846 C163.006217,180.43053 174.629066,183.851652 185.559722,193.651894 C198.317965,205.070571 192.885005,212.614965 184.424328,211.185763 C174.853157,209.572308 168.020874,199.796965 168.020874,199.796965 C168.020874,199.796965 168.035813,254.236116 235.322843,275.196086 C240.925116,284.483409 247.702621,293.148258 255.585641,301.001399 C280.883015,326.229056 314.486692,340.087833 350.206783,340.033056 C385.926874,339.978278 419.490712,326.024884 444.723348,300.72253 C469.941045,275.425157 483.809783,241.82148 483.755005,206.101389 C483.705207,170.376318 469.736874,136.81248 444.4395,111.589803" id="Fill-4" fill="#002244"></path>
                <path d="M437.329842,118.363822 C417.256277,98.2952364 391.490802,85.9901556 363.68361,82.947499 C339.755681,59.0992465 315.882529,60.2147212 315.882529,60.2147212 C326.360024,66.7880545 320.956943,81.4087414 297.656469,84.6306707 C274.570125,87.8177414 245.254055,79.9944788 230.976974,63.3619535 C216.261671,46.2214889 205.151741,45.4396606 205.151741,45.4396606 C217.914964,53.4123172 218.826267,62.9834889 226.569853,77.5643374 C234.318418,92.1451859 250.268711,97.3839333 264.162347,98.2952364 C278.797974,99.2563374 279.156519,105.879469 267.354398,112.881065 C254.48162,120.510115 243.087842,113.299368 234.806438,105.142459 C221.734469,92.2447818 208.707317,89.774802 190.710327,90.0038727 C172.713337,90.2329434 148.924842,92.5983475 128.841317,85.0838323 C108.757792,77.5643374 95.5165091,51.1365495 95.5165091,51.1365495 C105.446226,86.2242061 127.516691,102.856731 147.99362,106.870448 C175.048863,112.178913 193.752984,118.617792 205.19656,127.885196 C216.371226,136.948428 222.322085,145.986762 226.520055,158.461156 C229.761903,168.077145 230.33956,180.845347 227.142529,181.607257 C223.41764,182.49864 222.645772,177.359489 218.24861,168.395853 C213.393307,158.496014 207.596822,150.727529 195.904257,144.492822 C180.058539,136.042105 164.551448,136.530125 148.74059,136.749236 C136.216398,136.923529 128.871196,135.489347 128.871196,135.489347 C128.871196,135.489347 129.399055,137.177499 149.801287,141.758913 C172.544024,146.863206 194.539792,159.681206 209.175418,190.924459 C221.629893,217.50164 215.131257,236.210741 187.538196,227.745085 C187.538196,227.745085 200.425913,256.393863 242.520145,266.597469 C247.953105,276.148721 254.705711,285.027701 262.683347,293.005337 C286.008721,316.330711 317.017923,329.17361 350.004105,329.17361 C382.990287,329.17361 413.994509,316.330711 437.329842,293.005337 C460.655216,269.679964 473.493135,238.665782 473.493135,205.6796 C473.493135,172.698398 460.655216,141.689196 437.329842,118.363822" id="Fill-6" fill="#4B92DB"></path>
                <path d="M350.006097,88.2275788 C381.373844,88.2275788 410.874168,100.443023 433.059168,122.628023 C455.244168,144.813023 467.459612,174.308367 467.459612,205.681094 C467.459612,270.448346 414.773349,323.144569 350.006097,323.144569 C318.63337,323.144569 289.133046,310.924144 266.948046,288.739144 C244.763046,266.554144 232.547602,237.058801 232.547602,205.681094 C232.547602,174.308367 244.763046,144.813023 266.948046,122.628023 C289.133046,100.443023 318.63337,88.2275788 350.006097,88.2275788" id="Fill-8" fill="#FFFFFF"></path>
                <path d="M350.156487,313.009186 C290.891911,313.098822 242.767143,265.118469 242.677507,205.843933 C242.587871,146.574378 290.573204,98.4545899 349.84276,98.3649535 C409.112315,98.280297 457.237083,146.26563 457.326719,205.535186 C457.416356,264.804741 409.436002,312.924529 350.156487,313.009186" id="Fill-10" fill="#002244"></path>
                <polygon id="Fill-12" fill="#FFFFFF" points="323.760072 183.972163 291.954102 183.972163 281.476607 202.661344 267.378799 162.693486 432.329627 162.693486 418.256718 202.661344 407.8589 183.972163 376.590748 183.972163 350.108183 299.827163"></polygon>
                <polygon id="Fill-14" fill="#A5ACAF" points="432.330623 162.690996 267.379795 162.690996 270.048967 170.265269 348.709856 170.265269 323.761068 183.969673 350.109179 299.809733 350.109179 170.265269 429.666431 170.265269"></polygon>
                <path d="M269.025618,69.9935505 C245.102669,69.3113182 235.352224,59.824803 220.497487,47.8932071 C202.316244,33.2874596 182.148063,37.3559545 182.148063,37.3559545 C194.224073,30.4439949 217.972729,30.1601465 235.078335,45.159298 C250.361335,58.5599343 257.860911,65.8304394 269.025618,69.9935505" id="Fill-16" fill="#C60C30"></path>
                <path d="M64.8494192,17.3067899 C64.8494192,17.3067899 87.2286313,16.7689717 106.794258,51.8665879 C123.237551,81.3718909 154.600318,87.2779313 177.557187,80.7792949 C177.557187,80.7792949 147.319854,79.9924869 130.776965,50.6764162 C113.87553,20.7129717 91.5112576,12.3767899 64.8494192,17.3067899" id="Fill-18" fill="#C60C30"></path>
                <path d="M191.551913,187.264307 C191.551913,187.264307 188.384762,154.64663 141.893368,145.185014 C95.0932263,135.66364 89.0626909,111.307448 89.0626909,111.307448 C89.0626909,111.307448 89.3764182,146.429964 129.648044,157.226166 C157.773943,164.7606 178.410226,169.093024 191.551913,187.264307" id="Fill-20" fill="#C60C30"></path>
                <polygon id="Fill-22" fill="#C60C30" points="366.124707 152.371361 359.800364 133.557684 375.800455 121.969694 355.95596 121.969694 349.716273 103.156017 343.765414 121.969694 323.920919 122.203744 340.090323 133.712058 334.059788 152.620351 350.005101 140.79831"></polygon>
                <polygon id="Fill-24" fill="#C60C30" points="295.310984 218.889012 282.174277 233.768648 264.002994 225.795992 274.092065 242.886659 260.8956 257.711517 280.267014 253.394032 290.286368 270.524537 292.163752 250.764699 311.560065 246.536851 293.343964 238.643871"></polygon>
                <polygon id="Fill-26" fill="#C60C30" points="388.319667 246.963619 407.780717 250.89766 409.961869 270.622639 419.717293 253.337761 439.148465 257.356458 425.727909 242.735771 435.548071 225.49571 417.506263 233.747235 404.145465 219.066791 406.411273 238.786791"></polygon>
            </g>
        </g>
    </g>
</svg>