<?xml version="1.0" encoding="UTF-8" standalone="no"?>
<svg width="500px" height="500px" viewBox="0 0 500 500" version="1.1" xmlns="http://www.w3.org/2000/svg" xmlns:xlink="http://www.w3.org/1999/xlink">
    <!-- Generator: Sketch 45.1 (43504) - http://www.bohemiancoding.com/sketch -->
    <title>WAS</title>
    <desc>Created with Sketch.</desc>
    <defs>
        <polygon id="path-1" points="0 252.337264 0 4.6745283 457.419237 4.6745283 457.419237 500 228.709619 500 0 500"></polygon>
    </defs>
    <g id="Page-1" stroke="none" stroke-width="1" fill="none" fill-rule="evenodd">
        <g id="WAS">
            <g id="red-mark-1-web" transform="translate(21.000000, 0.000000)">
                <g id="Group-3">
                    <mask id="mask-2" fill="white">
                        <use xlink:href="#path-1"></use>
                    </mask>
                    <g id="Clip-2"></g>
                    <path d="M141.970557,380.976415 C140.379361,381.514151 137.083649,380.627358 137.083649,380.627358 C138.183794,389.29717 139.387814,392.273585 139.387814,392.273585 L137.475546,394.608491 L139.779711,396.377358 C137.296124,413.54717 144.595794,425.363208 147.96233,436.872642 C145.304041,437.754717 142.258577,437.613208 139.987464,436.372642 C140.875134,446.108491 140.06301,464.867925 132.177856,473.009434 C130.671649,472.037736 129.590392,471.768868 129.004907,470.886792 C127.819773,473.632075 126.936825,474.693396 124.542948,481.683962 C123.216165,486.372642 122.064082,492.924528 121.440825,500 C114.958,496.674528 107.889691,493.183962 101.510742,482.443396 C100.094247,479.915094 99.102701,477.858491 95.6322887,474.481132 C94.8343299,476.070755 94.6926804,476.551887 93.0967629,478.051887 C91.411134,479.641509 87.02,481.589623 86.9869485,481.415094 C86.0992784,477.09434 85.0369072,473.099057 82.4683299,468.231132 C80.0083505,462.834906 71.5707629,455.665094 64.6629897,438.141509 C61.83,431.419811 60.4182268,425.433962 59.2425361,418.5 C58.7137113,418.764151 58.354866,418.943396 58.0007423,419.033019 C55.4321649,419.735849 53.5907216,419.561321 52.7030515,417.617925 C50.5263711,423.476415 47.8350309,426.731132 45.530866,428.320755 C44.4684948,431.683962 44.6431959,432.570755 42.3437526,435.316038 C40.2190103,438.5 39.5060412,439.29717 38.0376082,445.311321 C35.643732,451.419811 32.0647216,454.429245 31.5358969,456.018868 C30.6482268,454.070755 30.2941031,454.429245 29.4111546,453.014151 C20.7280412,464.514151 19.6656701,467.523585 0,471.59434 C4.96245361,461.858491 8.32898969,445.580189 7.97014433,442.216981 C5.49127835,419.386792 3.19183505,414.603774 1.93587629,396.90566 C1.20402062,388.056604 -0.882948454,366.292453 1.06709278,337.264151 C3.19183505,302.221698 13.107299,271.957547 21.6109897,249.127358 C32.598268,217.268868 57.7504948,165.943396 76.108268,134.584906 L76.1790928,106.127358 L83.2662887,106.127358 L90.7028866,89.1367925 L94.0694227,91.6179245 L106.82732,57.6320755 L115.859835,83.2971698 L131.304351,73.5518868 C137.475546,67.8962264 181.410495,4.54245283 274.445876,4.6745283 C364.591608,4.54245283 457.419237,74.9764151 457.419237,187.542453 C457.419237,289.834906 373.803546,368.764151 277.283588,368.773585 C202.49266,368.764151 154.308227,330.716981 128.759381,295.849057 C130.388351,313.372642 126.988763,348.235849 141.970557,380.976415" id="Fill-1" fill="#FFFFFE" mask="url(#mask-2)"></path>
                </g>
                <path d="M274.667794,13.0754717 C202.846784,13.0754717 141.205649,56.6132075 114.726639,118.70283 L88.946433,118.740566 L88.946433,124.419811 L112.436639,124.419811 C105.000041,143.745283 100.882763,164.740566 100.882763,186.688679 C100.882763,282.570755 178.695546,360.306604 274.667794,360.306604 C370.649485,360.306604 448.457546,282.570755 448.457546,186.688679 C448.457546,90.8066038 370.649485,13.0754717 274.667794,13.0754717" id="Fill-4" fill="#F2AF2B"></path>
                <polyline id="Fill-5" fill="#FFFFFE" points="102.530619 128.650943 109.400619 133.084906 110.925711 128.650943 102.530619 128.650943"></polyline>
                <path d="M274.667794,336.075472 C357.254165,336.075472 424.202433,269.188679 424.202433,186.688679 C424.202433,104.188679 357.254165,37.3018868 274.667794,37.3018868 C192.086144,37.3018868 125.137876,104.188679 125.137876,186.688679 C125.137876,269.188679 192.086144,336.075472 274.667794,336.075472" id="Fill-6" fill="#FFFFFE"></path>
                <path d="M180.53699,172.542453 C180.53699,172.542453 168.312639,202.09434 168.846186,225.462264 C168.846186,225.462264 172.651835,216.698113 173.98334,218.20283 C173.98334,218.20283 162.996062,255.014151 171.325052,276.075472 C171.325052,276.075472 173.09567,270.235849 176.108082,266.693396 C176.108082,266.693396 180.711691,259.438679 182.482309,253.59434 C182.482309,253.59434 183.369979,256.075472 183.903526,260.5 C183.903526,260.5 187.978309,255.367925 188.861258,251.825472 C189.55534,249.056604 191.340124,245.990566 192.581918,242.448113 L194.003134,243.160377 C194.003134,243.160377 202.327402,233.066038 205.514515,223.867925 C205.514515,223.867925 207.998103,223.514151 206.756309,230.768868 C206.756309,230.768868 213.664082,224.042453 213.843505,213.599057 L215.26,215.193396 C221.105402,222.45283 221.105402,233.599057 220.930701,240.5 C219.509485,262.622642 208.172804,274.481132 194.003134,287.400943 L195.244928,288.462264 C216.322371,284.570755 230.213464,282.29717 251.574206,288.462264 C259.71433,290.811321 279.389443,299.787736 288.955505,305.811321 C288.955505,305.811321 310.217093,315.014151 325.099732,315.014151 C325.099732,315.014151 325.803258,315.363208 325.803258,314.566038 C325.803258,314.566038 324.212062,309.080189 325.628557,288.462264 C325.628557,288.462264 327.224474,278.910377 328.461546,272.358491 C328.461546,272.358491 330.057464,267.933962 330.232165,258.90566 C330.24633,258.179245 329.523918,252.712264 333.244577,253.240566 C341.318598,254.396226 345.823052,252.537736 352.027299,251.471698 C352.027299,251.471698 358.576227,249.528302 361.239237,249.349057 C361.239237,249.349057 367.467093,250.34434 369.384082,249.70283 C371.513546,248.995283 373.81299,247.226415 376.650701,244.570755 C376.650701,244.570755 379.837814,241.207547 377.713072,233.599057 C377.713072,233.599057 375.58833,226.698113 376.830124,224.570755 C376.830124,224.570755 378.685732,219.882075 381.433732,217.141509 C381.433732,217.141509 383.379052,213.95283 380.725485,212.363208 C380.725485,212.363208 379.304268,210.768868 381.698144,210.146226 C381.698144,210.146226 383.468763,210.330189 384.620845,209.707547 C384.620845,209.707547 385.244103,209.443396 385.329093,208.117925 C385.423526,206.688679 386.042062,199.79717 381.433732,193.778302 C381.433732,193.778302 382.760515,194.132075 383.733175,194.485849 C383.733175,194.485849 389.408598,195.014151 392.326577,193.603774 C394.895155,192.188679 398.620536,190.415094 398.08699,181.919811 C396.670495,174.839623 393.832784,170.59434 390.999794,162.627358 C387.633258,154.132075 387.099711,149.886792 380.012515,144.04717 C375.763031,142.099057 373.81299,138.919811 377.004825,135.726415 C379.483691,132.014151 378.600742,125.287736 374.167113,120.688679 C369.917629,116.438679 366.730515,109.891509 365.134598,106.528302 C363.009856,102.985849 360.705691,99.0943396 358.576227,96.7924528 C356.451485,94.1367925 353.264371,92.5471698 347.59367,85.8207547 C347.59367,85.8207547 344.227134,82.8113208 343.698309,79.6273585 C338.915278,72.1886792 325.628557,61.75 310.391794,60.6886792 C305.962887,60.1603774 305.962887,60.1603774 302.775773,59.8018868 C297.459196,57.8537736 280.81066,57.3254717 269.469258,60.509434 C265.795814,61.2971698 258.486701,62.6367925 258.486701,62.6367925 C254.586619,63.8726415 249.09534,64.9339623 243.075237,68.6509434 C238.64633,70.9528302 232.087959,76.4386792 227.130227,79.9811321 C221.818371,85.2877358 209.943423,93.0754717 203.389773,97.5 C190.636598,106.882075 179.654041,119.268868 173.270371,127.056604 C173.270371,127.056604 157.15066,147.235849 149.180515,182.099057 C148.646969,187.40566 147.235196,192.537736 148.118144,198.377358 C148.118144,198.377358 155.20534,182.985849 161.75899,178.20283 C161.75899,178.20283 160.87132,181.037736 160.342495,185.636792 C160.342495,185.636792 163.709031,179.443396 165.125526,178.382075 C165.125526,178.382075 167.604392,175.726415 171.145629,171.476415 C171.145629,171.476415 178.586948,161.745283 180.711691,160.683962 C177.963691,165.816038 177.349876,169.179245 177.080742,174.485849 C178.232825,173.424528 178.941072,172.627358 179.299918,172.009434 C179.299918,172.009434 180.003443,170.59434 180.711691,170.948113 C181.070536,171.830189 180.53699,172.542453 180.53699,172.542453" id="Fill-7" fill="#0A0B09"></path>
                <path d="M394.276619,188.023585 C396.136948,184.132075 395.782825,180.325472 393.124536,175.726415 C391.53334,173.070755 390.466247,170.061321 389.229175,166.34434 C388.695629,164.84434 387.633258,161.745283 386.391464,159.089623 C386.301753,158.028302 384.092021,153.070755 382.675526,151.127358 C379.129567,145.995283 376.206866,145.551887 374.261546,143.424528 C374.261546,143.429245 373.553299,143.377358 373.520247,143.400943 C371.452165,144.783019 371.442722,147.806604 369.681546,150.103774 C369.487959,150.358491 368.902474,150.665094 368.515299,150.476415 C367.948701,150.198113 367.703175,149.712264 367.070474,148.801887 C366.475546,147.938679 366.022268,148.561321 365.403732,149.268868 C364.988227,149.268868 364.690763,149.59434 364.369691,149.915094 C363.803093,150.485849 364.256371,150.792453 364.686041,151.433962 C365.134598,152.099057 364.690763,152.099057 364.959897,152.45283 C364.879629,152.721698 364.794639,152.825472 364.719093,152.948113 C364.497175,153.306604 363.921134,153.216981 363.496186,153.146226 C362.320495,152.948113 362.589629,153.033019 361.555588,152.537736 C360.261856,151.924528 359.64332,150.240566 358.651773,149.712264 C358.340144,149.542453 357.339155,149.358491 356.574247,149.863208 C355.993485,150.25 355.75268,151.084906 356.243732,151.528302 C357.074742,152.278302 357.721608,153.179245 358.614,153.849057 C359.818021,154.754717 361.121196,155.410377 361.291175,156.679245 C361.498928,158.292453 359.119216,158.872642 357.995464,158.037736 C357.414701,157.599057 356.730062,157.09434 356.092639,156.448113 C355.988763,156.339623 355.899052,155.811321 355.776289,155.716981 C355.256907,155.325472 354.666701,154.872642 354.402289,154.471698 C353.897072,153.716981 353.226598,152.910377 352.31532,152.561321 C352.11701,152.485849 351.918701,152.169811 351.77233,151.915094 C351.356825,151.179245 351.814825,150.325472 351.503196,149.65566 C351.252948,149.108491 351.139629,148.207547 350.34167,148.561321 C349.633423,149.268868 349.718412,149.268868 348.906289,149.198113 C347.886412,149.108491 348.703258,147.198113 348.717423,147.45283 C348.717423,147.556604 348.660763,147.410377 349.014887,146.787736 C348.301918,146.561321 347.225381,145.985849 348.05167,144.933962 C348.745753,144.04717 349.435113,145.349057 349.685361,144.825472 C349.784515,144.622642 350.388887,143.504717 350.620247,143.363208 C351.404041,142.896226 351.649567,143.523585 351.758165,143.693396 C351.404041,144.665094 352.442804,145.306604 353.410742,144.783019 C353.509897,144.726415 353.457959,143.981132 353.566557,143.801887 C354.473113,142.226415 355.870722,141.40566 357.306103,140.316038 C357.428866,140.216981 357.844371,140.113208 357.886866,140.028302 C358.302371,139.174528 358.793423,137.933962 357.896309,137.551887 C357.140845,137.231132 355.587423,137.518868 355.899052,136.188679 C356.045423,135.551887 356.885876,135.316038 357.334433,135.103774 C359.020062,134.311321 360.748186,133.537736 362.509361,132.849057 C362.924866,132.683962 363.652,132.04717 364.185546,132.004717 C366.376392,131.820755 365.880619,131.872642 368.586124,132.353774 C369.053567,132.433962 369.969567,132.933962 370.432289,133.103774 C371.86767,133.603774 373.916866,133.433962 374.870639,131.886792 C375.800804,130.367925 375.536392,127.811321 374.596784,126.023585 C373.463588,123.867925 371.735464,122.009434 370.248144,120.528302 C368.335876,118.617925 365.871175,117.646226 365.380124,115.028302 C364.780474,111.834906 362.296887,107.589623 360.880392,105.056604 C359.402515,102.438679 358.108784,100.693396 356.224845,98.2688679 C355.799897,97.7122642 353.047175,94.9245283 352.579732,94.4669811 C349.454,91.4245283 348.127216,90.4198113 344.784289,89.2169811 C343.079773,88.6037736 336.436412,89.004717 332.984887,88.5613208 C331.898907,88.4245283 328.555979,88.3396226 327.658866,86.5707547 C326.837299,84.9528302 325.803258,82.6650943 324.094021,81.5849057 C323.470763,81.1933962 322.507546,80.7830189 321.851237,80.4528302 C318.753835,78.8820755 315.528948,76.2641509 312.148247,76.4009434 C310.920619,76.4528302 312.119918,77.7783019 312.426825,77.9433962 C313.933031,78.740566 314.646,79.6273585 315.472289,80.6037736 C316.341072,81.6179245 318.239175,81.6556604 319.863423,82.3254717 C321.412124,82.9669811 322.696412,83.9575472 324.136515,84.7122642 C325.505794,85.4292453 327.323629,87.7924528 325.822144,88.754717 C324.457588,89.6367925 323.012763,88.5754717 321.199649,89.0235849 C320.845526,89.1084906 320.316701,89.3584906 318.187237,89.3584906 C315.396742,89.7358491 314.442969,88.4056604 312.294619,86.8820755 C310.146268,85.3490566 308.795876,82.9858491 306.713629,81.5235849 C304.154495,79.7311321 301.595361,78.240566 298.677381,77.2216981 C298.035237,77 297.18534,77.3537736 296.628186,77.0471698 C295.603588,76.4811321 294.848124,75.2830189 293.60633,75.1886792 C291.439093,75.0235849 291.439093,74.8490566 289.281299,75.1933962 C288.988557,75.240566 288.185876,76.1415094 287.916742,76.1320755 C286.656062,76.0849057 285.182907,75.740566 284.554928,76.4433962 C283.544495,77.5660377 284.76268,77.4339623 286.028082,78.0377358 C286.741052,78.3726415 288.233093,79.1745283 289.097155,79.1603774 C292.676165,79.0943396 294.970887,79.0613208 297.766103,80.5896226 C298.07301,80.754717 299.333691,81.995283 299.409237,82.4575472 C296.736784,82.4056604 292.525072,81.3584906 289.451278,81.6084906 C294.630928,81.1933962 284.177196,81.75 281.877753,81.6603774 C281.216722,81.6320755 281.202557,83.0330189 282.264928,83.8160377 C282.543505,84.0141509 284.125258,83.7264151 284.351897,84.2264151 C285.286784,83.740566 287.921464,83.9811321 288.705258,84.2641509 C290.032041,84.75 289.271856,84.5377358 290.442825,85.1462264 C291.165237,85.5235849 291.826268,86.0377358 292.666722,85.9386792 C293.743258,85.8113208 293.828247,84.2216981 294.909505,84.7358491 C295.273072,84.9103774 296.099361,85.4056604 296.278784,85.4056604 C302.421649,85.2877358 302.553856,87.2075472 305.42934,87.1745283 C306.180082,87.1650943 307.284948,86.8820755 307.790165,87.2311321 C308.951691,88.0330189 310.03767,88.1179245 311.808289,87.4103774 C311.808289,87.4103774 315.883072,98.3867925 314.820701,118.382075 C313.75833,126.877358 313.229505,128.471698 311.279464,135.372642 C311.279464,135.372642 308.441753,146.349057 309.508845,153.957547 C310.566495,179.622642 302.775773,200.858491 294.272082,215.018868 C291.080247,218.910377 289.309629,221.033019 292.496742,223.867925 C299.229814,230.061321 304.721093,231.476415 314.287155,233.599057 C317.653691,234.660377 319.783155,235.014151 322.970268,235.014151 C327.928,235.014151 335.728165,237.136792 339.269402,239.792453 C342.631216,241.566038 351.668454,244.929245 357.164454,244.042453 C361.942763,244.396226 363.363979,244.745283 365.663423,245.632075 C367.25934,246.339623 368.855258,246.339623 370.625876,245.811321 C372.127361,244.745283 371.423835,245.188679 373.369155,243.773585 C373.723278,242.891509 376.291856,241.740566 375.763031,238.20283 C375.58833,235.551887 374.521237,232.801887 373.992412,230.325472 C372.46732,228.136792 372.575918,226.518868 373.109464,224.221698 C374.70066,221.033019 376.56099,219.438679 377.533649,217.84434 C379.658392,215.457547 378.42132,213.778302 375.493897,212.981132 C374.082124,212.363208 371.338845,212.627358 368.501134,212.363208 C366.994928,212.363208 365.753134,211.740566 363.628392,212.183962 C363.628392,212.183962 362.211897,213.15566 361.413938,213.867925 L360.351567,213.25 C360.351567,213.25 361.324227,210.415094 363.363979,208.735849 C365.403732,209.089623 368.364206,209.320755 369.917629,208.910377 C371.759072,208.080189 373.869649,207.740566 375.408907,207.141509 C378.067196,206.872642 379.304268,207.051887 382.496103,207.226415 C382.496103,207.226415 384.092021,200.325472 378.511031,195.108491 C377.179526,193.863208 376.117155,192.273585 374.167113,192.188679 C367.434041,192.981132 363.713381,190.240566 362.655732,189.528302 C360.970103,189.443396 360.441278,190.150943 359.553608,191.212264 C357.249443,195.108491 354.506165,196.433962 354.506165,196.433962 L353.084948,196.254717 C353.084948,196.254717 354.326742,194.132075 357.164454,190.59434 C358.401526,187.759434 360.172144,184.216981 361.768062,182.448113 C362.740722,180.768868 363.009856,176.962264 365.403732,175.90566 C366.551093,175.90566 366.730515,175.636792 367.613464,176.165094 C365.842845,177.853774 360.885113,183.867925 366.022268,187.580189 C368.14701,189.353774 371.338845,189.353774 372.127361,187.495283 C372.523979,186.476415 373.369155,185.811321 373.81299,185.462264 C376.471278,184.929245 378.685732,186.254717 379.573402,186.962264 C381.698144,189.443396 382.939938,190.59434 384.002309,191.122642 C385.14967,192.009434 387.274412,191.834906 388.341505,191.834906 C391.797753,191.212264 393.658082,189.268868 394.276619,188.023585" id="Fill-8" fill="#4B292B"></path>
                <path d="M357.263608,146.504717 C358.316536,147.056604 358.755649,146.877358 360.93233,147.193396 C360.93233,147.193396 362.830433,147.495283 364.558557,145.990566 C364.827691,145.754717 366.28668,145.018868 366.239464,144.433962 C366.050598,141.75 366.466103,146.20283 365.927835,142.150943 C365.819237,141.292453 365.842845,140.509434 365.51233,139.589623 C365.342351,139.122642 364.605773,138.292453 363.505629,138.679245 C363.297876,138.754717 361.546144,140.179245 361.503649,140.25 C360.526268,142.099057 359.029505,142.325472 358.363753,143.570755 C357.778268,144.665094 357.424144,144.929245 357.112515,145.636792 C356.975588,145.943396 356.83866,146.278302 357.263608,146.504717" id="Fill-9" fill="#4B292B"></path>
                <path d="M373.553299,173.179245 C376.608206,172.179245 378.067196,173.599057 381.443175,175.886792 C382.023938,176.283019 382.496103,177.320755 381.660371,177.882075 C381.372351,178.075472 380.730206,178.028302 380.555505,177.853774 C377.604474,175.033019 376.650701,175.018868 373.430536,174.448113 C373.284165,174.419811 372.778948,173.433962 373.553299,173.179245" id="Fill-10" fill="#0A0B09"></path>
                <path d="M355.478825,204.306604 C355.030268,205.683962 354.558103,206.919811 353.972619,208.240566 C353.368247,209.617925 353.651546,211.306604 352.71666,212.54717 C352.305876,213.09434 351.167959,212.886792 351.002701,212.240566 C350.384165,209.820755 350.686351,207.268868 351.847876,205.061321 C352.452247,203.910377 354.000948,203.34434 355.299402,203.778302 C355.171918,204.061321 355.596866,204.207547 355.478825,204.485849 C355.478825,204.429245 355.478825,204.367925 355.478825,204.306604" id="Fill-11" fill="#0A0B09"></path>
                <path d="M325.010021,188.023585 C323.999588,187.70283 323.466041,186.754717 323.588804,185.726415 C323.928763,185.830189 323.650186,185.34434 323.942928,185.363208 C326.06767,185.509434 328.046041,186.34434 330.147175,186.386792 C332.569381,186.443396 334.991588,185.985849 337.196598,184.943396 C339.92099,183.650943 342.286536,182.254717 344.911773,180.509434 C346.087464,179.726415 347.773093,179.268868 349.232082,178.938679 C351.526804,178.424528 351.37099,177.136792 353.084948,176.132075 C355.568536,174.665094 355.393835,173.599057 356.796165,174.150943 C357.192784,174.306604 356.385381,175.188679 355.955711,175.584906 C355.03499,176.433962 353.788474,177.287736 352.919691,178.778302 C352.740268,179.080189 351.427649,180.481132 351.153794,180.679245 C348.306639,182.806604 347.65033,184.650943 345.525588,187.259434 C344.326289,188.726415 343.920227,190.665094 343.117546,192.386792 C342.64066,193.400943 342.343196,194.448113 341.719938,195.382075 C341.455526,195.773585 340.497031,195.589623 340.161794,195.910377 C338.391175,197.613208 336.710268,199.231132 335.397649,201.438679 C335.185175,201.79717 334.42499,201.773585 334.335278,201.59434 C333.178474,199.410377 331.610887,197.768868 328.910103,197.693396 C328.428495,197.679245 327.918557,196.599057 327.946887,195.632075 C327.951608,195.429245 327.729691,195.033019 327.474722,194.985849 C327.073381,194.90566 326.884515,194.514151 326.431237,194.490566 C325.977959,194.466981 325.614392,193.759434 325.519959,193.462264 C324.981691,191.745283 325.184722,189.839623 324.830598,188.023585 C324.891979,188.023585 324.948639,188.023585 325.010021,188.023585" id="Fill-12" fill="#0A0B09"></path>
                <path d="M285.749505,237.150943 C285.291505,235.382075 282.420742,235.537736 280.385711,235.75 C277.264701,236.080189 274.431711,236.608491 271.414577,238.20283 C273.411835,235.20283 275.848206,235.014151 280.489588,233.240566 C281.551959,232.834906 281.29699,230.976415 280.617072,229.886792 C279.833278,228.641509 278.827567,228.580189 278.430948,228.5 C274.606412,227.759434 273.36934,228.641509 271.357918,229.160377 C264.32266,230.966981 257.42433,236.254717 253.590351,241.330189 C252.476041,242.811321 252.839608,244.367925 253.075691,244.693396 C253.779216,245.660377 254.893526,248.330189 255.195711,248.009434 C258.042866,244.929245 261.499113,242.09434 265.219773,242.976415 C263.623856,243.514151 258.042866,246.339623 256.272247,250.438679 C256.163649,250.693396 256.980495,252.183962 258.042866,252.981132 C259.459361,255.367925 259.992907,256.339623 260.786144,256.783019 C261.300804,256.740566 262.334845,255.70283 262.618144,255.259434 C266.546557,250.056604 270.441918,246.877358 281.249773,245.457547 C284.351897,244.929245 286.122515,244.042453 286.386928,241.207547 C286.386928,241.207547 287.005464,239.792453 285.76367,236.962264" id="Fill-13" fill="#FFFFFE"></path>
                <path d="M272.835794,253.59434 C273.010495,256.254717 272.62332,257.45283 273.378784,259.179245 C274.101196,260.825472 275.60268,262.245283 276.174,263.929245 C276.617835,265.221698 278.147649,266.872642 278.147649,267.754717 C278.860619,268.466981 278.955052,269.09434 278.959773,269.099057 C279.89466,270.320755 282.675711,271.816038 281.703052,272.542453 C280.541526,273.419811 277.09,272.801887 275.007753,272.457547 C272.340021,272.018868 273.888722,274.443396 274.464763,274.688679 C277.17499,275.806604 282.874021,276.188679 284.743794,277.216981 C285.867546,277.839623 287.340701,278.783019 287.827031,279.896226 C288.185876,280.721698 288.828021,281.443396 289.37101,282.169811 C291.169959,284.570755 291.807381,285.622642 293.66299,287.146226 C294.593155,287.900943 295.674412,289.198113 295.339175,290.358491 C294.947278,291.716981 294.09266,292.004717 292.789485,291.825472 C292.364536,291.768868 291.080247,291.382075 289.843175,290.853774 C287.359588,290.056604 286.826041,289.150943 285.064866,290.056604 C284.087485,290.556604 285.499258,292.188679 286.585237,292.768868 C291.047196,295.141509 296.396825,295.188679 300.712412,297.693396 C304.418907,299.84434 306.671134,302.448113 306.45866,307.957547 C306.45866,308.056604 307.790165,308.801887 307.870433,308.674528 C309.154722,306.693396 312.341835,309.15566 313.890536,308.669811 C314.027464,308.627358 314.088845,307.79717 313.862206,307.448113 C313.120907,306.334906 311.534433,306.278302 310.863959,305.20283 C310.15099,304.070755 311.185031,302.830189 310.826186,301.839623 C310.457897,300.825472 308.743938,302.580189 308.101794,301.915094 C305.259361,298.966981 303.403753,295.471698 299.583938,293.773585 C301.179856,289.349057 301.892825,284.391509 301.533979,282.089623 C300.471608,281.207547 300.027773,282.622642 299.763361,282.801887 C298.885134,283.632075 299.229814,285.45283 298.205216,286.84434 C298.039959,287.075472 296.67068,286.79717 296.274062,286.45283 C293.66299,284.231132 291.240784,281.599057 290.022598,278.443396 C289.975381,278.325472 289.451278,277.674528 289.337959,277.518868 C287.416247,274.839623 287.53901,271.09434 289.762907,268.396226 C290.003711,268.113208 290.353113,266.45283 290.117031,266.264151 C289.744021,265.966981 288.846907,266.59434 288.488062,266.962264 C287.274598,268.198113 286.245278,270.669811 284.186639,270.45283 C281.877753,270.207547 280.994804,267.877358 279.568866,266.34434 C279.125031,264.834906 278.279856,263.867925 278.501773,263.688679 C276.556454,260.853774 276.377031,258.551887 274.587526,255.018868 C274.181464,254.216981 273.614866,253.830189 272.835794,253.59434" id="Fill-14" fill="#FFFFFE"></path>
                <path d="M286.301938,301.382075 C288.610825,302.556604 285.947814,299.877358 285.947814,299.877358 C285.060144,299.259434 282.982619,296.037736 282.55767,295.287736 C281.589732,293.556604 280.843711,292.231132 280.272392,290.853774 C279.389443,288.731132 277.670763,287.231132 274.804722,284.466981 C273.374062,283.089623 271.154887,280.632075 270.253052,278.853774 C268.850722,276.075472 268.052763,271.117925 264.69567,268.778302 C262.103485,266.976415 262.740907,264.924528 260.483959,261.433962 C259.619897,260.09434 257.877608,259.948113 256.588598,258.641509 C253.344825,255.367925 255.403464,254.108491 252.556309,251.108491 C251.314515,249.792453 250.776247,249.528302 249.69499,247.533019 C248.297381,244.962264 249.364474,241.589623 246.970598,240.40566 C244.845856,239.349057 243.207443,238.971698 241.743732,238.490566 C239.534,237.759434 235.964433,235.924528 233.95301,234.363208 C231.847155,232.726415 227.517402,229.122642 222.876021,225.103774 C225.713732,246.877358 221.818371,265.457547 200.197938,284.924528 C240.237526,277.490566 257.778454,286.867925 286.301938,301.382075" id="Fill-15" fill="#4B292B"></path>
                <path d="M301.439546,273.599057 C301.557588,275.377358 302.171402,275.051887 303.158227,277.518868 C303.644557,278.726415 305.037443,280.891509 305.769299,281.495283 C309.862969,284.924528 312.695959,290.231132 312.407938,295.70283 C312.606247,298.377358 312.752619,298.198113 315.368412,300.070755 C315.816969,300.386792 316.057773,300.410377 317.47899,301.735849 C318.012536,302.179245 321.818186,306.254717 322.351732,306.693396 C322.262021,305.099057 322.512268,302.400943 322.48866,301.551887 C322.238412,293.20283 323.857938,284.570755 321.020227,277.278302 C318.895485,271.806604 314.107732,265.660377 312.237959,259.948113 L311.303072,256.830189 C310.311526,252.386792 310.217093,247.759434 310.217093,247.759434 L304.296144,244.933962 C299.640598,243.056604 294.361794,241.358491 289.668474,239.617925 C289.668474,242.09434 290.022598,243.863208 288.157546,246.339623 C289.39934,249.349057 290.461711,255.985849 291.878206,257.580189 C294.98033,260.5 297.459196,262.801887 299.494227,269.792453 C299.938062,271.471698 301.354557,272.358491 301.439546,273.599057" id="Fill-16" fill="#4B292B"></path>
                <path d="M229.434392,85.1132075 C229.434392,85.1132075 225.888433,84.754717 217.564165,91.1273585 C208.352227,96.7924528 196.127876,104.933962 187.270062,115.731132 C180.801402,122.188679 171.679175,132.014151 168.312639,138.915094 C168.312639,138.915094 162.821361,147.584906 159.275402,161.745283 C159.275402,161.745283 160.517196,166.34434 164.063155,160.330189 C170.257959,149.811321 193.823711,114.40566 227.484351,88.5613208 L229.080268,88.4764151 C212.412845,102.801887 190.811299,122.099057 169.818845,154.929245 C169.039773,156.15566 168.019897,158.320755 167.925464,158.490566 C166.985856,160.240566 169.393897,160.514151 168.175711,160.216981 C170.083258,160.683962 170.796227,158.028302 172.023856,157.5 C172.784041,157.174528 173.090948,159.443396 174.304412,158.858491 C178.586948,156.787736 181.778784,152.363208 183.549402,149.712264 C183.639113,150.466981 184.611773,152.721698 184.611773,152.721698 C186.561814,153.25 192.581918,144.929245 195.773753,139.268868 C196.656701,140.330189 195.551835,142.924528 196.732247,141.811321 C200.377361,138.377358 203.616412,134.693396 205.55701,131.334906 C207.81868,127.410377 210.297546,125.641509 211.185216,118.740566 C212.601711,119.622642 212.573381,120.009434 212.960557,120.330189 C213.843505,119.268868 213.904887,118.160377 215.321381,116.570755 C216.855918,114.84434 217.162825,113.5 219.027876,112.268868 C219.688907,111.834906 221.162062,109.070755 221.454804,107.622642 C221.733381,106.25 224.788289,101.801887 225.000763,100.330189 C227.484351,95.7311321 231.733835,93.25 234.746247,89.7122642 C237.579237,87.2358491 235.454495,82.8113208 229.434392,85.1132075" id="Fill-17" fill="#FFFFFE"></path>
                <path d="M198.252619,223.334906 C199.494412,224.75 200.556784,222.891509 200.556784,222.891509 C202.591814,219.792453 203.035649,218.995283 204.456866,214.84434 C205.339814,212.099057 206.402186,211.122642 207.285134,199.617925 C209.768722,203.334906 210.122845,210.415094 210.122845,210.415094 L210.831093,210.235849 C210.831093,210.235849 213.135258,203.688679 217.030619,201.566038 C217.030619,201.566038 217.384742,197.141509 221.280103,192.716981 C220.751278,190.061321 220.397155,187.938679 219.863608,183.688679 C218.272412,176.608491 217.384742,164.75 218.98066,156.613208 C222.172495,173.599057 224.028103,176.080189 224.028103,176.080189 L224.741072,176.34434 C226.067856,174.311321 226.421979,170.768868 226.771381,167.584906 C228.367299,160.858491 231.20501,161.570755 231.20501,160.150943 C230.31734,154.665094 228.900845,145.995283 229.788515,138.561321 C231.559134,146.698113 232.442082,146.169811 233.683876,149.179245 C235.279794,152.896226 235.454495,148.292453 235.454495,148.292453 C235.100371,143.518868 238.466907,138.735849 235.279794,127.589623 C234.038,119.976415 230.492041,103.693396 231.913258,99.9764151 C232.800928,95.3726415 231.20501,96.9669811 231.20501,96.9669811 C231.20501,96.9669811 226.59668,98.0330189 219.688907,117.5 C209.594021,149.886792 200.910907,184.400943 191.524268,212.363208 C194.352536,197.669811 209.414598,145.816038 213.843505,127.056604 C213.843505,127.056604 213.220247,125.731132 212.247588,127.231132 C211.095505,128.561321 209.943423,130.240566 209.324887,131.391509 C209.414598,131.316038 208.796062,131.481132 208.083093,131.834906 L205.873361,135.198113 C205.873361,135.198113 201.439732,141.391509 189.305093,153.957547 C187.270062,157.141509 186.391835,158.613208 184.167938,163.693396 C183.369979,165.54717 184.611773,165.816038 185.938557,164.75 C189.215381,161.570755 189.394804,161.570755 193.908701,158.117925 C194.111732,157.962264 197.756845,156.65566 197.756845,156.59434 C197.190247,157.320755 196.430062,157.801887 196.127876,158.084906 C194.886082,159.264151 191.81701,162.721698 190.976557,164.179245 C188.922639,167.735849 186.665691,172.15566 183.709938,177.514151 C180.003443,184.216981 177.170454,192.009434 177.170454,192.009434 C175.220412,197.495283 175.753959,198.023585 175.753959,198.023585 C178.412247,199.089623 176.962701,200.433962 176.962701,200.433962 C175.753959,202.627358 175.220412,204.396226 177.260165,203.603774 C178.586948,203.334906 179.299918,202.650943 179.847629,201.971698 C180.891113,200.683962 181.778784,199.79717 182.491753,198.90566 C183.68633,197.424528 183.464412,196.981132 184.734536,195.509434 C186.387113,193.603774 187.444763,192.009434 189.130392,191.212264 C186.207691,195.193396 186.028268,198.023585 186.028268,198.023585 L186.736515,198.915094 L187.270062,199.264151 C187.270062,199.264151 184.257649,202.981132 182.841155,211.40566 C182.165959,215.400943 182.307608,215.900943 181.684351,218.113208 C181.986536,217.825472 183.724103,218.113208 185.291691,216.533019 C184.611773,218.995283 184.474845,220.240566 184.474845,220.240566 C184.167938,222.273585 184.167938,221.919811 184.167938,224.221698 C184.167938,226.349057 184.167938,225.462264 184.876186,227.933962 C188.063299,226.518868 188.771546,226.698113 191.774515,223.165094 C193.205175,221.830189 194.286433,218.59434 194.70666,218.820755 C195.504619,219.179245 194.838866,220.976415 194.484742,221.778302 C194.003134,222.891509 193.568742,223.716981 193.384598,224.518868 C193.290165,224.924528 192.888825,225.528302 193.535691,226.084906 C193.81899,226.325472 193.62068,226.292453 194.531959,226.268868 C195.060784,226.259434 195.556557,225.438679 195.556557,225.438679 C195.556557,225.438679 195.858742,225.367925 196.127876,224.75 C196.349794,224.231132 196.746412,223.95283 197.100536,223.688679 C197.100536,223.688679 197.629361,223.15566 198.252619,223.334906" id="Fill-18" fill="#FFFFFE"></path>
                <path d="M93.9088866,138.561321 C88.0587629,146.877358 83.8092784,159.976415 81.6845361,169.353774 C84.3381031,167.938679 84.5175258,168.113208 87.0011134,167.231132 C87.8840619,162.806604 94.8673814,137.193396 93.9088866,138.561321 Z M128.277773,427.042453 C131.885113,435.693396 132.347835,444.033019 129.160722,460.136792 C125.619485,456.773585 125.440062,453.764151 122.781773,452.169811 C122.432371,461.372642 122.078247,464.207547 120.307629,468.278302 C116.582247,475.533019 115.519876,479.25 115.345175,486.325472 C109.140928,481.193396 107.54501,474.117925 103.295526,470.04717 C100.283113,467.033019 94.2630103,461.372642 92.138268,457.65566 C91.7841443,462.084906 92.138268,463.679245 90.3676495,467.924528 C88.9417113,463.018868 88.771732,461.551887 85.4051959,457.481132 C80.971567,451.287736 71.0561031,437.481132 68.7519381,422.79717 C68.2183918,420.316038 66.8018969,413.056604 65.210701,403.150943 C63.9689072,406.509434 61.8441649,409.165094 59.714701,409.693396 C58.6523299,410.226415 58.6523299,408.811321 58.6523299,408.811321 C59.5352784,405.627358 59.8941237,402.084906 59.5352784,399.429245 C59.0064536,395.537736 57.9440825,386.863208 55.9940412,384.740566 L55.1110928,384.740566 C55.2857938,390.580189 52.9863505,393.235849 51.565134,395.183962 C51.390433,390.580189 51.565134,387.037736 50.5027629,384.740566 C49.9739381,383.146226 48.7321443,381.731132 48.3780206,383.325472 C47.4950722,387.929245 47.1362268,388.811321 47.1362268,393.061321 C46.7821031,399.429245 46.7821031,401.556604 46.0738557,406.867925 C45.7244536,410.759434 44.4826598,415.533019 40.936701,420.316038 C40.2331753,416.070755 37.5701649,412.707547 37.5701649,412.707547 C37.5701649,417.839623 38.6372577,425.448113 35.4454227,429.518868 C31.5500619,434.825472 31.0165155,437.481132 29.7794433,441.377358 C29.2411753,436.773585 27.8294021,438.188679 27.116433,435.712264 C24.2881649,447.75 15.4303505,456.95283 12.2385155,459.075472 C14.3632577,454.117925 16.1338763,448.45283 16.488,444.915094 C16.488,444.915094 15.9591753,431.820755 14.009134,424.382075 C9.15527835,401.226415 6.81334021,347.726415 10.4678969,327.400943 C19.2643299,254.981132 56.7164536,188.504717 88.4648247,128.650943 L84.5175258,128.650943 L84.5175258,114.665094 L88.771732,114.665094 L94.5274227,101.75 L98.3377938,104.669811 L106.218227,80.6886792 L109.674474,98.2971698 L124.731814,86.5235849 L112.507464,114.316038 L116.70501,114.316038 C116.034536,115.773585 115.35934,117.221698 114.726639,118.70283 L88.946433,118.740566 L88.946433,124.419811 L112.436639,124.419811 C111.903093,125.806604 111.426206,127.240566 110.925711,128.650943 L102.530619,128.650943 L109.400619,133.084906 C108.952062,134.457547 108.527113,135.84434 108.111608,137.235849 L105.047258,135.245283 C103.786577,140.896226 99.7354021,160.254717 100.641959,171.65566 C111.449814,182.099057 119.419959,192.188679 118.178165,214.84434 C118.178165,214.84434 118.886412,215.367925 114.278082,213.95283 C116.582247,216.433962 117.295216,218.382075 119.240536,222.627358 C120.123485,229.528302 120.657031,235.721698 120.123485,242.09434 C120.123485,242.09434 120.657031,257.849057 121.190577,262.801887 C123.31532,263.509434 122.078247,269.169811 122.252948,276.603774 C122.252948,276.603774 122.078247,281.207547 121.365278,284.75 C116.941093,281.207547 117.295216,281.386792 116.053423,281.735849 C117.115794,285.278302 117.824041,285.278302 119.948784,288.113208 C119.948784,309.174528 120.657031,330.938679 122.078247,340.495283 C122.781773,347.396226 124.023567,355.363208 124.557113,357.839623 C125.619485,361.028302 125.619485,363.858491 128.806598,370.584906 C127.744227,370.584906 124.779031,370.665094 122.781773,368.108491 C125.619485,373.415094 125.619485,372.353774 127.390103,374.122642 L129.868969,392.533019 L127.035979,395.712264 L130.93134,398.193396 C130.93134,398.193396 130.048392,406.509434 131.110763,414.122642 C131.644309,417.665094 132.701959,421.20283 135.185546,426.15566 C130.048392,426.334906 129.160722,422.084906 129.160722,422.084906 C127.744227,420.490566 125.260639,416.95283 124.557113,416.95283 C124.20299,422.084906 127.035979,424.028302 128.277773,427.042453 L128.277773,427.042453 Z" id="Fill-19" fill="#0A0B09"></path>
                <path d="M52.6322268,354.693396 C52.3017113,347.09434 51.1968454,340.028302 50.5027629,335.188679 C49.7567423,333.240566 50.5027629,332.886792 51.565134,332.533019 C51.8153814,332.334906 55.8193402,327.400943 55.8193402,324.740566 C52.4528041,327.04717 51.565134,327.575472 48.3780206,329.698113 C48.0238969,322.089623 44.6573608,310.056604 40.936701,300.674528 C44.8320619,304.216981 47.3156495,308.287736 48.5527216,311.646226 C49.9739381,303.863208 50.5027629,299.259434 50.6774639,295.542453 C48.7321443,288.636792 45.0114845,273.599057 45.3656082,262.443396 C47.6697732,270.589623 49.7945155,279.438679 52.0986804,284.75 C53.1610515,280.853774 54.044,273.95283 55.4652165,268.113208 C57.4105361,266.693396 59.714701,265.278302 60.4229485,264.037736 C59.714701,262.801887 56.7070103,265.103774 56.1734639,265.278302 C56.5275876,259.792453 57.4105361,249.174528 53.6898763,231.830189 L54.2234227,231.29717 C55.8193402,232.004717 57.7646598,235.193396 58.4776289,238.556604 C61.6694639,234.839623 63.7942062,216.433962 64.6771546,209.174528 C61.3106186,209.174528 59.714701,212.891509 57.4105361,212.537736 C57.7646598,210.235849 57.9440825,211.301887 58.8317526,209.174528 C59.714701,206.698113 61.8441649,204.221698 62.7271134,200.858491 C64.6771546,198.023585 64.6771546,194.665094 64.8518557,191.476415 C64.8518557,188.471698 64.497732,184.042453 66.9813196,180.150943 C67.5101443,181.740566 67.1560206,182.806604 68.3930928,186.169811 C68.3930928,186.169811 73.3555464,175.372642 76.0138351,172.896226 C79.5597938,157.495283 88.0587629,140.15566 96.0336289,128.825472 L92.3129691,128.825472 C87.8840619,134.84434 57.4105361,192.188679 54.4028454,202.627358 C31.0165155,249.5 15.9591753,296.226415 13.0836907,342.367925 C13.2631134,343.95283 13.2772784,342.966981 14.0516289,344.292453 C14.7551546,345.5 14.3632577,347.09434 14.8920825,348.462264 C15.3642474,347.867925 16.2330309,347.59434 16.313299,346.688679 C16.9837732,349.443396 14.9817938,352.066038 15.9591753,354.830189 C17.0357113,353.853774 18.6457938,353.641509 19.5004124,352.353774 C19.4154227,353.448113 19.1226804,354.5 18.966866,355.566038 C18.6930103,357.415094 19.4343093,359.264151 19.6467835,361.188679 C19.9206392,363.622642 22.9377732,365.45283 22.078433,367.834906 C20.6808247,371.712264 19.9300825,375.84434 21.1954845,379.514151 C21.4598969,380.278302 21.8470722,381.566038 22.7394639,381.981132 C23.4288247,382.301887 24.4439794,382.311321 25.1144536,381.976415 C25.4685773,381.801887 25.7754845,381.207547 25.8604742,380.669811 C26.1201649,378.962264 25.3599794,377.377358 25.6668866,375.740566 C26.0587835,373.617925 26.4270722,371.490566 27.7774639,369.792453 C28.0465979,369.45283 29.0806392,369.561321 29.3214433,370.099057 C30.2091134,372.080189 29.8549897,374.476415 31.0259588,376.301887 C31.427299,376.924528 32.8343505,377.367925 33.5756495,376.674528 C35.2282268,375.136792 34.6238557,372.721698 34.8363299,370.731132 C35.185732,367.410377 33.6275876,365.627358 33.1931959,362.25 C32.787134,359.080189 33.3726186,358.608491 34.3830515,357.311321 C35.440701,360.278302 35.4501443,363.5 37.5984948,366.136792 C38.0517732,366.688679 38.8969485,366.707547 39.2510722,366.40566 C40.8139381,365.070755 40.4881443,362.160377 39.3596701,360.278302 C37.636268,357.40566 36.2386598,352.853774 39.3407835,350.231132 C39.1519175,351.669811 39.1708041,353.325472 39.9121031,354.40566 C40.936701,355.891509 42.8442474,358.957547 43.1228247,361.886792 C43.2172577,362.948113 44.7234639,363.358491 45.6394639,362.528302 C45.8094433,362.372642 45.6064124,361.683962 46.083299,361.622642 C47.5753402,361.419811 48.2741443,363.179245 48.1985979,364.391509 C48.7935258,364.391509 49.5773196,364.589623 49.8700619,364.287736 C51.3007216,362.820755 50.9465979,359.325472 51.0410309,357.311321 C51.215732,353.59434 52.0136907,355.042453 52.6322268,354.693396" id="Fill-20" fill="#FFFFFE"></path>
                <path d="M116.941093,371.924528 C117.909031,372.882075 120.439835,371.589623 121.185856,372.660377 C121.077258,372.04717 120.912,371.448113 120.48233,370.933962 C113.923959,363.150943 107.724433,355.004717 108.083278,348.816038 C112.507464,355.188679 116.228124,359.080189 119.769361,361.556604 L119.948784,360.316038 C117.469918,344.386792 117.469918,337.311321 116.143134,322.179245 C112.15334,318.995283 103.474948,309.433962 105.066144,301.29717 C107.988845,306.957547 111.449814,311.292453 114.632206,313.240566 L115.963711,314.212264 C115.699299,311.471698 116.053423,295.278302 116.053423,290.410377 C113.923959,287.400943 111.26567,283.863208 109.410062,280.320755 C107.724433,276.778302 105.689402,273.330189 100.81666,267.495283 C96.7418763,261.386792 90.3676495,255.985849 90.3676495,255.985849 C90.3676495,255.985849 91.6,256.160377 92.2232577,256.160377 C94.173299,256.783019 96.4774639,257.580189 99.844,259.966981 C101.170784,260.5 102.941402,262.981132 106.133237,265.900943 C108.257979,267.933962 108.437402,269.438679 109.584763,270.056604 C111.449814,271.830189 113.923959,273.95283 116.402825,275.721698 L117.115794,275.721698 C117.644619,277.84434 117.380206,262.537736 117.380206,262.537736 C114.632206,258.198113 112.686887,252.981132 110.382722,247.051887 C110.028598,244.929245 111.624515,248.377358 114.632206,249.877358 C115.519876,246.783019 113.923959,231.122642 113.749258,220.325472 C112.861588,216.962264 100.372825,199.617925 99.7542887,195.283019 C104.003773,202.183962 109.674474,203.070755 111.799216,205.816038 C112.332763,206.254717 112.422474,206.429245 113.036289,206.169811 C112.686887,188.292453 104.716742,179.622642 97.2754227,173.25 C96.2083299,156.787736 101.699608,133.25 101.699608,133.25 L98.6871959,131.306604 C84.8716495,188.646226 78.492701,222.627358 77.0762062,265.103774 C75.5133402,308.834906 79.6070103,351.957547 90.0607423,392.400943 C90.5187423,393.90566 91.0003505,395.495283 91.4772371,397.099057 C91.8549691,397.580189 92.3035258,398.099057 92.9456701,397.773585 C93.6633608,397.415094 93.8286186,396.54717 93.9372165,395.858491 C94.3763299,392.966981 94.6596289,390.136792 96.0100206,387.665094 C96.1186186,387.462264 96.6663299,386.915094 96.9354639,386.584906 C97.9128454,385.382075 98.2433608,383.872642 98.5219381,382.259434 C98.5880412,381.863208 98.9232784,381.504717 99.2207423,381.235849 C100.094247,380.45283 101.052742,381.599057 101.56268,382.311321 C102.450351,383.542453 102.015959,385.179245 102.809196,386.433962 C104.886722,389.721698 107.162557,392.457547 109.773629,395.198113 C110.43466,395.891509 111.548969,396.70283 112.800206,396.367925 C113.159052,396.273585 113.508454,395.924528 113.61233,395.665094 C114.112825,394.349057 113.04101,393.20283 112.455526,392.066038 C111.624515,390.433962 110.146639,388.462264 111.095691,386.806604 C111.35066,386.358491 112.649113,387.693396 113.21099,387.080189 C113.763423,386.476415 113.895629,385.334906 113.64066,384.386792 C113.347918,383.268868 112.814371,382.264151 112.337485,381.235849 C110.623526,377.542453 108.635711,374.09434 107.398639,370.183962 C107.233381,369.650943 107.011464,369.051887 107.138948,368.438679 C107.781093,369.825472 109.277856,370.759434 110.014433,372.061321 C110.203299,372.391509 110.585753,372.679245 110.793505,372.962264 C111.662289,374.15566 113.324309,374.660377 113.900351,375.943396 C114.717196,377.754717 114.792742,381.462264 117.375485,380.976415 C118.211216,380.820755 119.528557,380.056604 118.976124,378.721698 C118.555897,377.688679 118.286763,376.575472 117.536021,375.75 C116.856103,375.009434 115.840948,374.551887 115.38767,373.698113 C114.603876,372.221698 114.018392,370.462264 114.759691,368.792453 C114.924948,370.216981 116.025093,371.023585 116.941093,371.924528" id="Fill-21" fill="#FFFFFE"></path>
                <path d="M65.116268,389.490566 C66.5516495,383.382075 67.8406598,377.759434 71.1977526,372.349057 C71.5471546,371.792453 72.1231959,371.509434 72.5953608,371.099057 C72.8833814,374.537736 72.4489897,378.037736 74.5690103,381.165094 C75.5369485,382.589623 76.9770515,382.259434 78.4407629,382.245283 C79.3945361,385.537736 81.7695258,387.990566 82.6241443,391.424528 C82.7752371,392.028302 83.5684742,392.537736 84.2672784,392.278302 C85.5326804,391.787736 86.6942062,391.216981 87.4118969,389.990566 C87.4543918,389.924528 87.5157732,389.839623 87.5771546,389.75 C76.028,351.70283 73.1430722,300.273585 74.9514639,256.608491 C77.0762062,224.386792 79.5692371,200.816038 86.6469897,171.830189 C86.6469897,171.830189 84.3381031,172.716981 83.1010309,173.25 C80.6174433,174.485849 79.5597938,175.726415 76.9015052,179.089623 C75.839134,181.391509 74.4226392,182.448113 73.5349691,185.108491 C70.343134,191.476415 69.8143093,196.433962 68.2183918,201.033019 L69.2807629,200.858491 C72.6520206,196.254717 78.143299,192.188679 79.3850928,190.943396 L81.1557113,190.061321 C78.6721237,196.433962 75.3055876,198.023585 71.9390515,203.863208 C67.3023918,213.490566 62.8970928,249.207547 60.7770722,259.084906 L62.9018144,258.377358 C64.3230309,257.669811 66.6224742,255.188679 73.5349691,252.712264 C77.0762062,249.877358 61.8441649,265.806604 59.8941237,271.033019 C57.9440825,284.924528 55.1110928,307.580189 54.6672577,317.754717 L55.4652165,317.665094 C56.5275876,316.957547 64.941567,306.783019 68.2183918,305.632075 L69.3704742,304.566038 C67.595134,307.226415 61.6694639,318.726415 60.6023711,322.443396 C59.3700206,326.132075 57.7646598,329.877358 56.3528866,333.240566 C55.8193402,334.301887 55.2857938,335.099057 55.6399175,336.424528 C55.6399175,343.683962 56.3528866,350.584906 57.061134,354.122642 L57.9440825,355.363208 C58.6523299,353.419811 62.1982887,349.877358 64.3230309,348.816038 L64.497732,349.877358 C62.5524124,354.476415 60.0735464,358.726415 59.1858763,361.028302 C59.1858763,369.877358 60.2482474,380.674528 62.1982887,389.34434 C62.3777113,390.617925 63.9689072,390.400943 64.6771546,389.872642 L65.116268,389.490566" id="Fill-22" fill="#FFFFFE"></path>
                <path d="M123.881918,431.004717 C121.403052,425.34434 117.328268,417.551887 120.161258,406.051887 C121.931876,410.117925 123.17367,409.943396 126.011381,410.650943 C126.540206,406.40566 125.827237,400.391509 126.011381,399.679245 C124.944289,397.731132 122.465423,395.433962 122.465423,395.433962 L125.123711,390.301887 C126.365505,385.165094 123.881918,381.099057 124.14633,380.29717 C122.819546,377.382075 121.898825,374.872642 121.351113,372.943396 C120.893113,371.325472 117.984577,372.962264 116.941093,371.924528 C116.025093,371.023585 114.924948,370.216981 114.759691,368.792453 C114.018392,370.462264 114.603876,372.221698 115.38767,373.698113 C115.840948,374.551887 116.856103,375.009434 117.536021,375.75 C118.286763,376.575472 118.555897,377.688679 118.976124,378.721698 C119.528557,380.056604 118.211216,380.820755 117.375485,380.976415 C114.792742,381.462264 114.717196,377.754717 113.900351,375.943396 C113.324309,374.660377 111.662289,374.15566 110.793505,372.962264 C110.585753,372.679245 110.203299,372.391509 110.014433,372.061321 C109.277856,370.759434 107.781093,369.825472 107.138948,368.438679 C107.011464,369.051887 107.233381,369.650943 107.398639,370.183962 C108.635711,374.09434 110.623526,377.542453 112.337485,381.235849 C112.814371,382.264151 113.347918,383.268868 113.64066,384.386792 C113.895629,385.334906 113.763423,386.476415 113.21099,387.080189 C112.649113,387.693396 111.35066,386.358491 111.095691,386.806604 C110.146639,388.462264 111.624515,390.433962 112.455526,392.066038 C113.04101,393.20283 114.112825,394.349057 113.61233,395.665094 C113.508454,395.924528 113.159052,396.273585 112.800206,396.367925 C111.548969,396.70283 110.43466,395.891509 109.773629,395.198113 C107.162557,392.457547 104.886722,389.721698 102.809196,386.433962 C102.015959,385.179245 102.450351,383.542453 101.56268,382.311321 C101.052742,381.599057 100.094247,380.45283 99.2207423,381.235849 C98.9232784,381.504717 98.5880412,381.863208 98.5219381,382.259434 C98.2433608,383.872642 97.9128454,385.382075 96.9354639,386.584906 C96.6663299,386.915094 96.1186186,387.462264 96.0100206,387.665094 C94.6596289,390.136792 94.3763299,392.966981 93.9372165,395.858491 C93.8286186,396.54717 93.6633608,397.415094 92.9456701,397.773585 C92.3035258,398.099057 91.8549691,397.580189 91.4772371,397.099057 C91.7983093,398.179245 92.1146598,399.245283 92.4168454,400.292453 C92.4546186,400.415094 92.4923918,400.54717 92.5301649,400.674528 C92.8134639,401.665094 93.0778763,402.613208 93.3234021,403.514151 C93.3611753,403.669811 93.4036701,403.816038 93.4414433,403.966981 C93.6775258,404.839623 93.8805567,405.641509 94.0410928,406.349057 C94.064701,406.45283 94.0835876,406.542453 94.1024742,406.646226 C94.2630103,407.353774 94.3857732,407.990566 94.4377113,408.457547 C94.1874639,407.981132 93.9277732,407.400943 93.6491959,406.754717 C93.5594845,406.533019 93.4556082,406.278302 93.3611753,406.042453 C93.1723093,405.580189 92.9834433,405.108491 92.785134,404.589623 C92.6718144,404.278302 92.5537732,403.943396 92.4310103,403.613208 C92.3082474,403.278302 92.1807629,402.924528 92.058,402.566038 C90.4526392,398.471698 88.9369897,394.235849 87.5771546,389.75 C87.5157732,389.839623 87.4543918,389.924528 87.4118969,389.990566 C86.6942062,391.216981 85.5326804,391.787736 84.2672784,392.278302 C83.5684742,392.537736 82.7752371,392.028302 82.6241443,391.424528 C81.7695258,387.990566 79.3945361,385.537736 78.4407629,382.245283 C76.9770515,382.259434 75.5369485,382.589623 74.5690103,381.165094 C72.4489897,378.037736 72.8833814,374.537736 72.5953608,371.099057 C72.1231959,371.509434 71.5471546,371.792453 71.1977526,372.349057 C67.8406598,377.759434 66.5516495,383.382075 65.116268,389.490566 C64.8235258,390.726415 64.6535464,391.179245 64.2663711,392.334906 C63.4684124,394.721698 64.7102062,395.080189 65.952,393.485849 C68.1286804,390.688679 67.6801237,392.995283 67.9020412,393.660377 C68.430866,397.731132 70.5556082,401.801887 71.4432784,408.70283 C72.1515258,415.429245 73.5680206,422.15566 74.276268,425.518868 C76.1554845,436.566038 83.4929278,447.816038 87.9171134,450.613208 C87.3882887,446.009434 88.9842062,444.278302 88.6253608,440.735849 L89.5130309,440.561321 C89.687732,446.759434 94.2960619,454.716981 99.6126392,459.146226 C103.862124,464.099057 106.166289,465.160377 109.745299,470.29717 C110.80767,472.066038 111.657567,472.877358 112.545237,474.29717 C114.490557,470.29717 118.036515,463.216981 118.036515,455.429245 C118.036515,449.457547 117.861814,442.683962 116.265897,437.372642 C119.45301,438.792453 122.998969,443.924528 125.652536,448.353774 C127.248454,444.985849 126.365505,435.603774 123.881918,431.004717" id="Fill-23" fill="#F2AF2B"></path>
                <path d="M13.1214639,342.353774 C13.3008866,343.943396 13.2772784,342.966981 14.0516289,344.292453 C14.7551546,345.5 14.3632577,347.09434 14.8920825,348.462264 C15.3642474,347.867925 16.2330309,347.59434 16.313299,346.688679 C16.9837732,349.443396 14.9817938,352.066038 15.9591753,354.830189 C17.0357113,353.853774 18.6457938,353.641509 19.5004124,352.353774 C19.4154227,353.448113 19.1226804,354.5 18.966866,355.566038 C18.6930103,357.415094 19.4343093,359.264151 19.6467835,361.188679 C19.9206392,363.622642 22.9377732,365.45283 22.078433,367.834906 C20.6808247,371.712264 19.9300825,375.84434 21.1954845,379.514151 C21.4598969,380.278302 21.8470722,381.566038 22.7394639,381.981132 C23.4288247,382.301887 24.4439794,382.311321 25.1144536,381.976415 C25.4685773,381.801887 25.7754845,381.207547 25.8604742,380.669811 C26.1201649,378.962264 25.3599794,377.377358 25.6668866,375.740566 C26.0587835,373.617925 26.4270722,371.490566 27.7774639,369.792453 C28.0465979,369.45283 29.0806392,369.561321 29.3214433,370.099057 C30.2091134,372.080189 29.8549897,374.476415 31.0259588,376.301887 C31.427299,376.924528 32.8343505,377.367925 33.5756495,376.674528 C35.2282268,375.136792 34.6238557,372.721698 34.8363299,370.731132 C35.185732,367.410377 33.6275876,365.627358 33.1931959,362.25 C32.787134,359.080189 33.3726186,358.608491 34.3830515,357.311321 C35.440701,360.278302 35.4501443,363.5 37.5984948,366.136792 C38.0517732,366.688679 38.8969485,366.707547 39.2510722,366.40566 C40.8139381,365.070755 40.4881443,362.160377 39.3596701,360.278302 C37.636268,357.40566 36.2386598,352.853774 39.3407835,350.231132 C39.1519175,351.669811 39.1708041,353.325472 39.9121031,354.40566 C40.936701,355.891509 42.8442474,358.957547 43.1228247,361.886792 C43.2172577,362.948113 44.7234639,363.358491 45.6394639,362.528302 C45.8094433,362.372642 45.6064124,361.683962 46.083299,361.622642 C47.5753402,361.419811 48.2741443,363.179245 48.1985979,364.391509 C48.7935258,364.391509 49.5773196,364.589623 49.8700619,364.287736 C51.3007216,362.820755 50.9465979,359.325472 51.0410309,357.311321 C51.215732,353.59434 52.0986804,355.004717 52.7172165,354.65566 C52.7172165,354.65566 52.9863505,356.424528 52.6322268,361.556604 C53.1610515,367.929245 52.4528041,376.245283 50.6774639,378.193396 C49.0909897,376.603774 48.9068454,375.183962 46.7821031,374.650943 C41.1161237,377.311321 41.4702474,401.556604 41.8196495,405.273585 C41.7346598,406.15566 40.4078763,405.273585 40.4078763,405.273585 C37.2160412,402.084906 35.7995464,398.193396 34.9165979,396.070755 C34.9165979,396.070755 33.6748041,394.650943 33.6748041,396.070755 C32.0788866,401.198113 32.6077113,415.183962 33.3206804,418.54717 C34.0289278,422.613208 33.4953814,424.915094 31.5500619,428.811321 C31.1912165,429.872642 30.4829691,430.051887 30.4829691,428.636792 C30.308268,427.042453 29.2411753,426.334906 28.7123505,424.740566 C28.7123505,424.740566 27.4705567,422.438679 27.116433,424.740566 C26.0587835,430.754717 22.6922474,438.014151 21.4504536,440.311321 L20.5627835,440.84434 C20.9216289,435.183962 19.1510103,426.334906 17.9092165,419.783019 C15.0715052,402.792453 12.2385155,386.863208 12.2385155,363.679245 C12.2385155,353.235849 12.8051134,342 12.8051134,342 L13.1214639,342.353774" id="Fill-24" fill="#F2AF2B"></path>
                <polyline id="Fill-25" fill="#FFFFFE" points="110.562144 102.896226 111.449814 107.056604 116.053423 98.1179245 110.562144 102.896226"></polyline>
                <polyline id="Fill-26" fill="#FFFFFE" points="93.7341856 114.40566 96.2083299 108.29717 103.295526 114.40566 93.7341856 114.40566"></polyline>
                <polyline id="Fill-27" fill="#FFFFFE" points="101.879031 107.674528 105.160577 95.995283 107.460021 112.457547 101.879031 107.674528"></polyline>
                <path d="M281.943856,85.9245283 C281.400866,85.3396226 279.49332,85.6415094 279.153361,84.8349057 C278.922,84.2924528 278.652866,83.6462264 278.317629,83.3773585 C277.727423,82.9103774 276.910577,83.5518868 276.098454,83.6745283 C274.988866,83.8490566 273.841505,83.6132075 272.746082,83.254717 C270.833814,85.4386792 265.762763,83.995283 263.368887,84.1603774 C263.076144,84.1745283 264.875093,85.1981132 265.196165,85.4764151 C266.881794,86.9056604 269.639237,86.7783019 271.688433,86.8490566 C272.018948,86.8584906 272.694144,86.509434 272.953835,86.4764151 C275.154124,86.1745283 277.344969,86.9198113 279.658577,87.3254717 C280.385711,87.4575472 282.661546,86.6981132 281.943856,85.9245283" id="Fill-28" fill="#FFFFFE"></path>
                <path d="M316.369402,89.004717 L311.104763,85.995283 C310.797856,85.4764151 310.387072,84.8537736 309.881856,84.3867925 C308.701443,83.3066038 308.078186,82.0235849 306.718351,81.1650943 C304.905237,80.0188679 303.413196,78.5188679 301.439546,77.7924528 C301.227072,77.7169811 300.972103,77.8018868 300.740742,77.75 C300.599093,77.7122642 300.514103,77.5849057 300.56132,77.4150943 C300.381897,77.4150943 300.141093,77.4764151 300.060825,77.3820755 C299.782247,77.0801887 299.362021,76.9009434 299.107052,76.8207547 C298.082454,76.4858491 296.902041,77.0896226 296.000206,76.2971698 C295.471381,75.8301887 294.871732,75.5660377 294.305134,75.2028302 C292.728103,74.1886792 290.94332,74.8066038 289.243526,75.0707547 C288.91301,75.1226415 288.421959,75.5660377 288.058392,75.8773585 C287.416247,76.4198113 286.377485,75.4292453 285.527588,75.7122642 C284.79101,75.9575472 283.978887,76.8160377 284.677691,77.5283019 C285.433155,78.2924528 286.453031,78.8113208 287.482351,79.0707547 C290.537258,79.8396226 293.729093,79.0896226 296.614021,80.3584906 C297.435588,80.7216981 298.450742,81.1367925 298.785979,82.1933962 C298.497959,82.259434 298.191052,82.5235849 297.931361,82.3349057 C297.227835,81.8301887 296.448763,81.8349057 295.768845,81.7830189 C290.91499,81.3867925 286.080021,80.990566 281.249773,81.6603774 C281.245052,82.8915094 281.745546,84.1933962 282.864577,84.3490566 C284.36134,84.5471698 285.985588,84.0801887 287.430412,84.1839623 C289.012165,84.3066038 290.678907,85.3254717 292.26066,86.2169811 C292.487299,86.3490566 292.850866,86.3301887 293.105835,86.2264151 C293.814082,85.9245283 294.427897,84.9056604 295.211691,85.2783019 C295.688577,85.504717 296.193794,85.7169811 296.713175,85.8018868 C297.81332,85.995283 298.611278,85.7924528 299.668928,85.9481132 C301.902268,86.2830189 303.800371,87.7783019 306.02899,87.4528302 C307.681567,87.2075472 308.441753,87.7688679 309.26332,88.5141509 C308.795876,88.0943396 312.318227,90.6084906 312.634577,89.990566 C312.75734,89.745283 316.317464,89.5471698 316.369402,89.004717" id="Fill-29" fill="#FFFFFE"></path>
                <path d="M329.18868,87.9245283 C327.767464,87.0141509 327.602206,85.25 326.832577,83.9339623 C326.242371,82.9198113 325.472742,82.1132075 324.547299,81.6367925 C320.382804,79.4811321 315.528948,75.7311321 312.426825,76.0235849 C311.449443,76.1084906 311.052825,77.1556604 311.609979,77.6981132 C312.677072,78.740566 314.565732,79.0896226 314.73099,80.7783019 C318.88132,82.8443396 326.157381,84.2264151 325.822144,88.754717 C325.789093,89.1933962 328.480433,87.8254717 329.18868,87.9245283" id="Fill-30" fill="#FFFFFE"></path>
                <path d="M35.3037732,340.669811 C35.4218144,341.179245 36.2339381,340.863208 35.7995464,341.382075 C36.8666392,341.382075 37.9667835,341.580189 38.9583299,341.278302 C39.4493814,341.132075 39.8035052,340.358491 39.8837732,339.933962 C40.1812371,338.443396 40.8989278,336.570755 39.5721443,335.523585 C38.391732,334.584906 38.6042062,333.080189 37.7779175,332.349057 C37.4001856,332.009434 36.5833402,331.792453 36.0309072,331.235849 C35.6106804,330.825472 34.8741031,331.759434 34.8788247,332.179245 C34.8977113,333.339623 35.6578969,334.514151 35.643732,335.759434 C35.6248454,337.665094 34.7371753,338.193396 35.3037732,340.669811" id="Fill-31" fill="#F2AF2B"></path>
                <path d="M22.5175464,324.391509 C22.3947835,322.349057 21.7195876,319.45283 24.7839381,320.264151 C25.7471546,320.523585 25.9643505,321.95283 25.9832371,322.627358 C26.0351753,324.485849 26.4601237,325.981132 27.2486392,327.599057 C27.6924742,328.518868 26.9322887,329.301887 26.469567,329.976415 C25.2797113,331.716981 22.8480619,332.712264 21.4504536,330.976415 C20.6052784,329.924528 19.5759588,328.363208 20.340866,326.933962 C20.9452371,325.79717 21.4126804,325.183962 22.3334021,324.212264" id="Fill-32" fill="#F2AF2B"></path>
                <path d="M25.5866186,345.476415 C23.9718144,343.160377 24.7272784,341.023585 26.6159381,339.646226 C27.7963505,338.778302 29.2411753,339.353774 29.5716907,340.386792 C30.2421649,342.5 31.0684536,344.273585 31.7247629,346.391509 C32.3905155,348.551887 29.6661237,350.65566 27.7444124,349.693396 C26.3704124,349 26.4648454,346.740566 25.5866186,345.476415" id="Fill-33" fill="#F2AF2B"></path>
                <path d="M27.2391959,353.872642 C26.4648454,353.622642 26.389299,354.29717 26.0068454,354.622642 C25.2183299,355.306604 25.2088866,356.75 24.5148041,357.688679 C23.2210722,359.433962 23.6035258,361.896226 24.1134639,363.570755 C24.462866,364.712264 26.1721031,366.377358 27.6310928,366.25 C29.9116495,366.056604 31.6208866,361.787736 29.8691546,360.764151 C27.5885979,359.429245 28.3912784,356.014151 27.5508247,354.169811 C27.4894433,354.033019 26.941732,354.122642 26.5876082,354.122642" id="Fill-34" fill="#F2AF2B"></path>
                <path d="M41.8574227,349.495283 C41.2577732,348.712264 41.2436082,347.665094 41.9140825,347.165094 C42.5373402,346.707547 43.604433,346.924528 44.2418557,347.471698 C44.4212784,347.622642 45.072866,348.042453 45.2522887,348.183962 C47.1645567,349.693396 48.3213608,351.726415 47.3014845,354.037736 C47.0087423,354.698113 45.8897113,355.311321 45.0964742,354.721698 C44.4779381,354.254717 43.6233196,354.231132 43.1936495,353.438679 C42.513732,352.169811 42.7923093,350.721698 41.8574227,349.495283" id="Fill-35" fill="#F2AF2B"></path>
                <path d="M20.9216289,335.188679 C20.5675052,334.056604 19.613732,334.613208 19.0849072,335.438679 C17.8289485,337.377358 17.2009691,339.259434 17.0215464,342.089623 C17.3756701,343.683962 19.6609485,343.981132 20.7752577,343.278302 C23.3155052,341.688679 21.4929485,335.59434 21.3701856,336.433962 C21.4504536,335.896226 20.9216289,335.070755 20.9216289,335.188679" id="Fill-36" fill="#F2AF2B"></path>
                <path d="M70.1920412,352.70283 C69.6632165,352.311321 68.8227629,352.70283 68.7613814,353.339623 C68.5772371,355.165094 68.5441856,358.599057 71.3110722,358.04717 C72.2884536,357.853774 72.9353196,356.84434 72.7039588,355.811321 C72.3781649,354.353774 71.2874639,353.523585 70.1920412,352.70283" id="Fill-37" fill="#F2AF2B"></path>
                <path d="M76.8070722,359.174528 C76.1460412,358.504717 74.9420206,358.599057 74.4604124,358.971698 C73.4405361,359.759434 73.0675258,361.410377 73.4263711,362.665094 C73.818268,364.018868 74.2809897,365.481132 75.2914227,366.533019 C75.9382887,367.20283 77.2839588,367.985849 77.6380825,367.495283 C78.4738144,366.334906 79.2528866,364.75 78.8751546,363.075472 C78.5399175,361.580189 77.8552784,360.25 76.8070722,359.174528" id="Fill-38" fill="#F2AF2B"></path>
                <path d="M102.143443,357.042453 C101.64767,357.080189 101.019691,357.15566 100.830825,357.462264 C99.8392784,359.009434 100.911093,360.811321 102.228433,361.476415 C103.616598,362.169811 105.354165,359.84434 104.329567,358.551887 C103.673258,357.735849 102.643938,357.014151 101.435196,357.042453" id="Fill-39" fill="#F2AF2B"></path>
                <path d="M89.9804742,373.325472 C89.4752577,373.066038 88.6725773,371.424528 89.0691959,370.330189 C89.4280412,369.34434 90.5470722,368.95283 91.5102887,369.122642 C92.5868247,369.316038 93.2997938,370.099057 93.9277732,370.90566 C95.5425773,372.981132 95.9958557,376.240566 93.9041649,377.995283 C93.0448247,378.712264 91.505567,378.542453 90.8917526,377.523585 C90.131567,376.25 90.6887216,375.216981 90.0985155,373.858491 C90.2165567,373.858491 89.862433,373.325472 89.9804742,373.325472" id="Fill-40" fill="#F2AF2B"></path>
                <path d="M104.702577,374.466981 C103.257753,373.334906 103.857402,371.075472 102.266206,370.051887 C101.378536,369.476415 100.193402,369.330189 99.3671134,370.033019 C98.5030515,370.768868 98.5077732,371.867925 98.2905773,372.981132 C98.1725361,373.617925 98.5691546,374.174528 98.8382887,374.712264 C100.013979,377.099057 102.837526,377.169811 105.051979,378.514151 C105.34,378.688679 105.920763,378.080189 106.137959,377.70283 C106.808433,376.514151 105.698845,375.254717 104.702577,374.466981" id="Fill-41" fill="#F2AF2B"></path>
                <path d="M81.2643093,372.245283 C80.5088454,371.334906 79.2292784,371.641509 78.4549278,372.160377 C78.1905155,372.34434 77.9355464,372.792453 77.9308247,373.150943 C77.9166598,375.448113 77.1517526,377.816038 77.9922062,380.009434 C78.492701,381.325472 79.6683918,382.919811 81.1887629,382.240566 C82.265299,381.759434 82.9452165,380.448113 82.5769278,379.188679 C81.9064536,376.853774 82.898,374.216981 81.2643093,372.245283" id="Fill-42" fill="#F2AF2B"></path>
                <path d="M90.7123299,344.514151 C90.320433,343.410377 89.2533402,342.603774 89.8246598,341.514151 C89.9851959,341.212264 90.5801237,341.287736 91.0003505,341.174528 C92.2704742,340.830189 93.7530722,341.033019 94.5840825,341.933962 C95.2356701,342.632075 95.6795052,343.471698 96.2272165,344.349057 C96.7938144,345.259434 96.9165773,346.330189 97.2943093,347.334906 C97.6956495,348.429245 97.2470928,349.65566 96.3877526,350.169811 C95.3914845,350.768868 94.9712577,351.292453 93.4981031,350.646226 C92.9456701,350.400943 92.6009897,349.207547 92.3507423,348.754717 C92.0013402,348.141509 92.0343918,346.40566 91.5811134,345.84434 C91.1750515,345.34434 90.9484124,345.179245 90.7123299,344.514151" id="Fill-43" fill="#F2AF2B"></path>
                <path d="M89.7538351,350.481132 C89.3383299,350.080189 88.7622887,350.084906 88.3184536,350.061321 C88.1012577,350.04717 87.478,350.103774 87.5016082,350.490566 C87.6479794,352.641509 85.1549485,353.641509 84.4089278,355.34434 C83.639299,357.084906 85.1974433,358.740566 86.481732,359.933962 C87.5063299,360.886792 89.1400206,360.231132 90.3959794,359.853774 C92.4498969,359.231132 92.7095876,356.34434 92.232701,354.429245 C91.8644124,352.943396 90.9342474,351.636792 89.7538351,350.481132" id="Fill-44" fill="#F2AF2B"></path>
            </g>
        </g>
    </g>
</svg>